<svg width="20" height="20" viewBox="0 0 20 20" fill="none" xmlns="http://www.w3.org/2000/svg">
<g clip-path="url(#clip0_1433_1562)">
<path d="M10.3401 10.8094C10.3707 10.276 10.6321 9.80538 11.0267 9.47204C11.4408 9.1281 11.9631 8.94157 12.5014 8.94538C13.0681 8.94538 13.5887 9.14538 13.9754 9.47204C14.3701 9.80538 14.6307 10.276 14.6607 10.8087C14.6907 11.3574 14.4707 11.866 14.0841 12.244C13.6582 12.6508 13.0903 12.8752 12.5014 12.8694C11.9121 12.8752 11.3438 12.6509 10.9174 12.244C10.5307 11.866 10.3101 11.3574 10.3401 10.8094ZM6.90006 11.8874C6.90406 12.0967 6.97073 12.502 7.07073 12.8194C7.28661 13.5021 7.64906 14.1294 8.13273 14.6574C8.65143 15.2277 9.28452 15.6822 9.99073 15.9914C10.7593 16.3302 11.5908 16.5028 12.4307 16.498C13.2705 16.4997 14.1013 16.3243 14.8687 15.9834C15.5744 15.6713 16.2069 15.2148 16.7254 14.6434C17.2083 14.1136 17.5704 13.4854 17.7867 12.802C17.9948 12.14 18.0517 11.4397 17.9534 10.7527C17.8598 10.0946 17.629 9.46338 17.2761 8.90004C16.9491 8.37601 16.5309 7.91474 16.0414 7.53804H16.0427L11.0441 3.70004L11.0307 3.69004C10.7027 3.43804 10.1514 3.43938 9.79073 3.69138C9.42606 3.94604 9.38473 4.36804 9.70873 4.63471L9.70806 4.63538L11.7921 6.33071L5.43873 6.33738H5.43006C4.90473 6.33804 4.40006 6.68271 4.30006 7.11871C4.19739 7.56204 4.55339 7.93004 5.10006 7.93204V7.93338L8.32006 7.92671L2.57339 12.338L2.55073 12.3547C2.00873 12.7694 1.83406 13.46 2.17539 13.8967C2.52206 14.3414 3.25873 14.342 3.80673 13.8994L6.94273 11.3334C6.94273 11.3334 6.89606 11.68 6.90006 11.8874ZM14.9601 13.048C14.3134 13.7067 13.4094 14.08 12.4301 14.0814C11.4501 14.084 10.5454 13.7134 9.89873 13.056C9.59338 12.7495 9.35779 12.3807 9.20806 11.9747C9.07083 11.5928 9.01662 11.186 9.04904 10.7814C9.08146 10.3769 9.19976 9.98392 9.39606 9.62871C9.59134 9.2776 9.8523 8.9673 10.1647 8.71471C10.7927 8.20271 11.5921 7.92604 12.4287 7.92471C13.2661 7.92338 14.0654 8.19804 14.6941 8.70804C15.0141 8.96871 15.2741 9.27738 15.4621 9.61938C15.6567 9.96983 15.7752 10.3574 15.8101 10.7567C15.8454 11.166 15.791 11.578 15.6507 11.964C15.501 12.3706 15.265 12.7403 14.9601 13.048Z" fill="#E87D0D" fill-opacity="0.4"/>
<path d="M10.3401 10.8094C10.3708 10.276 10.6321 9.80537 11.0268 9.47204C11.4409 9.1281 11.9632 8.94156 12.5014 8.94537C13.0681 8.94537 13.5888 9.14537 13.9754 9.47204C14.3701 9.80537 14.6308 10.276 14.6608 10.8087C14.6908 11.3574 14.4708 11.866 14.0841 12.244C13.6582 12.6508 13.0903 12.8752 12.5014 12.8694C11.9121 12.8752 11.3438 12.6509 10.9174 12.244C10.5308 11.866 10.3101 11.3574 10.3401 10.8094Z" fill="#E87D0D" fill-opacity="0.6"/>
</g>
<defs>
<clipPath id="clip0_1433_1562">
<rect width="16" height="16" fill="white" transform="translate(2 2)"/>
</clipPath>
</defs>
</svg>
