<svg width="20" height="20" viewBox="0 0 20 20" fill="none" xmlns="http://www.w3.org/2000/svg">
<path d="M6.312 15.14C5.63067 15.14 5.03333 15.014 4.52 14.762C4.00667 14.5007 3.60533 14.1413 3.316 13.684C3.036 13.2173 2.896 12.676 2.896 12.06V7.72C2.896 7.09467 3.036 6.55333 3.316 6.096C3.60533 5.63867 4.00667 5.284 4.52 5.032C5.03333 4.77067 5.63067 4.64 6.312 4.64C7.00267 4.64 7.6 4.77067 8.104 5.032C8.61733 5.284 9.014 5.63867 9.294 6.096C9.58333 6.55333 9.728 7.09467 9.728 7.72H7.628C7.628 7.30933 7.51133 6.99667 7.278 6.782C7.054 6.56733 6.732 6.46 6.312 6.46C5.892 6.46 5.56533 6.56733 5.332 6.782C5.108 6.99667 4.996 7.30933 4.996 7.72V12.06C4.996 12.4613 5.108 12.774 5.332 12.998C5.56533 13.2127 5.892 13.32 6.312 13.32C6.732 13.32 7.054 13.2127 7.278 12.998C7.51133 12.774 7.628 12.4613 7.628 12.06H9.728C9.728 12.676 9.58333 13.2173 9.294 13.684C9.014 14.1413 8.61733 14.5007 8.104 14.762C7.6 15.014 7.00267 15.14 6.312 15.14ZM11.4165 15L11.8365 12.55H10.8845V11.15H12.0745L12.4805 8.63H11.3745V7.23H12.7185L13.1525 4.78H14.5525L14.1185 7.23H15.9385L16.3725 4.78H17.7725L17.3385 7.23H18.3045V8.63H17.1005L16.6945 11.15H17.8145V12.55H16.4565L16.0365 15H14.6365L15.0565 12.55H13.2365L12.8165 15H11.4165ZM13.4745 11.15H15.2945L15.7005 8.63H13.8805L13.4745 11.15Z" fill="#9629BE"/>
</svg>
