<svg width="20" height="20" viewBox="0 0 20 20" fill="none" xmlns="http://www.w3.org/2000/svg">
<g clip-path="url(#clip0_1436_1596)">
<path d="M9.945 14.62H9.8427H8.835H8.405V13.325H8.835H9.945H9.95516C10.0033 13.5505 10.083 13.7609 10.204 13.9423L10.2102 13.9517L10.2168 13.9607C10.4136 14.2291 10.6866 14.4451 11.0099 14.62H10.4165H10.35H9.945ZM9.89548 16.6959C9.98937 16.5989 10.0717 16.493 10.1421 16.3795C10.1996 16.4831 10.2667 16.5811 10.3443 16.6723C10.7085 17.1 11.2381 17.3 11.865 17.3C12.4657 17.3 12.9981 17.1107 13.3782 16.7118C13.4511 16.6354 13.5162 16.5535 13.5738 16.4668C13.6181 16.5365 13.6672 16.6033 13.7214 16.6669C14.0868 17.0954 14.6194 17.3 15.255 17.3C15.8552 17.3 16.3887 17.1109 16.7675 16.7105C17.1429 16.3139 17.3081 15.7715 17.3 15.1763C17.2995 14.6902 17.1954 14.2537 16.9758 13.8911C16.8386 13.6529 16.6186 13.4661 16.4097 13.325H16.74H17.2478L17.2399 12.8173C17.2314 12.2638 17.0995 11.7258 16.7649 11.3175C16.4171 10.8931 15.906 10.6759 15.289 10.675C14.7036 10.6665 14.1869 10.8678 13.8197 11.2509C13.7197 11.3552 13.6337 11.4699 13.5617 11.593C13.5089 11.4966 13.4479 11.4049 13.378 11.319C13.0332 10.8949 12.526 10.676 11.914 10.675C11.3282 10.6665 10.8124 10.8681 10.444 11.2496C10.34 11.3573 10.2508 11.4762 10.1764 11.6041C10.0999 11.4662 10.0067 11.3401 9.89598 11.2289C9.50206 10.8257 8.90362 10.6819 8.38641 10.6863C7.8681 10.6906 7.28412 10.8444 6.89149 11.212C6.47439 11.5883 6.295 12.1307 6.295 12.735V15.2514C6.2868 15.8543 6.46443 16.3848 6.85337 16.7629C7.2388 17.1376 7.76682 17.2993 8.33623 17.3C8.9469 17.3084 9.50167 17.1027 9.89548 16.6959ZM13.0244 13.325H13.3452C13.3756 13.4677 13.4187 13.6044 13.477 13.7315C13.3477 13.5684 13.1839 13.4338 13.0244 13.325ZM13.8733 14.62C13.8349 14.4255 13.7743 14.2412 13.6883 14.0697C13.8705 14.2923 14.1126 14.4726 14.3849 14.62H13.8733ZM3.5 15.6V3.5H15.6C16.1039 3.5 16.5872 3.70018 16.9435 4.0565C17.2998 4.41282 17.5 4.89609 17.5 5.4V15.6C17.5 16.1039 17.2998 16.5872 16.9435 16.9435C16.5872 17.2998 16.1039 17.5 15.6 17.5H5.4C4.89609 17.5 4.41282 17.2998 4.0565 16.9435C3.70018 16.5872 3.5 16.1039 3.5 15.6Z" stroke="#663399" stroke-opacity="0.6"/>
<path d="M9.94477 14.6202H9.84247H8.83477H8.40477V13.3252H8.83477H9.94477H9.95493C10.003 13.5506 10.0828 13.761 10.2037 13.9425L10.2099 13.9518L10.2166 13.9608C10.4134 14.2293 10.6864 14.4452 11.0096 14.6202H10.4162H10.3498H9.94477ZM13.378 16.712C13.4508 16.6355 13.5159 16.5536 13.5736 16.4669C13.6179 16.5366 13.6669 16.6035 13.7212 16.667C14.0865 17.0956 14.6191 17.3002 15.2548 17.3002C15.855 17.3002 16.3885 17.111 16.7673 16.7107C17.1427 16.314 17.3079 15.7716 17.2998 15.1764C17.2992 14.6903 17.1951 14.2539 16.9755 13.8912C16.8384 13.653 16.6183 13.4663 16.4094 13.3252H16.7398H17.2475L17.2397 12.8175C17.2312 12.2639 17.0992 11.726 16.7646 11.3176C16.4169 10.8932 15.9057 10.6761 15.2888 10.6752C14.7034 10.6667 14.1866 10.868 13.8195 11.251C13.7195 11.3553 13.6335 11.47 13.5615 11.5932C13.5086 11.4968 13.4476 11.4051 13.3777 11.3191C13.033 10.895 12.5257 10.6761 11.9138 10.6752C11.328 10.6667 10.8122 10.8682 10.4438 11.2497C10.3398 11.3575 10.2506 11.4764 10.1761 11.6042C10.0997 11.4664 10.0065 11.3402 9.89575 11.229C9.50182 10.8259 8.90338 10.6821 8.38617 10.6864C7.86787 10.6908 7.28389 10.8445 6.89125 11.2121C6.47416 11.5884 6.29477 12.1308 6.29477 12.7352V15.2516C6.28657 15.8545 6.4642 16.385 6.85314 16.7631C7.23857 17.1377 7.76659 17.2994 8.336 17.3002C8.94666 17.3085 9.50143 17.1028 9.89524 16.6961C9.98914 16.5991 10.0715 16.4932 10.1419 16.3796C10.1994 16.4833 10.2664 16.5813 10.3441 16.6725C10.7083 17.1001 11.2379 17.3002 11.8648 17.3002C12.4655 17.3002 12.9979 17.1108 13.378 16.712ZM13.3449 13.3252C13.3754 13.4679 13.4185 13.6045 13.4767 13.7317C13.3475 13.5686 13.1837 13.4339 13.0241 13.3252H13.3449ZM13.873 14.6202C13.8347 14.4257 13.774 14.2413 13.6881 14.0699C13.8702 14.2925 14.1124 14.4727 14.3847 14.6202H13.873ZM-0.900146 19.8029V0.600098H19.1C19.6039 0.600098 20.0872 0.800276 20.4435 1.15659C20.7998 1.51291 21 1.99619 21 2.5001V19.8029C21 20.3069 20.7998 20.7901 20.4435 21.1464C20.0872 21.5028 19.6039 21.7029 19.1 21.7029H0.999853C0.495942 21.7029 0.0126698 21.5028 -0.343649 21.1464C-0.699969 20.7901 -0.900146 20.3069 -0.900146 19.8029Z" stroke="#8040BF" stroke-opacity="0.6"/>
</g>
<defs>
<clipPath id="clip0_1436_1596">
<rect width="15" height="15" fill="white" transform="translate(3 3)"/>
</clipPath>
</defs>
</svg>
