<svg width="20" height="20" viewBox="0 0 20 20" fill="none" xmlns="http://www.w3.org/2000/svg">
<g clip-path="url(#clip0_1534_2)">
<path d="M13.7473 2L5.98467 2.00267C5.07133 2.00267 4.14733 2.23267 3.47667 2.74267C3.00702 3.08495 2.63663 3.54574 2.40333 4.078C2.15533 4.62 2 5.34667 2 5.96733L2.008 14.1007C2.00933 15.17 2.32733 16.1387 2.982 16.842C3.638 17.546 4.62333 17.964 5.86933 17.9693L13.2373 18C14.0773 18.0033 15.3007 17.976 16.106 17.524C16.8227 17.1207 17.456 16.4867 17.7707 15.5347C17.956 14.9747 18.0007 14.1453 18 13.4367L17.986 6.01667C17.9847 5.42467 17.886 4.668 17.6213 4.06067C17.338 3.41 16.834 2.85067 16.0733 2.444C15.5687 2.17333 14.748 2 13.7473 2ZM13.7473 2.62C14.666 2.62 15.4393 2.81667 15.774 2.99667C16.4253 3.34533 16.8033 3.774 17.0333 4.30333C17.2433 4.784 17.3467 5.49867 17.3487 6.018L17.3607 13.438C17.362 14.1133 17.296 14.9427 17.162 15.3447C16.898 16.146 16.398 16.642 15.7867 16.986C15.244 17.2907 14.0453 17.3813 13.24 17.378L5.87333 17.3487C4.76867 17.344 3.98533 16.9927 3.456 16.4247C2.928 15.8573 2.648 15.0513 2.648 14.1013L2.666 5.96667C2.666 5.414 2.79667 4.74867 2.982 4.342C3.212 3.83733 3.482 3.53733 3.892 3.226C4.39 2.84667 5.24533 2.64667 6.05333 2.64667L13.7473 2.62ZM9.974 4.902C8.65667 4.96133 7.838 6.00733 7.83133 7.09533C7.844 8.05733 8.92133 9.416 9.754 10.1153C9.834 10.1813 9.85667 10.188 9.974 10.2353C10.0153 10.252 10.106 10.204 10.192 10.1453C10.432 9.982 10.854 9.514 11.2907 8.98667C11.5671 8.64383 11.7982 8.26671 11.978 7.86467C12.2507 7.27133 12.152 6.79867 12.1347 6.606C12.0121 6.18089 11.7852 5.79314 11.4747 5.478C11.0629 5.10695 10.5283 4.90173 9.974 4.902ZM12.7553 10.1833C12.0171 10.2004 11.2866 10.3378 10.5927 10.59C10.4927 10.6287 10.4193 10.6567 10.3433 10.7033C10.3053 10.7273 10.27 10.7933 10.2733 10.898C10.2847 11.1867 10.4667 11.75 10.6893 12.4113C10.9453 13.168 11.4 13.9247 11.9187 14.238C12.1696 14.3886 12.4485 14.4865 12.7385 14.5257C13.0285 14.5649 13.3235 14.5446 13.6053 14.466C14.16 14.304 14.6687 13.8873 14.9133 13.4353C15.5707 12.2233 15.04 11.07 14.166 10.4907C13.868 10.2933 13.4107 10.194 12.906 10.184C12.8567 10.184 12.806 10.1827 12.7553 10.1833ZM7.134 10.2087C6.96641 10.2089 6.79899 10.2194 6.63267 10.24C6.23533 10.292 6.01133 10.422 5.77267 10.58C5.30823 10.8836 4.98147 11.3573 4.86267 11.8993C4.81267 12.2673 4.80533 12.6013 4.88467 12.904C5.17333 13.83 5.76867 14.3853 6.78267 14.5387C7.20667 14.5573 7.696 14.4967 8.10933 14.2387C8.95533 13.7173 9.496 12.1253 9.71733 11.0773C9.75267 10.96 9.74067 10.8393 9.70867 10.7973C9.70533 10.7527 9.67933 10.722 9.582 10.6753C9.31667 10.5473 8.702 10.3973 7.99867 10.2753C7.71285 10.2287 7.42359 10.2064 7.134 10.2087Z" fill="#619BD5" fill-opacity="0.4"/>
<path d="M9.97397 4.90198C8.65663 4.96131 7.83797 6.00731 7.8313 7.09531C7.84397 8.05731 8.9213 9.41598 9.75397 10.1153C9.83397 10.1813 9.85663 10.188 9.97397 10.2353C10.0153 10.252 10.106 10.204 10.192 10.1453C10.432 9.98198 10.854 9.51398 11.2906 8.98664C11.5671 8.64381 11.7981 8.26668 11.978 7.86464C12.2506 7.27131 12.152 6.79864 12.1346 6.60598C12.012 6.18086 11.7852 5.79312 11.4746 5.47798C11.0629 5.10693 10.5282 4.90171 9.97397 4.90198Z" fill="#619BD5" fill-opacity="0.64"/>
<path d="M7.13394 10.2087C6.96635 10.2089 6.79893 10.2194 6.63261 10.24C6.23527 10.292 6.01127 10.422 5.77261 10.58C5.30817 10.8836 4.98141 11.3573 4.86261 11.8993C4.81261 12.2673 4.80527 12.6013 4.88461 12.904C5.17327 13.83 5.76861 14.3853 6.78261 14.5387C7.20661 14.5573 7.69594 14.4967 8.10927 14.2387C8.95527 13.7173 9.49594 12.1253 9.71728 11.0773C9.75261 10.96 9.74061 10.8393 9.70861 10.7973C9.70527 10.7527 9.67927 10.722 9.58194 10.6753C9.31661 10.5473 8.70194 10.3973 7.99861 10.2753C7.71279 10.2287 7.42353 10.2064 7.13394 10.2087Z" fill="#619BD5" fill-opacity="0.4"/>
<path d="M12.7552 10.1833C12.017 10.2004 11.2865 10.3377 10.5925 10.59C10.4925 10.6286 10.4192 10.6566 10.3432 10.7033C10.3052 10.7273 10.2698 10.7933 10.2732 10.898C10.2845 11.1866 10.4665 11.75 10.6892 12.4113C10.9452 13.168 11.3998 13.9246 11.9185 14.238C12.1694 14.3886 12.4484 14.4865 12.7384 14.5257C13.0283 14.5649 13.3233 14.5446 13.6052 14.466C14.1598 14.304 14.6685 13.8873 14.9132 13.4353C15.5705 12.2233 15.0398 11.07 14.1658 10.4906C13.8678 10.2933 13.4105 10.194 12.9058 10.184C12.8565 10.184 12.8058 10.1826 12.7552 10.1833Z" fill="#619BD5" fill-opacity="0.4"/>
</g>
<defs>
<clipPath id="clip0_1534_2">
<rect width="16" height="16" fill="white" transform="translate(2 2)"/>
</clipPath>
</defs>
</svg>
