<svg width="20" height="20" viewBox="0 0 20 20" fill="none" xmlns="http://www.w3.org/2000/svg">
<path d="M12.568 7.98733H12.5033C11.3933 7.98733 10.4907 8.89067 10.4907 10C10.4907 11.1093 11.394 12.0127 12.5033 12.0127H12.5687C13.6787 12.0127 14.5813 11.1093 14.5813 10C14.5813 8.89067 13.6773 7.98733 12.568 7.98733Z" fill="#A259FF" fill-opacity="0.87"/>
<path fill-rule="evenodd" clip-rule="evenodd" d="M9.50965 9.95546C9.50943 9.97028 9.50932 9.98513 9.50932 10C9.50932 10.0152 9.50944 10.0304 9.50966 10.0455L9.50965 9.95546Z" fill="#A259FF" fill-opacity="0.87"/>
<path d="M12.568 7.98733H9.50932V2H12.568C14.2187 2 15.5613 3.34267 15.5613 4.99333C15.5613 6.644 14.2187 7.98733 12.568 7.98733ZM10.49 7.00667H12.568C13.678 7.00667 14.5807 6.10333 14.5807 4.994C14.5807 3.88467 13.6773 2.98133 12.568 2.98133H10.49V7.00667ZM10.49 7.98733H7.43199C5.78132 7.98733 4.43865 6.64467 4.43865 4.994C4.43865 3.34333 5.78132 2 7.43199 2H10.4907L10.49 7.98733ZM7.43199 2.98067C6.32199 2.98067 5.41932 3.884 5.41932 4.99333C5.41932 6.10267 6.32199 7.00667 7.43199 7.00667H9.50999V2.98067H7.43199ZM10.49 12.9933H7.43199C5.78132 12.9933 4.43865 11.6507 4.43865 10C4.43865 8.34933 5.78132 7.00667 7.43199 7.00667H10.49V12.9933ZM7.43199 7.98733C6.32199 7.98733 5.41932 8.89067 5.41932 10C5.41932 11.1093 6.32265 12.0127 7.43199 12.0127H9.50999L9.50932 7.98733H7.43199ZM7.44799 18C5.78865 18 4.43799 16.6573 4.43799 15.0067C4.43799 13.356 5.78132 12.0127 7.43199 12.0127L10.49 12.0133V14.974C10.49 16.6427 9.12532 18 7.44799 18ZM7.43199 12.9933C6.89841 12.994 6.38689 13.2063 6.0096 13.5836C5.6323 13.9609 5.42003 14.4724 5.41932 15.006C5.41932 16.116 6.32932 17.0187 7.44866 17.0187C8.58532 17.0187 9.51065 16.1013 9.51065 14.9733V12.9933H7.43199ZM12.568 12.9933H12.5027C10.852 12.9933 9.50932 11.6507 9.50932 10C9.50932 8.34933 10.852 7.00667 12.5027 7.00667H12.568C14.2187 7.00667 15.5613 8.34933 15.5613 10C15.5613 11.6507 14.2187 12.9933 12.568 12.9933ZM12.5033 7.98733C11.3933 7.98733 10.4907 8.89067 10.4907 10C10.4907 11.1093 11.394 12.0127 12.5033 12.0127H12.5687C13.6787 12.0127 14.5813 11.1093 14.5813 10C14.5813 8.89067 13.6773 7.98733 12.568 7.98733H12.5033Z" fill="#A259FF" fill-opacity="0.4"/>
</svg>
