<svg width="20" height="20" viewBox="0 0 20 20" fill="none" xmlns="http://www.w3.org/2000/svg">
<g clip-path="url(#clip0_1522_1670)">
<path d="M17.6973 9.28659L10.7113 2.30126C10.3087 1.89926 9.65667 1.89926 9.25267 2.30126L7.80533 3.75126L9.64533 5.59126C10.0753 5.44792 10.5647 5.54459 10.9047 5.88526C11.2487 6.22859 11.3433 6.72392 11.1967 7.15192L12.9687 8.92526C13.3987 8.77659 13.8933 8.87326 14.2353 9.21526C14.716 9.69526 14.716 10.4713 14.2353 10.9513C13.756 11.4306 12.9813 11.4306 12.502 10.9513C12.1427 10.5906 12.0527 10.0599 12.2327 9.62059L10.5733 7.96992V12.3199C10.6907 12.3773 10.8013 12.4553 10.8987 12.5519C11.374 13.0326 11.374 13.8073 10.8987 14.2853C10.4193 14.7659 9.63933 14.7659 9.15933 14.2853C8.68 13.8059 8.68 13.0326 9.15933 12.5533C9.28067 12.4333 9.41733 12.3426 9.56267 12.2826V7.88992C9.418 7.82926 9.28 7.74192 9.16267 7.62259C8.79933 7.25926 8.712 6.72792 8.89867 6.28326L7.09067 4.46659L2.3 9.25392C1.9 9.65726 1.9 10.3099 2.3 10.7133L9.28667 17.6979C9.68933 18.1006 10.3413 18.1006 10.744 17.6979L17.6973 10.7446C18.1007 10.3426 18.1007 9.68992 17.6973 9.28659Z" fill="#F05032" fill-opacity="0.4"/>
</g>
<defs>
<clipPath id="clip0_1522_1670">
<rect width="16" height="16" fill="white" transform="translate(2 2)"/>
</clipPath>
</defs>
</svg>
