<svg width="20" height="20" viewBox="0 0 20 20" fill="none" xmlns="http://www.w3.org/2000/svg">
<path d="M3 2H17L15.7267 16.3753L9.98467 18L4.27533 16.3747L3 2ZM7.68733 8.5L7.53267 6.688L14.2387 6.69L14.392 4.942L5.608 4.94L6.07333 10.28H12.1573L11.94 12.564L10 13.1L8.03 12.56L7.90467 11.1533H6.16533L6.38533 13.934L10 14.9007L13.586 13.9387L14.082 8.50067H7.68733V8.5Z" fill="#E34F26" fill-opacity="0.4"/>
<path d="M6.07324 10.28H12.1572L11.9399 12.564L9.99991 13.1L8.02991 12.56L7.90458 11.1534H6.16524L6.07324 10.28Z" fill="#E34F26" fill-opacity="0.4"/>
<path d="M7.68738 8.49999L7.53271 6.68799L14.2387 6.68999L14.082 8.50066L7.68738 8.49999Z" fill="#E34F26" fill-opacity="0.4"/>
</svg>
