<svg width="20" height="20" viewBox="0 0 20 20" fill="none" xmlns="http://www.w3.org/2000/svg">
<g clip-path="url(#clip0_1465_38)">
<path d="M2 2H18V18H2V2ZM16.6893 14.184C16.5727 13.454 16.0973 12.8407 14.6873 12.2687C14.1967 12.0387 13.6513 11.8787 13.4893 11.5087C13.4287 11.2887 13.4193 11.1687 13.4587 11.0387C13.5587 10.608 14.0687 10.4787 14.4687 10.5987C14.7287 10.6787 14.9687 10.8787 15.1193 11.1987C15.8087 10.748 15.8087 10.748 16.2893 10.4487C16.1093 10.1687 16.02 10.048 15.8987 9.92867C15.4787 9.45867 14.9193 9.21867 14.0093 9.23933L13.5393 9.29867C13.0887 9.40867 12.6593 9.64867 12.3993 9.96867C11.6393 10.8293 11.8587 12.3293 12.7787 12.9493C13.6887 13.6293 15.0193 13.7787 15.1893 14.4193C15.3493 15.1993 14.6093 15.4493 13.8787 15.3593C13.338 15.2393 13.0387 14.9687 12.7087 14.4687L11.4887 15.1693C11.6287 15.4893 11.7887 15.6287 12.0287 15.9087C13.1887 17.0793 16.0887 17.0193 16.6093 15.2393C16.6287 15.1793 16.7693 14.7693 16.6587 14.1393L16.6893 14.184ZM10.7007 9.354H9.202C9.202 10.646 9.196 11.93 9.196 13.224C9.196 14.0453 9.238 14.7993 9.104 15.0313C8.884 15.4907 8.31733 15.432 8.06 15.3513C7.796 15.2207 7.662 15.0407 7.50667 14.7813C7.46467 14.7113 7.43333 14.6507 7.422 14.6507L6.20533 15.4007C6.40867 15.8207 6.70533 16.182 7.088 16.412C7.658 16.752 8.424 16.862 9.226 16.682C9.748 16.5313 10.198 16.2213 10.4333 15.7413C10.7733 15.1213 10.7013 14.3613 10.698 13.5107C10.706 12.1413 10.698 10.7713 10.698 9.39133L10.7007 9.354Z" fill="#F7DF1E" fill-opacity="0.4"/>
</g>
<defs>
<clipPath id="clip0_1465_38">
<rect width="16" height="16" fill="white" transform="translate(2 2)"/>
</clipPath>
</defs>
</svg>
