<svg width="20" height="20" viewBox="0 0 20 20" fill="none" xmlns="http://www.w3.org/2000/svg">
<path d="M10.0001 2.15662C5.66885 2.15662 2.15674 5.66873 2.15674 9.99998C2.15674 14.3312 5.66885 17.8433 10.0001 17.8433C14.3313 17.8433 17.8435 14.3312 17.8435 9.99998C17.8435 5.66873 14.3313 2.15662 10.0001 2.15662ZM13.695 4.03572C15.5003 5.15193 16.6288 6.96599 16.9329 8.92419C16.947 9.0156 16.9224 9.11052 16.8626 9.18259C16.0944 10.1318 15.0696 10.9756 13.9938 11.5996C13.8989 11.6541 13.7882 11.5644 13.8198 11.4607C14.4579 9.38474 14.4579 6.93611 13.5526 4.14646C13.5263 4.06208 13.6194 3.98826 13.695 4.03572ZM6.68135 3.81775C8.5499 2.81404 10.6856 2.74197 12.5349 3.4574C12.6228 3.4908 12.6896 3.55935 12.7229 3.64724C13.1606 4.7863 13.3786 6.09587 13.3821 7.34041C13.3821 7.44939 13.2485 7.50212 13.1747 7.42126C11.6946 5.83044 9.57471 4.60525 6.70772 3.99529C6.61982 3.97771 6.604 3.85994 6.68135 3.81775ZM13.1114 9.24939C13.0183 10.2109 12.8144 11.1601 12.5507 11.9371C12.4927 12.1058 12.3679 12.2447 12.2062 12.3185C11.3272 12.7176 10.4044 13.0164 9.59756 13.1781C9.42178 13.2133 9.24072 13.1728 9.09482 13.0691C8.30908 12.5084 7.58838 11.858 7.04697 11.2392C6.9292 11.1056 6.87295 10.9281 6.89053 10.7488C6.98369 9.78728 7.1876 8.83806 7.45127 8.06111C7.50928 7.89236 7.63408 7.75349 7.7958 7.67966C8.67471 7.28064 9.59756 6.98181 10.4044 6.82009C10.5802 6.78494 10.7612 6.82537 10.9071 6.92908C11.6929 7.48982 12.4136 8.14021 12.955 8.75896C13.071 8.89431 13.1272 9.07185 13.1114 9.24939ZM2.98643 9.78201C3.05146 7.66208 4.05693 5.77771 5.60029 4.53318C5.67236 4.47517 5.76728 4.45056 5.85869 4.46462C7.06455 4.65623 8.30732 5.12205 9.38662 5.7408C9.48154 5.79529 9.45869 5.93591 9.35322 5.96052C7.23506 6.44568 5.11514 7.67087 3.15166 9.8488C3.09365 9.9156 2.98467 9.87166 2.98643 9.78201ZM6.30518 15.9642C4.4999 14.848 3.37139 13.034 3.06729 11.0758C3.05322 10.9844 3.07783 10.8894 3.1376 10.8174C3.90576 9.86814 4.93057 9.02439 6.00635 8.40037C6.10127 8.34587 6.21201 8.43552 6.18037 8.53923C5.54229 10.6152 5.54228 13.0638 6.44756 15.8535C6.47393 15.9379 6.38076 16.0117 6.30518 15.9642ZM13.3188 16.1822C11.4503 17.1859 9.31455 17.258 7.46533 16.5426C7.37744 16.5092 7.31064 16.4406 7.27725 16.3527C6.83955 15.2136 6.62158 13.9041 6.61807 12.6595C6.61807 12.5506 6.75166 12.4978 6.82549 12.5787C8.30557 14.1695 10.4255 15.3947 13.2925 16.0047C13.3804 16.0222 13.3962 16.14 13.3188 16.1822ZM14.3999 15.4668C14.3278 15.5248 14.2329 15.5494 14.1415 15.5353C12.9356 15.3437 11.6929 14.8779 10.6136 14.2592C10.5187 14.2047 10.5415 14.064 10.647 14.0394C12.7651 13.5543 14.8851 12.3291 16.8485 10.1511C16.9083 10.0844 17.019 10.1283 17.0155 10.2179C16.9487 12.3379 15.9433 14.2222 14.3999 15.4668Z" fill="#059AFB" fill-opacity="0.4"/>
<path d="M11.9983 9.53017C11.9385 10.1327 11.8075 10.7276 11.6381 11.2145C11.6008 11.3202 11.5207 11.4073 11.4168 11.4535C10.8522 11.7036 10.2593 11.8909 9.74102 11.9922C9.6281 12.0142 9.51179 11.9889 9.41806 11.9239C8.91331 11.5725 8.45033 11.1649 8.10253 10.7772C8.02687 10.6934 7.99074 10.5822 8.00203 10.4698C8.06188 9.86726 8.19287 9.2724 8.36225 8.7855C8.39951 8.67975 8.47969 8.59273 8.58357 8.54646C9.14818 8.2964 9.74102 8.10913 10.2593 8.00779C10.3722 7.98575 10.4886 8.01109 10.5823 8.07608C11.087 8.42749 11.55 8.83507 11.8978 9.22283C11.9723 9.30765 12.0085 9.41891 11.9983 9.53017Z" fill="#059AFB" fill-opacity="0.6"/>
<path d="M11.9983 9.53017C11.9385 10.1327 11.8075 10.7276 11.6381 11.2145C11.6008 11.3202 11.5207 11.4073 11.4168 11.4535C10.8522 11.7036 10.2593 11.8909 9.74102 11.9922C9.6281 12.0142 9.51179 11.9889 9.41806 11.9239C8.91331 11.5725 8.45033 11.1649 8.10253 10.7772C8.02687 10.6934 7.99074 10.5822 8.00203 10.4698C8.06188 9.86726 8.19287 9.2724 8.36225 8.7855C8.39951 8.67975 8.47969 8.59273 8.58357 8.54646C9.14818 8.2964 9.74102 8.10913 10.2593 8.00779C10.3722 7.98575 10.4886 8.01109 10.5823 8.07608C11.087 8.42749 11.55 8.83507 11.8978 9.22283C11.9723 9.30765 12.0085 9.41891 11.9983 9.53017Z" fill="#059AFB" fill-opacity="0.6"/>
</svg>
