<svg width="20" height="20" viewBox="0 0 20 20" fill="none" xmlns="http://www.w3.org/2000/svg">
<g clip-path="url(#clip0_1459_9)">
<path d="M3.632 3.11047C3.80675 3.42547 3.989 3.69547 4.1795 3.92797C4.36475 3.91822 5.0285 4.26997 5.1635 4.32022C5.5445 4.53172 5.96075 4.79272 6.33875 5.04472C6.7175 5.29747 7.05875 5.54122 7.29275 5.71972C7.40975 5.80972 7.50125 5.88322 7.55675 5.93422C7.57859 5.95236 7.59823 5.973 7.61525 5.99572C7.6185 6.00058 7.62103 6.00589 7.62275 6.01147C7.62466 6.01725 7.62538 6.02335 7.62486 6.02941C7.62434 6.03546 7.62261 6.04136 7.61975 6.04672C7.61679 6.05251 7.61255 6.05754 7.60735 6.06144C7.60215 6.06534 7.59613 6.068 7.58975 6.06922C7.58281 6.07051 7.57569 6.07051 7.56875 6.06922C7.526 6.06922 7.4165 5.94697 7.196 5.75797C6.53934 5.25312 5.84787 4.79523 5.12675 4.38772C4.74875 4.17772 4.4105 3.98122 4.1795 3.92797C4.09012 3.91473 3.9991 3.90846 3.90875 3.90922C3.7079 3.91304 3.50873 3.94666 3.31775 4.00897C3.68825 4.31947 4.00025 4.54597 4.27775 4.72072C3.85025 4.58422 3.39125 4.56322 2.85125 4.82047C3.24575 5.06722 3.5765 5.24572 3.86675 5.37922C4.694 5.49622 5.56025 5.90122 6.28475 6.36097C6.647 6.59122 6.96275 6.82222 7.199 7.01122C7.31675 7.10497 7.4165 7.18897 7.4915 7.25722C7.565 7.32547 7.622 7.37272 7.63925 7.41472C7.66175 7.46947 7.625 7.49272 7.57625 7.45822C7.55225 7.44172 7.51025 7.38172 7.43825 7.31497C7.34508 7.22995 7.24903 7.14815 7.15025 7.06972C6.91625 6.88222 6.6035 6.65572 6.2435 6.42697C5.57375 6.00547 4.5695 5.66722 3.86375 5.37922C3.41225 5.29672 2.945 5.33422 2.43425 5.67172C2.771 5.82172 3.062 5.93347 3.32075 6.01897C3.92975 6.01897 4.73975 6.29272 5.522 6.71047C6.3035 7.12747 7.052 7.62097 7.41425 8.04097C7.46375 8.09872 7.40225 8.13547 7.35875 8.09347C6.96875 7.72222 6.2615 7.19047 5.48525 6.77647C5.006 6.52372 3.8705 6.01897 3.32075 6.01897L3.32375 6.02047C2.8985 6.03547 2.47625 6.16672 2.0645 6.55747C2.42225 6.64597 2.72825 6.70447 2.9975 6.74422C2.6675 6.81022 2.345 6.96922 2.03075 7.28572C2.27375 7.33822 2.49275 7.37722 2.69225 7.40722C2.44625 7.52647 2.213 7.71022 2 7.99222C2.27975 8.01472 2.52725 8.02372 2.75 8.02522C2.48 8.14972 2.228 8.34772 2.003 8.66272C2.40275 8.68297 2.738 8.68147 3.026 8.66497C2.7095 8.79397 2.417 9.01297 2.16725 9.39097C2.66375 9.39847 3.05825 9.37447 3.38825 9.33397L3.38375 9.33547C4.12625 9.28072 5.1065 9.43072 5.60525 9.97072C5.64425 10.0135 5.58725 10.0592 5.55125 10.0262C5.06525 9.59122 4.4315 9.40597 3.38375 9.33547H3.38225C2.975 9.44722 2.59775 9.66997 2.28725 10.141C2.68925 10.147 3.02375 10.1312 3.31175 10.1035C2.96 10.2962 2.657 10.5865 2.4575 11.083C2.81975 11.014 3.1235 10.9405 3.38525 10.864C3.113 11.0627 2.88425 11.341 2.7305 11.7595C2.9735 11.7055 3.1895 11.65 3.38375 11.5937C3.19072 11.8322 3.05867 12.114 2.999 12.415C3.263 12.3175 3.49025 12.2245 3.6935 12.1322C3.50075 12.3572 3.35375 12.643 3.281 13.0247C3.65225 12.8755 3.95525 12.7337 4.2095 12.5987C3.977 12.8485 3.80225 13.1687 3.73325 13.6157C4.10611 13.4547 4.46746 13.2683 4.81475 13.0577C4.49 13.3292 4.24175 13.69 4.1555 14.248C4.7465 13.987 5.15975 13.7507 5.48075 13.5317C5.34275 13.8107 5.26925 14.1362 5.3045 14.5427C5.876 14.1047 6.23675 13.7507 6.506 13.438C6.488 13.6397 6.50375 13.858 6.56375 14.101C6.97325 13.3967 7.3805 13.192 7.80125 12.9565C7.13 13.2947 7.22975 13.549 7.22975 13.8445C7.742 13.3045 8.456 12.733 8.675 12.3745C8.3825 12.8132 8.26475 13.2295 8.1875 13.597C6.69275 14.3875 5.78225 14.5937 4.7615 14.9095C5.1575 15.055 5.58125 15.1967 5.40575 15.3985L4.93775 15.865C5.237 15.772 5.5415 15.64 5.80625 15.8207C5.78 16.066 5.471 16.1897 5.20625 16.333C5.672 16.165 5.77325 16.204 5.89625 16.243C5.957 16.5377 5.744 16.6952 5.60525 16.8895C6.779 15.997 8.30975 15.292 9.38825 14.998C10.9047 14.4872 12.8607 13.9562 13.3925 12.6617L13.9265 10.5265L13.9235 10.5295C13.8402 10.504 13.739 10.4822 13.661 10.4297C13.5815 10.3746 13.5201 10.297 13.4847 10.207C13.2957 10.2557 13.1548 10.2295 13.0648 10.141C12.977 10.0532 12.9395 9.91897 12.9125 9.77272C12.7603 9.80347 12.641 9.78472 12.5623 9.71497C12.4753 9.63922 12.4348 9.51997 12.4138 9.38197L12.4077 9.35272L12.4355 9.34147C12.5206 9.30982 12.5978 9.26019 12.662 9.19597C12.6836 9.17407 12.6996 9.14733 12.7087 9.11797C12.7179 9.08861 12.7198 9.0575 12.7145 9.02722L12.71 8.99947L12.7325 8.98747C12.8548 8.91772 12.9912 8.86072 13.0535 8.77747C13.0705 8.7553 13.0828 8.7299 13.0896 8.70282C13.0964 8.67574 13.0977 8.64755 13.0933 8.61997C13.075 8.52317 13.0352 8.43168 12.977 8.35222L12.9568 8.32222L12.9868 8.30197C13.0753 8.23447 13.1697 8.16772 13.2177 8.10697C13.2417 8.07697 13.2537 8.04997 13.253 8.02447C13.253 7.99972 13.2417 7.97197 13.205 7.93672L13.1315 7.86622L13.2328 7.87072C13.3925 7.87822 13.529 7.86547 13.6363 7.83097C13.7197 7.8068 13.7923 7.75462 13.8417 7.68322C13.8365 7.65847 13.8268 7.63597 13.8268 7.60972C13.831 7.5164 13.8711 7.42831 13.9386 7.36377C14.0061 7.29923 14.096 7.26322 14.1894 7.26322C14.2828 7.26322 14.3726 7.29923 14.4402 7.36377C14.5077 7.42831 14.5478 7.5164 14.552 7.60972C14.552 7.64272 14.5407 7.67272 14.5325 7.70347C14.6652 7.71397 14.7927 7.71097 14.9127 7.65847L14.9142 7.65922L14.9405 7.64947C15.1175 7.58572 15.191 7.68322 15.4805 7.30747C14.213 5.66497 12.3627 6.83122 11.7477 8.52397C11.5902 8.95597 10.694 8.95747 10.4345 8.52397C9.407 6.31147 6.287 3.97297 3.632 3.11047ZM4.277 4.71922C4.9565 4.93897 5.71175 5.30572 6.3545 5.71522C6.677 5.91997 6.96425 6.12247 7.19 6.29947C7.41575 6.47647 7.6145 6.65422 7.655 6.73072C7.6955 6.80722 7.655 6.83572 7.5935 6.77572C7.53275 6.71722 7.36625 6.53572 7.1435 6.36097C6.92 6.18547 6.6335 5.98222 6.314 5.77822C5.73275 5.41072 4.8275 5.05972 4.277 4.71922ZM3.002 6.74422C3.839 6.75472 4.7645 7.07947 5.5775 7.49197C5.98325 7.69822 6.34475 7.91722 6.62375 8.11447C6.90275 8.31172 7.12775 8.50747 7.17425 8.60722C7.22 8.70772 7.15925 8.70472 7.109 8.64847C6.95031 8.47353 6.77329 8.31613 6.581 8.17897C6.24971 7.94836 5.90261 7.74135 5.54225 7.55947C4.82 7.19797 3.82925 6.86422 3.002 6.74422ZM14.189 7.32322C14.1515 7.32322 14.1143 7.33061 14.0796 7.34497C14.045 7.35934 14.0135 7.38038 13.9869 7.40692C13.9604 7.43345 13.9394 7.46495 13.925 7.49962C13.9106 7.53429 13.9033 7.57145 13.9033 7.60897C13.9033 7.6465 13.9106 7.68366 13.925 7.71833C13.9394 7.75299 13.9604 7.78449 13.9869 7.81103C14.0135 7.83756 14.045 7.85861 14.0796 7.87297C14.1143 7.88733 14.1515 7.89472 14.189 7.89472C14.2648 7.89472 14.3375 7.86462 14.3911 7.81103C14.4446 7.75744 14.4747 7.68476 14.4747 7.60897C14.4747 7.53319 14.4446 7.46051 14.3911 7.40692C14.3375 7.35333 14.2648 7.32322 14.189 7.32322ZM3.275 7.35847C3.8915 7.41247 4.565 7.63447 5.1755 7.92097C5.99 8.30272 6.70175 8.78947 7.001 9.17122C7.02725 9.20497 6.9905 9.26947 6.941 9.21772C6.62 8.88772 5.9495 8.36947 5.14325 7.99147C4.4585 7.67572 3.43175 7.33897 2.69675 7.40647C2.885 7.38397 3.0695 7.34047 3.275 7.35847ZM15.5292 7.36597C15.2547 7.72222 15.1318 7.68322 15.002 7.71397C15.0725 8.03647 15.2645 8.15347 15.4407 8.29147L15.3958 8.30047C17.132 7.96522 18.5353 8.08597 20 8.12347L15.5292 7.36597ZM15.3958 8.30047H15.3942L15.3912 8.31247L15.3958 8.30047ZM14.927 7.73272C14.7898 7.78822 14.6473 7.78972 14.5048 7.77697C14.475 7.83513 14.43 7.88405 14.3745 7.91842C14.3189 7.9528 14.2551 7.97132 14.1898 7.97197C14.1212 7.97164 14.0542 7.95187 13.9964 7.91497C13.9387 7.87806 13.8926 7.82553 13.8635 7.76347C13.8094 7.82861 13.7382 7.87743 13.658 7.90447C13.5537 7.93822 13.427 7.94722 13.2882 7.94572C13.3032 7.97197 13.3287 7.99672 13.3295 8.02372C13.3282 8.07196 13.3098 8.11818 13.2777 8.15422C13.223 8.22322 13.136 8.28172 13.0565 8.34022C13.1217 8.44597 13.1592 8.53522 13.1682 8.61172C13.179 8.68685 13.1602 8.76322 13.1158 8.82472C13.0363 8.92972 12.8997 8.98222 12.7865 9.04447C12.7912 9.11772 12.7669 9.18989 12.719 9.24547C12.6555 9.30951 12.5798 9.36002 12.4962 9.39397C12.5165 9.51097 12.5518 9.60622 12.6118 9.65947C12.6763 9.71647 12.77 9.73672 12.9305 9.69472L12.9717 9.68422L12.9792 9.72547C13.004 9.88072 13.0453 10.0142 13.1195 10.0877C13.1945 10.162 13.3025 10.189 13.4968 10.129L13.5335 10.1177L13.5455 10.1537C13.583 10.2602 13.6355 10.321 13.7022 10.3652C13.7675 10.4102 13.8875 10.4492 13.9708 10.4755C14.5693 9.82372 15.1145 9.14647 15.3837 8.33047C15.215 8.19772 15.0043 8.07697 14.927 7.73272ZM2.7545 8.02222C3.62825 7.96222 4.46675 8.16922 5.156 8.49172C5.846 8.81422 6.3995 9.19597 6.6365 9.47197C6.69275 9.53722 6.62225 9.56197 6.5825 9.52597C6.14449 9.13534 5.65274 8.80953 5.12225 8.55847C4.44425 8.24797 3.4775 8.07547 2.7545 8.02222ZM3.4025 8.62372C3.86 8.63872 4.3325 8.73997 4.757 8.88772C5.324 9.08422 5.82275 9.34822 6.06725 9.62272C6.101 9.66022 6.062 9.71797 6.01175 9.67447C5.75 9.44647 5.291 9.15472 4.73225 8.96122C4.30175 8.81497 3.5225 8.68447 3.03125 8.66347C3.179 8.64697 3.25025 8.61847 3.4025 8.62372ZM4.19 9.96472C4.50725 9.99022 4.8545 10.0645 5.19575 10.27C5.228 10.2895 5.2325 10.372 5.159 10.3375C4.517 10.036 4.1645 9.96997 3.31625 10.105C3.60575 10.009 3.87125 9.93922 4.18925 9.96472H4.19ZM4.16 10.5557C4.46 10.5295 4.748 10.5542 5.13275 10.7087C5.16575 10.7222 5.19275 10.8032 5.108 10.7792C4.46525 10.597 4.23275 10.5332 3.39275 10.8572C3.60275 10.6855 3.85925 10.5827 4.16 10.5557ZM5.12375 11.071C5.3615 11.0537 5.6 11.0515 5.82425 11.0755C5.86325 11.08 5.8655 11.1542 5.81975 11.152C5.35871 11.1267 4.8963 11.1557 4.442 11.2382C4.25975 11.2727 4.12475 11.2705 3.38825 11.5817C3.6035 11.407 3.98375 11.2427 4.427 11.1617C4.65776 11.1195 4.89058 11.0895 5.1245 11.0717L5.12375 11.071ZM6.08375 11.4385C6.158 11.4407 6.13025 11.5165 6.08825 11.5157C5.54225 11.5082 5.11025 11.6147 4.682 11.737C4.3434 11.8441 4.01303 11.9757 3.6935 12.1307C3.90575 11.9582 4.22825 11.788 4.66175 11.6642C5.096 11.5397 5.59775 11.4197 6.08375 11.4377V11.4385ZM6.47975 11.737C6.50675 11.7332 6.5585 11.8 6.49325 11.812C5.94575 11.9147 5.56025 12.0122 5.14775 12.1525C4.98575 12.208 4.71275 12.3077 4.2155 12.5927C4.4105 12.391 4.7075 12.2237 5.12525 12.0827C5.54375 11.9402 6.02225 11.8052 6.47975 11.7377V11.737ZM6.713 12.1172C6.76925 12.1082 6.78575 12.1825 6.728 12.1937C5.81525 12.3745 5.408 12.6107 4.823 13.0517C5.201 12.6595 5.79575 12.2635 6.713 12.1172ZM7.15925 12.4532C7.2245 12.4435 7.24175 12.5185 7.175 12.5282C6.521 12.6257 6.06725 12.943 5.48375 13.5257C5.705 13.156 6.23675 12.5957 7.15925 12.4532ZM7.43825 12.7457C7.47275 12.7412 7.52375 12.8005 7.4555 12.8207C7.27858 12.872 7.10969 12.9477 6.95375 13.0457C6.81725 13.1342 6.72875 13.1957 6.506 13.426C6.58925 13.2422 6.728 13.1005 6.9125 12.9835C7.09775 12.8657 7.295 12.7637 7.43825 12.7457Z" fill="#008080" fill-opacity="0.5"/>
<path d="M14.189 7.32319C14.1514 7.32319 14.1143 7.33058 14.0796 7.34494C14.0449 7.3593 14.0134 7.38035 13.9869 7.40688C13.9604 7.43342 13.9393 7.46492 13.925 7.49959C13.9106 7.53426 13.9032 7.57141 13.9032 7.60894C13.9032 7.64646 13.9106 7.68362 13.925 7.71829C13.9393 7.75296 13.9604 7.78446 13.9869 7.81099C14.0134 7.83753 14.0449 7.85858 14.0796 7.87294C14.1143 7.8873 14.1514 7.89469 14.189 7.89469C14.2648 7.89469 14.3374 7.86458 14.391 7.81099C14.4446 7.75741 14.4747 7.68472 14.4747 7.60894C14.4747 7.53315 14.4446 7.46047 14.391 7.40688C14.3374 7.35329 14.2648 7.32319 14.189 7.32319ZM15.5292 7.36594C15.2547 7.72219 15.1317 7.68319 15.002 7.71394C15.0725 8.03644 15.2645 8.15344 15.4407 8.29144L15.3957 8.30044C17.132 7.96519 18.5352 8.08594 20 8.12344L15.5292 7.36594ZM15.3957 8.30044H15.3942L15.3912 8.31244L15.3957 8.30044ZM14.927 7.73269C14.7897 7.78819 14.6472 7.78969 14.5047 7.77694C14.475 7.8351 14.43 7.88401 14.3744 7.91839C14.3189 7.95276 14.255 7.97128 14.1897 7.97194C14.1212 7.97161 14.0541 7.95184 13.9964 7.91493C13.9386 7.87803 13.8926 7.82549 13.8635 7.76344C13.8094 7.82858 13.7382 7.8774 13.658 7.90444C13.5537 7.93819 13.427 7.94719 13.2882 7.94569C13.3032 7.97194 13.3287 7.99669 13.3295 8.02369C13.3281 8.07193 13.3098 8.11815 13.2777 8.15419C13.223 8.22319 13.136 8.28169 13.0565 8.34019C13.1217 8.44594 13.1592 8.53519 13.1682 8.61169C13.179 8.68681 13.1602 8.76319 13.1157 8.82469C13.0362 8.92969 12.8997 8.98219 12.7865 9.04444C12.7911 9.11769 12.7669 9.18985 12.719 9.24544C12.6555 9.30947 12.5797 9.35999 12.4962 9.39394C12.5165 9.51094 12.5517 9.60619 12.6117 9.65944C12.6762 9.71644 12.77 9.73669 12.9305 9.69469L12.9717 9.68419L12.9792 9.72544C13.004 9.88069 13.0452 10.0142 13.1195 10.0877C13.1945 10.1619 13.3025 10.1889 13.4967 10.1289L13.5335 10.1177L13.5455 10.1537C13.583 10.2602 13.6355 10.3209 13.7022 10.3652C13.7675 10.4102 13.8875 10.4492 13.9707 10.4754C14.5692 9.82369 15.1145 9.14644 15.3837 8.33044C15.215 8.19769 15.0042 8.07694 14.927 7.73269Z" fill="#008080" fill-opacity="0.7"/>
</g>
<defs>
<clipPath id="clip0_1459_9">
<rect width="18" height="18" fill="white" transform="translate(2 1)"/>
</clipPath>
</defs>
</svg>
