<svg width="20" height="20" viewBox="0 0 20 20" fill="none" xmlns="http://www.w3.org/2000/svg">
<g clip-path="url(#clip0_1459_2)">
<path d="M16.8467 14.9233H3.15333C3.00188 14.9233 2.8519 14.8935 2.71197 14.8355C2.57204 14.7776 2.4449 14.6926 2.3378 14.5855C2.23071 14.4784 2.14575 14.3513 2.08779 14.2114C2.02983 14.0714 2 13.9215 2 13.77V6.22999C2 5.92411 2.12151 5.63076 2.3378 5.41446C2.5541 5.19817 2.84745 5.07666 3.15333 5.07666H16.8467C16.9981 5.07666 17.1481 5.10649 17.288 5.16445C17.428 5.22241 17.5551 5.30737 17.6622 5.41446C17.7693 5.52156 17.8542 5.6487 17.9122 5.78863C17.9702 5.92856 18 6.07854 18 6.22999V13.7687C18.0001 13.9202 17.9703 14.0702 17.9124 14.2102C17.8545 14.3502 17.7695 14.4775 17.6624 14.5846C17.5553 14.6918 17.4282 14.7768 17.2882 14.8348C17.1482 14.8928 16.9982 14.9233 16.8467 14.9233ZM5.846 12.6153V9.61533L7.38467 11.5387L8.92267 9.61533V12.6153H10.4613V7.38533H8.92267L7.38467 9.30866L5.846 7.38533H4.30667V12.6167L5.846 12.6153ZM16.1547 9.99999H14.6153V7.38466H13.0773V9.99999H11.5387L13.846 12.6927L16.1547 9.99999Z" fill="white" fill-opacity="0.58"/>
</g>
<defs>
<clipPath id="clip0_1459_2">
<rect width="16" height="16" fill="white" transform="translate(2 2)"/>
</clipPath>
</defs>
</svg>
