<svg width="20" height="20" viewBox="0 0 20 20" fill="none" xmlns="http://www.w3.org/2000/svg">
<g clip-path="url(#clip0_1461_17)">
<path d="M6.11727 3.32727C6.04227 3.32727 5.95752 3.33177 5.86227 3.34002C5.47902 3.37302 4.92477 3.47502 4.51077 3.58677C4.21368 3.66338 3.9248 3.76888 3.64827 3.90177C3.47502 3.98577 3.40077 4.03527 3.38277 4.10652C3.36552 4.17702 3.40377 4.26927 3.50277 4.43352C3.60177 4.59777 3.76227 4.83327 3.90402 5.15427C4.04652 5.47527 4.17102 5.88177 4.17477 6.39252C4.17927 6.90252 4.06302 7.51752 3.99102 7.86402C3.91902 8.21052 3.89127 8.29002 3.82077 8.32752C3.75027 8.36502 3.63702 8.36052 3.42702 8.31177C3.21627 8.26302 2.90952 8.17152 2.60202 8.11752C2.29452 8.06352 1.98777 8.04777 1.76052 8.08902C1.53252 8.13102 1.38252 8.23077 1.27677 8.36577C1.17177 8.50077 1.10877 8.67027 1.06527 8.92827C1.02107 9.20507 0.999252 9.48497 1.00002 9.76527C1.00377 10.003 1.03527 10.1328 1.10202 10.2033C1.16802 10.2738 1.26927 10.285 1.47102 10.2438C1.67277 10.2025 1.97502 10.1088 2.38902 10.0825C2.87894 10.0572 3.36982 10.1083 3.84402 10.234C4.35777 10.3705 4.85877 10.6015 5.30652 10.9315C5.75502 11.26 6.15177 11.6868 6.48102 12.1263C6.80952 12.5658 7.07127 13.018 7.23402 13.282C7.39677 13.5468 7.46202 13.6233 7.51302 13.597C7.56402 13.5708 7.60077 13.4418 7.62177 13.2843C7.64555 13.0726 7.6405 12.8586 7.60677 12.6483C7.55905 12.3002 7.4787 11.9575 7.36677 11.6245C7.26904 11.3582 7.14466 11.1024 6.99552 10.861C6.88602 10.6758 6.81477 10.555 6.81177 10.4785C6.80877 10.4013 6.87552 10.3675 7.19427 10.2423C7.51227 10.117 8.08302 9.89952 8.66277 9.63627C9.24177 9.37302 9.82977 9.06327 10.1943 8.80677C10.5588 8.55102 10.6998 8.34927 10.7373 8.10402C10.7748 7.85952 10.708 7.57152 10.6173 7.29702C10.5135 6.98695 10.3806 6.68738 10.2205 6.40227C9.99511 5.98443 9.741 5.58271 9.46002 5.20002C9.21346 4.86684 8.93734 4.55658 8.63502 4.27302C8.42352 4.08177 8.31927 4.04052 8.25252 4.05552C8.18502 4.07052 8.15427 4.14177 8.12652 4.40802C8.09877 4.67502 8.07402 5.13777 8.01852 5.57727C7.96528 6.0321 7.85647 6.47868 7.69452 6.90702C7.49135 7.42345 7.24288 7.92089 6.95202 8.39352C6.66102 8.87352 6.34977 9.30252 6.16152 9.49002C5.97402 9.67752 5.90952 9.62502 5.80377 9.53802L5.43927 9.23802C5.32677 9.14427 5.24952 9.07827 5.23452 9.01827C5.21952 8.95827 5.26827 8.90577 5.43702 8.68227C5.60727 8.45802 5.89827 8.06352 6.15702 7.57377C6.4443 7.038 6.64575 6.46048 6.75402 5.86227C6.84563 5.2825 6.86954 4.69406 6.82527 4.10877C6.79227 3.68577 6.73227 3.53127 6.59577 3.43677C6.49302 3.36552 6.34677 3.32727 6.11727 3.32727ZM10.9773 8.60277H10.9683C10.9053 8.61027 10.8243 8.68677 10.657 8.82327C10.4191 9.02084 10.1638 9.19655 9.89427 9.34827C9.55077 9.54102 9.11577 9.72852 8.76177 9.89877C8.40927 10.0683 8.13852 10.2205 8.00877 10.4328C7.87977 10.645 7.89252 10.9188 8.03877 11.0703C8.18427 11.2233 8.46327 11.2548 8.70102 11.2645C8.93952 11.2743 9.13602 11.263 9.32052 11.3298C9.50502 11.3973 9.67677 11.5435 9.89352 11.7168C10.1095 11.8893 10.3713 12.0903 10.5873 12.1375C10.804 12.1848 10.9758 12.0783 11.1618 11.986C11.3485 11.893 11.5488 11.8135 11.8278 11.8173C12.106 11.821 12.463 11.9073 12.8163 12.0948C13.1688 12.2808 13.5198 12.5673 13.7043 12.7443C13.8895 12.9213 13.9083 12.9895 13.888 13.0158C13.867 13.0428 13.807 13.0293 13.66 12.9108C13.513 12.793 13.279 12.5703 12.9723 12.3948C12.6648 12.2193 12.2853 12.0918 11.9223 12.1015C11.5608 12.1113 11.2173 12.259 10.9998 12.514C10.7823 12.769 10.6908 13.1305 10.5903 13.387C10.4905 13.6428 10.3803 13.7943 10.2378 13.8498C10.0953 13.9053 9.91977 13.8648 9.71052 13.7755C9.50052 13.6855 9.25752 13.5453 9.05502 13.444C8.85327 13.342 8.69202 13.279 8.59002 13.1793C8.48802 13.0803 8.44377 12.9468 8.43777 12.751C8.43027 12.556 8.46177 12.301 8.47527 12.1113C8.49027 11.9238 8.48877 11.8015 8.44677 11.6913C8.40652 11.5932 8.3474 11.504 8.27277 11.4288C8.22027 11.3763 8.19852 11.3725 8.18802 11.3853C8.17752 11.398 8.17902 11.4288 8.19552 11.5038C8.21277 11.5788 8.24577 11.6988 8.23302 11.9395C8.21877 12.1803 8.15952 12.5418 8.11302 12.817C8.06652 13.0915 8.03277 13.2805 8.09802 13.423C8.16327 13.5663 8.32752 13.6645 8.62827 13.828C8.92827 13.993 9.36477 14.2233 9.76677 14.4693C10.1695 14.7145 10.537 14.974 10.9383 15.286C11.3388 15.5973 11.7723 15.961 12.0633 16.2145C12.3558 16.4688 12.5043 16.6135 12.6198 16.657C12.7353 16.7013 12.8178 16.6435 12.85 16.5535C12.883 16.4635 12.8673 16.3398 12.8395 16.2318C12.806 16.1048 12.7445 15.9869 12.6595 15.8868C12.5075 15.6943 12.3366 15.5174 12.1495 15.3588C11.9343 15.1765 11.689 15.0115 11.5473 14.8983C11.4048 14.785 11.3658 14.7235 11.3883 14.704C11.4108 14.6845 11.4933 14.707 11.6148 14.785C11.7363 14.8623 11.896 14.995 12.0738 15.1293C12.2515 15.2628 12.448 15.3963 12.6235 15.5673C12.7998 15.7383 12.9558 15.9468 13.0608 16.0968C13.1658 16.2475 13.2213 16.3398 13.2813 16.3758C13.3413 16.4125 13.405 16.3923 13.489 16.3383C13.6034 16.2595 13.7104 16.1703 13.8085 16.072C13.942 15.9453 14.107 15.7773 14.2218 15.5973C14.3373 15.4173 14.4033 15.2253 14.446 15.0183C14.488 14.8113 14.506 14.5893 14.6313 14.3718C14.7565 14.1543 14.9883 13.9413 15.3768 13.603C15.7653 13.2648 16.3098 12.8005 16.795 12.355C17.281 11.9088 17.707 11.4813 18.067 11.0035C18.4263 10.525 18.7195 9.99702 18.8673 9.69627C19.0165 9.39627 19.021 9.32277 18.9723 9.30177C18.925 9.28152 18.8238 9.31302 18.5148 9.53652C18.2043 9.75927 17.6853 10.1733 17.1003 10.609C16.5145 11.044 15.8628 11.5015 15.3483 11.7858C14.8338 12.0693 14.4558 12.1788 14.1858 12.2073C13.915 12.235 13.7508 12.1818 13.6428 12.1248C13.5355 12.067 13.4853 12.0063 13.4748 11.944C13.465 11.881 13.4973 11.8165 13.576 11.7378C13.6555 11.6583 13.7838 11.5638 13.9113 11.4438C14.0388 11.3238 14.1648 11.1783 14.2623 11.0268C14.3598 10.8753 14.4273 10.7185 14.458 10.5828C14.4895 10.447 14.4835 10.333 14.428 10.3008C14.3725 10.2685 14.2668 10.318 14.146 10.3833C14.0245 10.4478 13.8888 10.5273 13.7013 10.6083C13.4836 10.7076 13.2499 10.7673 13.0113 10.7845C12.7199 10.8065 12.4304 10.7232 12.1953 10.5498C11.938 10.3548 11.719 10.0173 11.5458 9.68952C11.3733 9.36102 11.2473 9.04077 11.1618 8.84952C11.0808 8.66802 11.0358 8.60202 10.9773 8.60202V8.60277ZM9.31602 11.659C9.23413 11.6582 9.15509 11.6891 9.09552 11.7453C9.02502 11.8098 8.98677 11.8953 9.07002 11.9988C9.15402 12.1015 9.35877 12.2215 9.54702 12.3505C9.73602 12.4795 9.90777 12.6183 10.0465 12.6655C10.1845 12.7135 10.2888 12.67 10.348 12.5935C10.408 12.517 10.423 12.4083 10.3458 12.2905C10.2685 12.1728 10.1005 12.0468 9.92277 11.9298C9.74427 11.812 9.55677 11.7033 9.41202 11.6703C9.38054 11.6629 9.34834 11.6592 9.31602 11.659ZM9.50502 11.815C9.52377 11.815 9.54477 11.8173 9.56727 11.8225C9.65577 11.842 9.77127 11.9088 9.88077 11.9808C9.98952 12.0528 10.093 12.1308 10.1305 12.1975C10.168 12.2643 10.141 12.3198 10.0945 12.3595C10.0698 12.3817 10.0396 12.397 10.0072 12.4039C9.97468 12.4109 9.94094 12.4093 9.90927 12.3993C9.83427 12.376 9.74727 12.3048 9.63927 12.235C9.53052 12.1653 9.40002 12.097 9.34902 12.034C9.29802 11.971 9.32577 11.9125 9.37077 11.8705C9.40689 11.8352 9.45453 11.8153 9.50502 11.815ZM13.0885 14.611C13.2468 14.605 13.4035 14.656 13.54 14.791C13.6773 14.9245 13.795 15.1413 13.8273 15.34C13.8588 15.5388 13.8048 15.7188 13.7335 15.859C13.6772 15.969 13.6041 16.0694 13.5168 16.1568C13.4613 16.2123 13.435 16.228 13.4118 16.228H13.4095C13.3848 16.2273 13.363 16.2108 13.2535 16.0998C13.101 15.9478 12.9575 15.787 12.8238 15.6183C12.7 15.4533 12.6498 15.331 12.6265 15.1923C12.6025 15.0535 12.6063 14.8998 12.688 14.7903C12.7698 14.6808 12.9303 14.6178 13.0885 14.611ZM13.1583 15.4443C13.1173 15.4433 13.0772 15.4554 13.0435 15.4788C13 15.5095 12.9648 15.5635 12.9738 15.6175C12.9828 15.6723 13.0375 15.727 13.1043 15.8088C13.171 15.8913 13.2505 16 13.3023 16.06C13.3533 16.12 13.3773 16.1298 13.3975 16.1283C13.4193 16.1268 13.438 16.1148 13.462 16.0923C13.4956 16.06 13.5199 16.0193 13.5325 15.9745C13.5577 15.8976 13.5582 15.8147 13.534 15.7375C13.4997 15.6535 13.4432 15.5804 13.3705 15.526C13.3106 15.4764 13.236 15.4477 13.1583 15.4443Z" fill="#B02121" fill-opacity="0.4"/>
<path d="M10.9773 8.60278H10.9683C10.9053 8.61028 10.8243 8.68678 10.657 8.82328C10.4191 9.02085 10.1638 9.19656 9.89426 9.34828C9.55076 9.54103 9.11576 9.72853 8.76176 9.89878C8.40926 10.0683 8.13851 10.2205 8.00876 10.4328C7.87976 10.645 7.89251 10.9188 8.03876 11.0703C8.18426 11.2233 8.46326 11.2548 8.70101 11.2645C8.93951 11.2743 9.13601 11.263 9.32051 11.3298C9.50501 11.3973 9.67676 11.5435 9.89351 11.7168C10.1095 11.8893 10.3713 12.0903 10.5873 12.1375C10.804 12.1848 10.9758 12.0783 11.1618 11.986C11.3485 11.893 11.5488 11.8135 11.8278 11.8173C12.106 11.821 12.463 11.9073 12.8163 12.0948C13.1688 12.2808 13.5198 12.5673 13.7043 12.7443C13.8895 12.9213 13.9083 12.9895 13.888 13.0158C13.867 13.0428 13.807 13.0293 13.66 12.9108C13.513 12.793 13.279 12.5703 12.9723 12.3948C12.6648 12.2193 12.2853 12.0918 11.9223 12.1015C11.5608 12.1113 11.2173 12.259 10.9998 12.514C10.7823 12.769 10.6908 13.1305 10.5903 13.387C10.4905 13.6428 10.3803 13.7943 10.2378 13.8498C10.0953 13.9053 9.91976 13.8648 9.71051 13.7755C9.50051 13.6855 9.25751 13.5453 9.05501 13.444C8.85326 13.342 8.69201 13.279 8.59001 13.1793C8.48801 13.0803 8.44376 12.9468 8.43776 12.751C8.43026 12.556 8.46176 12.301 8.47526 12.1113C8.49026 11.9238 8.48876 11.8015 8.44676 11.6913C8.40651 11.5932 8.34739 11.504 8.27276 11.4288C8.22026 11.3763 8.19851 11.3725 8.18801 11.3853C8.17751 11.398 8.17901 11.4288 8.19551 11.5038C8.21276 11.5788 8.24576 11.6988 8.23301 11.9395C8.21876 12.1803 8.15951 12.5418 8.11301 12.817C8.06651 13.0915 8.03276 13.2805 8.09801 13.423C8.16326 13.5663 8.32751 13.6645 8.62826 13.828C8.92826 13.993 9.36476 14.2233 9.76676 14.4693C10.1695 14.7145 10.537 14.974 10.9383 15.286C11.3388 15.5973 11.7723 15.961 12.0633 16.2145C12.3558 16.4688 12.5043 16.6135 12.6198 16.657C12.7353 16.7013 12.8178 16.6435 12.85 16.5535C12.883 16.4635 12.8673 16.3398 12.8395 16.2318C12.806 16.1048 12.7445 15.9869 12.6595 15.8868C12.5075 15.6943 12.3366 15.5174 12.1495 15.3588C11.9343 15.1765 11.689 15.0115 11.5473 14.8983C11.4048 14.785 11.3658 14.7235 11.3883 14.704C11.4108 14.6845 11.4933 14.707 11.6148 14.785C11.7363 14.8623 11.896 14.995 12.0738 15.1293C12.2515 15.2628 12.448 15.3963 12.6235 15.5673C12.7998 15.7383 12.9558 15.9468 13.0608 16.0968C13.1658 16.2475 13.2213 16.3398 13.2813 16.3758C13.3413 16.4125 13.405 16.3923 13.489 16.3383C13.6034 16.2595 13.7104 16.1704 13.8085 16.072C13.942 15.9453 14.107 15.7773 14.2218 15.5973C14.3373 15.4173 14.4033 15.2253 14.446 15.0183C14.488 14.8113 14.506 14.5893 14.6313 14.3718C14.7565 14.1543 14.9883 13.9413 15.3768 13.603C15.7653 13.2648 16.3098 12.8005 16.795 12.355C17.281 11.9088 17.707 11.4813 18.067 11.0035C18.4263 10.525 18.7195 9.99703 18.8673 9.69628C19.0165 9.39628 19.021 9.32278 18.9723 9.30178C18.925 9.28153 18.8238 9.31303 18.5148 9.53653C18.2043 9.75928 17.6853 10.1733 17.1003 10.609C16.5145 11.044 15.8628 11.5015 15.3483 11.7858C14.8338 12.0693 14.4558 12.1788 14.1858 12.2073C13.915 12.235 13.7508 12.1818 13.6428 12.1248C13.5355 12.067 13.4853 12.0063 13.4748 11.944C13.465 11.881 13.4973 11.8165 13.576 11.7378C13.6555 11.6583 13.7838 11.5638 13.9113 11.4438C14.0388 11.3238 14.1648 11.1783 14.2623 11.0268C14.3598 10.8753 14.4273 10.7185 14.458 10.5828C14.4895 10.447 14.4835 10.333 14.428 10.3008C14.3725 10.2685 14.2668 10.318 14.146 10.3833C14.0245 10.4478 13.8888 10.5273 13.7013 10.6083C13.4836 10.7076 13.2499 10.7673 13.0113 10.7845C12.7199 10.8066 12.4304 10.7233 12.1953 10.5498C11.938 10.3548 11.719 10.0173 11.5458 9.68953C11.3733 9.36103 11.2473 9.04078 11.1618 8.84953C11.0808 8.66803 11.0358 8.60278 10.9773 8.60278ZM9.31601 11.659C9.23412 11.6582 9.15509 11.6891 9.09551 11.7453C9.02501 11.8098 8.98676 11.8953 9.07001 11.9988C9.15401 12.1015 9.35876 12.2215 9.54701 12.3505C9.73601 12.4795 9.90776 12.6183 10.0465 12.6655C10.1845 12.7135 10.2888 12.67 10.348 12.5935C10.408 12.517 10.423 12.4083 10.3458 12.2905C10.2685 12.1728 10.1005 12.0468 9.92276 11.9298C9.74426 11.812 9.55676 11.7033 9.41201 11.6703C9.38054 11.6629 9.34833 11.6592 9.31601 11.659ZM9.50501 11.815C9.52376 11.815 9.54476 11.8173 9.56726 11.8225C9.65576 11.842 9.77126 11.9088 9.88076 11.9808C9.98951 12.0528 10.093 12.1308 10.1305 12.1975C10.168 12.2643 10.141 12.3198 10.0945 12.3595C10.0697 12.3817 10.0396 12.397 10.0072 12.404C9.97467 12.4109 9.94093 12.4093 9.90926 12.3993C9.83426 12.376 9.74726 12.3048 9.63926 12.235C9.53051 12.1653 9.40001 12.097 9.34901 12.034C9.29801 11.971 9.32576 11.9125 9.37076 11.8705C9.40688 11.8353 9.45452 11.8154 9.50501 11.815ZM13.0885 14.611C13.2468 14.605 13.4035 14.656 13.54 14.791C13.6773 14.9245 13.795 15.1413 13.8273 15.34C13.8588 15.5388 13.8048 15.7188 13.7335 15.859C13.6772 15.969 13.6041 16.0694 13.5168 16.1568C13.4613 16.2123 13.435 16.228 13.4118 16.228H13.4095C13.3848 16.2273 13.363 16.2108 13.2535 16.0998C13.101 15.9478 12.9575 15.787 12.8238 15.6183C12.7 15.4533 12.6498 15.331 12.6265 15.1923C12.6025 15.0535 12.6063 14.8998 12.688 14.7903C12.7698 14.6808 12.9303 14.6178 13.0885 14.611ZM13.1583 15.4443C13.1173 15.4434 13.0771 15.4554 13.0435 15.4788C13 15.5095 12.9648 15.5635 12.9738 15.6175C12.9828 15.6723 13.0375 15.727 13.1043 15.8088C13.171 15.8913 13.2505 16 13.3023 16.06C13.3533 16.12 13.3773 16.1298 13.3975 16.1283C13.4193 16.1268 13.438 16.1148 13.462 16.0923C13.4956 16.06 13.5199 16.0194 13.5325 15.9745C13.5577 15.8976 13.5582 15.8148 13.534 15.7375C13.4997 15.6535 13.4432 15.5804 13.3705 15.526C13.3106 15.4764 13.236 15.4477 13.1583 15.4443Z" fill="#B02121" fill-opacity="0.6"/>
</g>
<defs>
<clipPath id="clip0_1461_17">
<rect width="18" height="18" fill="white" transform="translate(1 1)"/>
</clipPath>
</defs>
</svg>
