<svg width="20" height="20" viewBox="0 0 20 20" fill="none" xmlns="http://www.w3.org/2000/svg">
<path d="M6.93783 15.7692C9.66347 15.7692 11.4366 14.3461 11.4366 12.2051C11.4366 10.5448 10.3583 9.48969 8.43014 9.05251L7.19296 8.68648C6.10706 8.4461 5.47309 8.15764 5.62245 7.42046C5.74681 6.80699 6.11796 6.46084 6.9827 6.46084C9.7295 6.46084 10.7474 7.42046 10.7474 7.42046V5.11276C10.7474 5.11276 9.75642 4.23071 6.9827 4.23071C4.36732 4.23071 2.94873 5.55764 2.94873 7.61084C2.94873 9.2711 3.93206 10.2371 5.92629 10.6955L6.1404 10.7487C6.4436 10.841 6.85322 10.9634 7.3686 11.1153C8.38783 11.3557 8.65001 11.6108 8.65001 12.3756C8.65001 13.0743 7.91283 13.4717 6.93847 13.4717C4.12886 13.4717 2.94873 12.0711 2.94873 12.0711V14.6281C2.94873 14.6281 3.68719 15.7692 6.93783 15.7692Z" fill="#9D39FF" fill-opacity="0.4"/>
<path d="M15.3679 15.5961C16.3326 15.5961 17.0516 14.9083 17.0516 13.9769C17.0516 13.0256 16.3535 12.3577 15.3682 12.3577C14.4035 12.3577 13.7051 13.0256 13.7051 13.9769C13.7051 14.9282 14.4032 15.5961 15.3679 15.5961Z" fill="#E80000" fill-opacity="0.6"/>
</svg>
