<svg width="20" height="20" viewBox="0 0 20 20" fill="none" xmlns="http://www.w3.org/2000/svg">
<g clip-path="url(#clip0_1430_1552)">
<path d="M10.6192 4.8626L13.1524 6.32453C13.2434 6.37587 13.2467 6.5182 13.1524 6.56953L10.1424 8.30793C10.0995 8.33314 10.0506 8.34642 10.0008 8.34642C9.95107 8.34642 9.90221 8.33314 9.8593 8.30793L6.84937 6.56953C6.7567 6.51987 6.75504 6.3742 6.84937 6.32453L9.38084 4.86253V2L2.91724 5.7318V13.1953L5.3957 11.7649V8.84107C5.39404 8.73673 5.51657 8.66227 5.6077 8.71853L8.61757 10.4569C8.66072 10.4817 8.6966 10.5174 8.7216 10.5604C8.74659 10.6034 8.75983 10.6522 8.75997 10.702V14.1771C8.76164 14.2815 8.6391 14.3559 8.54804 14.2997L6.01497 12.8377L3.53644 14.2682L10 18L16.4636 14.2682L13.9851 12.8377L11.452 14.2997C11.3626 14.3543 11.2368 14.2831 11.2401 14.1771V10.702C11.2401 10.5977 11.2981 10.5049 11.3825 10.4569L14.3924 8.71853C14.4818 8.66387 14.6076 8.73347 14.6044 8.84107V11.7649L17.0828 13.1953V5.7318L10.6192 2V4.8626Z" fill="white" fill-opacity="0.4"/>
<path d="M13.1523 6.56956L10.1423 8.30796C10.0994 8.33316 10.0505 8.34645 10.0008 8.34645C9.95101 8.34645 9.90215 8.33316 9.85924 8.30796L6.84931 6.56956C6.63363 6.45397 5.21668 8.47718 5.60764 8.71856L8.61751 10.457C8.66066 10.4817 8.69654 10.5174 8.72153 10.5604C8.74653 10.6034 8.75976 10.6523 8.75991 10.702V14.1772C8.76426 14.4498 11.2301 14.4918 11.24 14.1772V10.702C11.24 10.5977 11.298 10.505 11.3824 10.457L14.3924 8.71856C14.6609 8.55425 13.3958 6.43708 13.1523 6.56956Z" fill="white" fill-opacity="0.4"/>
</g>
<defs>
<clipPath id="clip0_1430_1552">
<rect width="16" height="16" fill="white" transform="translate(2 2)"/>
</clipPath>
</defs>
</svg>
