<svg width="1920" height="1080" viewBox="0 0 1920 1080" fill="none" xmlns="http://www.w3.org/2000/svg">
<rect width="1920" height="1080" fill="#FCFCFC"/>
<path d="M871.44 499.64L874.16 474.52H862.4C861.227 479.32 859.733 484.04 857.92 488.68C856.107 493.267 853.733 497.853 850.8 502.44L844.96 497.8C848.107 492.893 850.587 487.907 852.4 482.84C854.213 477.773 855.627 472.44 856.64 466.84C857.707 461.187 858.56 455.053 859.2 448.44C859.893 441.827 860.667 434.52 861.52 426.52H897.84C899.707 426.52 901.333 427.08 902.72 428.2C904.16 429.267 904.747 430.92 904.48 433.16L898.72 489.56C897.867 497.773 894.667 501.88 889.12 501.88C886.827 501.88 884.88 501.027 883.28 499.32C881.733 497.667 880.72 495.373 880.24 492.44L886.56 490.6C886.827 491.72 887.173 492.627 887.6 493.32C888.027 494.013 888.533 494.36 889.12 494.36C889.813 494.36 890.32 493.88 890.64 492.92C891.013 491.96 891.28 490.733 891.44 489.24L892.96 474.52H881.12L878.4 499.64H871.44ZM866.48 447.48H877.12L878.64 433.56H867.92C867.653 435.96 867.413 438.333 867.2 440.68C866.987 442.973 866.747 445.24 866.48 447.48ZM884.08 447.48H895.68L897.12 433.56H885.6L884.08 447.48ZM863.84 467.48H874.96L876.32 454.52H865.76C865.493 456.76 865.2 458.973 864.88 461.16C864.56 463.293 864.213 465.4 863.84 467.48ZM881.92 467.48H893.68L894.96 454.52H883.28L881.92 467.48ZM921.664 458.52L924.464 432.44H943.104L943.984 423.88H951.184L950.304 432.44H962.704C965.051 432.44 966.784 433.027 967.904 434.2C969.078 435.373 969.531 437.053 969.264 439.24L966.784 463H928.464C927.451 470.893 926.011 478.12 924.144 484.68C922.278 491.187 919.718 496.76 916.464 501.4L910.384 497.4C913.478 492.973 915.904 487.507 917.664 481C919.478 474.44 920.811 466.947 921.664 458.52ZM929.264 455.96H960.224L961.984 439.48H931.024L929.264 455.96ZM982.129 485.72L976.529 482.68C979.515 476.12 981.995 469.987 983.969 464.28C985.942 458.573 987.649 452.733 989.089 446.76H983.409L984.129 440.04H993.089L994.769 423.96H1001.49L999.809 440.04H1006.13L1005.41 446.76H999.089L998.449 452.44C1000.8 454.52 1003.22 456.893 1005.73 459.56L1009.09 426.52H1031.41C1033.7 426.52 1035.33 427.187 1036.29 428.52C1037.3 429.8 1037.7 431.373 1037.49 433.24L1030.53 500.84H1001.49L1005.49 461.64L1002.45 466.36C1000.8 464.333 999.169 462.467 997.569 460.76L993.249 501.4H986.529L991.089 459.32C990.075 463.533 988.849 467.773 987.409 472.04C986.022 476.253 984.262 480.813 982.129 485.72ZM1013.65 449.16H1029.01L1030.69 433.56H1015.25L1013.65 449.16ZM1011.41 471.24H1026.69L1028.37 455.8H1013.01L1011.41 471.24ZM1009.17 493.8H1024.37L1026.05 477.96H1010.77L1009.17 493.8ZM1047.63 502.44L1043.79 496.36C1050.67 492.36 1056.14 488.013 1060.19 483.32C1064.25 478.573 1067.23 473.187 1069.15 467.16H1048.51L1049.23 460.2H1070.91C1071.29 458.12 1071.58 455.907 1071.79 453.56L1072.75 444.28H1053.31L1054.11 437.32H1064.59C1063.58 435.187 1062.73 433.053 1062.03 430.92C1061.34 428.787 1060.83 426.787 1060.51 424.92L1067.55 423.96C1067.98 426.147 1068.54 428.36 1069.23 430.6C1069.93 432.84 1070.78 435.08 1071.79 437.32H1082.51C1083.85 435.133 1085.02 432.947 1086.03 430.76C1087.05 428.52 1087.95 426.253 1088.75 423.96L1095.15 426.04C1094.62 427.907 1093.9 429.773 1092.99 431.64C1092.09 433.507 1091.05 435.4 1089.87 437.32H1099.31L1098.59 444.28H1079.95L1078.99 453.8C1078.78 456.04 1078.51 458.173 1078.19 460.2H1099.71L1098.99 467.16H1078.27C1079.23 471.107 1080.65 474.947 1082.51 478.68C1084.38 482.36 1086.62 485.72 1089.23 488.76C1091.85 491.747 1094.7 494.12 1097.79 495.88L1093.07 501.8C1088.43 498.707 1084.51 494.893 1081.31 490.36C1078.17 485.773 1075.69 480.707 1073.87 475.16C1071.58 480.333 1068.33 485.187 1064.11 489.72C1059.95 494.253 1054.46 498.493 1047.63 502.44ZM1134.5 501.4L1129.06 496.68C1131.19 493.693 1133 490.573 1134.5 487.32C1136.04 484.013 1137.35 480.36 1138.42 476.36C1139.48 472.36 1140.42 467.827 1141.22 462.76H1136.1L1136.82 455.56H1142.26C1142.58 453.16 1142.87 450.573 1143.14 447.8L1144.66 433.96H1139.62L1140.34 426.76H1169.3L1168.5 433.96H1164.02L1161.78 455.56H1167.7L1166.9 462.76H1160.98L1156.9 501.4H1150.34L1154.42 462.76H1147.86C1147 468.413 1145.99 473.507 1144.82 478.04C1143.64 482.52 1142.2 486.68 1140.5 490.52C1138.84 494.307 1136.84 497.933 1134.5 501.4ZM1120.02 497.32H1113.46L1117.06 463.4L1112.82 460.2C1115.27 456.147 1117.4 452.013 1119.22 447.8C1121.03 443.587 1122.6 439.267 1123.94 434.84H1117.54L1118.34 427.64H1138.34L1137.54 434.84H1130.34C1128.58 441.187 1126.42 447.213 1123.86 452.92H1128.98C1131.16 452.92 1132.66 453.427 1133.46 454.44C1134.26 455.453 1134.55 456.787 1134.34 458.44L1130.74 492.12H1120.58L1120.02 497.32ZM1149.86 447.72C1149.54 450.547 1149.22 453.16 1148.9 455.56H1155.22L1157.46 433.96H1151.38L1149.86 447.72ZM1121.14 486.36H1124.82L1127.78 458.68H1124.02L1121.14 486.36ZM1190.16 444.44H1183.04L1184.4 431.08H1205.12L1205.84 423.96H1213.2L1212.48 431.08H1227.28C1229.58 431.08 1231.23 431.693 1232.24 432.92C1233.26 434.093 1233.68 435.64 1233.52 437.56L1232.72 444.44H1225.6L1226.24 437.8H1190.88L1190.16 444.44ZM1185.52 458.12L1182.56 452.36C1185.82 451.133 1188.86 449.56 1191.68 447.64C1194.51 445.667 1196.94 443.373 1198.96 440.76L1203.92 444.84C1201.47 447.72 1198.64 450.307 1195.44 452.6C1192.3 454.84 1188.99 456.68 1185.52 458.12ZM1230.96 453.24L1226.56 458.52C1223.9 455.693 1221.2 453.213 1218.48 451.08C1215.76 448.947 1213.07 447.133 1210.4 445.64L1214.64 440.76C1217.26 442.253 1219.98 444.067 1222.8 446.2C1225.63 448.333 1228.35 450.68 1230.96 453.24ZM1180.08 502.2L1176.16 496.44C1179.42 493.987 1182.3 491.48 1184.8 488.92C1187.36 486.36 1189.55 483.533 1191.36 480.44C1193.18 477.293 1194.62 473.667 1195.68 469.56H1184.64L1185.36 462.76H1197.12L1198.64 453.56H1205.84L1204.4 462.76H1214.64C1219.12 462.76 1221.07 464.947 1220.48 469.32L1217.76 488.68C1217.55 490.493 1217.6 491.88 1217.92 492.84C1218.3 493.747 1219.07 494.2 1220.24 494.2C1221.31 494.2 1222.24 493.453 1223.04 491.96C1223.9 490.467 1224.72 487.667 1225.52 483.56L1231.44 485.72C1230.22 491.427 1228.64 495.453 1226.72 497.8C1224.8 500.2 1222.19 501.4 1218.88 501.4C1215.95 501.4 1213.68 500.307 1212.08 498.12C1210.54 495.987 1210.03 493 1210.56 489.16L1213.28 469.56H1203.04C1202.03 473.88 1200.62 477.933 1198.8 481.72C1196.99 485.453 1194.56 489.027 1191.52 492.44C1188.54 495.8 1184.72 499.053 1180.08 502.2Z" fill="black" fill-opacity="0.8"/>
<path d="M717.068 563.68C708.718 563.68 702.428 561.286 698.197 556.499C693.966 551.712 691.517 544.308 690.849 534.288C690.181 524.268 690.96 511.409 693.187 495.711C696.638 471.774 701.537 454.351 707.883 443.44C714.34 432.529 723.136 427.074 734.269 427.074C742.842 427.074 749.188 429.468 753.307 434.255C757.538 439.042 759.931 446.502 760.488 456.633C761.156 466.653 760.432 479.679 758.317 495.711C755.2 519.314 750.412 536.57 743.955 547.481C737.498 558.28 728.535 563.68 717.068 563.68ZM718.571 548.65C722.802 548.65 726.253 546.813 728.925 543.139C731.708 539.465 734.046 533.731 735.939 525.938C737.832 518.033 739.724 507.958 741.617 495.711C744.512 477.007 745.402 463.424 744.289 454.963C743.176 446.39 739.502 442.104 733.267 442.104C729.148 442.104 725.696 443.997 722.913 447.782C720.13 451.456 717.736 457.245 715.732 465.15C713.728 473.055 711.78 483.242 709.887 495.711C707.104 514.192 706.324 527.664 707.549 536.125C708.774 544.475 712.448 548.65 718.571 548.65ZM782.777 528.276C782.443 535.179 783.557 540.3 786.117 543.64C788.678 546.98 791.684 548.65 795.135 548.65C799.366 548.65 802.984 546.702 805.99 542.805C808.996 538.908 811.334 532.674 813.004 524.101C815.12 513.413 814.118 505.787 809.998 501.222C805.879 496.546 798.531 494.653 787.954 495.544L790.96 482.685C797.64 481.572 803.43 479.067 808.328 475.17C813.338 471.273 816.511 466.486 817.847 460.808C818.627 457.691 818.794 454.685 818.348 451.79C817.903 448.895 816.845 446.502 815.175 444.609C813.505 442.716 811.112 441.77 807.994 441.77C801.76 441.77 797.028 445.889 793.799 454.128L779.103 450.788C781.553 444.219 785.171 438.653 789.958 434.088C794.746 429.412 801.147 427.074 809.163 427.074C815.955 427.074 821.41 428.688 825.529 431.917C829.649 435.034 832.432 439.154 833.879 444.275C835.327 449.285 835.438 454.685 834.213 460.474C832.989 466.486 830.595 471.719 827.032 476.172C823.581 480.514 819.406 484.021 814.507 486.693C821.521 488.808 826.086 493.095 828.201 499.552C830.428 505.898 830.873 513.636 829.537 522.765C827.422 536.57 823.08 546.869 816.511 553.66C810.054 560.34 802.316 563.68 793.298 563.68C788.622 563.68 784.28 562.567 780.272 560.34C776.264 558.225 773.091 554.773 770.753 549.986C768.415 545.087 767.413 538.519 767.747 530.28L782.777 528.276Z" fill="black" fill-opacity="0.8"/>
<path d="M869.24 529.08H871.6L868.44 547.56C867.773 551.187 866.413 553.96 864.36 555.88C862.307 557.8 859.693 558.76 856.52 558.76C853.427 558.76 851.04 557.893 849.36 556.16C847.707 554.427 846.88 552.107 846.88 549.2C846.88 548.453 846.973 547.493 847.16 546.32L850.12 529.08H852.48L849.56 546C849.373 547.173 849.28 548.12 849.28 548.84C849.28 551.267 849.907 553.16 851.16 554.52C852.44 555.88 854.28 556.56 856.68 556.56C859.187 556.56 861.24 555.773 862.84 554.2C864.467 552.627 865.547 550.307 866.08 547.24L869.24 529.08ZM886.973 553.56C886.706 555.187 885.946 556.453 884.692 557.36C883.466 558.293 881.932 558.76 880.093 558.76C878.012 558.76 876.266 558.213 874.852 557.12C873.466 556.027 872.666 554.6 872.452 552.84L874.292 552C874.559 553.493 875.212 554.653 876.252 555.48C877.292 556.28 878.572 556.68 880.093 556.68C881.293 556.68 882.306 556.4 883.132 555.84C883.959 555.28 884.466 554.48 884.653 553.44C884.706 553.12 884.733 552.907 884.733 552.8C884.733 552.133 884.533 551.56 884.132 551.08C883.733 550.573 883.239 550.16 882.652 549.84C882.092 549.493 881.306 549.093 880.292 548.64C879.119 548.08 878.186 547.6 877.492 547.2C876.799 546.773 876.199 546.227 875.692 545.56C875.212 544.867 874.972 544.04 874.972 543.08C874.972 541.827 875.279 540.747 875.892 539.84C876.532 538.933 877.359 538.253 878.373 537.8C879.412 537.347 880.532 537.12 881.732 537.12C883.519 537.12 885.013 537.587 886.213 538.52C887.413 539.453 888.093 540.613 888.253 542L886.413 542.84C886.226 541.773 885.693 540.907 884.813 540.24C883.933 539.547 882.866 539.2 881.613 539.2C880.413 539.2 879.399 539.52 878.572 540.16C877.746 540.8 877.332 541.68 877.332 542.8C877.332 543.44 877.519 544 877.892 544.48C878.292 544.96 878.759 545.36 879.292 545.68C879.853 545.973 880.653 546.36 881.693 546.84C882.839 547.347 883.772 547.827 884.493 548.28C885.213 548.707 885.826 549.267 886.333 549.96C886.839 550.627 887.092 551.453 887.092 552.44C887.092 552.787 887.053 553.16 886.973 553.56ZM900.113 556.64C902.647 556.64 904.633 555.507 906.073 553.24L907.713 554.4C906.887 555.84 905.78 556.92 904.393 557.64C903.033 558.387 901.54 558.76 899.913 558.76C897.433 558.76 895.447 557.96 893.953 556.36C892.46 554.733 891.713 552.573 891.713 549.88C891.713 549.027 891.793 548.147 891.953 547.24C892.327 545.053 893.033 543.2 894.073 541.68C895.14 540.16 896.42 539.027 897.913 538.28C899.407 537.507 900.98 537.12 902.633 537.12C904.553 537.12 906.06 537.613 907.153 538.6C908.247 539.587 908.793 540.907 908.793 542.56C908.793 544.533 907.94 546 906.233 546.96C904.527 547.92 901.82 548.4 898.113 548.4C897.393 548.4 896.073 548.347 894.153 548.24C894.073 548.8 894.033 549.333 894.033 549.84C894.033 551.973 894.58 553.64 895.673 554.84C896.767 556.04 898.247 556.64 900.113 556.64ZM902.513 539.2C900.647 539.2 898.98 539.8 897.513 541C896.047 542.173 895.033 543.947 894.473 546.32C895.78 546.427 897.14 546.48 898.553 546.48C901.273 546.48 903.287 546.173 904.593 545.56C905.9 544.92 906.553 543.92 906.553 542.56C906.553 541.52 906.207 540.707 905.513 540.12C904.82 539.507 903.82 539.2 902.513 539.2ZM922.396 537.12C923.116 537.12 923.73 537.24 924.236 537.48C924.743 537.693 925.116 537.973 925.356 538.32L924.316 540.08C923.836 539.547 923.076 539.28 922.036 539.28C920.65 539.28 919.396 539.827 918.276 540.92C917.156 541.987 916.37 543.587 915.916 545.72L913.716 558.36H911.516L915.156 537.52H917.076C916.863 539.12 916.69 540.28 916.556 541C917.276 539.693 918.143 538.72 919.156 538.08C920.17 537.44 921.25 537.12 922.396 537.12ZM958.368 538.04C958.021 539.987 957.168 541.6 955.808 542.88C954.448 544.133 952.728 544.987 950.648 545.44L957.488 558.36H954.688L948.208 545.8H947.648H941.648L939.488 558.36H937.128L942.208 529.08H949.488C951.301 529.08 952.888 529.4 954.248 530.04C955.608 530.653 956.661 531.52 957.408 532.64C958.154 533.76 958.528 535.04 958.528 536.48C958.528 536.827 958.474 537.347 958.368 538.04ZM955.887 537.8C955.968 537.4 956.008 537 956.008 536.6C956.008 534.973 955.394 533.667 954.168 532.68C952.941 531.667 951.208 531.16 948.968 531.16H944.208L942.048 543.68H947.288C949.688 543.68 951.634 543.173 953.128 542.16C954.621 541.147 955.541 539.693 955.887 537.8ZM969.448 556.64C971.981 556.64 973.968 555.507 975.408 553.24L977.048 554.4C976.221 555.84 975.114 556.92 973.728 557.64C972.368 558.387 970.874 558.76 969.248 558.76C966.768 558.76 964.781 557.96 963.288 556.36C961.794 554.733 961.048 552.573 961.048 549.88C961.048 549.027 961.128 548.147 961.288 547.24C961.661 545.053 962.368 543.2 963.408 541.68C964.474 540.16 965.754 539.027 967.248 538.28C968.741 537.507 970.314 537.12 971.968 537.12C973.888 537.12 975.394 537.613 976.488 538.6C977.581 539.587 978.128 540.907 978.128 542.56C978.128 544.533 977.274 546 975.568 546.96C973.861 547.92 971.154 548.4 967.448 548.4C966.728 548.4 965.408 548.347 963.488 548.24C963.408 548.8 963.368 549.333 963.368 549.84C963.368 551.973 963.914 553.64 965.008 554.84C966.101 556.04 967.581 556.64 969.448 556.64ZM971.848 539.2C969.981 539.2 968.314 539.8 966.848 541C965.381 542.173 964.368 543.947 963.808 546.32C965.114 546.427 966.474 546.48 967.888 546.48C970.608 546.48 972.621 546.173 973.928 545.56C975.234 544.92 975.888 543.92 975.888 542.56C975.888 541.52 975.541 540.707 974.848 540.12C974.154 539.507 973.154 539.2 971.848 539.2ZM994.841 553.56C994.575 555.187 993.815 556.453 992.561 557.36C991.335 558.293 989.801 558.76 987.961 558.76C985.881 558.76 984.135 558.213 982.721 557.12C981.335 556.027 980.535 554.6 980.321 552.84L982.161 552C982.428 553.493 983.081 554.653 984.121 555.48C985.161 556.28 986.441 556.68 987.961 556.68C989.161 556.68 990.175 556.4 991.001 555.84C991.828 555.28 992.335 554.48 992.521 553.44C992.575 553.12 992.601 552.907 992.601 552.8C992.601 552.133 992.401 551.56 992.001 551.08C991.601 550.573 991.108 550.16 990.521 549.84C989.961 549.493 989.175 549.093 988.161 548.64C986.988 548.08 986.055 547.6 985.361 547.2C984.668 546.773 984.068 546.227 983.561 545.56C983.081 544.867 982.841 544.04 982.841 543.08C982.841 541.827 983.148 540.747 983.761 539.84C984.401 538.933 985.228 538.253 986.241 537.8C987.281 537.347 988.401 537.12 989.601 537.12C991.388 537.12 992.881 537.587 994.081 538.52C995.281 539.453 995.961 540.613 996.121 542L994.281 542.84C994.095 541.773 993.561 540.907 992.681 540.24C991.801 539.547 990.735 539.2 989.481 539.2C988.281 539.2 987.268 539.52 986.441 540.16C985.615 540.8 985.201 541.68 985.201 542.8C985.201 543.44 985.388 544 985.761 544.48C986.161 544.96 986.628 545.36 987.161 545.68C987.721 545.973 988.521 546.36 989.561 546.84C990.708 547.347 991.641 547.827 992.361 548.28C993.081 548.707 993.695 549.267 994.201 549.96C994.708 550.627 994.961 551.453 994.961 552.44C994.961 552.787 994.921 553.16 994.841 553.56ZM1007.98 556.64C1010.52 556.64 1012.5 555.507 1013.94 553.24L1015.58 554.4C1014.76 555.84 1013.65 556.92 1012.26 557.64C1010.9 558.387 1009.41 558.76 1007.78 558.76C1005.3 558.76 1003.32 557.96 1001.82 556.36C1000.33 554.733 999.582 552.573 999.582 549.88C999.582 549.027 999.662 548.147 999.822 547.24C1000.2 545.053 1000.9 543.2 1001.94 541.68C1003.01 540.16 1004.29 539.027 1005.78 538.28C1007.28 537.507 1008.85 537.12 1010.5 537.12C1012.42 537.12 1013.93 537.613 1015.02 538.6C1016.12 539.587 1016.66 540.907 1016.66 542.56C1016.66 544.533 1015.81 546 1014.1 546.96C1012.4 547.92 1009.69 548.4 1005.98 548.4C1005.26 548.4 1003.94 548.347 1002.02 548.24C1001.94 548.8 1001.9 549.333 1001.9 549.84C1001.9 551.973 1002.45 553.64 1003.54 554.84C1004.64 556.04 1006.12 556.64 1007.98 556.64ZM1010.38 539.2C1008.52 539.2 1006.85 539.8 1005.38 541C1003.92 542.173 1002.9 543.947 1002.34 546.32C1003.65 546.427 1005.01 546.48 1006.42 546.48C1009.14 546.48 1011.16 546.173 1012.46 545.56C1013.77 544.92 1014.42 543.92 1014.42 542.56C1014.42 541.52 1014.08 540.707 1013.38 540.12C1012.69 539.507 1011.69 539.2 1010.38 539.2ZM1039.99 537.52L1036.35 558.36H1034.43C1034.67 557.053 1034.85 555.707 1034.99 554.32C1034.16 555.867 1033.11 556.987 1031.83 557.68C1030.57 558.4 1029.25 558.76 1027.87 558.76C1026.35 558.76 1024.97 558.387 1023.75 557.64C1022.55 556.92 1021.6 555.88 1020.91 554.52C1020.21 553.133 1019.87 551.533 1019.87 549.72C1019.87 548.893 1019.95 548.027 1020.11 547.12C1020.48 544.987 1021.17 543.173 1022.19 541.68C1023.23 540.16 1024.45 539.027 1025.87 538.28C1027.28 537.507 1028.75 537.12 1030.27 537.12C1031.97 537.12 1033.41 537.6 1034.59 538.56C1035.79 539.493 1036.57 540.8 1036.95 542.48C1037.48 540.267 1037.85 538.613 1038.07 537.52H1039.99ZM1028.15 556.64C1029.99 556.64 1031.6 555.973 1032.99 554.64C1034.4 553.28 1035.36 551.173 1035.87 548.32C1036 547.627 1036.07 546.84 1036.07 545.96C1036.07 543.747 1035.49 542.08 1034.35 540.96C1033.23 539.84 1031.84 539.28 1030.19 539.28C1028.32 539.28 1026.67 539.973 1025.23 541.36C1023.81 542.72 1022.88 544.693 1022.43 547.28C1022.29 547.973 1022.23 548.773 1022.23 549.68C1022.23 551.84 1022.76 553.547 1023.83 554.8C1024.92 556.027 1026.36 556.64 1028.15 556.64ZM1054.18 537.12C1054.9 537.12 1055.51 537.24 1056.02 537.48C1056.53 537.693 1056.9 537.973 1057.14 538.32L1056.1 540.08C1055.62 539.547 1054.86 539.28 1053.82 539.28C1052.43 539.28 1051.18 539.827 1050.06 540.92C1048.94 541.987 1048.15 543.587 1047.7 545.72L1045.5 558.36H1043.3L1046.94 537.52H1048.86C1048.65 539.12 1048.47 540.28 1048.34 541C1049.06 539.693 1049.93 538.72 1050.94 538.08C1051.95 537.44 1053.03 537.12 1054.18 537.12ZM1065.75 556.6C1067.96 556.6 1069.71 555.627 1070.99 553.68L1072.67 554.92C1071.79 556.307 1070.74 557.293 1069.51 557.88C1068.31 558.467 1067.03 558.76 1065.67 558.76C1063.96 558.76 1062.47 558.36 1061.19 557.56C1059.91 556.787 1058.92 555.707 1058.23 554.32C1057.54 552.907 1057.19 551.307 1057.19 549.52C1057.19 548.693 1057.27 547.867 1057.43 547.04C1057.78 544.96 1058.47 543.173 1059.51 541.68C1060.55 540.187 1061.79 539.053 1063.23 538.28C1064.7 537.507 1066.22 537.12 1067.79 537.12C1069.47 537.12 1070.92 537.547 1072.15 538.4C1073.4 539.227 1074.2 540.347 1074.55 541.76L1072.67 542.64C1072.38 541.6 1071.78 540.787 1070.87 540.2C1069.99 539.587 1068.92 539.28 1067.67 539.28C1065.8 539.28 1064.12 539.973 1062.63 541.36C1061.14 542.72 1060.18 544.667 1059.75 547.2C1059.62 548.08 1059.55 548.84 1059.55 549.48C1059.55 551.613 1060.1 553.333 1061.19 554.64C1062.31 555.947 1063.83 556.6 1065.75 556.6ZM1088.13 537.12C1090.08 537.12 1091.64 537.72 1092.81 538.92C1094.01 540.093 1094.61 541.773 1094.61 543.96C1094.61 544.547 1094.55 545.28 1094.41 546.16L1092.25 558.36H1090.01L1092.09 546.4C1092.23 545.6 1092.29 544.92 1092.29 544.36C1092.29 542.707 1091.87 541.453 1091.01 540.6C1090.19 539.72 1089.04 539.28 1087.57 539.28C1085.97 539.28 1084.52 539.813 1083.21 540.88C1081.93 541.92 1081.08 543.44 1080.65 545.44L1078.37 558.36H1076.17L1081.49 527.92H1083.73L1081.49 540.68C1082.27 539.507 1083.23 538.627 1084.37 538.04C1085.52 537.427 1086.77 537.12 1088.13 537.12Z" fill="black" fill-opacity="0.7"/>
</svg>
