<svg width="1920" height="1080" viewBox="0 0 1920 1080" fill="none" xmlns="http://www.w3.org/2000/svg">
<rect width="1920" height="1080" fill="#FCFCFC"/>
<path d="M123.464 128.784L125.096 113.712H118.04C117.336 116.592 116.44 119.424 115.352 122.208C114.264 124.96 112.84 127.712 111.08 130.464L107.576 127.68C109.464 124.736 110.952 121.744 112.04 118.704C113.128 115.664 113.976 112.464 114.584 109.104C115.224 105.712 115.736 102.032 116.12 98.064C116.536 94.096 117 89.712 117.512 84.912H139.304C140.424 84.912 141.4 85.248 142.232 85.92C143.096 86.56 143.448 87.552 143.288 88.896L139.832 122.736C139.32 127.664 137.4 130.128 134.072 130.128C132.696 130.128 131.528 129.616 130.568 128.592C129.64 127.6 129.032 126.224 128.744 124.464L132.536 123.36C132.696 124.032 132.904 124.576 133.16 124.992C133.416 125.408 133.72 125.616 134.072 125.616C134.488 125.616 134.792 125.328 134.984 124.752C135.208 124.176 135.368 123.44 135.464 122.544L136.376 113.712H129.272L127.64 128.784H123.464ZM120.488 97.488H126.872L127.784 89.136H121.352C121.192 90.576 121.048 92 120.92 93.408C120.792 94.784 120.648 96.144 120.488 97.488ZM131.048 97.488H138.008L138.872 89.136H131.96L131.048 97.488ZM118.904 109.488H125.576L126.392 101.712H120.056C119.896 103.056 119.72 104.384 119.528 105.696C119.336 106.976 119.128 108.24 118.904 109.488ZM129.752 109.488H136.808L137.576 101.712H130.568L129.752 109.488ZM153.599 104.112L155.279 88.464H166.463L166.991 83.328H171.311L170.783 88.464H178.223C179.631 88.464 180.671 88.816 181.343 89.52C182.047 90.224 182.319 91.232 182.159 92.544L180.671 106.8H157.679C157.071 111.536 156.207 115.872 155.087 119.808C153.967 123.712 152.431 127.056 150.479 129.84L146.831 127.44C148.687 124.784 150.143 121.504 151.199 117.6C152.287 113.664 153.087 109.168 153.599 104.112ZM158.159 102.576H176.735L177.791 92.688H159.215L158.159 102.576ZM200.437 129.888L197.173 127.104C199.029 124.768 200.533 122.16 201.685 119.28C202.869 116.4 203.813 113.296 204.517 109.968C205.221 106.64 205.797 103.136 206.245 99.456L206.917 94.176H202.165L202.597 89.904H211.093L211.765 83.376H215.797L215.125 89.904H223.477L223.045 94.176H211.045L210.421 99.456C210.357 100.032 210.277 100.608 210.181 101.184H216.661C217.781 101.184 218.661 101.536 219.301 102.24C219.973 102.944 220.229 103.904 220.069 105.12L218.005 123.072C217.781 124.992 217.205 126.608 216.277 127.92C215.349 129.232 214.005 129.888 212.245 129.888C210.549 129.888 209.189 129.328 208.165 128.208C207.173 127.12 206.565 125.68 206.341 123.888L209.845 123.264C210.005 124.032 210.245 124.672 210.565 125.184C210.885 125.696 211.317 125.952 211.861 125.952C212.373 125.952 212.789 125.712 213.109 125.232C213.461 124.752 213.701 123.968 213.829 122.88L215.941 105.312H209.557C209.045 108.384 208.389 111.424 207.589 114.432C206.821 117.408 205.845 120.224 204.661 122.88C203.509 125.504 202.101 127.84 200.437 129.888ZM200.869 92.016L197.029 94.08C196.421 92.512 195.733 91.008 194.965 89.568C194.197 88.096 193.349 86.736 192.421 85.488L196.213 83.424C197.141 84.8 197.989 86.208 198.757 87.648C199.557 89.056 200.261 90.512 200.869 92.016ZM190.933 125.616L188.533 122.112C189.813 121.216 191.077 120.272 192.325 119.28L194.197 101.904H189.925L190.357 97.584H194.629C196.005 97.584 196.997 97.984 197.605 98.784C198.213 99.584 198.453 100.576 198.325 101.76L196.933 115.2C197.765 114.368 198.597 113.504 199.429 112.608L202.165 115.728C200.405 117.616 198.581 119.392 196.693 121.056C194.805 122.688 192.885 124.208 190.933 125.616ZM239.74 91.92L235.852 93.696C235.436 92.224 234.94 90.784 234.364 89.376C233.788 87.936 233.1 86.544 232.3 85.2L236.188 83.424C236.988 84.896 237.676 86.32 238.252 87.696C238.828 89.072 239.324 90.48 239.74 91.92ZM241.564 105.744L239.212 102C241.1 100.848 242.668 99.712 243.916 98.592C245.196 97.472 246.252 96.224 247.084 94.848C247.916 93.472 248.572 91.872 249.052 90.048C249.564 88.192 249.964 86 250.252 83.472L254.284 83.52C253.836 87.328 253.212 90.464 252.412 92.928C254.012 94.464 255.564 96.08 257.068 97.776C258.572 99.472 260.044 101.264 261.484 103.152L258.46 106.032C257.18 104.368 255.884 102.784 254.572 101.28C253.292 99.776 251.964 98.368 250.588 97.056C249.564 98.848 248.3 100.4 246.796 101.712C245.324 103.024 243.58 104.368 241.564 105.744ZM247.132 92.64L243.532 94.368C243.212 92.896 242.748 91.456 242.14 90.048C241.564 88.64 241.036 87.488 240.556 86.592L244.06 84.912C244.668 85.936 245.228 87.12 245.74 88.464C246.252 89.808 246.716 91.2 247.132 92.64ZM255.244 92.688C255.98 91.536 256.636 90.304 257.212 88.992C257.82 87.648 258.348 86.288 258.796 84.912L262.54 86.496C261.996 87.936 261.388 89.328 260.716 90.672C260.044 92.016 259.324 93.312 258.556 94.56L255.244 92.688ZM230.14 126.96L227.98 123.456C229.132 122.752 230.268 122 231.388 121.2L233.452 101.664H229.564L229.948 97.584H233.932C235.276 97.584 236.22 97.968 236.764 98.736C237.308 99.504 237.532 100.384 237.436 101.376L235.708 117.792C236.572 117.024 237.404 116.24 238.204 115.44L240.796 118.608C237.404 121.872 233.852 124.656 230.14 126.96ZM237.964 129.792L235.468 126.144C237.868 124.864 239.948 123.408 241.708 121.776C243.5 120.112 244.94 118.112 246.028 115.776C247.116 113.408 247.852 110.528 248.236 107.136L248.572 104.112H252.748L252.22 108.24C252.092 109.232 251.932 110.192 251.74 111.12C252.284 114.544 253.388 117.472 255.052 119.904C256.716 122.304 258.748 124.496 261.148 126.48L258.364 130.032C256.348 128.368 254.604 126.528 253.132 124.512C251.66 122.496 250.492 120.256 249.628 117.792C248.444 120.352 246.892 122.624 244.972 124.608C243.084 126.592 240.748 128.32 237.964 129.792ZM245.068 115.008L241.468 116.736C241.148 115.264 240.684 113.824 240.076 112.416C239.5 111.008 238.972 109.856 238.492 108.96L241.996 107.28C243.18 109.424 244.204 112 245.068 115.008ZM253.516 115.248C254.252 114.096 254.924 112.864 255.532 111.552C256.14 110.208 256.668 108.848 257.116 107.472L260.764 108.96C260.188 110.4 259.564 111.792 258.892 113.136C258.252 114.48 257.548 115.776 256.78 117.024L253.516 115.248ZM269.058 127.44H264.978L278.658 88.56H282.738L269.058 127.44Z" fill="black" fill-opacity="0.8"/>
<path d="M308.93 97.56H310.7L308.33 111.42C307.83 114.14 306.81 116.22 305.27 117.66C303.73 119.1 301.77 119.82 299.39 119.82C297.07 119.82 295.28 119.17 294.02 117.87C292.78 116.57 292.16 114.83 292.16 112.65C292.16 112.09 292.23 111.37 292.37 110.49L294.59 97.56H296.36L294.17 110.25C294.03 111.13 293.96 111.84 293.96 112.38C293.96 114.2 294.43 115.62 295.37 116.64C296.33 117.66 297.71 118.17 299.51 118.17C301.39 118.17 302.93 117.58 304.13 116.4C305.35 115.22 306.16 113.48 306.56 111.18L308.93 97.56ZM322.229 115.92C322.029 117.14 321.459 118.09 320.519 118.77C319.599 119.47 318.449 119.82 317.069 119.82C315.509 119.82 314.199 119.41 313.139 118.59C312.099 117.77 311.499 116.7 311.339 115.38L312.719 114.75C312.919 115.87 313.409 116.74 314.189 117.36C314.969 117.96 315.929 118.26 317.069 118.26C317.969 118.26 318.729 118.05 319.349 117.63C319.969 117.21 320.349 116.61 320.489 115.83C320.529 115.59 320.549 115.43 320.549 115.35C320.549 114.85 320.399 114.42 320.099 114.06C319.799 113.68 319.429 113.37 318.989 113.13C318.569 112.87 317.979 112.57 317.219 112.23C316.339 111.81 315.639 111.45 315.119 111.15C314.599 110.83 314.149 110.42 313.769 109.92C313.409 109.4 313.229 108.78 313.229 108.06C313.229 107.12 313.459 106.31 313.919 105.63C314.399 104.95 315.019 104.44 315.779 104.1C316.559 103.76 317.399 103.59 318.299 103.59C319.639 103.59 320.759 103.94 321.659 104.64C322.559 105.34 323.069 106.21 323.189 107.25L321.809 107.88C321.669 107.08 321.269 106.43 320.609 105.93C319.949 105.41 319.149 105.15 318.209 105.15C317.309 105.15 316.549 105.39 315.929 105.87C315.309 106.35 314.999 107.01 314.999 107.85C314.999 108.33 315.139 108.75 315.419 109.11C315.719 109.47 316.069 109.77 316.469 110.01C316.889 110.23 317.489 110.52 318.269 110.88C319.129 111.26 319.829 111.62 320.369 111.96C320.909 112.28 321.369 112.7 321.749 113.22C322.129 113.72 322.319 114.34 322.319 115.08C322.319 115.34 322.289 115.62 322.229 115.92ZM332.085 118.23C333.985 118.23 335.475 117.38 336.555 115.68L337.785 116.55C337.165 117.63 336.335 118.44 335.295 118.98C334.275 119.54 333.155 119.82 331.935 119.82C330.075 119.82 328.585 119.22 327.465 118.02C326.345 116.8 325.785 115.18 325.785 113.16C325.785 112.52 325.845 111.86 325.965 111.18C326.245 109.54 326.775 108.15 327.555 107.01C328.355 105.87 329.315 105.02 330.435 104.46C331.555 103.88 332.735 103.59 333.975 103.59C335.415 103.59 336.545 103.96 337.365 104.7C338.185 105.44 338.595 106.43 338.595 107.67C338.595 109.15 337.955 110.25 336.675 110.97C335.395 111.69 333.365 112.05 330.585 112.05C330.045 112.05 329.055 112.01 327.615 111.93C327.555 112.35 327.525 112.75 327.525 113.13C327.525 114.73 327.935 115.98 328.755 116.88C329.575 117.78 330.685 118.23 332.085 118.23ZM333.885 105.15C332.485 105.15 331.235 105.6 330.135 106.5C329.035 107.38 328.275 108.71 327.855 110.49C328.835 110.57 329.855 110.61 330.915 110.61C332.955 110.61 334.465 110.38 335.445 109.92C336.425 109.44 336.915 108.69 336.915 107.67C336.915 106.89 336.655 106.28 336.135 105.84C335.615 105.38 334.865 105.15 333.885 105.15ZM348.797 103.59C349.337 103.59 349.797 103.68 350.177 103.86C350.557 104.02 350.837 104.23 351.017 104.49L350.237 105.81C349.877 105.41 349.307 105.21 348.527 105.21C347.487 105.21 346.547 105.62 345.707 106.44C344.867 107.24 344.277 108.44 343.937 110.04L342.287 119.52H340.637L343.367 103.89H344.807C344.647 105.09 344.517 105.96 344.417 106.5C344.957 105.52 345.607 104.79 346.367 104.31C347.127 103.83 347.937 103.59 348.797 103.59ZM361.616 119.52H359.846L363.656 97.56H365.456L361.616 119.52ZM376.025 103.59C377.485 103.59 378.655 104.04 379.535 104.94C380.435 105.82 380.885 107.08 380.885 108.72C380.885 109.16 380.835 109.71 380.735 110.37L379.115 119.52H377.435L378.995 110.55C379.095 109.95 379.145 109.44 379.145 109.02C379.145 107.78 378.825 106.84 378.185 106.2C377.565 105.54 376.705 105.21 375.605 105.21C374.365 105.21 373.245 105.63 372.245 106.47C371.265 107.31 370.635 108.53 370.355 110.13L368.705 119.52H367.055L369.785 103.89H371.225L370.835 106.53C371.415 105.57 372.155 104.84 373.055 104.34C373.955 103.84 374.945 103.59 376.025 103.59ZM393.114 105.36H388.764L387.084 114.9C387.004 115.46 386.964 115.83 386.964 116.01C386.964 117.49 387.654 118.23 389.034 118.23C389.754 118.23 390.424 118 391.044 117.54L391.584 118.95C390.764 119.53 389.834 119.82 388.794 119.82C387.774 119.82 386.924 119.55 386.244 119.01C385.584 118.47 385.254 117.58 385.254 116.34C385.254 115.88 385.294 115.42 385.374 114.96L387.054 105.36H384.504L384.774 103.89H387.324L388.074 99.57H389.784L389.004 103.89H393.354L393.114 105.36ZM400.77 118.23C402.67 118.23 404.16 117.38 405.24 115.68L406.47 116.55C405.85 117.63 405.02 118.44 403.98 118.98C402.96 119.54 401.84 119.82 400.62 119.82C398.76 119.82 397.27 119.22 396.15 118.02C395.03 116.8 394.47 115.18 394.47 113.16C394.47 112.52 394.53 111.86 394.65 111.18C394.93 109.54 395.46 108.15 396.24 107.01C397.04 105.87 398 105.02 399.12 104.46C400.24 103.88 401.42 103.59 402.66 103.59C404.1 103.59 405.23 103.96 406.05 104.7C406.87 105.44 407.28 106.43 407.28 107.67C407.28 109.15 406.64 110.25 405.36 110.97C404.08 111.69 402.05 112.05 399.27 112.05C398.73 112.05 397.74 112.01 396.3 111.93C396.24 112.35 396.21 112.75 396.21 113.13C396.21 114.73 396.62 115.98 397.44 116.88C398.26 117.78 399.37 118.23 400.77 118.23ZM402.57 105.15C401.17 105.15 399.92 105.6 398.82 106.5C397.72 107.38 396.96 108.71 396.54 110.49C397.52 110.57 398.54 110.61 399.6 110.61C401.64 110.61 403.15 110.38 404.13 109.92C405.11 109.44 405.6 108.69 405.6 107.67C405.6 106.89 405.34 106.28 404.82 105.84C404.3 105.38 403.55 105.15 402.57 105.15ZM417.632 103.59C418.332 103.59 418.902 103.72 419.342 103.98L419.072 105.6C418.692 105.34 418.162 105.21 417.482 105.21C416.362 105.21 415.352 105.62 414.452 106.44C413.572 107.26 412.962 108.47 412.622 110.07L410.972 119.52H409.322L412.052 103.89H413.492L413.102 106.53C413.642 105.55 414.302 104.82 415.082 104.34C415.862 103.84 416.712 103.59 417.632 103.59ZM422.252 103.92L425.372 117.24L432.572 103.92H434.462L425.672 119.52H424.292L420.452 103.92H422.252ZM439.11 100.47C438.77 100.47 438.48 100.35 438.24 100.11C438 99.85 437.88 99.55 437.88 99.21C437.88 98.85 438 98.55 438.24 98.31C438.48 98.05 438.77 97.92 439.11 97.92C439.45 97.92 439.74 98.05 439.98 98.31C440.24 98.55 440.37 98.85 440.37 99.21C440.37 99.55 440.25 99.85 440.01 100.11C439.77 100.35 439.47 100.47 439.11 100.47ZM436.41 119.52H434.73L437.46 103.92H439.14L436.41 119.52ZM448.281 118.23C450.181 118.23 451.671 117.38 452.751 115.68L453.981 116.55C453.361 117.63 452.531 118.44 451.491 118.98C450.471 119.54 449.351 119.82 448.131 119.82C446.271 119.82 444.781 119.22 443.661 118.02C442.541 116.8 441.981 115.18 441.981 113.16C441.981 112.52 442.041 111.86 442.161 111.18C442.441 109.54 442.971 108.15 443.751 107.01C444.551 105.87 445.511 105.02 446.631 104.46C447.751 103.88 448.931 103.59 450.171 103.59C451.611 103.59 452.741 103.96 453.561 104.7C454.381 105.44 454.791 106.43 454.791 107.67C454.791 109.15 454.151 110.25 452.871 110.97C451.591 111.69 449.561 112.05 446.781 112.05C446.241 112.05 445.251 112.01 443.811 111.93C443.751 112.35 443.721 112.75 443.721 113.13C443.721 114.73 444.131 115.98 444.951 116.88C445.771 117.78 446.881 118.23 448.281 118.23ZM450.081 105.15C448.681 105.15 447.431 105.6 446.331 106.5C445.231 107.38 444.471 108.71 444.051 110.49C445.031 110.57 446.051 110.61 447.111 110.61C449.151 110.61 450.661 110.38 451.641 109.92C452.621 109.44 453.111 108.69 453.111 107.67C453.111 106.89 452.851 106.28 452.331 105.84C451.811 105.38 451.061 105.15 450.081 105.15ZM468.805 103.92L471.115 116.88L477.385 103.92H479.155L471.295 119.52H470.125L467.755 106.8L461.395 119.52H460.225L457.285 103.92H458.935L461.215 116.85L467.485 103.92H468.805Z" fill="black" fill-opacity="0.7"/>
<rect x="196.5" y="429.5" width="278" height="278" rx="139" fill="white"/>
<rect x="196.5" y="429.5" width="278" height="278" rx="139" stroke="black"/>
<path d="M256.295 545.18C255.152 543.827 253.577 542.088 251.57 539.965L252.655 538.845C253.705 539.895 255.315 541.598 257.485 543.955L256.295 545.18ZM259.515 541.225H278.345V565.41C278.345 566.647 278.217 567.568 277.96 568.175C277.703 568.805 277.248 569.248 276.595 569.505C275.942 569.762 274.985 569.89 273.725 569.89H270.05L269.7 568.245H273.235C274.262 568.245 275.008 568.175 275.475 568.035C275.942 567.895 276.257 567.627 276.42 567.23C276.607 566.833 276.7 566.192 276.7 565.305V542.905H259.515V541.225ZM273.97 564.22C273.9 565.153 273.643 565.772 273.2 566.075C272.78 566.355 271.987 566.495 270.82 566.495H269.035C268.008 566.495 267.273 566.32 266.83 565.97C266.41 565.597 266.2 564.943 266.2 564.01V557.99H262.175C262.175 558.387 262.152 558.772 262.105 559.145C261.988 560.685 261.708 561.957 261.265 562.96C260.822 563.963 260.168 564.838 259.305 565.585C258.442 566.308 257.228 567.067 255.665 567.86L254.755 566.425C256.202 565.748 257.31 565.107 258.08 564.5C258.873 563.87 259.457 563.147 259.83 562.33C260.203 561.513 260.448 560.452 260.565 559.145C260.612 558.772 260.635 558.387 260.635 557.99H257.1V549.415H265.535L269.07 544.27L270.26 545.075C269.467 546.288 268.498 547.735 267.355 549.415H271.87V557.99H267.74V563.555C267.74 564.138 267.845 564.523 268.055 564.71C268.288 564.897 268.743 564.99 269.42 564.99H270.61C271.193 564.99 271.613 564.955 271.87 564.885C272.127 564.792 272.29 564.663 272.36 564.5C272.453 564.313 272.512 564.01 272.535 563.59C272.582 562.61 272.605 561.455 272.605 560.125L274.11 560.44C274.11 560.837 274.098 561.42 274.075 562.19C274.052 562.96 274.017 563.637 273.97 564.22ZM259.76 544.27L260.53 545.32L262.63 548.295L261.37 549.1C261.113 548.68 260.728 548.132 260.215 547.455C259.725 546.755 259.375 546.242 259.165 545.915L258.535 545.04L259.76 544.27ZM252.935 570.03H251.255V545.495H252.935V570.03ZM270.33 550.85H258.675V556.555H270.33V550.85ZM312.505 554.665L311.035 554.14L313.135 549.485H293.85V547.945H303.65V543.745H295.285V542.31H303.65V538.425H305.295V542.31H314.15V543.745H305.295V547.945H314.815V549.415L312.505 554.665ZM291.225 546.65C290.385 545.413 288.763 543.313 286.36 540.35L287.69 539.3C290.14 542.31 291.773 544.398 292.59 545.565L291.225 546.65ZM293.71 562.96L294.515 564.43L288.775 569.365L287.69 568.07C288.017 567.697 288.227 567.44 288.32 567.3C288.413 567.137 288.46 566.915 288.46 566.635V551.83H284.89V550.115H290.105V566.005L293.71 562.96ZM315.27 561.91H306.205C305.995 562.47 305.773 562.983 305.54 563.45L308.76 565.13C309.717 565.643 310.767 566.203 311.91 566.81C313.077 567.393 314.197 567.977 315.27 568.56L314.36 569.995C313.053 569.202 310.475 567.825 306.625 565.865L304.63 564.815C303.697 565.982 302.378 566.997 300.675 567.86C298.995 568.723 296.778 569.54 294.025 570.31L293.36 568.735C296.673 567.848 299.17 566.88 300.85 565.83C302.53 564.78 303.708 563.473 304.385 561.91H293.15V560.37H304.875C305.132 559.297 305.283 558.013 305.33 556.52L305.365 555.155C305.435 552.145 305.47 550.663 305.47 550.71H307.185C307.185 551.877 307.15 553.16 307.08 554.56L307.045 556.415C306.998 557.908 306.858 559.227 306.625 560.37H315.27V561.91ZM302.425 555.26C301.842 554.933 300.978 554.49 299.835 553.93C298.692 553.37 297.887 552.973 297.42 552.74L296.02 552.04L296.58 550.78C298.423 551.597 300.57 552.647 303.02 553.93L302.425 555.26ZM294.655 554.525C295.378 554.875 297.152 555.785 299.975 557.255L301.34 557.99L300.745 559.25C299.205 558.41 296.977 557.255 294.06 555.785L294.655 554.525ZM350.55 555.26H340.015V564.85C340.015 565.877 340.202 566.577 340.575 566.95C340.972 567.3 341.707 567.475 342.78 567.475H345.23C346.117 567.475 346.782 567.405 347.225 567.265C347.668 567.102 347.972 566.845 348.135 566.495C348.322 566.145 348.438 565.632 348.485 564.955L348.59 560.545L350.27 560.895C350.27 561.502 350.247 562.248 350.2 563.135C350.177 563.998 350.142 564.768 350.095 565.445C350.048 566.472 349.873 567.253 349.57 567.79C349.29 568.303 348.835 568.653 348.205 568.84C347.575 569.05 346.653 569.155 345.44 569.155H342.22C341.17 569.155 340.365 569.038 339.805 568.805C339.245 568.595 338.848 568.222 338.615 567.685C338.382 567.125 338.265 566.343 338.265 565.34V555.26H331.58C331.58 555.82 331.568 556.205 331.545 556.415C331.405 558.935 331.008 560.988 330.355 562.575C329.725 564.162 328.722 565.55 327.345 566.74C325.992 567.907 324.055 569.097 321.535 570.31L320.485 568.63C322.888 567.557 324.72 566.507 325.98 565.48C327.24 564.453 328.15 563.252 328.71 561.875C329.293 560.475 329.643 558.643 329.76 556.38L329.795 555.26H320.485V553.545H335.045V546.3H326.68C325.7 548.447 324.627 550.418 323.46 552.215L321.885 551.305C324.102 548.155 325.898 544.328 327.275 539.825L328.99 540.245C328.5 541.808 327.975 543.255 327.415 544.585H335.045V538.425H336.9V544.585H348.59V546.3H336.9V553.545H350.55V555.26ZM385.935 543.01V544.62H355.555V543.01H365.005L361.925 539.195L363.675 538.6C363.815 538.787 364.002 539.032 364.235 539.335C364.492 539.615 364.76 539.942 365.04 540.315L367.21 543.01H374.21C375.61 541.33 376.788 539.802 377.745 538.425L379.425 539.055C378.702 540.128 377.698 541.447 376.415 543.01H385.935ZM381.175 547.735H382.855V565.795C382.855 566.775 382.738 567.522 382.505 568.035C382.295 568.548 381.887 568.922 381.28 569.155C380.697 569.388 379.833 569.505 378.69 569.505H374.875L374.56 567.825H378.34C379.18 567.825 379.787 567.767 380.16 567.65C380.557 567.51 380.825 567.277 380.965 566.95C381.105 566.623 381.175 566.11 381.175 565.41V547.735ZM358.25 569.82V548.68H369.905V566.285C369.905 567.522 369.648 568.373 369.135 568.84C368.645 569.307 367.723 569.54 366.37 569.54H363.535L363.22 567.895H365.88C366.557 567.895 367.058 567.837 367.385 567.72C367.735 567.603 367.968 567.417 368.085 567.16C368.202 566.88 368.26 566.46 368.26 565.9V562.225H359.93V569.82H358.25ZM374.455 549.31H376.03V564.15H374.455V549.31ZM368.26 554.735V550.325H359.93V554.735H368.26ZM359.93 556.345V560.65H368.26V556.345H359.93ZM407.845 545.88C407.798 548.26 407.74 549.928 407.67 550.885L407.635 552.075H418.87C418.87 552.728 418.777 554.595 418.59 557.675C418.427 560.732 418.287 563.053 418.17 564.64C418.077 565.807 417.855 566.693 417.505 567.3C417.155 567.907 416.607 568.327 415.86 568.56C415.137 568.817 414.098 568.945 412.745 568.945H408.755L408.44 567.23H412.185C413.235 567.23 414.052 567.148 414.635 566.985C415.218 566.798 415.65 566.483 415.93 566.04C416.21 565.597 416.385 564.943 416.455 564.08C416.548 562.703 416.642 560.977 416.735 558.9C416.852 556.8 416.933 555.12 416.98 553.86H407.53C407.367 556.543 407.075 558.783 406.655 560.58C406.258 562.377 405.64 564.022 404.8 565.515C403.96 566.985 402.793 568.537 401.3 570.17L399.83 568.945C401.487 567.172 402.712 565.527 403.505 564.01C404.322 562.47 404.893 560.732 405.22 558.795C405.547 556.835 405.78 554.128 405.92 550.675L406.06 545.88H401.055V544.095H411.275L410.155 541.47C409.595 540.21 409.245 539.405 409.105 539.055L410.785 538.565L411.835 540.945C412.558 542.672 413.013 543.722 413.2 544.095H421.39V545.88H407.845ZM397.975 546.685C397.438 545.938 396.657 544.923 395.63 543.64C394.603 542.333 393.705 541.213 392.935 540.28L394.335 539.265C394.942 539.942 395.747 540.922 396.75 542.205C397.777 543.488 398.652 544.62 399.375 545.6L397.975 546.685ZM401.615 560.37L402.175 562.12L395.56 567.965L394.44 566.565C394.79 566.215 395.012 565.935 395.105 565.725C395.222 565.515 395.28 565.27 395.28 564.99V551.585H391.01V549.8H397.03V564.5L401.615 560.37ZM304 594.47C303.253 595.66 302.087 596.722 300.5 597.655C298.913 598.588 296.685 599.545 293.815 600.525L293.08 598.95C296.02 597.993 298.213 597.083 299.66 596.22C301.13 595.333 302.122 594.377 302.635 593.35C303.148 592.323 303.405 591.017 303.405 589.43V584.565H305.19V589.465C305.19 590.888 305.015 592.067 304.665 593C306.438 593.98 308.562 595.182 311.035 596.605C313.532 598.028 314.955 598.857 315.305 599.09L314.465 600.56C314.068 600.303 312.668 599.475 310.265 598.075C307.862 596.675 305.773 595.473 304 594.47ZM290.945 592.265C290.432 591.542 289.673 590.55 288.67 589.29C287.667 588.007 286.838 586.968 286.185 586.175L287.445 585.09C289.965 588.17 291.587 590.212 292.31 591.215L290.945 592.265ZM299.625 593.14C298.412 591.81 296.802 590.118 294.795 588.065L295.915 586.98C297.548 588.543 299.17 590.223 300.78 592.02L299.625 593.14ZM313.8 588.1C312.797 589.313 311.152 591.017 308.865 593.21L307.675 592.055C308.562 591.262 309.448 590.41 310.335 589.5C311.245 588.567 311.992 587.738 312.575 587.015L313.8 588.1ZM293.92 607.84L294.48 609.52L288.985 614.42L287.865 613.125C288.192 612.705 288.413 612.39 288.53 612.18C288.647 611.97 288.705 611.725 288.705 611.445V597.48H284.96V595.765H290.385V611.025L293.92 607.84ZM305.155 603.43C305.692 605.927 306.823 608.12 308.55 610.01C310.3 611.877 312.575 613.393 315.375 614.56L314.57 616.24C312.073 615.143 309.973 613.767 308.27 612.11C306.567 610.453 305.318 608.563 304.525 606.44C303.802 608.423 302.542 610.22 300.745 611.83C298.972 613.44 296.615 614.922 293.675 616.275L292.835 614.665C296.522 613.008 299.217 611.188 300.92 609.205C302.623 607.222 303.475 604.842 303.475 602.065V598.25H305.225V602.135C305.225 602.438 305.202 602.87 305.155 603.43ZM299.065 607.455C297.758 605.798 296.288 604.095 294.655 602.345L295.81 601.26C297.14 602.683 298.633 604.41 300.29 606.44L299.065 607.455ZM308.095 606.615C309.962 604.585 311.467 602.8 312.61 601.26L313.87 602.17C312.563 603.92 311.035 605.752 309.285 607.665L308.095 606.615ZM332.21 602.87C330.74 601.353 329.282 599.942 327.835 598.635V616.03H326.155V597.025C324.918 600.688 323.133 604.282 320.8 607.805L320.1 605.88C321.267 604.153 322.375 602.17 323.425 599.93C324.475 597.69 325.327 595.462 325.98 593.245H320.695V591.495H326.155V584.495H327.835V591.495H332.84V593.245H327.835V596.57C330.168 598.577 331.965 600.21 333.225 601.47L332.21 602.87ZM350.62 591.635V593.385H346.105L346.14 611.48C346.14 612.507 346.012 613.288 345.755 613.825C345.498 614.362 345.067 614.747 344.46 614.98C343.853 615.213 342.978 615.33 341.835 615.33H337.46L337.145 613.615H341.38C342.22 613.615 342.838 613.545 343.235 613.405C343.655 613.265 343.947 613.008 344.11 612.635C344.273 612.262 344.355 611.702 344.355 610.955V595.1C341.508 601.307 337.273 606.697 331.65 611.27L330.46 609.87C333.4 607.49 335.932 604.947 338.055 602.24C340.202 599.533 341.975 596.582 343.375 593.385H334.275V591.635H344.355V584.53H346.105V591.635H350.62ZM386.005 603.85L386.145 605.6L381.14 606.265V616.205H379.39V606.475L369.17 607.84L369.03 606.125L379.39 604.725V584.74H381.14V604.515L386.005 603.85ZM363.045 585.02V597.55H368.435V599.195H363.045V602.03C363.022 602.007 363.22 602.17 363.64 602.52C365.88 604.387 367.397 605.682 368.19 606.405L367.35 607.875L363.045 604.025V616.485H361.435V602.24C360.128 605.577 358.378 608.703 356.185 611.62L355.45 609.835C356.593 608.295 357.678 606.568 358.705 604.655C359.732 602.718 360.513 600.898 361.05 599.195H355.66V597.55H361.435V585.02H363.045ZM364.13 595.1C365.017 593.21 366.043 590.76 367.21 587.75L368.645 588.275C367.292 591.635 366.23 594.108 365.46 595.695L364.13 595.1ZM376.66 594.12C375.237 592.743 373.312 591.04 370.885 589.01L371.935 587.75C373.988 589.43 375.925 591.11 377.745 592.79L376.66 594.12ZM358.74 595.59C358.063 593.677 357.142 591.273 355.975 588.38L357.375 587.82L358.915 591.74L360.21 595.065L358.74 595.59ZM375.855 602.45C374.852 601.587 373.79 600.688 372.67 599.755C371.573 598.822 370.57 597.993 369.66 597.27L370.71 595.94C371.807 596.803 373.883 598.53 376.94 601.12L375.855 602.45Z" fill="black"/>
<rect x="605.5" y="429.5" width="278" height="278" rx="139" fill="white"/>
<rect x="605.5" y="429.5" width="278" height="278" rx="139" stroke="black"/>
<path d="M668.69 554.42C667.57 554.91 666.31 555.423 664.91 555.96V566.53C664.91 567.65 664.642 568.455 664.105 568.945C663.568 569.435 662.67 569.68 661.41 569.68H658.995L658.715 567.86H661.025C661.655 567.86 662.11 567.813 662.39 567.72C662.693 567.603 662.892 567.405 662.985 567.125C663.102 566.845 663.16 566.413 663.16 565.83V556.66L658.855 558.27L658.505 556.45C659.368 556.17 660.92 555.61 663.16 554.77V547.28H659.03V545.495H663.16V538.495H664.91V545.495H668.55V547.28H664.91V554.105C665.237 553.965 665.482 553.872 665.645 553.825L668.41 552.705L668.69 554.42ZM679.015 547.49C678.735 546.907 678.408 546.242 678.035 545.495C677.662 544.725 677.265 543.885 676.845 542.975C676.448 542.205 675.888 541.062 675.165 539.545L676.425 538.775C676.915 539.662 677.568 540.91 678.385 542.52C679.202 544.13 679.878 545.53 680.415 546.72L679.015 547.49ZM687.73 568.875C686.82 567.708 685.14 565.387 682.69 561.91C681.92 563.357 680.893 564.722 679.61 566.005C678.327 567.265 676.647 568.642 674.57 570.135L673.45 568.7C676.343 566.67 678.467 564.815 679.82 563.135C681.197 561.432 682.153 559.437 682.69 557.15C683.25 554.84 683.6 551.585 683.74 547.385C683.833 544.585 683.88 542.03 683.88 539.72H685.525C685.525 541.353 685.467 543.92 685.35 547.42C685.257 550.383 685.07 552.868 684.79 554.875C684.51 556.858 684.078 558.608 683.495 560.125L689.06 567.58L687.73 568.875ZM678.42 556.345L679.26 557.815L671.21 565.48L670.09 564.255C670.37 563.928 670.557 563.672 670.65 563.485C670.743 563.275 670.79 563.053 670.79 562.82V541.26H672.435V562.015L678.42 556.345ZM721.05 544.095H697.39V548.085H695.675V542.45H708.975L707.47 538.32L709.395 538.075L710.97 542.45H722.73V548.05H721.05V544.095ZM724.41 567.09L724.025 568.735H711.145C708.462 568.735 706.187 568.28 704.32 567.37C702.453 566.46 700.948 565.025 699.805 563.065C699.315 564.395 698.685 565.643 697.915 566.81C697.168 567.953 696.235 569.108 695.115 570.275L693.925 568.875C695.815 566.938 697.18 564.955 698.02 562.925C698.86 560.872 699.408 558.223 699.665 554.98L701.38 555.155C701.217 557.372 700.902 559.378 700.435 561.175C701.345 562.902 702.465 564.232 703.795 565.165C705.148 566.098 706.793 566.693 708.73 566.95V551.655H695.325V550.01H723.15V551.655H710.48V558.025H721.365V559.67H710.48V567.09H711.285H724.41ZM746.145 545.88C746.098 548.26 746.04 549.928 745.97 550.885L745.935 552.075H757.17C757.17 552.728 757.077 554.595 756.89 557.675C756.727 560.732 756.587 563.053 756.47 564.64C756.377 565.807 756.155 566.693 755.805 567.3C755.455 567.907 754.907 568.327 754.16 568.56C753.437 568.817 752.398 568.945 751.045 568.945H747.055L746.74 567.23H750.485C751.535 567.23 752.352 567.148 752.935 566.985C753.518 566.798 753.95 566.483 754.23 566.04C754.51 565.597 754.685 564.943 754.755 564.08C754.848 562.703 754.942 560.977 755.035 558.9C755.152 556.8 755.233 555.12 755.28 553.86H745.83C745.667 556.543 745.375 558.783 744.955 560.58C744.558 562.377 743.94 564.022 743.1 565.515C742.26 566.985 741.093 568.537 739.6 570.17L738.13 568.945C739.787 567.172 741.012 565.527 741.805 564.01C742.622 562.47 743.193 560.732 743.52 558.795C743.847 556.835 744.08 554.128 744.22 550.675L744.36 545.88H739.355V544.095H749.575L748.455 541.47C747.895 540.21 747.545 539.405 747.405 539.055L749.085 538.565L750.135 540.945C750.858 542.672 751.313 543.722 751.5 544.095H759.69V545.88H746.145ZM736.275 546.685C735.738 545.938 734.957 544.923 733.93 543.64C732.903 542.333 732.005 541.213 731.235 540.28L732.635 539.265C733.242 539.942 734.047 540.922 735.05 542.205C736.077 543.488 736.952 544.62 737.675 545.6L736.275 546.685ZM739.915 560.37L740.475 562.12L733.86 567.965L732.74 566.565C733.09 566.215 733.312 565.935 733.405 565.725C733.522 565.515 733.58 565.27 733.58 564.99V551.585H729.31V549.8H735.33V564.5L739.915 560.37ZM783.7 548.47C782.953 549.66 781.787 550.722 780.2 551.655C778.613 552.588 776.385 553.545 773.515 554.525L772.78 552.95C775.72 551.993 777.913 551.083 779.36 550.22C780.83 549.333 781.822 548.377 782.335 547.35C782.848 546.323 783.105 545.017 783.105 543.43V538.565H784.89V543.465C784.89 544.888 784.715 546.067 784.365 547C786.138 547.98 788.262 549.182 790.735 550.605C793.232 552.028 794.655 552.857 795.005 553.09L794.165 554.56C793.768 554.303 792.368 553.475 789.965 552.075C787.562 550.675 785.473 549.473 783.7 548.47ZM770.645 546.265C770.132 545.542 769.373 544.55 768.37 543.29C767.367 542.007 766.538 540.968 765.885 540.175L767.145 539.09C769.665 542.17 771.287 544.212 772.01 545.215L770.645 546.265ZM779.325 547.14C778.112 545.81 776.502 544.118 774.495 542.065L775.615 540.98C777.248 542.543 778.87 544.223 780.48 546.02L779.325 547.14ZM793.5 542.1C792.497 543.313 790.852 545.017 788.565 547.21L787.375 546.055C788.262 545.262 789.148 544.41 790.035 543.5C790.945 542.567 791.692 541.738 792.275 541.015L793.5 542.1ZM773.62 561.84L774.18 563.52L768.685 568.42L767.565 567.125C767.892 566.705 768.113 566.39 768.23 566.18C768.347 565.97 768.405 565.725 768.405 565.445V551.48H764.66V549.765H770.085V565.025L773.62 561.84ZM784.855 557.43C785.392 559.927 786.523 562.12 788.25 564.01C790 565.877 792.275 567.393 795.075 568.56L794.27 570.24C791.773 569.143 789.673 567.767 787.97 566.11C786.267 564.453 785.018 562.563 784.225 560.44C783.502 562.423 782.242 564.22 780.445 565.83C778.672 567.44 776.315 568.922 773.375 570.275L772.535 568.665C776.222 567.008 778.917 565.188 780.62 563.205C782.323 561.222 783.175 558.842 783.175 556.065V552.25H784.925V556.135C784.925 556.438 784.902 556.87 784.855 557.43ZM778.765 561.455C777.458 559.798 775.988 558.095 774.355 556.345L775.51 555.26C776.84 556.683 778.333 558.41 779.99 560.44L778.765 561.455ZM787.795 560.615C789.662 558.585 791.167 556.8 792.31 555.26L793.57 556.17C792.263 557.92 790.735 559.752 788.985 561.665L787.795 560.615ZM809.355 553.405L805.82 554.98V566.6C805.82 567.697 805.575 568.443 805.085 568.84C804.595 569.26 803.697 569.47 802.39 569.47H800.395L800.08 567.755H801.97C802.857 567.755 803.44 567.638 803.72 567.405C804.023 567.172 804.175 566.728 804.175 566.075V555.715L800.115 557.5L799.8 555.715C800.85 555.318 802.308 554.712 804.175 553.895V547.21H800.22V545.495H804.175V538.845H805.82V545.495H809.53V547.21H805.82V553.16C807.197 552.553 808.305 552.04 809.145 551.62L809.25 552.635L809.355 553.405ZM811.98 540.42H827.065V551.9H811.98V540.42ZM825.35 545.425V541.855H813.66V545.425H825.35ZM813.66 546.825V550.465H825.35V546.825H813.66ZM830.53 567.545L830.215 569.225H821.535C819.225 569.225 817.382 568.817 816.005 568C814.628 567.207 813.427 565.783 812.4 563.73C811.957 564.92 811.385 566.028 810.685 567.055C809.985 568.058 809.075 569.132 807.955 570.275L806.695 569.155C807.885 567.988 808.818 566.903 809.495 565.9C810.172 564.873 810.697 563.765 811.07 562.575C811.443 561.385 811.747 559.915 811.98 558.165L813.59 558.34C813.403 559.623 813.193 560.767 812.96 561.77C813.753 563.543 814.605 564.862 815.515 565.725C816.425 566.565 817.592 567.113 819.015 567.37V556.765H808.76V555.225H830.04V556.765H820.66V561.105H828.57V562.645H820.66V567.51C820.847 567.533 821.15 567.545 821.57 567.545H830.53ZM736.555 595.03C737.325 593.63 737.978 592.417 738.515 591.39L740.02 592.23C738.643 594.75 737.36 596.978 736.17 598.915C735.003 600.852 733.767 602.648 732.46 604.305L738.9 603.255L738.97 604.935L730.605 606.23L730.22 604.515C732.063 602.345 733.872 599.732 735.645 596.675L729.765 597.445L729.415 595.73C730.325 594.563 731.328 592.953 732.425 590.9C733.522 588.847 734.513 586.828 735.4 584.845L736.87 585.51C736.053 587.307 735.132 589.185 734.105 591.145C733.078 593.082 732.203 594.575 731.48 595.625L736.555 595.03ZM740.72 586.77H758.045V611.83C758.045 612.787 757.917 613.522 757.66 614.035C757.427 614.548 757.018 614.91 756.435 615.12C755.875 615.353 755.058 615.47 753.985 615.47H751.115L750.8 613.86H753.53C754.347 613.86 754.953 613.79 755.35 613.65C755.747 613.51 756.015 613.265 756.155 612.915C756.318 612.565 756.4 612.052 756.4 611.375V588.38H742.365V615.89H740.72V586.77ZM753.845 610.29C752.375 607.537 750.952 604.947 749.575 602.52C747.708 605.903 746.028 608.633 744.535 610.71L743.275 609.625C745.095 607.105 746.892 604.2 748.665 600.91L743.8 592.475L745.095 591.705C745.515 592.405 746.157 593.513 747.02 595.03C747.907 596.523 748.607 597.713 749.12 598.6C749.143 598.67 749.272 598.903 749.505 599.3C750.998 596.453 752.247 593.735 753.25 591.145L754.615 591.81C753.378 594.913 751.978 597.947 750.415 600.91C752.002 603.687 753.588 606.522 755.175 609.415L753.845 610.29ZM729.555 613.3L729.31 611.585L739.46 609.905L739.6 611.655L729.555 613.3Z" fill="black"/>
<path d="M594.354 568.354C594.549 568.158 594.549 567.842 594.354 567.646L591.172 564.464C590.976 564.269 590.66 564.269 590.464 564.464C590.269 564.66 590.269 564.976 590.464 565.172L593.293 568L590.464 570.828C590.269 571.024 590.269 571.34 590.464 571.536C590.66 571.731 590.976 571.731 591.172 571.536L594.354 568.354ZM486 568.5H594V567.5H486V568.5Z" fill="black"/>
<path d="M1412.35 568.354C1412.55 568.158 1412.55 567.842 1412.35 567.646L1409.17 564.464C1408.98 564.269 1408.66 564.269 1408.46 564.464C1408.27 564.66 1408.27 564.976 1408.46 565.172L1411.29 568L1408.46 570.828C1408.27 571.024 1408.27 571.34 1408.46 571.536C1408.66 571.731 1408.98 571.731 1409.17 571.536L1412.35 568.354ZM1304 568.5H1412V567.5H1304V568.5Z" fill="black"/>
<path d="M1003.35 568.354C1003.55 568.158 1003.55 567.842 1003.35 567.646L1000.17 564.464C999.976 564.269 999.66 564.269 999.464 564.464C999.269 564.66 999.269 564.976 999.464 565.172L1002.29 568L999.464 570.828C999.269 571.024 999.269 571.34 999.464 571.536C999.66 571.731 999.976 571.731 1000.17 571.536L1003.35 568.354ZM895 568.5H1003V567.5H895V568.5Z" fill="black"/>
<rect x="1014.5" y="429.5" width="278" height="278" rx="139" fill="white"/>
<rect x="1014.5" y="429.5" width="278" height="278" rx="139" stroke="black"/>
<path d="M1083.71 559.355H1097.96V561.07H1083.71V570.1H1081.89V561.07H1067.68V559.355H1081.89V553.3H1069.22V551.55H1081.89V538.53H1083.71V551.55H1096.42V553.3H1083.71V559.355ZM1077.1 549.52C1074.67 546.627 1072.39 543.967 1070.27 541.54L1071.57 540.35C1074.65 543.897 1076.94 546.557 1078.46 548.33L1077.1 549.52ZM1095.26 541.505C1093.86 543.255 1091.57 545.95 1088.4 549.59L1087.11 548.435C1088.04 547.408 1089.19 546.078 1090.57 544.445C1091.95 542.788 1093.06 541.423 1093.9 540.35L1095.26 541.505ZM1110.87 548.785C1111.48 547.805 1112.08 546.697 1112.69 545.46L1114.16 546.3C1113.16 548.213 1111.92 550.29 1110.45 552.53C1108.98 554.747 1107.59 556.672 1106.29 558.305L1113.32 557.255L1113.39 558.9L1104.4 560.265L1104.05 558.55C1106.12 556.1 1108.07 553.393 1109.89 550.43L1103.66 551.2L1103.31 549.625C1104.29 548.365 1105.34 546.708 1106.46 544.655C1107.6 542.602 1108.65 540.537 1109.61 538.46L1111.05 539.09C1110.25 540.863 1109.31 542.753 1108.21 544.76C1107.14 546.743 1106.23 548.295 1105.48 549.415L1110.87 548.785ZM1133.27 543.85V545.53H1124.35V551.375H1132.01V553.055H1115.07V551.375H1122.63V545.53H1114.55V543.85H1122.63V538.53H1124.35V543.85H1133.27ZM1117.73 570.31H1116.02V557.465H1130.86V570.31H1129.18V567.895H1117.73V570.31ZM1129.18 566.285V559.11H1117.73V566.285H1129.18ZM1103.31 567.615L1103.1 565.83L1114.02 563.905L1114.16 565.69L1103.31 567.615ZM1144.93 551.235C1146.54 552.682 1148.11 554.152 1149.65 555.645L1148.64 557.045C1147.1 555.458 1145.86 554.222 1144.93 553.335V570.345H1143.32V551.585C1142.13 555.388 1140.63 558.83 1138.84 561.91L1138.1 559.985C1139.15 558.165 1140.11 556.158 1140.97 553.965C1141.86 551.772 1142.57 549.59 1143.11 547.42H1138.63V545.705H1143.32V538.39H1144.93V545.705H1149.2V547.42H1144.93V551.235ZM1167.26 543.745L1166.66 564.815C1166.61 565.958 1166.42 566.845 1166.07 567.475C1165.72 568.105 1165.17 568.548 1164.42 568.805C1163.67 569.085 1162.66 569.225 1161.38 569.225H1156.62L1156.34 567.475H1160.82C1161.94 567.475 1162.78 567.382 1163.34 567.195C1163.92 567.008 1164.33 566.682 1164.56 566.215C1164.79 565.725 1164.93 565.013 1164.98 564.08L1165.33 553.265L1165.58 545.495H1153.29C1152.19 547.805 1151.04 549.823 1149.83 551.55L1148.46 550.605C1149.65 548.878 1150.76 546.93 1151.79 544.76C1152.84 542.59 1153.66 540.467 1154.27 538.39L1155.88 538.845C1155.32 540.665 1154.71 542.298 1154.06 543.745H1167.26ZM1162.04 563.765L1161.13 561.56L1150.04 562.505L1149.55 560.965C1150.69 559.098 1151.76 557.057 1152.77 554.84C1153.77 552.6 1154.61 550.43 1155.28 548.33L1156.9 548.855C1156.22 550.815 1155.38 552.903 1154.38 555.12C1153.37 557.313 1152.43 559.18 1151.54 560.72L1160.47 559.95C1159.67 558.06 1158.69 555.867 1157.53 553.37L1158.93 552.67C1159.65 554.187 1160.47 555.995 1161.38 558.095C1162.31 560.195 1163.02 561.852 1163.51 563.065L1162.04 563.765ZM1183.95 539.3C1183.04 541.983 1181.94 544.632 1180.66 547.245V570.03H1178.88V550.535C1177.38 553.148 1175.8 555.447 1174.12 557.43L1173.49 555.33C1175.1 553.417 1176.71 550.943 1178.32 547.91C1179.93 544.877 1181.27 541.808 1182.34 538.705L1183.95 539.3ZM1203.76 559.285L1203.52 565.06C1203.45 566.017 1203.26 566.763 1202.96 567.3C1202.68 567.813 1202.22 568.187 1201.59 568.42C1200.96 568.653 1200.09 568.77 1198.97 568.77H1193.79C1192.69 568.77 1191.84 568.642 1191.23 568.385C1190.62 568.152 1190.18 567.743 1189.9 567.16C1189.64 566.553 1189.52 565.69 1189.52 564.57V557.22C1187.53 558.69 1185.54 560.043 1183.53 561.28L1182.62 559.6C1185.07 558.083 1187.37 556.508 1189.52 554.875V538.705H1191.37V553.405C1195.15 550.302 1198.58 546.883 1201.66 543.15L1202.92 544.445C1199.44 548.622 1195.59 552.402 1191.37 555.785V564.185C1191.37 565.305 1191.56 566.063 1191.93 566.46C1192.33 566.833 1193.09 567.02 1194.21 567.02H1198.72C1199.86 567.02 1200.65 566.845 1201.07 566.495C1201.51 566.145 1201.75 565.468 1201.8 564.465C1201.85 563.625 1201.89 562.657 1201.94 561.56C1201.99 560.44 1202.01 559.542 1202.01 558.865L1203.76 559.285ZM1225.84 545.88C1225.8 548.26 1225.74 549.928 1225.67 550.885L1225.63 552.075H1236.87C1236.87 552.728 1236.78 554.595 1236.59 557.675C1236.43 560.732 1236.29 563.053 1236.17 564.64C1236.08 565.807 1235.85 566.693 1235.5 567.3C1235.15 567.907 1234.61 568.327 1233.86 568.56C1233.14 568.817 1232.1 568.945 1230.74 568.945H1226.75L1226.44 567.23H1230.18C1231.23 567.23 1232.05 567.148 1232.63 566.985C1233.22 566.798 1233.65 566.483 1233.93 566.04C1234.21 565.597 1234.38 564.943 1234.45 564.08C1234.55 562.703 1234.64 560.977 1234.73 558.9C1234.85 556.8 1234.93 555.12 1234.98 553.86H1225.53C1225.37 556.543 1225.07 558.783 1224.65 560.58C1224.26 562.377 1223.64 564.022 1222.8 565.515C1221.96 566.985 1220.79 568.537 1219.3 570.17L1217.83 568.945C1219.49 567.172 1220.71 565.527 1221.5 564.01C1222.32 562.47 1222.89 560.732 1223.22 558.795C1223.55 556.835 1223.78 554.128 1223.92 550.675L1224.06 545.88H1219.05V544.095H1229.27L1228.15 541.47C1227.59 540.21 1227.24 539.405 1227.1 539.055L1228.78 538.565L1229.83 540.945C1230.56 542.672 1231.01 543.722 1231.2 544.095H1239.39V545.88H1225.84ZM1215.97 546.685C1215.44 545.938 1214.66 544.923 1213.63 543.64C1212.6 542.333 1211.7 541.213 1210.93 540.28L1212.33 539.265C1212.94 539.942 1213.75 540.922 1214.75 542.205C1215.78 543.488 1216.65 544.62 1217.37 545.6L1215.97 546.685ZM1219.61 560.37L1220.17 562.12L1213.56 567.965L1212.44 566.565C1212.79 566.215 1213.01 565.935 1213.1 565.725C1213.22 565.515 1213.28 565.27 1213.28 564.99V551.585H1209.01V549.8H1215.03V564.5L1219.61 560.37ZM1157.35 594.47C1156.6 595.66 1155.44 596.722 1153.85 597.655C1152.26 598.588 1150.04 599.545 1147.17 600.525L1146.43 598.95C1149.37 597.993 1151.56 597.083 1153.01 596.22C1154.48 595.333 1155.47 594.377 1155.99 593.35C1156.5 592.323 1156.76 591.017 1156.76 589.43V584.565H1158.54V589.465C1158.54 590.888 1158.37 592.067 1158.02 593C1159.79 593.98 1161.91 595.182 1164.39 596.605C1166.88 598.028 1168.31 598.857 1168.66 599.09L1167.82 600.56C1167.42 600.303 1166.02 599.475 1163.62 598.075C1161.21 596.675 1159.12 595.473 1157.35 594.47ZM1144.3 592.265C1143.78 591.542 1143.02 590.55 1142.02 589.29C1141.02 588.007 1140.19 586.968 1139.54 586.175L1140.8 585.09C1143.32 588.17 1144.94 590.212 1145.66 591.215L1144.3 592.265ZM1152.98 593.14C1151.76 591.81 1150.15 590.118 1148.15 588.065L1149.27 586.98C1150.9 588.543 1152.52 590.223 1154.13 592.02L1152.98 593.14ZM1167.15 588.1C1166.15 589.313 1164.5 591.017 1162.22 593.21L1161.03 592.055C1161.91 591.262 1162.8 590.41 1163.69 589.5C1164.6 588.567 1165.34 587.738 1165.93 587.015L1167.15 588.1ZM1147.27 607.84L1147.83 609.52L1142.34 614.42L1141.22 613.125C1141.54 612.705 1141.76 612.39 1141.88 612.18C1142 611.97 1142.06 611.725 1142.06 611.445V597.48H1138.31V595.765H1143.74V611.025L1147.27 607.84ZM1158.51 603.43C1159.04 605.927 1160.17 608.12 1161.9 610.01C1163.65 611.877 1165.93 613.393 1168.73 614.56L1167.92 616.24C1165.42 615.143 1163.32 613.767 1161.62 612.11C1159.92 610.453 1158.67 608.563 1157.88 606.44C1157.15 608.423 1155.89 610.22 1154.1 611.83C1152.32 613.44 1149.97 614.922 1147.03 616.275L1146.19 614.665C1149.87 613.008 1152.57 611.188 1154.27 609.205C1155.97 607.222 1156.83 604.842 1156.83 602.065V598.25H1158.58V602.135C1158.58 602.438 1158.55 602.87 1158.51 603.43ZM1152.42 607.455C1151.11 605.798 1149.64 604.095 1148.01 602.345L1149.16 601.26C1150.49 602.683 1151.98 604.41 1153.64 606.44L1152.42 607.455ZM1161.45 606.615C1163.31 604.585 1164.82 602.8 1165.96 601.26L1167.22 602.17C1165.91 603.92 1164.39 605.752 1162.64 607.665L1161.45 606.615Z" fill="black"/>
<rect x="1423.5" y="429.5" width="278" height="278" rx="139" fill="white"/>
<rect x="1423.5" y="429.5" width="278" height="278" rx="139" stroke="black"/>
<path d="M1511.12 558.88C1511.07 561.26 1511.01 562.928 1510.95 563.885L1510.91 565.075H1522.15C1522.15 565.728 1522.05 567.595 1521.86 570.675C1521.7 573.732 1521.56 576.053 1521.45 577.64C1521.35 578.807 1521.13 579.693 1520.78 580.3C1520.43 580.907 1519.88 581.327 1519.13 581.56C1518.41 581.817 1517.37 581.945 1516.02 581.945H1512.03L1511.71 580.23H1515.46C1516.51 580.23 1517.33 580.148 1517.91 579.985C1518.49 579.798 1518.92 579.483 1519.21 579.04C1519.48 578.597 1519.66 577.943 1519.73 577.08C1519.82 575.703 1519.92 573.977 1520.01 571.9C1520.13 569.8 1520.21 568.12 1520.25 566.86H1510.81C1510.64 569.543 1510.35 571.783 1509.93 573.58C1509.53 575.377 1508.91 577.022 1508.07 578.515C1507.23 579.985 1506.07 581.537 1504.57 583.17L1503.1 581.945C1504.76 580.172 1505.99 578.527 1506.78 577.01C1507.6 575.47 1508.17 573.732 1508.49 571.795C1508.82 569.835 1509.05 567.128 1509.19 563.675L1509.33 558.88H1504.33V557.095H1514.55L1513.43 554.47C1512.87 553.21 1512.52 552.405 1512.38 552.055L1514.06 551.565L1515.11 553.945C1515.83 555.672 1516.29 556.722 1516.48 557.095H1524.66V558.88H1511.12ZM1501.25 559.685C1500.71 558.938 1499.93 557.923 1498.9 556.64C1497.88 555.333 1496.98 554.213 1496.21 553.28L1497.61 552.265C1498.22 552.942 1499.02 553.922 1500.02 555.205C1501.05 556.488 1501.93 557.62 1502.65 558.6L1501.25 559.685ZM1504.89 573.37L1505.45 575.12L1498.83 580.965L1497.71 579.565C1498.06 579.215 1498.29 578.935 1498.38 578.725C1498.5 578.515 1498.55 578.27 1498.55 577.99V564.585H1494.28V562.8H1500.3V577.5L1504.89 573.37ZM1548.67 561.47C1547.93 562.66 1546.76 563.722 1545.17 564.655C1543.59 565.588 1541.36 566.545 1538.49 567.525L1537.75 565.95C1540.69 564.993 1542.89 564.083 1544.33 563.22C1545.8 562.333 1546.8 561.377 1547.31 560.35C1547.82 559.323 1548.08 558.017 1548.08 556.43V551.565H1549.86V556.465C1549.86 557.888 1549.69 559.067 1549.34 560C1551.11 560.98 1553.24 562.182 1555.71 563.605C1558.21 565.028 1559.63 565.857 1559.98 566.09L1559.14 567.56C1558.74 567.303 1557.34 566.475 1554.94 565.075C1552.54 563.675 1550.45 562.473 1548.67 561.47ZM1535.62 559.265C1535.11 558.542 1534.35 557.55 1533.34 556.29C1532.34 555.007 1531.51 553.968 1530.86 553.175L1532.12 552.09C1534.64 555.17 1536.26 557.212 1536.98 558.215L1535.62 559.265ZM1544.3 560.14C1543.09 558.81 1541.48 557.118 1539.47 555.065L1540.59 553.98C1542.22 555.543 1543.84 557.223 1545.45 559.02L1544.3 560.14ZM1558.47 555.1C1557.47 556.313 1555.83 558.017 1553.54 560.21L1552.35 559.055C1553.24 558.262 1554.12 557.41 1555.01 556.5C1555.92 555.567 1556.67 554.738 1557.25 554.015L1558.47 555.1ZM1538.59 574.84L1539.15 576.52L1533.66 581.42L1532.54 580.125C1532.87 579.705 1533.09 579.39 1533.2 579.18C1533.32 578.97 1533.38 578.725 1533.38 578.445V564.48H1529.63V562.765H1535.06V578.025L1538.59 574.84ZM1549.83 570.43C1550.37 572.927 1551.5 575.12 1553.22 577.01C1554.97 578.877 1557.25 580.393 1560.05 581.56L1559.24 583.24C1556.75 582.143 1554.65 580.767 1552.94 579.11C1551.24 577.453 1549.99 575.563 1549.2 573.44C1548.48 575.423 1547.22 577.22 1545.42 578.83C1543.65 580.44 1541.29 581.922 1538.35 583.275L1537.51 581.665C1541.2 580.008 1543.89 578.188 1545.59 576.205C1547.3 574.222 1548.15 571.842 1548.15 569.065V565.25H1549.9V569.135C1549.9 569.438 1549.88 569.87 1549.83 570.43ZM1543.74 574.455C1542.43 572.798 1540.96 571.095 1539.33 569.345L1540.48 568.26C1541.81 569.683 1543.31 571.41 1544.96 573.44L1543.74 574.455ZM1552.77 573.615C1554.64 571.585 1556.14 569.8 1557.28 568.26L1558.54 569.17C1557.24 570.92 1555.71 572.752 1553.96 574.665L1552.77 573.615ZM1575.45 556.955C1574.98 556.302 1574.38 555.497 1573.63 554.54C1572.88 553.56 1572.29 552.79 1571.84 552.23L1573.24 551.25L1574.08 552.3C1575.58 554.143 1576.52 555.357 1576.92 555.94L1575.45 556.955ZM1591.44 557.13V568.785H1568.73V557.13H1582.31C1582.96 556.383 1583.73 555.415 1584.62 554.225C1585.51 553.035 1586.19 552.067 1586.68 551.32L1588.22 552.23C1587.38 553.443 1586.16 555.077 1584.55 557.13H1591.44ZM1570.48 567.14H1589.69V558.845H1570.48V567.14ZM1582.1 576.275C1581.07 574.898 1579.65 573.102 1577.83 570.885L1579.16 569.94C1580.14 571.107 1581.57 572.88 1583.46 575.26L1582.1 576.275ZM1590.6 571.41C1591.72 573.113 1593.35 575.75 1595.47 579.32L1593.93 580.16C1593.23 578.947 1592.42 577.593 1591.51 576.1C1590.63 574.583 1589.86 573.323 1589.2 572.32L1590.6 571.41ZM1564.74 580.265C1565.39 579.145 1566.06 577.78 1566.73 576.17C1567.41 574.56 1567.98 573.008 1568.45 571.515L1570.06 572.005C1569.57 573.568 1568.99 575.19 1568.31 576.87C1567.63 578.527 1566.97 579.903 1566.31 581L1564.74 580.265ZM1586.3 578.13C1586.39 576.077 1586.44 574.945 1586.44 574.735L1588.08 575.12C1588.08 575.913 1588.03 577.127 1587.91 578.76C1587.82 580.067 1587.45 580.965 1586.82 581.455C1586.22 581.945 1585.17 582.19 1583.67 582.19H1576.74C1575.32 582.19 1574.33 581.91 1573.77 581.35C1573.21 580.813 1572.93 579.81 1572.93 578.34V571.865H1574.68V577.99C1574.68 578.993 1574.85 579.67 1575.2 580.02C1575.55 580.37 1576.24 580.545 1577.27 580.545H1583.29C1584.11 580.545 1584.71 580.487 1585.11 580.37C1585.53 580.23 1585.82 579.997 1585.98 579.67C1586.15 579.32 1586.25 578.807 1586.3 578.13ZM1608.24 561.785C1608.85 560.805 1609.46 559.697 1610.06 558.46L1611.53 559.3C1610.53 561.213 1609.29 563.29 1607.82 565.53C1606.35 567.747 1604.97 569.672 1603.66 571.305L1610.69 570.255L1610.76 571.9L1601.77 573.265L1601.42 571.55C1603.5 569.1 1605.44 566.393 1607.26 563.43L1601.03 564.2L1600.68 562.625C1601.66 561.365 1602.71 559.708 1603.83 557.655C1604.98 555.602 1606.03 553.537 1606.98 551.46L1608.42 552.09C1607.63 553.863 1606.68 555.753 1605.58 557.76C1604.51 559.743 1603.6 561.295 1602.85 562.415L1608.24 561.785ZM1630.64 556.85V558.53H1621.72V564.375H1629.38V566.055H1612.44V564.375H1620V558.53H1611.92V556.85H1620V551.53H1621.72V556.85H1630.64ZM1615.1 583.31H1613.39V570.465H1628.23V583.31H1626.55V580.895H1615.1V583.31ZM1626.55 579.285V572.11H1615.1V579.285H1626.55ZM1600.68 580.615L1600.47 578.83L1611.39 576.905L1611.53 578.69L1600.68 580.615Z" fill="black"/>
</svg>
