<svg width="1920" height="1080" viewBox="0 0 1920 1080" fill="none" xmlns="http://www.w3.org/2000/svg">
<rect width="1920" height="1080" fill="#FCFCFC"/>
<path d="M122.888 91.92L119.096 94.08C118.424 92.512 117.672 91.008 116.84 89.568C116.04 88.128 115.176 86.8 114.248 85.584L118.04 83.424C118.968 84.768 119.832 86.144 120.632 87.552C121.464 88.96 122.216 90.416 122.888 91.92ZM143.096 101.616C142.424 101.872 141.816 102.048 141.272 102.144C140.76 102.24 140.088 102.288 139.256 102.288C137.72 102.288 136.632 101.776 135.992 100.752C135.384 99.728 135.192 98.048 135.416 95.712L136.088 89.232H130.376L130.232 90.624C130.008 93.056 129.496 95.264 128.696 97.248C127.928 99.232 126.504 101.12 124.424 102.912L122.072 99.648C122.968 98.816 123.688 97.968 124.232 97.104C124.808 96.208 125.256 95.152 125.576 93.936C125.928 92.688 126.184 91.136 126.344 89.28L126.776 84.912H136.76C139.32 84.912 140.456 86.224 140.168 88.848L139.448 95.424C139.352 96.416 139.368 97.168 139.496 97.68C139.624 98.16 139.976 98.4 140.552 98.4C140.904 98.4 141.256 98.368 141.608 98.304C141.992 98.208 142.44 98.048 142.952 97.824L143.096 101.616ZM112.04 126.576L109.832 123.072C111.368 122.176 112.856 121.232 114.296 120.24L116.216 101.904H111.896L112.328 97.584H116.696C118.04 97.584 119.016 97.984 119.624 98.784C120.264 99.584 120.504 100.56 120.344 101.712L118.76 116.928C119.88 116 120.968 115.04 122.024 114.048L124.616 117.264C122.6 119.024 120.536 120.688 118.424 122.256C116.344 123.824 114.216 125.264 112.04 126.576ZM120.68 129.792L118.664 126.096C120.36 125.36 122.056 124.448 123.752 123.36C125.448 122.272 127.048 121.024 128.552 119.616C126.504 116.288 125.144 112.544 124.472 108.384H122.504L122.936 104.304H136.856C138.552 104.304 139.624 104.8 140.072 105.792C140.552 106.752 140.568 107.872 140.12 109.152C138.616 113.152 136.488 116.752 133.736 119.952C134.696 121.04 135.784 122.096 137 123.12C138.248 124.144 139.672 125.12 141.272 126.048L138.92 129.792C135.72 127.776 133.048 125.472 130.904 122.88C127.96 125.632 124.552 127.936 120.68 129.792ZM128.456 108.384C128.68 109.76 129.016 111.136 129.464 112.512C129.944 113.888 130.584 115.248 131.384 116.592C132.376 115.376 133.272 114.08 134.072 112.704C134.872 111.328 135.528 109.888 136.04 108.384H128.456ZM167.423 129.84L170.063 104.64H161.039L161.519 100.128H170.543L172.319 83.376H176.735L174.959 100.128H183.407L182.927 104.64H174.479L171.839 129.84H167.423ZM162.047 91.872L158.255 94.08C157.551 92.512 156.767 91.008 155.903 89.568C155.039 88.128 154.143 86.816 153.215 85.632L156.959 83.424C157.887 84.736 158.783 86.096 159.647 87.504C160.511 88.912 161.311 90.368 162.047 91.872ZM151.439 128.496L149.183 124.992C150.367 124.256 151.503 123.488 152.591 122.688L154.703 102.864H150.671L151.103 98.544H155.135C156.511 98.544 157.503 98.944 158.111 99.744C158.719 100.544 158.943 101.52 158.783 102.672L157.103 119.088C158.159 118.128 159.183 117.152 160.175 116.16L162.815 119.28C161.023 121.04 159.167 122.704 157.247 124.272C155.359 125.808 153.423 127.216 151.439 128.496ZM208.069 103.536H204.181L205.093 94.224H196.453L195.541 103.056H191.557L192.853 90.672H205.429L205.669 88.176H194.965L195.349 84.672H221.029L220.645 88.176H209.557L209.317 90.672H219.253C221.461 90.672 222.437 91.84 222.181 94.176L221.221 103.344H217.189L218.101 94.224H208.981L208.069 103.536ZM203.701 96.624L203.413 99.552H197.173L197.461 96.624H203.701ZM216.565 96.624L216.277 99.552H209.605L209.893 96.624H216.565ZM203.221 101.088L202.933 104.016H196.693L196.981 101.088H203.221ZM216.085 101.088L215.845 104.016H209.173L209.413 101.088H216.085ZM201.205 129.12H197.509L198.805 116.736H194.965L193.573 129.84H189.925L191.653 113.136H202.549L203.557 109.872H191.557L191.989 106.416H220.453L220.069 109.872H207.781L206.773 113.136H215.557C216.965 113.136 217.941 113.536 218.485 114.336C219.061 115.136 219.301 115.952 219.205 116.784L218.293 125.04C218.101 126.736 217.573 127.984 216.709 128.784C215.877 129.616 214.837 130.032 213.589 130.032C212.501 130.032 211.589 129.744 210.853 129.168C210.149 128.624 209.573 127.824 209.125 126.768L208.885 129.12H205.237L206.533 116.736H202.453L201.205 129.12ZM211.909 124.752C212.069 125.136 212.277 125.488 212.533 125.808C212.789 126.128 213.077 126.288 213.397 126.288C213.749 126.288 213.989 126.128 214.117 125.808C214.277 125.488 214.389 124.96 214.453 124.224L215.221 116.736H210.133L209.173 126.144L211.909 124.752ZM261.052 87.984L258.604 90.768C257.612 89.776 256.668 88.896 255.772 88.128C254.876 87.36 253.884 86.624 252.796 85.92L255.148 83.184C257.356 84.496 259.324 86.096 261.052 87.984ZM234.172 123.072L237.964 122.4C238.028 123.648 238.22 124.544 238.54 125.088C238.892 125.6 239.324 125.856 239.836 125.856C240.38 125.856 240.796 125.552 241.084 124.944C241.372 124.336 241.58 123.52 241.708 122.496L244.492 96H231.292L231.724 91.872H244.924L245.836 83.376H249.964L249.052 91.872H261.532L261.1 96H248.62L248.14 100.512C248.364 101.568 248.62 102.624 248.908 103.68C249.228 104.736 249.596 105.776 250.012 106.8C251.196 105.648 252.268 104.4 253.228 103.056C254.22 101.68 255.196 100.144 256.156 98.448L259.42 100.896C258.268 102.72 257.068 104.432 255.82 106.032C254.604 107.6 253.244 109.024 251.74 110.304C252.988 112.576 254.412 114.688 256.012 116.64C257.644 118.592 259.34 120.336 261.1 121.872L258.316 125.376C255.724 123.008 253.484 120.432 251.596 117.648C249.708 114.864 248.268 111.952 247.276 108.912L245.836 122.544C245.612 124.688 245.036 126.464 244.108 127.872C243.212 129.28 241.756 129.984 239.74 129.984C237.98 129.984 236.652 129.344 235.756 128.064C234.892 126.816 234.364 125.152 234.172 123.072ZM241.612 105.744L238.588 108.384C237.692 106.88 236.652 105.472 235.468 104.16C234.284 102.848 233.276 101.792 232.444 100.992L235.42 98.4C236.444 99.392 237.5 100.512 238.588 101.76C239.676 103.008 240.684 104.336 241.612 105.744ZM227.308 119.904C229.484 118.688 231.532 117.344 233.452 115.872C235.404 114.4 237.132 112.928 238.636 111.456L240.988 114.384C239.484 115.92 237.772 117.424 235.852 118.896C233.964 120.336 231.884 121.808 229.612 123.312L227.308 119.904ZM300.162 88.464L299.73 92.688H287.778L287.202 98.112H294.498C295.97 98.112 296.978 98.48 297.522 99.216C298.098 99.952 298.322 100.896 298.194 102.048L296.754 115.104H271.602L273.474 98.112H282.738L284.274 83.424H288.738L288.21 88.464H300.162ZM276.306 111.024H292.962L293.922 102.192H277.266L276.306 111.024ZM269.874 130.08L266.466 127.728C267.714 126 268.77 124.256 269.634 122.496C270.53 120.704 271.282 118.928 271.89 117.168L275.682 118.704C275.01 120.56 274.178 122.48 273.186 124.464C272.226 126.416 271.122 128.288 269.874 130.08ZM299.346 128.256L295.41 129.984C294.994 127.904 294.482 125.952 293.874 124.128C293.298 122.304 292.69 120.56 292.05 118.896L295.89 117.168C296.53 118.736 297.138 120.464 297.714 122.352C298.322 124.208 298.866 126.176 299.346 128.256ZM290.994 128.112L286.914 129.072C286.69 127.28 286.402 125.552 286.05 123.888C285.698 122.224 285.298 120.608 284.85 119.04L288.834 118.08C289.282 119.648 289.698 121.264 290.082 122.928C290.466 124.592 290.77 126.32 290.994 128.112ZM282.402 128.544L278.226 128.976C278.226 127.28 278.178 125.584 278.082 123.888C277.986 122.192 277.826 120.496 277.602 118.8L281.682 118.416C281.938 120.112 282.114 121.808 282.21 123.504C282.338 125.168 282.402 126.848 282.402 128.544ZM308.409 127.44H304.329L318.009 88.56H322.089L308.409 127.44Z" fill="black" fill-opacity="0.8"/>
<path d="M338.96 97.56C340.86 97.56 342.54 97.95 344 98.73C345.46 99.51 346.59 100.62 347.39 102.06C348.21 103.48 348.62 105.14 348.62 107.04C348.62 107.8 348.54 108.64 348.38 109.56C347.82 112.82 346.45 115.3 344.27 117C342.11 118.68 339.45 119.52 336.29 119.52H330.08L333.89 97.56H338.96ZM346.52 109.32C346.66 108.56 346.73 107.8 346.73 107.04C346.73 105.44 346.4 104.05 345.74 102.87C345.1 101.67 344.16 100.75 342.92 100.11C341.68 99.45 340.22 99.12 338.54 99.12H335.39L332.12 117.93H336.23C338.99 117.93 341.27 117.2 343.07 115.74C344.89 114.28 346.04 112.14 346.52 109.32ZM357.631 118.23C359.531 118.23 361.021 117.38 362.101 115.68L363.331 116.55C362.711 117.63 361.881 118.44 360.841 118.98C359.821 119.54 358.701 119.82 357.481 119.82C355.621 119.82 354.131 119.22 353.011 118.02C351.891 116.8 351.331 115.18 351.331 113.16C351.331 112.52 351.391 111.86 351.511 111.18C351.791 109.54 352.321 108.15 353.101 107.01C353.901 105.87 354.861 105.02 355.981 104.46C357.101 103.88 358.281 103.59 359.521 103.59C360.961 103.59 362.091 103.96 362.911 104.7C363.731 105.44 364.141 106.43 364.141 107.67C364.141 109.15 363.501 110.25 362.221 110.97C360.941 111.69 358.911 112.05 356.131 112.05C355.591 112.05 354.601 112.01 353.161 111.93C353.101 112.35 353.071 112.75 353.071 113.13C353.071 114.73 353.481 115.98 354.301 116.88C355.121 117.78 356.231 118.23 357.631 118.23ZM359.431 105.15C358.031 105.15 356.781 105.6 355.681 106.5C354.581 107.38 353.821 108.71 353.401 110.49C354.381 110.57 355.401 110.61 356.461 110.61C358.501 110.61 360.011 110.38 360.991 109.92C361.971 109.44 362.461 108.69 362.461 107.67C362.461 106.89 362.201 106.28 361.681 105.84C361.161 105.38 360.411 105.15 359.431 105.15ZM376.676 115.92C376.476 117.14 375.906 118.09 374.966 118.77C374.046 119.47 372.896 119.82 371.516 119.82C369.956 119.82 368.646 119.41 367.586 118.59C366.546 117.77 365.946 116.7 365.786 115.38L367.166 114.75C367.366 115.87 367.856 116.74 368.636 117.36C369.416 117.96 370.376 118.26 371.516 118.26C372.416 118.26 373.176 118.05 373.796 117.63C374.416 117.21 374.796 116.61 374.936 115.83C374.976 115.59 374.996 115.43 374.996 115.35C374.996 114.85 374.846 114.42 374.546 114.06C374.246 113.68 373.876 113.37 373.436 113.13C373.016 112.87 372.426 112.57 371.666 112.23C370.786 111.81 370.086 111.45 369.566 111.15C369.046 110.83 368.596 110.42 368.216 109.92C367.856 109.4 367.676 108.78 367.676 108.06C367.676 107.12 367.906 106.31 368.366 105.63C368.846 104.95 369.466 104.44 370.226 104.1C371.006 103.76 371.846 103.59 372.746 103.59C374.086 103.59 375.206 103.94 376.106 104.64C377.006 105.34 377.516 106.21 377.636 107.25L376.256 107.88C376.116 107.08 375.716 106.43 375.056 105.93C374.396 105.41 373.596 105.15 372.656 105.15C371.756 105.15 370.996 105.39 370.376 105.87C369.756 106.35 369.446 107.01 369.446 107.85C369.446 108.33 369.586 108.75 369.866 109.11C370.166 109.47 370.516 109.77 370.916 110.01C371.336 110.23 371.936 110.52 372.716 110.88C373.576 111.26 374.276 111.62 374.816 111.96C375.356 112.28 375.816 112.7 376.196 113.22C376.576 113.72 376.766 114.34 376.766 115.08C376.766 115.34 376.736 115.62 376.676 115.92ZM384.282 100.47C383.942 100.47 383.652 100.35 383.412 100.11C383.172 99.85 383.052 99.55 383.052 99.21C383.052 98.85 383.172 98.55 383.412 98.31C383.652 98.05 383.942 97.92 384.282 97.92C384.622 97.92 384.912 98.05 385.152 98.31C385.412 98.55 385.542 98.85 385.542 99.21C385.542 99.55 385.422 99.85 385.182 100.11C384.942 100.35 384.642 100.47 384.282 100.47ZM381.582 119.52H379.902L382.632 103.92H384.312L381.582 119.52ZM402.273 103.89L399.513 119.64C399.073 122.18 398.143 124.03 396.723 125.19C395.303 126.35 393.713 126.93 391.953 126.93C390.393 126.93 389.043 126.51 387.903 125.67C386.783 124.83 386.123 123.74 385.923 122.4L387.303 121.77C387.603 122.89 388.173 123.76 389.013 124.38C389.853 125.02 390.873 125.34 392.073 125.34C393.493 125.34 394.723 124.87 395.763 123.93C396.803 122.99 397.503 121.5 397.863 119.46L398.343 116.79C397.703 117.85 396.923 118.62 396.003 119.1C395.083 119.58 394.133 119.82 393.153 119.82C392.013 119.82 390.983 119.54 390.063 118.98C389.163 118.44 388.453 117.66 387.933 116.64C387.413 115.6 387.153 114.4 387.153 113.04C387.153 112.42 387.213 111.77 387.333 111.09C387.613 109.49 388.133 108.13 388.893 107.01C389.673 105.87 390.593 105.02 391.653 104.46C392.713 103.88 393.813 103.59 394.953 103.59C396.233 103.59 397.313 103.95 398.193 104.67C399.093 105.37 399.683 106.35 399.963 107.61C400.203 106.71 400.473 105.47 400.773 103.89H402.273ZM399.153 112.11C399.273 111.45 399.333 110.83 399.333 110.25C399.333 108.57 398.903 107.31 398.043 106.47C397.203 105.63 396.153 105.21 394.893 105.21C393.493 105.21 392.253 105.73 391.173 106.77C390.113 107.79 389.413 109.27 389.073 111.21C388.973 111.73 388.923 112.33 388.923 113.01C388.923 114.63 389.323 115.91 390.123 116.85C390.943 117.77 392.023 118.23 393.363 118.23C394.643 118.23 395.833 117.76 396.933 116.82C398.053 115.86 398.793 114.29 399.153 112.11ZM413.729 103.59C415.189 103.59 416.359 104.04 417.239 104.94C418.139 105.82 418.589 107.08 418.589 108.72C418.589 109.16 418.539 109.71 418.439 110.37L416.819 119.52H415.139L416.699 110.55C416.799 109.95 416.849 109.44 416.849 109.02C416.849 107.78 416.529 106.84 415.889 106.2C415.269 105.54 414.409 105.21 413.309 105.21C412.069 105.21 410.949 105.63 409.949 106.47C408.969 107.31 408.339 108.53 408.059 110.13L406.409 119.52H404.759L407.489 103.89H408.929L408.539 106.53C409.119 105.57 409.859 104.84 410.759 104.34C411.659 103.84 412.649 103.59 413.729 103.59ZM446.284 104.28C446.024 105.74 445.384 106.95 444.364 107.91C443.344 108.85 442.054 109.49 440.494 109.83L445.624 119.52H443.524L438.664 110.1H438.244H433.744L432.124 119.52H430.354L434.164 97.56H439.624C440.984 97.56 442.174 97.8 443.194 98.28C444.214 98.74 445.004 99.39 445.564 100.23C446.124 101.07 446.404 102.03 446.404 103.11C446.404 103.37 446.364 103.76 446.284 104.28ZM444.424 104.1C444.484 103.8 444.514 103.5 444.514 103.2C444.514 101.98 444.054 101 443.134 100.26C442.214 99.5 440.914 99.12 439.234 99.12H435.664L434.044 108.51H437.974C439.774 108.51 441.234 108.13 442.354 107.37C443.474 106.61 444.164 105.52 444.424 104.1ZM454.594 118.23C456.494 118.23 457.984 117.38 459.064 115.68L460.294 116.55C459.674 117.63 458.844 118.44 457.804 118.98C456.784 119.54 455.664 119.82 454.444 119.82C452.584 119.82 451.094 119.22 449.974 118.02C448.854 116.8 448.294 115.18 448.294 113.16C448.294 112.52 448.354 111.86 448.474 111.18C448.754 109.54 449.284 108.15 450.064 107.01C450.864 105.87 451.824 105.02 452.944 104.46C454.064 103.88 455.244 103.59 456.484 103.59C457.924 103.59 459.054 103.96 459.874 104.7C460.694 105.44 461.104 106.43 461.104 107.67C461.104 109.15 460.464 110.25 459.184 110.97C457.904 111.69 455.874 112.05 453.094 112.05C452.554 112.05 451.564 112.01 450.124 111.93C450.064 112.35 450.034 112.75 450.034 113.13C450.034 114.73 450.444 115.98 451.264 116.88C452.084 117.78 453.194 118.23 454.594 118.23ZM456.394 105.15C454.994 105.15 453.744 105.6 452.644 106.5C451.544 107.38 450.784 108.71 450.364 110.49C451.344 110.57 452.364 110.61 453.424 110.61C455.464 110.61 456.974 110.38 457.954 109.92C458.934 109.44 459.424 108.69 459.424 107.67C459.424 106.89 459.164 106.28 458.644 105.84C458.124 105.38 457.374 105.15 456.394 105.15ZM478.626 103.89L474.666 126.66H472.986L474.726 116.7C474.086 117.78 473.306 118.57 472.386 119.07C471.466 119.57 470.506 119.82 469.506 119.82C468.366 119.82 467.336 119.54 466.416 118.98C465.516 118.44 464.806 117.66 464.286 116.64C463.766 115.6 463.506 114.4 463.506 113.04C463.506 112.42 463.566 111.77 463.686 111.09C463.966 109.49 464.486 108.13 465.246 107.01C466.026 105.87 466.946 105.02 468.006 104.46C469.066 103.88 470.166 103.59 471.306 103.59C472.586 103.59 473.676 103.95 474.576 104.67C475.476 105.39 476.066 106.37 476.346 107.61C476.546 106.91 476.716 106.16 476.856 105.36C477.016 104.56 477.116 104.07 477.156 103.89H478.626ZM469.716 118.23C470.996 118.23 472.186 117.76 473.286 116.82C474.406 115.86 475.146 114.29 475.506 112.11C475.626 111.45 475.686 110.83 475.686 110.25C475.686 108.57 475.256 107.31 474.396 106.47C473.556 105.63 472.506 105.21 471.246 105.21C469.846 105.21 468.606 105.73 467.526 106.77C466.466 107.79 465.766 109.27 465.426 111.21C465.326 111.73 465.276 112.33 465.276 113.01C465.276 114.63 465.676 115.91 466.476 116.85C467.296 117.77 468.376 118.23 469.716 118.23ZM494.012 103.89H495.692L492.962 119.52H491.492C491.672 118.32 491.792 117.45 491.852 116.91C491.272 117.87 490.532 118.59 489.632 119.07C488.752 119.57 487.782 119.82 486.722 119.82C485.262 119.82 484.082 119.38 483.182 118.5C482.282 117.6 481.832 116.33 481.832 114.69C481.832 114.25 481.882 113.7 481.982 113.04L483.602 103.89H485.282L483.722 112.86C483.622 113.46 483.572 113.96 483.572 114.36C483.572 115.6 483.882 116.55 484.502 117.21C485.142 117.87 486.012 118.2 487.112 118.2C488.352 118.2 489.462 117.78 490.442 116.94C491.442 116.1 492.082 114.88 492.362 113.28L494.012 103.89ZM502.551 100.47C502.211 100.47 501.921 100.35 501.681 100.11C501.441 99.85 501.321 99.55 501.321 99.21C501.321 98.85 501.441 98.55 501.681 98.31C501.921 98.05 502.211 97.92 502.551 97.92C502.891 97.92 503.181 98.05 503.421 98.31C503.681 98.55 503.811 98.85 503.811 99.21C503.811 99.55 503.691 99.85 503.451 100.11C503.211 100.35 502.911 100.47 502.551 100.47ZM499.851 119.52H498.171L500.901 103.92H502.581L499.851 119.52ZM513.222 103.59C513.762 103.59 514.222 103.68 514.602 103.86C514.982 104.02 515.262 104.23 515.442 104.49L514.662 105.81C514.302 105.41 513.732 105.21 512.952 105.21C511.912 105.21 510.972 105.62 510.132 106.44C509.292 107.24 508.702 108.44 508.362 110.04L506.712 119.52H505.062L507.792 103.89H509.232C509.072 105.09 508.942 105.96 508.842 106.5C509.382 105.52 510.032 104.79 510.792 104.31C511.552 103.83 512.362 103.59 513.222 103.59ZM521.748 118.23C523.648 118.23 525.138 117.38 526.218 115.68L527.448 116.55C526.828 117.63 525.998 118.44 524.958 118.98C523.938 119.54 522.818 119.82 521.598 119.82C519.738 119.82 518.248 119.22 517.128 118.02C516.008 116.8 515.448 115.18 515.448 113.16C515.448 112.52 515.508 111.86 515.628 111.18C515.908 109.54 516.438 108.15 517.218 107.01C518.018 105.87 518.978 105.02 520.098 104.46C521.218 103.88 522.398 103.59 523.638 103.59C525.078 103.59 526.208 103.96 527.028 104.7C527.848 105.44 528.258 106.43 528.258 107.67C528.258 109.15 527.618 110.25 526.338 110.97C525.058 111.69 523.028 112.05 520.248 112.05C519.708 112.05 518.718 112.01 517.278 111.93C517.218 112.35 517.188 112.75 517.188 113.13C517.188 114.73 517.598 115.98 518.418 116.88C519.238 117.78 520.348 118.23 521.748 118.23ZM523.548 105.15C522.148 105.15 520.898 105.6 519.798 106.5C518.698 107.38 517.938 108.71 517.518 110.49C518.498 110.57 519.518 110.61 520.578 110.61C522.618 110.61 524.128 110.38 525.108 109.92C526.088 109.44 526.578 108.69 526.578 107.67C526.578 106.89 526.318 106.28 525.798 105.84C525.278 105.38 524.528 105.15 523.548 105.15ZM551.33 105.21C551.95 106.05 552.26 107.16 552.26 108.54C552.26 109.18 552.21 109.76 552.11 110.28L550.49 119.52H548.84L550.43 110.43C550.53 109.83 550.58 109.32 550.58 108.9C550.58 107.76 550.3 106.86 549.74 106.2C549.2 105.54 548.45 105.21 547.49 105.21C546.45 105.21 545.49 105.62 544.61 106.44C543.75 107.24 543.18 108.41 542.9 109.95L541.22 119.52H539.57L541.16 110.43C541.26 109.83 541.31 109.32 541.31 108.9C541.31 107.76 541.03 106.86 540.47 106.2C539.93 105.54 539.18 105.21 538.22 105.21C537.2 105.21 536.24 105.62 535.34 106.44C534.46 107.24 533.89 108.38 533.63 109.86L531.95 119.52H530.3L533.03 103.92L534.47 103.98C534.29 105.02 534.17 105.83 534.11 106.41C534.67 105.49 535.35 104.79 536.15 104.31C536.95 103.83 537.8 103.59 538.7 103.59C539.4 103.59 540.03 103.73 540.59 104.01C541.17 104.29 541.66 104.69 542.06 105.21C542.42 105.71 542.67 106.33 542.81 107.07C543.39 105.93 544.13 105.07 545.03 104.49C545.95 103.89 546.93 103.59 547.97 103.59C548.67 103.59 549.3 103.73 549.86 104.01C550.44 104.29 550.93 104.69 551.33 105.21ZM562.104 118.23C564.004 118.23 565.494 117.38 566.574 115.68L567.804 116.55C567.184 117.63 566.354 118.44 565.314 118.98C564.294 119.54 563.174 119.82 561.954 119.82C560.094 119.82 558.604 119.22 557.484 118.02C556.364 116.8 555.804 115.18 555.804 113.16C555.804 112.52 555.864 111.86 555.984 111.18C556.264 109.54 556.794 108.15 557.574 107.01C558.374 105.87 559.334 105.02 560.454 104.46C561.574 103.88 562.754 103.59 563.994 103.59C565.434 103.59 566.564 103.96 567.384 104.7C568.204 105.44 568.614 106.43 568.614 107.67C568.614 109.15 567.974 110.25 566.694 110.97C565.414 111.69 563.384 112.05 560.604 112.05C560.064 112.05 559.074 112.01 557.634 111.93C557.574 112.35 557.544 112.75 557.544 113.13C557.544 114.73 557.954 115.98 558.774 116.88C559.594 117.78 560.704 118.23 562.104 118.23ZM563.904 105.15C562.504 105.15 561.254 105.6 560.154 106.5C559.054 107.38 558.294 108.71 557.874 110.49C558.854 110.57 559.874 110.61 560.934 110.61C562.974 110.61 564.484 110.38 565.464 109.92C566.444 109.44 566.934 108.69 566.934 107.67C566.934 106.89 566.674 106.28 566.154 105.84C565.634 105.38 564.884 105.15 563.904 105.15ZM579.626 103.59C581.086 103.59 582.256 104.04 583.136 104.94C584.036 105.82 584.486 107.08 584.486 108.72C584.486 109.16 584.436 109.71 584.336 110.37L582.716 119.52H581.036L582.596 110.55C582.696 109.95 582.746 109.44 582.746 109.02C582.746 107.78 582.426 106.84 581.786 106.2C581.166 105.54 580.306 105.21 579.206 105.21C577.966 105.21 576.846 105.63 575.846 106.47C574.866 107.31 574.236 108.53 573.956 110.13L572.306 119.52H570.656L573.386 103.89H574.826L574.436 106.53C575.016 105.57 575.756 104.84 576.656 104.34C577.556 103.84 578.546 103.59 579.626 103.59ZM596.716 105.36H592.366L590.686 114.9C590.606 115.46 590.566 115.83 590.566 116.01C590.566 117.49 591.256 118.23 592.636 118.23C593.356 118.23 594.026 118 594.646 117.54L595.186 118.95C594.366 119.53 593.436 119.82 592.396 119.82C591.376 119.82 590.526 119.55 589.846 119.01C589.186 118.47 588.856 117.58 588.856 116.34C588.856 115.88 588.896 115.42 588.976 114.96L590.656 105.36H588.106L588.376 103.89H590.926L591.676 99.57H593.386L592.606 103.89H596.956L596.716 105.36ZM608.234 115.92C608.034 117.14 607.464 118.09 606.524 118.77C605.604 119.47 604.454 119.82 603.074 119.82C601.514 119.82 600.204 119.41 599.144 118.59C598.104 117.77 597.504 116.7 597.344 115.38L598.724 114.75C598.924 115.87 599.414 116.74 600.194 117.36C600.974 117.96 601.934 118.26 603.074 118.26C603.974 118.26 604.734 118.05 605.354 117.63C605.974 117.21 606.354 116.61 606.494 115.83C606.534 115.59 606.554 115.43 606.554 115.35C606.554 114.85 606.404 114.42 606.104 114.06C605.804 113.68 605.434 113.37 604.994 113.13C604.574 112.87 603.984 112.57 603.224 112.23C602.344 111.81 601.644 111.45 601.124 111.15C600.604 110.83 600.154 110.42 599.774 109.92C599.414 109.4 599.234 108.78 599.234 108.06C599.234 107.12 599.464 106.31 599.924 105.63C600.404 104.95 601.024 104.44 601.784 104.1C602.564 103.76 603.404 103.59 604.304 103.59C605.644 103.59 606.764 103.94 607.664 104.64C608.564 105.34 609.074 106.21 609.194 107.25L607.814 107.88C607.674 107.08 607.274 106.43 606.614 105.93C605.954 105.41 605.154 105.15 604.214 105.15C603.314 105.15 602.554 105.39 601.934 105.87C601.314 106.35 601.004 107.01 601.004 107.85C601.004 108.33 601.144 108.75 601.424 109.11C601.724 109.47 602.074 109.77 602.474 110.01C602.894 110.23 603.494 110.52 604.274 110.88C605.134 111.26 605.834 111.62 606.374 111.96C606.914 112.28 607.374 112.7 607.754 113.22C608.134 113.72 608.324 114.34 608.324 115.08C608.324 115.34 608.294 115.62 608.234 115.92Z" fill="black" fill-opacity="0.7"/>
<rect x="173.5" y="335.5" width="333" height="333" rx="166.5" fill="white"/>
<rect x="173.5" y="335.5" width="333" height="333" rx="166.5" stroke="black"/>
<path d="M273.438 482.644V491.824H271.058V480.332H297.238C296.377 477.975 295.175 474.915 293.634 471.152L296.014 470.472L297.782 475.164C298.371 476.569 299.029 478.292 299.754 480.332H322.466V491.892H320.086V482.644H273.438ZM312.946 501.004C311.45 505.129 309.795 508.665 307.982 511.612C306.214 514.513 304.015 517.075 301.386 519.296C308.594 522.469 315.983 525.892 323.554 529.564L322.534 531.876C313.105 527.297 305.353 523.671 299.278 520.996C295.969 523.399 291.798 525.529 286.766 527.388C281.779 529.247 275.546 530.969 268.066 532.556L267.454 530.176C274.435 528.725 280.283 527.184 284.998 525.552C289.758 523.875 293.725 521.993 296.898 519.908C289.237 516.417 282.799 513.72 277.586 511.816C279.49 509.005 281.575 505.401 283.842 501.004H267.114V498.76H284.998C287.083 494.68 289.01 490.532 290.778 486.316L293.09 487.132C290.914 492.028 289.123 495.904 287.718 498.76H325.73V501.004H312.946ZM299.074 518.276C301.703 516.191 303.879 513.765 305.602 511C307.37 508.235 308.957 504.903 310.362 501.004H286.562C284.749 504.54 282.89 507.781 280.986 510.728C286.834 512.995 292.863 515.511 299.074 518.276ZM383.598 471.56C386.635 476.275 390.557 480.695 395.362 484.82C400.167 488.945 405.698 492.617 411.954 495.836L410.866 498.012C404.655 494.748 399.147 491.099 394.342 487.064C389.537 482.984 385.593 478.655 382.51 474.076C376.209 483.369 366.711 491.461 354.018 498.352L352.93 496.108C359.367 492.708 364.921 488.991 369.59 484.956C374.305 480.921 378.271 476.456 381.49 471.56H383.598ZM404.678 512.564H383.666V526.504H410.798V528.748H354.222V526.504H381.218V512.564H360.342V510.252H381.218V497.4H362.654V495.088H402.366V497.4H383.666V510.252H404.678V512.564Z" fill="black"/>
<path d="M547.841 500.8H562.053V503.248H547.841V517.392H545.189V503.248H531.045V500.8H545.189V486.792H547.841V500.8Z" fill="black"/>
<path d="M960.841 500.8H975.053V503.248H960.841V517.392H958.189V503.248H944.045V500.8H958.189V486.792H960.841V500.8Z" fill="black"/>
<path d="M1373.84 500.8H1388.05V503.248H1373.84V517.392H1371.19V503.248H1357.05V500.8H1371.19V486.792H1373.84V500.8Z" fill="black"/>
<rect x="586.5" y="335.5" width="333" height="333" rx="166.5" fill="white"/>
<rect x="586.5" y="335.5" width="333" height="333" rx="166.5" stroke="black"/>
<path d="M739.002 498.624V500.868H700.786V498.624H712.618L709.082 482.508H703.098V480.332H719.214L715.882 471.696L718.058 471.152L721.458 480.332H736.282V482.508H730.298C728.847 489.761 727.737 495.133 726.966 498.624H739.002ZM683.582 532.488V476.388H699.834V478.7L694.054 495.224C697.907 500.483 699.834 505.537 699.834 510.388C699.834 512.655 699.562 514.423 699.018 515.692C698.474 516.916 697.59 517.8 696.366 518.344C695.142 518.888 693.442 519.16 691.266 519.16H687.934L687.458 516.916H690.858C692.717 516.916 694.122 516.712 695.074 516.304C696.026 515.896 696.683 515.216 697.046 514.264C697.454 513.312 697.658 511.907 697.658 510.048C697.658 505.515 695.686 500.687 691.742 495.564L697.658 478.7H685.69V532.488H683.582ZM711.394 482.508L711.87 484.616C712.142 485.976 712.55 487.812 713.094 490.124C713.638 492.436 714.25 495.269 714.93 498.624H724.79C726.331 492.141 727.419 486.769 728.054 482.508H711.394ZM708.062 532.42H705.818V509.436H733.29V532.42H731.114V528.272H708.062V532.42ZM731.114 526.096V511.612H708.062V526.096H731.114ZM805.506 511.816H824.818V514.128H805.506V532.284H803.126V514.128H783.066V511.816H803.126V499.576H786.534V497.264H803.126V470.54H805.506V497.264H822.506V499.576H805.506V511.816ZM783.814 472.716C782.091 477.748 780.187 482.508 778.102 486.996V531.876H775.79V491.62C772.979 496.969 769.897 501.843 766.542 506.24L765.454 503.928C768.673 499.531 771.665 494.635 774.43 489.24C777.195 483.8 779.598 478.065 781.638 472.036L783.814 472.716ZM822.37 476.116C821.373 478.02 819.922 480.672 818.018 484.072C816.114 487.427 814.527 490.124 813.258 492.164L811.422 491.076C812.918 488.492 814.55 485.591 816.318 482.372C818.131 479.153 819.469 476.705 820.33 475.028L822.37 476.116ZM795.17 491.892C792.495 486.996 789.571 481.919 786.398 476.66L788.37 475.572C789.549 477.476 791.022 479.992 792.79 483.12C794.603 486.203 796.054 488.787 797.142 490.872L795.17 491.892Z" fill="black"/>
<rect x="999.5" y="335.5" width="333" height="333" rx="166.5" fill="white"/>
<rect x="999.5" y="335.5" width="333" height="333" rx="166.5" stroke="black"/>
<path d="M1125.14 525.756H1151.8V528.068H1094.47V525.756H1122.63V506.852H1100.8V504.54H1122.63V488.152H1104.27C1102 492.776 1099.21 497.264 1095.9 501.616L1093.86 500.392C1096.94 496.403 1099.53 492.323 1101.61 488.152C1103.7 483.981 1105.51 479.289 1107.05 474.076L1109.3 474.688C1108.3 478.179 1106.99 481.873 1105.35 485.772H1122.63V471.016H1125.14V485.772H1149.08V488.152H1125.14V504.54H1146.7V506.852H1125.14V525.756ZM1200.49 506.648C1198.94 504.925 1196.02 501.956 1191.71 497.74V532.284H1189.4V494.068C1187.18 501.231 1184.05 508.484 1180.02 515.828L1178.86 513.38C1180.95 509.572 1182.92 505.401 1184.78 500.868C1186.68 496.289 1188.2 491.801 1189.33 487.404H1179.41V485.092H1189.4V470.948H1191.71V485.092H1201.71V487.404H1191.71V494.884C1196.02 498.964 1199.38 502.251 1201.78 504.744L1200.49 506.648ZM1237.89 511.816C1237.89 513.085 1237.86 514.967 1237.82 517.46C1237.77 519.953 1237.73 522.039 1237.68 523.716C1237.59 525.393 1237.36 526.663 1237 527.524C1236.68 528.34 1236.1 528.907 1235.23 529.224C1234.42 529.541 1233.19 529.7 1231.56 529.7H1229.66C1227.66 529.7 1226.26 529.269 1225.44 528.408C1224.67 527.592 1224.29 526.073 1224.29 523.852V479.176H1208.65V498.216C1208.65 504.472 1208.35 509.436 1207.76 513.108C1207.22 516.78 1206.11 520.067 1204.43 522.968C1202.8 525.869 1200.28 528.975 1196.88 532.284L1195.05 530.652C1198.36 527.524 1200.78 524.668 1202.32 522.084C1203.86 519.5 1204.93 516.44 1205.52 512.904C1206.11 509.368 1206.4 504.472 1206.4 498.216V476.796H1226.53V523.444C1226.53 525.076 1226.76 526.141 1227.21 526.64C1227.71 527.139 1228.68 527.388 1230.13 527.388H1231.49C1232.67 527.388 1233.53 527.297 1234.08 527.116C1234.62 526.889 1234.98 526.481 1235.17 525.892C1235.39 525.303 1235.53 524.351 1235.57 523.036C1235.62 521.449 1235.66 519.432 1235.71 516.984C1235.76 514.491 1235.78 512.609 1235.78 511.34L1237.89 511.816Z" fill="black"/>
<rect x="1412.5" y="335.5" width="333" height="333" rx="166.5" fill="white"/>
<rect x="1412.5" y="335.5" width="333" height="333" rx="166.5" stroke="black"/>
<path d="M1565.14 514.06C1564.82 516.689 1564.34 519.681 1563.71 523.036C1563.12 525.983 1562.37 528 1561.47 529.088C1560.56 530.176 1559.4 530.72 1558 530.72C1556.82 530.72 1555.66 530.312 1554.53 529.496C1553.4 528.68 1552.17 527.32 1550.86 525.416C1549.14 523.059 1547.66 520.384 1546.44 517.392C1542.77 521.653 1538.23 525.733 1532.84 529.632L1531.27 527.728C1537.12 523.467 1541.86 519.205 1545.49 514.944C1542.81 507.464 1540.88 497.559 1539.71 485.228H1514.82V497.468H1531.95C1531.95 499.599 1531.66 505.764 1531.07 515.964C1530.93 517.959 1530.57 519.5 1529.98 520.588C1529.44 521.631 1528.53 522.379 1527.26 522.832C1525.99 523.285 1524.18 523.512 1521.82 523.512H1516.99L1516.59 521.2H1521.41C1523.45 521.2 1524.97 521.041 1525.97 520.724C1526.97 520.407 1527.67 519.863 1528.08 519.092C1528.49 518.321 1528.74 517.12 1528.83 515.488C1528.96 513.221 1529.1 510.547 1529.23 507.464C1529.37 504.336 1529.48 501.775 1529.57 499.78H1514.82V500.324C1514.82 507.668 1514.34 513.607 1513.39 518.14C1512.44 522.673 1510.62 527.297 1507.95 532.012L1505.77 530.856C1507.59 527.728 1508.97 524.759 1509.92 521.948C1510.92 519.092 1511.6 515.987 1511.96 512.632C1512.37 509.277 1512.57 505.152 1512.57 500.256V482.848H1539.43L1538.41 470.608H1540.73C1540.77 471.741 1541.09 475.821 1541.68 482.848H1564.39V485.228H1541.88C1543.02 496.697 1544.78 505.9 1547.19 512.836C1549.45 509.889 1551.38 506.739 1552.97 503.384C1554.6 500.029 1556.14 496.108 1557.59 491.62L1559.63 492.436C1558 497.287 1556.3 501.525 1554.53 505.152C1552.76 508.779 1550.61 512.201 1548.07 515.42C1549.52 519.047 1551.13 522.084 1552.9 524.532C1554.8 527.025 1556.5 528.272 1558 528.272C1558.86 528.272 1559.56 527.864 1560.11 527.048C1560.7 526.187 1561.24 524.555 1561.74 522.152L1563.1 513.448L1565.14 514.06ZM1557.45 480.604C1553.6 477.295 1550.36 474.711 1547.73 472.852L1549.16 471.22C1552.15 473.441 1555.41 476.048 1558.95 479.04L1557.45 480.604ZM1621.51 500.596C1624.28 507.169 1627.9 512.496 1632.39 516.576C1636.88 520.656 1643.02 524.26 1650.82 527.388L1649.73 529.632C1641.71 526.323 1635.29 522.424 1630.49 517.936C1625.73 513.448 1621.87 507.668 1618.93 500.596H1606.21V528.34L1624.23 519.908L1624.57 522.22L1603.63 532.012L1602.4 529.972C1603.04 529.473 1603.44 529.065 1603.63 528.748C1603.85 528.476 1603.97 528.204 1603.97 527.932V500.596H1592.54V498.284H1603.97V471.016H1606.21V498.284H1650.61V500.596H1621.51ZM1643.81 475.3C1639.78 478.383 1634.77 481.556 1628.79 484.82C1622.8 488.039 1617.27 490.691 1612.19 492.776L1611.31 490.532C1616.3 488.537 1621.74 485.908 1627.63 482.644C1633.57 479.38 1638.56 476.207 1642.59 473.124L1643.81 475.3Z" fill="black"/>
<mask id="path-14-inside-1_2874_10470" fill="white">
<path fill-rule="evenodd" clip-rule="evenodd" d="M774.558 747C773.129 747 771.809 746.238 771.094 745L751.464 711C749.925 708.333 746.076 708.333 744.536 711L724.906 745C724.191 746.238 722.871 747 721.442 747H386C369.431 747 356 760.431 356 777V789C356 805.569 369.431 819 386 819H830C846.569 819 860 805.569 860 789V777C860 760.431 846.569 747 830 747H774.558Z"/>
</mask>
<path d="M724.906 745L724.04 744.5L724.906 745ZM771.094 745L771.96 744.5L771.094 745ZM744.536 711L745.402 711.5L744.536 711ZM750.598 711.5L770.228 745.5L771.96 744.5L752.33 710.5L750.598 711.5ZM725.772 745.5L745.402 711.5L743.67 710.5L724.04 744.5L725.772 745.5ZM386 748H721.442V746H386V748ZM357 777C357 760.984 369.984 748 386 748V746C368.879 746 355 759.879 355 777H357ZM357 789V777H355V789H357ZM386 818C369.984 818 357 805.016 357 789H355C355 806.121 368.879 820 386 820V818ZM830 818H386V820H830V818ZM859 789C859 805.016 846.016 818 830 818V820C847.121 820 861 806.121 861 789H859ZM859 777V789H861V777H859ZM830 748C846.016 748 859 760.984 859 777H861C861 759.879 847.121 746 830 746V748ZM774.558 748H830V746H774.558V748ZM724.04 744.5C723.504 745.428 722.514 746 721.442 746V748C723.228 748 724.879 747.047 725.772 745.5L724.04 744.5ZM770.228 745.5C771.121 747.047 772.772 748 774.558 748V746C773.486 746 772.496 745.428 771.96 744.5L770.228 745.5ZM752.33 710.5C750.406 707.167 745.594 707.167 743.67 710.5L745.402 711.5C746.557 709.5 749.443 709.5 750.598 711.5L752.33 710.5Z" fill="black" mask="url(#path-14-inside-1_2874_10470)"/>
<mask id="path-16-inside-2_2874_10470" fill="white">
<path fill-rule="evenodd" clip-rule="evenodd" d="M1162.83 747C1161.4 747 1160.08 746.238 1159.36 745L1141.46 714C1139.92 711.333 1136.08 711.333 1134.54 714L1116.64 745C1115.92 746.238 1114.6 747 1113.17 747H1074C1057.43 747 1044 760.431 1044 777V840C1044 856.569 1057.43 870 1074 870H1582C1598.57 870 1612 856.569 1612 840V777C1612 760.431 1598.57 747 1582 747H1162.83Z"/>
</mask>
<path d="M1116.64 745L1117.5 745.5L1117.5 745.5L1116.64 745ZM1159.36 745L1158.5 745.5L1159.36 745ZM1140.6 714.5L1158.5 745.5L1160.23 744.5L1142.33 713.5L1140.6 714.5ZM1117.5 745.5L1135.4 714.5L1133.67 713.5L1115.77 744.5L1117.5 745.5ZM1074 748H1113.17V746H1074V748ZM1045 777C1045 760.984 1057.98 748 1074 748V746C1056.88 746 1043 759.879 1043 777H1045ZM1045 840V777H1043V840H1045ZM1074 869C1057.98 869 1045 856.016 1045 840H1043C1043 857.121 1056.88 871 1074 871V869ZM1582 869H1074V871H1582V869ZM1611 840C1611 856.016 1598.02 869 1582 869V871C1599.12 871 1613 857.121 1613 840H1611ZM1611 777V840H1613V777H1611ZM1582 748C1598.02 748 1611 760.984 1611 777H1613C1613 759.879 1599.12 746 1582 746V748ZM1162.83 748H1582V746H1162.83V748ZM1115.77 744.5C1115.24 745.428 1114.25 746 1113.17 746V748C1114.96 748 1116.61 747.047 1117.5 745.5L1115.77 744.5ZM1158.5 745.5C1159.39 747.047 1161.04 748 1162.83 748V746C1161.75 746 1160.76 745.428 1160.23 744.5L1158.5 745.5ZM1142.33 713.5C1140.41 710.167 1135.59 710.167 1133.67 713.5L1135.4 714.5C1136.56 712.5 1139.44 712.5 1140.6 714.5L1142.33 713.5Z" fill="black" mask="url(#path-16-inside-2_2874_10470)"/>
<path d="M432.218 781.794C433.759 783.97 435.652 785.919 437.896 787.642C440.14 789.365 442.781 790.951 445.818 792.402L445.308 793.524C439.415 790.713 434.915 787.211 431.81 783.018V796.108H430.688V783.12C429.101 785.273 427.209 787.211 425.01 788.934C422.811 790.657 420.227 792.255 417.258 793.728L416.68 792.606C419.74 791.133 422.392 789.523 424.636 787.778C426.88 786.01 428.784 784.015 430.348 781.794H417.156V780.672H430.688V771.05H418.788V769.894H430.688V765.27H431.81V769.894H443.812V771.05H431.81V780.672H445.376V781.794H432.218ZM435.924 778.598C436.672 777.737 437.511 776.705 438.44 775.504C439.392 774.303 440.174 773.26 440.786 772.376L441.636 773.124C441.069 773.963 440.299 774.994 439.324 776.218C438.372 777.442 437.499 778.496 436.706 779.38L435.924 778.598ZM421.848 772.58C424.273 775.527 425.837 777.465 426.54 778.394L425.69 779.176C424.965 778.224 424.171 777.227 423.31 776.184C422.471 775.119 421.701 774.167 420.998 773.328L421.848 772.58ZM457.65 772.138C456.177 770.733 454.443 769.169 452.448 767.446L453.128 766.596C455.825 768.931 457.559 770.461 458.33 771.186L457.65 772.138ZM478.05 785.092H471.998V792.062C471.998 793.286 471.76 794.125 471.284 794.578C470.808 795.054 469.947 795.292 468.7 795.292H465.708L465.504 794.204H468.462C469.165 794.204 469.675 794.136 469.992 794C470.332 793.864 470.559 793.626 470.672 793.286C470.808 792.946 470.876 792.436 470.876 791.756V785.092H464.688V773.634H469.55C470.003 772.07 470.434 770.461 470.842 768.806H461.05V778.088C461.05 780.831 460.914 783.177 460.642 785.126C460.393 787.075 459.962 788.911 459.35 790.634C458.761 792.357 457.911 794.204 456.8 796.176L455.746 795.666C456.857 793.694 457.707 791.881 458.296 790.226C458.908 788.549 459.339 786.769 459.588 784.888C459.837 783.007 459.962 780.74 459.962 778.088V767.718H480.362V768.806H471.998C471.499 770.755 471.057 772.365 470.672 773.634H478.05V785.092ZM456.494 779.754C454.703 778.19 452.788 776.558 450.748 774.858L451.394 773.974C452.187 774.631 453.434 775.674 455.134 777.102L457.174 778.802L456.494 779.754ZM476.962 778.904V774.688H465.776V778.904H476.962ZM476.962 779.89H465.776V784.038H476.962V779.89ZM455.78 783.256L456.358 783.358L452.924 795.53L451.87 795.224L452.89 791.586C453.411 789.795 453.887 788.107 454.318 786.52C454.771 784.933 455.089 783.789 455.27 783.086L455.78 783.256ZM467.442 787.812C466.807 788.832 465.969 789.977 464.926 791.246C463.906 792.515 462.886 793.66 461.866 794.68L461.05 793.966C462.047 792.991 463.056 791.892 464.076 790.668C465.096 789.421 465.923 788.288 466.558 787.268L467.442 787.812ZM475.568 787.336C476.384 788.311 477.313 789.467 478.356 790.804C479.421 792.141 480.147 793.082 480.532 793.626L479.716 794.272C479.308 793.705 478.571 792.753 477.506 791.416C476.463 790.079 475.534 788.923 474.718 787.948L475.568 787.336ZM488.828 767.888H512.254V792.062C512.254 792.991 512.141 793.694 511.914 794.17C511.687 794.669 511.302 795.02 510.758 795.224C510.237 795.428 509.466 795.53 508.446 795.53H504.876L504.672 794.34H508.174C509.013 794.34 509.636 794.261 510.044 794.102C510.452 793.966 510.724 793.728 510.86 793.388C511.019 793.025 511.098 792.493 511.098 791.79V785.738H501.068V795.564H499.912V785.738H489.916C489.78 787.937 489.474 789.761 488.998 791.212C488.522 792.663 487.717 794.295 486.584 796.108L485.564 795.496C486.516 793.955 487.207 792.617 487.638 791.484C488.091 790.351 488.397 789.047 488.556 787.574C488.737 786.078 488.828 784.038 488.828 781.454V767.888ZM499.912 776.354V769.044H490.018V776.354H499.912ZM501.068 776.354H511.098V769.044H501.068V776.354ZM499.912 784.582V777.544H490.018V781.726C490.018 783.041 490.007 783.993 489.984 784.582H499.912ZM501.068 777.544V784.582H511.098V777.544H501.068ZM546.458 770.438V782.134H524.732C524.664 784.423 524.494 786.35 524.222 787.914C523.95 789.478 523.531 790.895 522.964 792.164C522.397 793.433 521.615 794.782 520.618 796.21L519.598 795.496C520.709 793.932 521.536 792.47 522.08 791.11C522.647 789.727 523.032 788.129 523.236 786.316C523.463 784.48 523.576 782.032 523.576 778.972V770.438H535.034L533.198 765.644L534.388 765.27L536.36 770.438H546.458ZM545.268 780.978V771.56H524.766V778.836C524.766 779.811 524.755 780.525 524.732 780.978H545.268ZM570.02 772.308C569.952 774.869 569.895 776.592 569.85 777.476L569.782 778.7H580.696C580.719 779.471 580.639 781.273 580.458 784.106C580.277 786.917 580.129 789.115 580.016 790.702C579.925 791.79 579.71 792.617 579.37 793.184C579.03 793.751 578.509 794.147 577.806 794.374C577.103 794.601 576.106 794.714 574.814 794.714H571.006L570.802 793.558H574.508C575.596 793.558 576.435 793.467 577.024 793.286C577.613 793.105 578.044 792.799 578.316 792.368C578.611 791.915 578.803 791.257 578.894 790.396L579.438 779.89H569.714C569.555 782.61 569.272 784.854 568.864 786.622C568.479 788.367 567.878 789.965 567.062 791.416C566.246 792.844 565.079 794.363 563.56 795.972L562.608 795.156C564.24 793.433 565.464 791.824 566.28 790.328C567.096 788.832 567.663 787.132 567.98 785.228C568.32 783.324 568.558 780.717 568.694 777.408C568.739 776.569 568.796 774.869 568.864 772.308H563.662V771.118H573.964L571.652 766.086L572.774 765.712C573.046 766.347 573.42 767.197 573.896 768.262C574.372 769.305 574.814 770.257 575.222 771.118H583.314V772.308H570.02ZM560.942 773.056C560.398 772.285 559.593 771.231 558.528 769.894C557.463 768.557 556.624 767.548 556.012 766.868L556.896 766.154C557.508 766.834 558.347 767.843 559.412 769.18C560.477 770.495 561.305 771.537 561.894 772.308L560.942 773.056ZM564.274 786.826L564.682 787.914L558.29 793.626L557.542 792.742C557.837 792.425 558.018 792.198 558.086 792.062C558.177 791.903 558.222 791.733 558.222 791.552V777.612H554.006V776.422H559.412V791.212L564.274 786.826ZM606.604 774.824C605.924 776.025 604.791 777.091 603.204 778.02C601.617 778.949 599.385 779.879 596.506 780.808L596.064 779.754C598.988 778.825 601.187 777.918 602.66 777.034C604.156 776.15 605.165 775.198 605.686 774.178C606.207 773.135 606.468 771.821 606.468 770.234V765.508H607.624V770.268C607.624 771.651 607.443 772.841 607.08 773.838C608.757 774.767 610.673 775.844 612.826 777.068C614.979 778.292 616.577 779.21 617.62 779.822L617.042 780.808C616.022 780.196 614.299 779.199 611.874 777.816C609.471 776.411 607.715 775.413 606.604 774.824ZM594.296 772.716C593.797 772.013 593.049 771.039 592.052 769.792C591.055 768.545 590.239 767.559 589.604 766.834L590.42 766.12C591.168 767.004 592.018 768.047 592.97 769.248C593.945 770.427 594.67 771.345 595.146 772.002L594.296 772.716ZM602.898 773.804C600.949 771.719 599.328 770.064 598.036 768.84L598.75 768.058C599.657 768.897 601.289 770.551 603.646 773.022L602.898 773.804ZM616.056 768.84C615.467 769.543 614.696 770.359 613.744 771.288C612.815 772.217 611.919 773.067 611.058 773.838L610.31 773.056C612.463 771.129 614.118 769.475 615.274 768.092L616.056 768.84ZM596.88 788.356L597.322 789.41L592.256 794.102L591.474 793.286C591.769 792.923 591.95 792.663 592.018 792.504C592.109 792.345 592.154 792.164 592.154 791.96V777.68H588.346V776.558H593.276V791.688L596.88 788.356ZM607.624 783.358C608.032 785.919 609.097 788.186 610.82 790.158C612.565 792.13 614.832 793.728 617.62 794.952L617.11 796.04C614.594 794.929 612.486 793.501 610.786 791.756C609.086 790.011 607.885 788.027 607.182 785.806C606.593 787.914 605.414 789.818 603.646 791.518C601.901 793.195 599.543 794.725 596.574 796.108L596.03 795.02C599.589 793.388 602.218 791.552 603.918 789.512C605.641 787.449 606.502 785.035 606.502 782.27V778.598H607.658V782.304C607.658 782.78 607.647 783.131 607.624 783.358ZM602.082 787.608C601.221 786.497 599.747 784.82 597.662 782.576L598.41 781.862C599.09 782.565 599.861 783.403 600.722 784.378C601.583 785.353 602.309 786.203 602.898 786.928L602.082 787.608ZM610.82 787.234C612.747 785.171 614.277 783.392 615.41 781.896L616.26 782.542C615.081 784.106 613.54 785.897 611.636 787.914L610.82 787.234ZM651.484 795.87C647.041 793.921 643.324 791.688 640.332 789.172C638.791 790.509 637.023 791.756 635.028 792.912C633.033 794.045 630.733 795.156 628.126 796.244L627.548 795.19C630.109 794.125 632.353 793.037 634.28 791.926C636.229 790.815 637.952 789.637 639.448 788.39C637.499 786.599 635.878 784.639 634.586 782.508C633.294 780.355 632.274 777.963 631.526 775.334C631.503 775.402 631.492 775.515 631.492 775.674C631.197 779.754 630.427 783.369 629.18 786.52C627.933 789.648 626.007 792.674 623.4 795.598L622.482 794.816C625.021 791.983 626.891 789.07 628.092 786.078C629.316 783.063 630.075 779.561 630.37 775.572C630.551 773.305 630.676 771.107 630.744 768.976H624.25V767.854H645.738V769.01L641.726 776.422H648.39V777.578C647.461 779.822 646.418 781.828 645.262 783.596C644.106 785.341 642.757 786.939 641.216 788.39C644.049 790.725 647.676 792.844 652.096 794.748L651.484 795.87ZM631.73 771.968C632.478 775.3 633.532 778.235 634.892 780.774C636.275 783.313 638.077 785.591 640.298 787.608C641.771 786.271 643.052 784.786 644.14 783.154C645.251 781.499 646.248 779.641 647.132 777.578H640.298V776.49L644.344 768.976H631.9L631.73 771.968ZM660.222 765.78C661.061 766.573 662.783 768.273 665.39 770.88L664.574 771.764L662.772 769.962C661.14 768.285 660.041 767.174 659.474 766.63L660.222 765.78ZM684.294 791.246C684.294 792.334 684.169 793.161 683.92 793.728C683.693 794.295 683.274 794.691 682.662 794.918C682.073 795.167 681.189 795.292 680.01 795.292H675.726L675.522 794.102H679.704C680.679 794.102 681.404 794.023 681.88 793.864C682.379 793.683 682.719 793.377 682.9 792.946C683.081 792.515 683.172 791.869 683.172 791.008V769.452H667.396V768.262H684.294V791.246ZM659.1 772.036H660.222V795.768H659.1V772.036ZM665.832 775.3H677.528V787.506H665.832V775.3ZM666.954 776.422V786.384H676.406V776.422H666.954ZM702.382 779.346C701.339 780.887 700.036 782.338 698.472 783.698H713.16L712.82 787.37C712.707 788.413 712.389 789.127 711.868 789.512C711.347 789.875 710.451 790.056 709.182 790.056H704.796L704.626 789.036H708.944C709.964 789.036 710.655 788.911 711.018 788.662C711.381 788.39 711.619 787.891 711.732 787.166L711.936 784.718H699.288V791.314C699.288 792.402 699.492 793.15 699.9 793.558C700.308 793.966 701.067 794.17 702.178 794.17H712.174C713.126 794.17 713.829 794.102 714.282 793.966C714.735 793.83 715.053 793.592 715.234 793.252C715.438 792.889 715.563 792.323 715.608 791.552C715.721 790.351 715.778 789.319 715.778 788.458L716.9 788.73C716.9 789.251 716.832 790.294 716.696 791.858C716.628 792.787 716.458 793.49 716.186 793.966C715.937 794.442 715.517 794.771 714.928 794.952C714.361 795.133 713.511 795.224 712.378 795.224H701.906C700.501 795.224 699.515 794.952 698.948 794.408C698.404 793.864 698.132 792.889 698.132 791.484V783.97C696.477 785.398 694.358 786.883 691.774 788.424L691.162 787.404C693.406 786.089 695.321 784.786 696.908 783.494C698.517 782.179 699.877 780.797 700.988 779.346H691.604V778.292H701.736C702.665 776.955 703.436 775.436 704.048 773.736H693.066V772.682H704.422C705.079 770.597 705.601 768.205 705.986 765.508L707.142 765.644C706.757 768.319 706.235 770.665 705.578 772.682H718.974V773.736H705.238C704.603 775.481 703.889 777 703.096 778.292H720.402V779.346H711.426C713.511 782.157 716.639 784.446 720.81 786.214L720.334 787.302C715.687 785.239 712.276 782.587 710.1 779.346H702.382ZM716.288 766.936C714.724 768.636 713.16 770.245 711.596 771.764L710.814 771.016C712.899 768.976 714.429 767.389 715.404 766.256L716.288 766.936ZM700.24 771.628C699.152 770.427 697.883 769.101 696.432 767.65L695.752 766.936L696.602 766.29C697.871 767.514 699.367 769.067 701.09 770.948L700.24 771.628ZM731.588 772.784C730.137 770.653 728.721 768.659 727.338 766.8L728.256 766.154C729.049 767.197 730.466 769.169 732.506 772.07L731.588 772.784ZM735.634 767.718H753.28V791.96C753.28 793.161 752.985 794.011 752.396 794.51C751.807 795.031 750.775 795.292 749.302 795.292H746.344L746.14 794.204H749.2C750.333 794.204 751.115 794.034 751.546 793.694C751.977 793.354 752.192 792.731 752.192 791.824V768.806H736.756V779.38C736.756 782.508 736.665 784.99 736.484 786.826C736.303 788.662 735.997 790.237 735.566 791.552C735.158 792.867 734.535 794.329 733.696 795.938L732.642 795.394C733.503 793.785 734.138 792.345 734.546 791.076C734.954 789.807 735.237 788.288 735.396 786.52C735.555 784.729 735.634 782.247 735.634 779.074V767.718ZM737.98 779.856V778.802H743.93V774.518H738.864V773.532H743.93V769.962H744.95V773.532H750.05V774.518H744.95V778.802H751.104V779.856H737.98ZM733.322 786.044L733.798 787.098L729.242 792.572L728.426 791.858C728.653 791.495 728.8 791.235 728.868 791.076C728.936 790.917 728.97 790.736 728.97 790.532V777.136H725.638V775.98H730.092V790.09L733.322 786.044ZM740.156 783.358H748.758V790.94H740.156V783.358ZM741.176 789.92H747.704V784.344H741.176V789.92ZM775.822 770.574C777.567 772.138 779.607 773.566 781.942 774.858C784.277 776.127 786.759 777.193 789.388 778.054L788.98 779.142C783.336 777.17 778.757 774.586 775.244 771.39V777.714H774.088V771.39C770.529 774.427 765.951 777.113 760.352 779.448L759.944 778.326C762.528 777.351 764.965 776.207 767.254 774.892C769.566 773.555 771.64 772.115 773.476 770.574H761.1V769.486H774.088V765.338H775.244V769.486H788.334V770.574H775.822ZM764.67 789.716V778.87H783.71V789.716H764.67ZM782.588 783.8V779.856H765.826V783.8H782.588ZM765.826 784.786V788.696H782.588V784.786H765.826ZM788.436 794.476H760.794V793.422H788.436V794.476Z" fill="black"/>
<path d="M1071.54 770.78C1072.38 771.573 1074.1 773.273 1076.71 775.88L1075.89 776.764L1074.09 774.962C1072.46 773.285 1071.36 772.174 1070.79 771.63L1071.54 770.78ZM1095.61 796.246C1095.61 797.334 1095.49 798.161 1095.24 798.728C1095.01 799.295 1094.59 799.691 1093.98 799.918C1093.39 800.167 1092.51 800.292 1091.33 800.292H1087.05L1086.84 799.102H1091.02C1092 799.102 1092.72 799.023 1093.2 798.864C1093.7 798.683 1094.04 798.377 1094.22 797.946C1094.4 797.515 1094.49 796.869 1094.49 796.008V774.452H1078.72V773.262H1095.61V796.246ZM1070.42 777.036H1071.54V800.768H1070.42V777.036ZM1077.15 780.3H1088.85V792.506H1077.15V780.3ZM1078.27 781.422V791.384H1087.73V781.422H1078.27ZM1113.7 784.346C1112.66 785.887 1111.36 787.338 1109.79 788.698H1124.48L1124.14 792.37C1124.03 793.413 1123.71 794.127 1123.19 794.512C1122.67 794.875 1121.77 795.056 1120.5 795.056H1116.12L1115.95 794.036H1120.26C1121.28 794.036 1121.98 793.911 1122.34 793.662C1122.7 793.39 1122.94 792.891 1123.05 792.166L1123.26 789.718H1110.61V796.314C1110.61 797.402 1110.81 798.15 1111.22 798.558C1111.63 798.966 1112.39 799.17 1113.5 799.17H1123.49C1124.45 799.17 1125.15 799.102 1125.6 798.966C1126.06 798.83 1126.37 798.592 1126.55 798.252C1126.76 797.889 1126.88 797.323 1126.93 796.552C1127.04 795.351 1127.1 794.319 1127.1 793.458L1128.22 793.73C1128.22 794.251 1128.15 795.294 1128.02 796.858C1127.95 797.787 1127.78 798.49 1127.51 798.966C1127.26 799.442 1126.84 799.771 1126.25 799.952C1125.68 800.133 1124.83 800.224 1123.7 800.224H1113.23C1111.82 800.224 1110.83 799.952 1110.27 799.408C1109.72 798.864 1109.45 797.889 1109.45 796.484V788.97C1107.8 790.398 1105.68 791.883 1103.09 793.424L1102.48 792.404C1104.73 791.089 1106.64 789.786 1108.23 788.494C1109.84 787.179 1111.2 785.797 1112.31 784.346H1102.92V783.292H1113.06C1113.99 781.955 1114.76 780.436 1115.37 778.736H1104.39V777.682H1115.74C1116.4 775.597 1116.92 773.205 1117.31 770.508L1118.46 770.644C1118.08 773.319 1117.56 775.665 1116.9 777.682H1130.29V778.736H1116.56C1115.92 780.481 1115.21 782 1114.42 783.292H1131.72V784.346H1122.75C1124.83 787.157 1127.96 789.446 1132.13 791.214L1131.65 792.302C1127.01 790.239 1123.6 787.587 1121.42 784.346H1113.7ZM1127.61 771.936C1126.04 773.636 1124.48 775.245 1122.92 776.764L1122.13 776.016C1124.22 773.976 1125.75 772.389 1126.72 771.256L1127.61 771.936ZM1111.56 776.628C1110.47 775.427 1109.2 774.101 1107.75 772.65L1107.07 771.936L1107.92 771.29C1109.19 772.514 1110.69 774.067 1112.41 775.948L1111.56 776.628ZM1142.91 777.784C1141.46 775.653 1140.04 773.659 1138.66 771.8L1139.58 771.154C1140.37 772.197 1141.79 774.169 1143.83 777.07L1142.91 777.784ZM1146.95 772.718H1164.6V796.96C1164.6 798.161 1164.31 799.011 1163.72 799.51C1163.13 800.031 1162.1 800.292 1160.62 800.292H1157.66L1157.46 799.204H1160.52C1161.65 799.204 1162.44 799.034 1162.87 798.694C1163.3 798.354 1163.51 797.731 1163.51 796.824V773.806H1148.08V784.38C1148.08 787.508 1147.99 789.99 1147.8 791.826C1147.62 793.662 1147.32 795.237 1146.89 796.552C1146.48 797.867 1145.85 799.329 1145.02 800.938L1143.96 800.394C1144.82 798.785 1145.46 797.345 1145.87 796.076C1146.27 794.807 1146.56 793.288 1146.72 791.52C1146.87 789.729 1146.95 787.247 1146.95 784.074V772.718ZM1149.3 784.856V783.802H1155.25V779.518H1150.18V778.532H1155.25V774.962H1156.27V778.532H1161.37V779.518H1156.27V783.802H1162.42V784.856H1149.3ZM1144.64 791.044L1145.12 792.098L1140.56 797.572L1139.75 796.858C1139.97 796.495 1140.12 796.235 1140.19 796.076C1140.26 795.917 1140.29 795.736 1140.29 795.532V782.136H1136.96V780.98H1141.41V795.09L1144.64 791.044ZM1151.48 788.358H1160.08V795.94H1151.48V788.358ZM1152.5 794.92H1159.02V789.344H1152.5V794.92ZM1187.14 775.574C1188.89 777.138 1190.93 778.566 1193.26 779.858C1195.6 781.127 1198.08 782.193 1200.71 783.054L1200.3 784.142C1194.66 782.17 1190.08 779.586 1186.56 776.39V782.714H1185.41V776.39C1181.85 779.427 1177.27 782.113 1171.67 784.448L1171.26 783.326C1173.85 782.351 1176.28 781.207 1178.57 779.892C1180.89 778.555 1182.96 777.115 1184.8 775.574H1172.42V774.486H1185.41V770.338H1186.56V774.486H1199.65V775.574H1187.14ZM1175.99 794.716V783.87H1195.03V794.716H1175.99ZM1193.91 788.8V784.856H1177.15V788.8H1193.91ZM1177.15 789.786V793.696H1193.91V789.786H1177.15ZM1199.76 799.476H1172.11V798.422H1199.76V799.476ZM1220.9 770.372V777.818H1232.67V790.092H1220.9V801.074H1219.71V790.092H1207.98V777.818H1219.71V770.372H1220.9ZM1209.11 779.008V788.868H1219.71V779.008H1209.11ZM1220.9 779.008V788.868H1231.55V779.008H1220.9ZM1242.7 798.864H1241.24L1251.1 774.554H1238.69V773.296H1252.56V774.418L1242.7 798.864ZM1259.37 798.864H1257.91L1267.77 774.554H1255.36V773.296H1269.23V774.418L1259.37 798.864ZM1277.65 783.938C1276.08 783.938 1274.8 783.451 1273.81 782.476C1272.81 781.479 1272.31 780.209 1272.31 778.668C1272.31 777.081 1272.81 775.789 1273.81 774.792C1274.8 773.795 1276.08 773.296 1277.65 773.296C1279.21 773.296 1280.49 773.795 1281.49 774.792C1282.49 775.789 1282.99 777.081 1282.99 778.668C1282.99 780.187 1282.48 781.445 1281.46 782.442C1280.46 783.439 1279.19 783.938 1277.65 783.938ZM1276.7 798.864H1275.13L1293.32 773.296H1294.85L1276.7 798.864ZM1277.65 782.782C1278.85 782.782 1279.84 782.397 1280.61 781.626C1281.38 780.855 1281.76 779.869 1281.76 778.668C1281.76 777.421 1281.38 776.413 1280.61 775.642C1279.84 774.849 1278.85 774.452 1277.65 774.452C1276.42 774.452 1275.43 774.849 1274.66 775.642C1273.89 776.413 1273.5 777.421 1273.5 778.668C1273.5 779.869 1273.89 780.855 1274.66 781.626C1275.45 782.397 1276.45 782.782 1277.65 782.782ZM1292.37 798.864C1290.81 798.864 1289.53 798.377 1288.53 797.402C1287.53 796.405 1287.03 795.124 1287.03 793.56C1287.03 792.019 1287.53 790.749 1288.53 789.752C1289.55 788.732 1290.83 788.222 1292.37 788.222C1293.91 788.222 1295.18 788.732 1296.18 789.752C1297.2 790.749 1297.71 792.019 1297.71 793.56C1297.71 795.124 1297.21 796.405 1296.21 797.402C1295.21 798.377 1293.93 798.864 1292.37 798.864ZM1292.37 797.708C1293.59 797.708 1294.59 797.323 1295.36 796.552C1296.13 795.781 1296.52 794.784 1296.52 793.56C1296.52 792.336 1296.12 791.339 1295.33 790.568C1294.56 789.775 1293.57 789.378 1292.37 789.378C1291.17 789.378 1290.18 789.775 1289.41 790.568C1288.64 791.339 1288.26 792.336 1288.26 793.56C1288.26 794.784 1288.64 795.781 1289.41 796.552C1290.18 797.323 1291.17 797.708 1292.37 797.708ZM1329.37 776.288C1329.33 778.373 1329.22 781.569 1329.07 785.876C1328.93 790.16 1328.81 793.56 1328.69 796.076C1328.65 797.119 1328.49 797.912 1328.22 798.456C1327.94 799 1327.49 799.385 1326.86 799.612C1326.24 799.839 1325.35 799.952 1324.17 799.952H1320.09L1319.89 798.762H1323.9C1324.87 798.762 1325.61 798.683 1326.11 798.524C1326.63 798.343 1326.99 798.037 1327.2 797.606C1327.42 797.153 1327.56 796.495 1327.6 795.634C1327.65 795.045 1327.73 792.869 1327.84 789.106C1327.98 785.343 1328.07 782.623 1328.11 780.946C1328.16 779.065 1328.19 777.909 1328.22 777.478H1318.63C1317.7 779.699 1316.67 781.615 1315.53 783.224L1314.55 782.544C1315.77 780.799 1316.83 778.827 1317.71 776.628C1318.62 774.429 1319.34 772.276 1319.89 770.168L1321.01 770.44C1320.42 772.616 1319.8 774.565 1319.14 776.288H1329.37ZM1309.48 770.644C1309.16 772.231 1308.64 774.112 1307.92 776.288H1313.83V798.558H1304.31V801.142H1303.19V776.288H1306.73C1307.29 774.724 1307.82 772.763 1308.29 770.406L1309.48 770.644ZM1304.31 786.76H1312.71V777.512H1304.31V786.76ZM1322.64 790.602C1321.51 789.015 1319.72 786.59 1317.27 783.326L1318.15 782.646C1319.92 784.89 1321.74 787.315 1323.63 789.922L1322.64 790.602ZM1304.31 787.95V797.402H1312.71V787.95H1304.31ZM1339.5 772.888H1362.93V797.062C1362.93 797.991 1362.82 798.694 1362.59 799.17C1362.36 799.669 1361.98 800.02 1361.43 800.224C1360.91 800.428 1360.14 800.53 1359.12 800.53H1355.55L1355.35 799.34H1358.85C1359.69 799.34 1360.31 799.261 1360.72 799.102C1361.13 798.966 1361.4 798.728 1361.54 798.388C1361.69 798.025 1361.77 797.493 1361.77 796.79V790.738H1351.74V800.564H1350.59V790.738H1340.59C1340.46 792.937 1340.15 794.761 1339.67 796.212C1339.2 797.663 1338.39 799.295 1337.26 801.108L1336.24 800.496C1337.19 798.955 1337.88 797.617 1338.31 796.484C1338.77 795.351 1339.07 794.047 1339.23 792.574C1339.41 791.078 1339.5 789.038 1339.5 786.454V772.888ZM1350.59 781.354V774.044H1340.69V781.354H1350.59ZM1351.74 781.354H1361.77V774.044H1351.74V781.354ZM1350.59 789.582V782.544H1340.69V786.726C1340.69 788.041 1340.68 788.993 1340.66 789.582H1350.59ZM1351.74 782.544V789.582H1361.77V782.544H1351.74ZM1397.13 775.438V787.134H1375.41C1375.34 789.423 1375.17 791.35 1374.9 792.914C1374.63 794.478 1374.21 795.895 1373.64 797.164C1373.07 798.433 1372.29 799.782 1371.29 801.21L1370.27 800.496C1371.38 798.932 1372.21 797.47 1372.76 796.11C1373.32 794.727 1373.71 793.129 1373.91 791.316C1374.14 789.48 1374.25 787.032 1374.25 783.972V775.438H1385.71L1383.87 770.644L1385.06 770.27L1387.04 775.438H1397.13ZM1395.94 785.978V776.56H1375.44V783.836C1375.44 784.811 1375.43 785.525 1375.41 785.978H1395.94ZM1433.96 786.284H1419.95C1420.97 788.641 1422.17 790.591 1423.55 792.132C1426.05 790.863 1428.54 789.435 1431.03 787.848L1431.61 788.8C1428.96 790.432 1426.53 791.815 1424.33 792.948C1425.47 794.036 1426.79 794.977 1428.31 795.77C1429.85 796.541 1431.72 797.255 1433.92 797.912L1433.48 799.068C1430.83 798.229 1428.62 797.3 1426.85 796.28C1425.1 795.237 1423.61 793.968 1422.36 792.472C1421.12 790.976 1419.98 789.083 1418.96 786.794C1417.42 788.471 1415.85 789.933 1414.24 791.18V799.374L1422.43 796.246L1422.67 797.334L1412.71 801.142L1412.2 800.224C1412.56 799.997 1412.8 799.805 1412.91 799.646C1413.05 799.487 1413.11 799.329 1413.11 799.17V792.03C1411.16 793.458 1408.52 795.022 1405.19 796.722L1404.72 795.634C1407.66 794.183 1410.17 792.744 1412.23 791.316C1414.29 789.888 1416.22 788.211 1418.01 786.284H1404.89V785.23H1418.86V780.912H1407.2V779.858H1418.86V775.54H1405.8V774.52H1418.86V770.372H1419.98V774.52H1433.07V775.54H1419.98V779.858H1431.64V780.912H1419.98V785.23H1433.96V786.284ZM1442.18 773.194H1465.24V774.35H1442.18V773.194ZM1468.43 783.496H1454.66V796.926C1454.66 797.878 1454.54 798.615 1454.29 799.136C1454.04 799.657 1453.62 800.02 1453.03 800.224C1452.44 800.451 1451.61 800.564 1450.55 800.564H1446.77L1446.54 799.374H1450.24C1451.15 799.374 1451.82 799.295 1452.25 799.136C1452.68 799 1452.97 798.751 1453.13 798.388C1453.31 798.003 1453.4 797.413 1453.4 796.62V783.496H1438.95V782.34H1468.43V783.496ZM1447.49 787.508C1446.56 789.276 1445.38 791.191 1443.95 793.254C1442.52 795.317 1441.19 797.005 1439.94 798.32L1438.99 797.538C1440.23 796.223 1441.57 794.546 1443 792.506C1444.45 790.443 1445.6 788.573 1446.43 786.896L1447.49 787.508ZM1460.95 787.066C1461.79 788.154 1462.99 789.797 1464.56 791.996C1466.14 794.172 1467.46 796.042 1468.5 797.606L1467.48 798.354C1463.65 792.778 1461.14 789.242 1459.97 787.746L1460.95 787.066ZM1477.92 801.516C1478.53 801.221 1478.97 800.87 1479.24 800.462C1479.52 800.077 1479.65 799.544 1479.65 798.864H1478.36V796.654H1480.57V798.864C1480.57 800.473 1479.84 801.629 1478.39 802.332L1477.92 801.516ZM1534.49 778.974V798.048H1537.08V799.136H1516.64V798.048H1519.53V778.974H1526.47V774.996H1517.94V773.942H1526.47V770.508H1527.59V773.942H1536.13V774.996H1527.59V778.974H1534.49ZM1517.22 787.236C1516.68 786.601 1515.44 785.321 1513.52 783.394V800.972H1512.39V781.898C1511.31 785.751 1509.88 789.31 1508.11 792.574L1507.5 791.554C1508.52 789.627 1509.45 787.519 1510.29 785.23C1511.15 782.918 1511.82 780.629 1512.29 778.362H1508.21V777.24H1512.39V770.576H1513.52V777.24H1517.36V778.362H1513.52V781.966C1515.53 783.938 1516.98 785.4 1517.87 786.352L1517.22 787.236ZM1533.37 783.734V780.028H1520.62V783.734H1533.37ZM1520.62 788.46H1533.37V784.72H1520.62V788.46ZM1533.37 793.254V789.446H1520.62V793.254H1533.37ZM1533.37 794.274H1520.62V798.048H1533.37V794.274ZM1570.5 776.458C1569.96 787.701 1569.63 793.968 1569.51 795.26C1569.4 796.847 1568.97 797.969 1568.22 798.626C1567.47 799.261 1566.25 799.578 1564.55 799.578H1560.27L1560.03 798.456H1564.31C1565.79 798.456 1566.82 798.207 1567.41 797.708C1568 797.187 1568.34 796.257 1568.43 794.92C1568.58 792.744 1568.85 788.041 1569.21 780.81L1569.38 777.648H1565.57C1565.25 781.003 1564.7 783.972 1563.9 786.556C1563.11 789.14 1561.98 791.531 1560.5 793.73C1559.03 795.929 1557.12 798.105 1554.76 800.258L1553.98 799.374C1556.27 797.357 1558.12 795.283 1559.55 793.152C1560.98 791.021 1562.09 788.709 1562.88 786.216C1563.68 783.723 1564.23 780.867 1564.55 777.648H1560.16C1559.76 780.232 1559.21 782.476 1558.53 784.38C1557.87 786.284 1556.98 788.075 1555.85 789.752C1554.71 791.429 1553.22 793.197 1551.36 795.056L1550.58 794.24C1552.37 792.449 1553.81 790.761 1554.89 789.174C1556 787.565 1556.89 785.865 1557.55 784.074C1558.2 782.261 1558.72 780.119 1559.11 777.648H1555.61C1554.52 779.847 1553.47 781.694 1552.45 783.19L1551.6 782.51C1552.71 780.878 1553.78 778.963 1554.83 776.764C1555.87 774.543 1556.71 772.389 1557.34 770.304L1558.4 770.576C1557.74 772.661 1556.99 774.622 1556.15 776.458H1570.5ZM1553.36 786.114L1548.74 788.188V800.972H1547.62V788.698L1542.21 791.146L1541.84 790.024L1547.62 787.474V778.804H1544.35C1543.95 781.343 1543.47 783.666 1542.93 785.774L1541.87 785.57C1542.35 783.825 1542.78 781.864 1543.16 779.688C1543.55 777.512 1543.82 775.393 1543.98 773.33L1545 773.432C1544.86 774.86 1544.69 776.277 1544.49 777.682H1547.62V770.372H1548.74V777.682H1552.99V778.804H1548.74V786.964C1551.39 785.763 1552.85 785.117 1553.13 785.026L1553.23 785.672L1553.36 786.114ZM1091.09 815.474V820.166H1097.55V821.254H1091.09V825.368H1089.97V821.254H1083.41V825.368H1082.29V821.254H1075.76V825.368H1074.64V821.254H1068.48V820.166H1074.64V815.474H1075.76V820.166H1082.29V815.474H1083.41V820.166H1089.97V815.474H1091.09ZM1070.73 832.576H1069.6V827H1096.12V832.576H1095.04V828.088H1070.73V832.576ZM1083.44 829.448V833.188H1093V839.954C1093 841.133 1092.75 841.949 1092.25 842.402C1091.77 842.833 1090.87 843.048 1089.53 843.048H1086.3L1086.09 842.028H1089.26C1090.3 842.028 1090.99 841.881 1091.33 841.586C1091.67 841.269 1091.85 840.691 1091.87 839.852V834.276H1083.44V846.04H1082.29V834.276H1073.85V843.32H1072.73V833.188H1082.29V829.448H1083.44ZM1118.26 831.794C1119.8 833.97 1121.69 835.919 1123.94 837.642C1126.18 839.365 1128.82 840.951 1131.86 842.402L1131.35 843.524C1125.45 840.713 1120.96 837.211 1117.85 833.018V846.108H1116.73V833.12C1115.14 835.273 1113.25 837.211 1111.05 838.934C1108.85 840.657 1106.27 842.255 1103.3 843.728L1102.72 842.606C1105.78 841.133 1108.43 839.523 1110.68 837.778C1112.92 836.01 1114.82 834.015 1116.39 831.794H1103.2V830.672H1116.73V821.05H1104.83V819.894H1116.73V815.27H1117.85V819.894H1129.85V821.05H1117.85V830.672H1131.42V831.794H1118.26ZM1121.96 828.598C1122.71 827.737 1123.55 826.705 1124.48 825.504C1125.43 824.303 1126.21 823.26 1126.83 822.376L1127.68 823.124C1127.11 823.963 1126.34 824.994 1125.36 826.218C1124.41 827.442 1123.54 828.496 1122.75 829.38L1121.96 828.598ZM1107.89 822.58C1110.31 825.527 1111.88 827.465 1112.58 828.394L1111.73 829.176C1111 828.224 1110.21 827.227 1109.35 826.184C1108.51 825.119 1107.74 824.167 1107.04 823.328L1107.89 822.58ZM1164.74 821.288C1164.69 823.373 1164.59 826.569 1164.43 830.876C1164.29 835.16 1164.17 838.56 1164.06 841.076C1164.01 842.119 1163.85 842.912 1163.58 843.456C1163.31 844 1162.85 844.385 1162.22 844.612C1161.61 844.839 1160.71 844.952 1159.53 844.952H1155.45L1155.25 843.762H1159.26C1160.24 843.762 1160.97 843.683 1161.47 843.524C1161.99 843.343 1162.36 843.037 1162.56 842.606C1162.79 842.153 1162.92 841.495 1162.97 840.634C1163.01 840.045 1163.09 837.869 1163.21 834.106C1163.34 830.343 1163.43 827.623 1163.48 825.946C1163.52 824.065 1163.56 822.909 1163.58 822.478H1153.99C1153.06 824.699 1152.03 826.615 1150.9 828.224L1149.91 827.544C1151.14 825.799 1152.19 823.827 1153.07 821.628C1153.98 819.429 1154.71 817.276 1155.25 815.168L1156.37 815.44C1155.78 817.616 1155.16 819.565 1154.5 821.288H1164.74ZM1144.85 815.644C1144.53 817.231 1144.01 819.112 1143.28 821.288H1149.2V843.558H1139.68V846.142H1138.56V821.288H1142.09C1142.66 819.724 1143.18 817.763 1143.66 815.406L1144.85 815.644ZM1139.68 831.76H1148.08V822.512H1139.68V831.76ZM1158 835.602C1156.87 834.015 1155.08 831.59 1152.63 828.326L1153.52 827.646C1155.28 829.89 1157.11 832.315 1158.99 834.922L1158 835.602ZM1139.68 832.95V842.402H1148.08V832.95H1139.68ZM1187.35 842.878H1200.67V844.034H1172.01V842.878H1186.09V833.426H1175.17V832.27H1186.09V824.076H1176.91C1175.77 826.388 1174.38 828.632 1172.73 830.808L1171.71 830.196C1173.25 828.201 1174.54 826.161 1175.58 824.076C1176.62 821.991 1177.53 819.645 1178.3 817.038L1179.42 817.344C1178.93 819.089 1178.27 820.937 1177.45 822.886H1186.09V815.508H1187.35V822.886H1199.31V824.076H1187.35V832.27H1198.12V833.426H1187.35V842.878ZM1216.35 833.324C1215.58 832.463 1214.12 830.978 1211.96 828.87V846.142H1210.81V827.034C1209.7 830.615 1208.13 834.242 1206.11 837.914L1205.54 836.69C1206.58 834.786 1207.56 832.701 1208.49 830.434C1209.45 828.145 1210.21 825.901 1210.77 823.702H1205.81V822.546H1210.81V815.474H1211.96V822.546H1216.96V823.702H1211.96V827.442C1214.12 829.482 1215.79 831.125 1216.99 832.372L1216.35 833.324ZM1235.05 835.908C1235.05 836.543 1235.04 837.483 1235.01 838.73C1234.99 839.977 1234.97 841.019 1234.95 841.858C1234.9 842.697 1234.79 843.331 1234.61 843.762C1234.45 844.17 1234.15 844.453 1233.72 844.612C1233.31 844.771 1232.7 844.85 1231.89 844.85H1230.93C1229.94 844.85 1229.23 844.635 1228.83 844.204C1228.44 843.796 1228.25 843.037 1228.25 841.926V819.588H1220.43V829.108C1220.43 832.236 1220.28 834.718 1219.99 836.554C1219.71 838.39 1219.16 840.033 1218.32 841.484C1217.5 842.935 1216.25 844.487 1214.55 846.142L1213.63 845.326C1215.28 843.762 1216.5 842.334 1217.27 841.042C1218.04 839.75 1218.57 838.22 1218.86 836.452C1219.16 834.684 1219.31 832.236 1219.31 829.108V818.398H1229.37V841.722C1229.37 842.538 1229.48 843.071 1229.71 843.32C1229.96 843.569 1230.45 843.694 1231.17 843.694H1231.85C1232.44 843.694 1232.87 843.649 1233.14 843.558C1233.42 843.445 1233.6 843.241 1233.69 842.946C1233.8 842.651 1233.87 842.175 1233.89 841.518C1233.91 840.725 1233.94 839.716 1233.96 838.492C1233.98 837.245 1233.99 836.305 1233.99 835.67L1235.05 835.908ZM1250.18 818.602C1251.72 820.506 1253.48 822.739 1255.45 825.3L1254.56 826.014L1253.07 824.042L1241.3 824.654L1241.13 823.6C1242.13 822.625 1243.24 821.356 1244.47 819.792C1245.69 818.228 1246.71 816.766 1247.53 815.406L1248.58 815.916C1247.83 817.117 1246.88 818.455 1245.72 819.928C1244.59 821.379 1243.57 822.58 1242.66 823.532L1252.29 823.022L1249.36 819.248L1250.18 818.602ZM1260.21 829.21C1259.26 829.21 1258.56 828.983 1258.13 828.53C1257.7 828.054 1257.49 827.295 1257.49 826.252V815.61H1258.61V822.274C1263.08 820.37 1266.07 818.919 1267.59 817.922L1268.13 818.942C1267.18 819.531 1265.75 820.268 1263.85 821.152C1261.96 822.036 1260.22 822.807 1258.61 823.464V826.014C1258.61 826.807 1258.75 827.363 1259.02 827.68C1259.31 827.975 1259.83 828.122 1260.58 828.122H1265.21C1265.91 828.122 1266.44 828.065 1266.8 827.952C1267.17 827.839 1267.42 827.623 1267.55 827.306C1267.71 826.989 1267.81 826.513 1267.86 825.878L1267.99 822.206L1269.12 822.512C1269.12 822.875 1269.09 823.441 1269.05 824.212C1269.03 824.96 1268.99 825.64 1268.95 826.252C1268.86 827.385 1268.56 828.167 1268.06 828.598C1267.59 829.006 1266.71 829.21 1265.44 829.21H1260.21ZM1242.36 845.734V827.918H1253.24V842.674C1253.24 843.694 1253.01 844.397 1252.56 844.782C1252.13 845.167 1251.33 845.36 1250.18 845.36H1247.73L1247.53 844.238H1250.04C1250.93 844.238 1251.49 844.113 1251.74 843.864C1252.01 843.615 1252.15 843.116 1252.15 842.368V838.832H1243.38V845.734H1242.36ZM1252.15 832.814V828.972H1243.38V832.814H1252.15ZM1269.25 837.574C1269.25 838.005 1269.23 838.639 1269.18 839.478C1269.16 840.317 1269.13 841.065 1269.08 841.722C1268.99 842.855 1268.66 843.649 1268.1 844.102C1267.53 844.578 1266.59 844.816 1265.27 844.816H1260.48C1259.46 844.816 1258.71 844.567 1258.24 844.068C1257.76 843.569 1257.52 842.799 1257.52 841.756V830.808H1258.64V837.2C1260.19 836.565 1261.83 835.817 1263.57 834.956C1265.32 834.072 1266.79 833.256 1267.99 832.508L1268.54 833.494C1267.29 834.287 1265.73 835.149 1263.85 836.078C1261.99 837.007 1260.25 837.789 1258.64 838.424V841.484C1258.64 842.3 1258.81 842.878 1259.15 843.218C1259.52 843.558 1260.09 843.728 1260.89 843.728H1265C1266.09 843.728 1266.85 843.558 1267.28 843.218C1267.71 842.878 1267.95 842.255 1267.99 841.348C1268.04 840.736 1268.07 840.022 1268.1 839.206C1268.14 838.367 1268.16 837.744 1268.16 837.336L1269.25 837.574ZM1243.38 833.834V837.846H1252.15V833.834H1243.38ZM1288.16 830.638C1294.68 828.145 1299.25 824.631 1301.86 820.098H1293.56C1293.15 820.665 1292.63 821.299 1292 822.002C1293.34 823.067 1294.63 824.065 1295.87 824.994L1295.19 825.81L1292.95 824.008C1292.29 823.532 1291.75 823.113 1291.32 822.75C1290.66 823.475 1289.91 824.201 1289.07 824.926L1288.46 824.178C1289.87 822.931 1291.17 821.537 1292.37 819.996C1293.57 818.455 1294.53 816.936 1295.23 815.44L1296.21 815.746C1295.76 816.766 1295.11 817.877 1294.28 819.078H1303.01V820.166C1300.38 825.062 1295.59 828.87 1288.63 831.59L1288.16 830.638ZM1280.54 815.882C1280.13 817.31 1279.58 818.772 1278.87 820.268H1287.2L1287 840.6C1286.95 842.209 1286.59 843.343 1285.91 844C1285.23 844.657 1284.06 844.986 1282.41 844.986H1279.01L1278.84 843.864H1282.21C1283.18 843.864 1283.92 843.762 1284.42 843.558C1284.94 843.331 1285.31 842.969 1285.54 842.47C1285.76 841.971 1285.89 841.235 1285.91 840.26L1286.15 821.424H1278.33C1277.26 823.464 1276.12 825.289 1274.9 826.898L1274.18 826.048C1275.34 824.552 1276.37 822.886 1277.28 821.05C1278.21 819.214 1278.93 817.389 1279.45 815.576L1280.54 815.882ZM1275.95 826.932H1282.41V838.118H1275.95V826.932ZM1276.94 837.098H1281.36V827.918H1276.94V837.098ZM1303.49 832.032V833.154C1302.29 836.033 1300.48 838.515 1298.05 840.6C1295.62 842.663 1292.26 844.578 1287.95 846.346L1287.41 845.258C1291.49 843.649 1294.71 841.892 1297.06 839.988C1299.42 838.061 1301.17 835.772 1302.3 833.12H1294.38C1293.97 833.641 1293.31 834.401 1292.41 835.398L1296.52 838.662L1295.81 839.512C1295.22 838.991 1294.63 838.492 1294.04 838.016C1293.45 837.54 1292.93 837.109 1292.47 836.724C1292.32 836.611 1292.17 836.497 1292.03 836.384C1291.92 836.271 1291.81 836.18 1291.69 836.112C1290.69 837.087 1289.72 837.948 1288.77 838.696L1288.12 837.846C1289.8 836.554 1291.33 835.115 1292.71 833.528C1294.12 831.919 1295.27 830.321 1296.18 828.734L1297.06 829.176C1296.66 829.947 1296.04 830.899 1295.23 832.032H1303.49ZM1317.26 829.822C1316.81 831.159 1316.01 832.304 1314.88 833.256C1313.75 834.185 1312.04 835.16 1309.75 836.18L1309.1 835.228C1311.19 834.344 1312.75 833.505 1313.79 832.712C1314.86 831.896 1315.61 830.933 1316.04 829.822H1309.41V828.768H1316.34C1316.57 827.793 1316.68 826.569 1316.68 825.096H1310.83V824.042H1316.68V820.37H1310.05V819.384H1316.68V815.78H1317.84V819.384H1324.26V820.37H1317.84V824.042H1323.62V825.096H1317.84C1317.84 826.479 1317.74 827.703 1317.53 828.768H1324.47V829.822H1317.26ZM1333.21 823.668C1334.66 824.416 1335.65 825.175 1336.2 825.946C1336.74 826.694 1337.01 827.397 1337.01 828.054C1337.01 828.825 1336.88 829.414 1336.61 829.822C1336.33 830.23 1335.86 830.525 1335.18 830.706C1334.52 830.887 1333.58 830.978 1332.36 830.978H1329.77L1329.57 829.958H1332.05C1333.18 829.958 1334.01 829.89 1334.53 829.754C1335.08 829.618 1335.43 829.414 1335.59 829.142C1335.77 828.847 1335.86 828.417 1335.86 827.85C1335.86 827.261 1335.53 826.626 1334.87 825.946C1334.21 825.243 1333.18 824.563 1331.78 823.906C1331.89 823.77 1332.62 822.795 1333.95 820.982C1334.68 819.962 1335.13 819.339 1335.31 819.112H1327.49V832.916H1326.37V818.058H1336.54V819.112C1336.27 819.475 1335.98 819.86 1335.69 820.268C1335.39 820.676 1335.09 821.084 1334.77 821.492L1333.21 823.668ZM1324.43 832.134V835.364H1334.46V841.042C1334.46 842.107 1334.21 842.844 1333.72 843.252C1333.24 843.66 1332.37 843.864 1331.1 843.864H1327.9L1327.73 842.776H1330.79C1331.49 842.776 1332.02 842.731 1332.36 842.64C1332.72 842.527 1332.97 842.345 1333.1 842.096C1333.24 841.847 1333.31 841.461 1333.31 840.94V836.486H1324.43V846.346H1323.24V836.486H1314.51V844.068H1313.35V835.364H1323.24V832.134H1324.43ZM1370.71 822.41C1370.71 823.067 1370.62 825.663 1370.44 830.196C1370.28 834.729 1370.15 838.163 1370.06 840.498C1370.02 841.541 1369.85 842.345 1369.55 842.912C1369.26 843.456 1368.79 843.841 1368.16 844.068C1367.52 844.317 1366.63 844.442 1365.47 844.442H1362.51L1362.34 843.32H1365.17C1366.19 843.32 1366.96 843.229 1367.48 843.048C1368 842.867 1368.36 842.561 1368.57 842.13C1368.77 841.699 1368.89 841.042 1368.94 840.158L1369.55 823.532H1362.75C1362.75 824.983 1362.73 826.184 1362.68 827.136C1362.57 830.672 1362.31 833.483 1361.9 835.568C1361.49 837.631 1360.85 839.444 1359.96 841.008C1359.1 842.572 1357.79 844.317 1356.02 846.244L1355.2 845.394C1356.93 843.513 1358.2 841.847 1359.01 840.396C1359.85 838.923 1360.45 837.2 1360.81 835.228C1361.2 833.256 1361.45 830.525 1361.56 827.034C1361.58 826.762 1361.6 826.184 1361.6 825.3L1361.63 823.532H1357.79V822.41H1361.66L1361.77 815.576H1362.92L1362.79 822.41H1370.71ZM1355.58 839.308L1357.89 838.934L1357.99 840.09L1343.1 842.436L1342.93 841.28L1345.72 840.838V817.99H1355.58V839.308ZM1354.49 825.3V819.146H1346.87V825.3H1354.49ZM1346.87 832.338H1354.49V826.422H1346.87V832.338ZM1354.49 833.46H1346.87V840.668L1354.49 839.478V833.46ZM1403.14 819.86V845.802H1401.99V843.388H1382.2V845.938H1381.01V819.86H1388.9C1389.35 818.931 1389.96 817.367 1390.73 815.168L1392.03 815.406C1391.57 816.766 1390.99 818.251 1390.29 819.86H1403.14ZM1401.99 827.34V821.016H1382.2V827.34H1401.99ZM1401.99 834.718V828.462H1382.2V834.718H1401.99ZM1382.2 835.84V842.334H1401.99V835.84H1382.2ZM1413.79 817.956H1436.97V829.686H1416.1V839.444C1416.1 840.623 1416.21 841.507 1416.44 842.096C1416.69 842.663 1417.11 843.059 1417.7 843.286C1418.31 843.49 1419.21 843.592 1420.42 843.592H1433.95C1435.22 843.592 1436.15 843.501 1436.74 843.32C1437.35 843.139 1437.77 842.821 1437.99 842.368C1438.22 841.915 1438.36 841.201 1438.4 840.226C1438.54 838.05 1438.61 836.543 1438.61 835.704L1439.8 835.976C1439.8 836.905 1439.73 838.424 1439.59 840.532C1439.52 841.733 1439.33 842.629 1439.01 843.218C1438.72 843.807 1438.21 844.215 1437.48 844.442C1436.76 844.691 1435.68 844.816 1434.25 844.816H1420.14C1418.76 844.816 1417.71 844.68 1416.98 844.408C1416.26 844.159 1415.72 843.671 1415.38 842.946C1415.07 842.221 1414.91 841.133 1414.91 839.682V828.496H1435.75V819.146H1413.79V817.956ZM1475.16 829.482H1461.76V835.534H1472.61V836.656H1461.76V843.558H1462.44H1475.09L1474.92 844.714H1462.47C1457.4 844.714 1453.86 842.64 1451.87 838.492C1451.37 839.897 1450.72 841.178 1449.93 842.334C1449.13 843.49 1448.1 844.748 1446.83 846.108L1446.02 845.19C1447.31 843.807 1448.34 842.538 1449.11 841.382C1449.88 840.226 1450.49 838.9 1450.95 837.404C1451.42 835.908 1451.75 834.061 1451.93 831.862L1453.09 831.964C1452.91 833.959 1452.65 835.613 1452.31 836.928C1453.03 838.832 1454.09 840.339 1455.47 841.45C1456.88 842.538 1458.59 843.207 1460.6 843.456V829.482H1446.39V828.292H1460.23V822.036H1449.08V820.88H1460.23V815.44H1461.42V820.88H1472.47V822.036H1461.42V828.292H1475.16V829.482ZM1506.1 842.946V832.95H1507.29V845.904H1506.1V844.102H1482.94V833.018H1484.1V842.946H1494.54V829.856H1483.86V818.568H1485.02V828.7H1494.54V815.27H1495.66V828.7H1505.18V818.568H1506.33V829.856H1495.66V842.946H1506.1ZM1525.92 834.208C1525.92 835.772 1525.52 836.894 1524.73 837.574C1523.96 838.231 1522.68 838.56 1520.89 838.56H1518.78L1518.57 837.404H1520.65C1522.21 837.404 1523.29 837.166 1523.88 836.69C1524.49 836.191 1524.8 835.319 1524.8 834.072C1524.8 832.961 1524.5 831.851 1523.91 830.74C1523.32 829.607 1522.36 828.371 1521.02 827.034L1524.18 818.568H1517.79V846.074H1516.77V817.412H1525.37V818.568L1522.28 826.83C1523.55 828.213 1524.47 829.493 1525.03 830.672C1525.62 831.828 1525.92 833.007 1525.92 834.208ZM1541.83 817.684V841.858C1541.83 842.765 1541.72 843.467 1541.49 843.966C1541.29 844.442 1540.91 844.771 1540.37 844.952C1539.82 845.156 1539.04 845.258 1538.02 845.258H1534.15L1533.94 844.102H1537.85C1538.67 844.102 1539.27 844.045 1539.65 843.932C1540.06 843.796 1540.33 843.558 1540.47 843.218C1540.63 842.855 1540.71 842.323 1540.71 841.62V835.296H1529.86C1529.68 837.019 1529.36 838.492 1528.91 839.716C1528.46 840.94 1527.82 842.062 1527.01 843.082C1526.21 844.102 1525.14 845.213 1523.78 846.414L1522.89 845.598C1524.59 844.125 1525.85 842.765 1526.67 841.518C1527.5 840.271 1528.09 838.719 1528.43 836.86C1528.77 834.979 1528.94 832.372 1528.94 829.04V817.684H1541.83ZM1540.71 826.014V818.84H1530.13V826.014H1540.71ZM1540.71 834.208V827.17H1530.13V829.414C1530.13 831.454 1530.08 833.052 1529.96 834.208H1540.71ZM1563.28 821.186H1551.76V825.164H1550.64V820.336H1563.28V817.82H1551.62V816.902H1576.03V817.82H1564.37V820.336H1577.02V824.858H1575.9V821.186H1564.37V827.102H1563.28V821.186ZM1554.07 823.124H1560.97V823.872H1554.07V823.124ZM1566.65 823.124H1573.52V823.872H1566.65V823.124ZM1560.97 826.32H1554.07V825.504H1560.97V826.32ZM1573.52 826.32H1566.65V825.504H1573.52V826.32ZM1560.94 831.726C1559.44 832.542 1557.79 833.29 1555.97 833.97C1557.18 835.33 1557.98 836.633 1558.39 837.88C1558.8 839.104 1559 840.521 1559 842.13C1559 843.263 1558.72 844.068 1558.15 844.544C1557.58 845.043 1556.61 845.292 1555.23 845.292H1552.54L1552.4 844.34H1555.12C1556.23 844.34 1556.99 844.181 1557.4 843.864C1557.83 843.524 1558.05 842.912 1558.05 842.028C1558.05 841.076 1557.98 840.283 1557.84 839.648C1556.85 840.396 1555.58 841.178 1554.04 841.994C1552.52 842.81 1550.96 843.524 1549.38 844.136L1549.04 843.252C1550.6 842.685 1552.17 841.994 1553.73 841.178C1555.32 840.339 1556.62 839.523 1557.64 838.73C1557.46 838.073 1557.19 837.404 1556.82 836.724C1554.67 838.084 1552.26 839.24 1549.58 840.192L1549.31 839.308C1552.17 838.265 1554.51 837.143 1556.35 835.942C1556.03 835.443 1555.62 834.888 1555.12 834.276C1553.7 834.797 1551.85 835.375 1549.58 836.01L1549.38 835.194C1551.21 834.65 1552.51 834.253 1553.25 834.004L1551.83 830.536L1549.92 831.012L1549.75 830.128C1552.88 829.38 1555.97 828.36 1559.03 827.068L1559.34 827.884C1558.8 828.133 1557.8 828.53 1556.35 829.074L1557.84 832.236C1558.86 831.783 1559.76 831.341 1560.53 830.91L1560.94 831.726ZM1569.78 840.906V843.966H1578.31V844.918H1560.43V843.966H1568.79V840.906H1561.69V839.954H1568.79V837.064H1562.2V828.496H1576.37V837.064H1569.78V839.954H1576.88V840.906H1569.78ZM1554.1 833.732C1555.01 833.392 1555.97 833.018 1556.99 832.61L1555.53 829.38C1554.26 829.788 1553.31 830.083 1552.68 830.264L1554.1 833.732ZM1568.79 832.304V829.38H1563.15V832.304H1568.79ZM1569.78 832.304H1575.39V829.38H1569.78V832.304ZM1563.15 833.188V836.146H1568.79V833.188H1563.15ZM1569.78 833.188V836.146H1575.39V833.188H1569.78Z" fill="black"/>
</svg>
