<svg width="1920" height="1080" viewBox="0 0 1920 1080" fill="none" xmlns="http://www.w3.org/2000/svg">
<rect width="1920" height="1080" fill="#FCFCFC"/>
<path d="M904.8 451.08L904 458.2H862.64L861.6 467.72C860.853 474.973 859.707 481.453 858.16 487.16C856.613 492.813 854.267 497.853 851.12 502.28L845.04 498.76C847.707 494.707 849.733 490.2 851.12 485.24C852.56 480.28 853.627 474.413 854.32 467.64L856.08 451.08H868.4C867.973 448.947 867.6 446.787 867.28 444.6C866.96 442.36 866.693 440.173 866.48 438.04H854.88L855.68 431H877.84L878.56 423.96H885.92L885.2 431H906.48L905.68 438.04H896.08C894.747 442.36 892.933 446.707 890.64 451.08H904.8ZM875.44 451.08H883.2C885.44 446.867 887.36 442.52 888.96 438.04H873.68C873.893 440.173 874.133 442.333 874.4 444.52C874.667 446.707 875.013 448.893 875.44 451.08ZM964.224 433.48L961.824 456.04H927.424L930.544 426.68H957.904C960.411 426.68 962.144 427.32 963.104 428.6C964.118 429.827 964.491 431.453 964.224 433.48ZM935.264 449H955.424L957.024 433.72H936.864L935.264 449ZM940.064 469.32L936.784 499.48H914.544L918.464 462.92H934.064C936.411 462.92 938.038 463.533 938.944 464.76C939.904 465.933 940.278 467.453 940.064 469.32ZM967.744 469.32L964.464 499.48H942.224L946.144 462.92H961.744C964.091 462.92 965.718 463.533 966.624 464.76C967.584 465.933 967.958 467.453 967.744 469.32ZM949.824 492.68H958.224L960.784 469.64H952.224L949.824 492.68ZM922.144 492.68H930.544L933.104 469.64H924.544L922.144 492.68ZM1012.21 493.88C1008.8 495.64 1005.33 497.107 1001.81 498.28C998.289 499.507 994.715 500.547 991.089 501.4L989.649 494.84C991.409 494.413 993.115 493.96 994.769 493.48L996.929 475.08H991.649C990.635 480.307 989.435 485.187 988.049 489.72C986.662 494.2 984.982 498.6 983.009 502.92L976.449 499.64C978.475 495.32 980.155 491.027 981.489 486.76C982.822 482.493 983.942 477.933 984.849 473.08C985.755 468.173 986.529 462.627 987.169 456.44L990.289 426.52H1029.09C1031.54 426.52 1033.33 427.213 1034.45 428.6C1035.62 429.933 1036.08 431.64 1035.81 433.72L1034.37 447.16H995.249L994.369 455.64H1002.69L1003.41 449.08H1010.29L1009.57 455.64H1017.57L1018.29 449.08H1024.77L1024.05 455.64H1032.05L1031.41 461.56H1023.49L1022.69 469.32H1033.73L1033.09 475.08H1017.01C1017.06 476.52 1017.22 478.013 1017.49 479.56C1017.81 481.053 1018.34 482.547 1019.09 484.04C1020.9 482.92 1022.61 481.747 1024.21 480.52C1025.86 479.293 1027.36 478.04 1028.69 476.76L1032.45 481.08C1029.57 483.96 1026.29 486.573 1022.61 488.92C1023.84 490.147 1025.33 491.267 1027.09 492.28C1028.85 493.24 1030.96 494.093 1033.41 494.84L1031.65 501.32C1027.22 500.253 1023.62 498.733 1020.85 496.76C1018.13 494.84 1016.02 492.68 1014.53 490.28C1013.04 487.827 1012 485.293 1011.41 482.68C1010.82 480.067 1010.48 477.533 1010.37 475.08H1004.05L1002.21 490.92C1004.82 489.96 1007.33 488.893 1009.73 487.72L1012.21 493.88ZM996.049 440.12H1027.73L1028.45 433.56H996.769L996.049 440.12ZM992.609 469.32H1001.33L1002.13 461.56H993.729C993.355 464.28 992.982 466.867 992.609 469.32ZM1008.21 469.32H1016.21L1017.01 461.56H1009.01L1008.21 469.32ZM1098.75 426.6L1097.95 434.12H1055.71L1056.51 426.6H1098.75ZM1062.83 488.76C1063.1 490.573 1063.45 492.013 1063.87 493.08C1064.35 494.093 1064.99 494.6 1065.79 494.6C1066.27 494.6 1066.7 494.467 1067.07 494.2C1067.45 493.88 1067.77 493.24 1068.03 492.28C1068.3 491.267 1068.54 489.72 1068.75 487.64L1072.19 455.4H1050.27L1051.07 447.88H1100.59L1099.79 455.4H1079.47L1075.95 488.52C1075.53 492.84 1074.54 496.067 1072.99 498.2C1071.5 500.387 1069.31 501.48 1066.43 501.48C1063.87 501.48 1061.71 500.52 1059.95 498.6C1058.25 496.733 1057.18 493.8 1056.75 489.8L1062.83 488.76ZM1051.95 493.56L1045.55 490.12C1048.54 485.693 1050.91 481.24 1052.67 476.76C1054.49 472.227 1055.93 467.8 1056.99 463.48L1063.87 465C1062.7 469.533 1061.21 474.253 1059.39 479.16C1057.58 484.067 1055.1 488.867 1051.95 493.56ZM1090.91 464.36C1091.5 468.68 1092.3 473.32 1093.31 478.28C1094.33 483.24 1095.63 488.04 1097.23 492.68L1090.35 495.24C1088.75 490.013 1087.42 484.84 1086.35 479.72C1085.34 474.6 1084.59 469.88 1084.11 465.56L1090.91 464.36Z" fill="black" fill-opacity="0.8"/>
<path d="M717.068 563.68C708.718 563.68 702.428 561.286 698.197 556.499C693.966 551.712 691.517 544.308 690.849 534.288C690.181 524.268 690.96 511.409 693.187 495.711C696.638 471.774 701.537 454.351 707.883 443.44C714.34 432.529 723.136 427.074 734.269 427.074C742.842 427.074 749.188 429.468 753.307 434.255C757.538 439.042 759.931 446.502 760.488 456.633C761.156 466.653 760.432 479.679 758.317 495.711C755.2 519.314 750.412 536.57 743.955 547.481C737.498 558.28 728.535 563.68 717.068 563.68ZM718.571 548.65C722.802 548.65 726.253 546.813 728.925 543.139C731.708 539.465 734.046 533.731 735.939 525.938C737.832 518.033 739.724 507.958 741.617 495.711C744.512 477.007 745.402 463.424 744.289 454.963C743.176 446.39 739.502 442.104 733.267 442.104C729.148 442.104 725.696 443.997 722.913 447.782C720.13 451.456 717.736 457.245 715.732 465.15C713.728 473.055 711.78 483.242 709.887 495.711C707.104 514.192 706.324 527.664 707.549 536.125C708.774 544.475 712.448 548.65 718.571 548.65ZM835.677 527.441H824.488L819.645 562.01H803.446L808.456 527.441H767.541L769.211 514.749C774.778 506.288 780.734 497.158 787.08 487.361C793.537 477.564 799.828 467.655 805.951 457.635C812.186 447.504 817.752 437.873 822.651 428.744H838.349L826.659 512.411H837.848L835.677 527.441ZM811.796 504.061C812.464 499.051 813.299 493.707 814.301 488.029C815.303 482.351 816.305 476.784 817.307 471.329C818.42 465.874 819.422 460.919 820.313 456.466C815.192 465.818 809.625 475.448 803.613 485.357C797.601 495.154 791.923 504.172 786.579 512.411H810.627L811.796 504.061Z" fill="black" fill-opacity="0.8"/>
<path d="M857.84 529.08C859.68 529.08 861.28 529.4 862.64 530.04C864 530.68 865.04 531.587 865.76 532.76C866.48 533.907 866.84 535.24 866.84 536.76C866.84 537.373 866.787 537.947 866.68 538.48C866.253 541.013 865.053 542.987 863.08 544.4C861.107 545.813 858.667 546.52 855.76 546.52H849.88L847.8 558.36H845.44L850.52 529.08H857.84ZM864.24 538.16C864.32 537.707 864.36 537.267 864.36 536.84C864.36 535.133 863.76 533.76 862.56 532.72C861.36 531.68 859.613 531.16 857.32 531.16H852.52L850.2 544.4H855.68C858.053 544.4 859.987 543.867 861.48 542.8C862.973 541.707 863.893 540.16 864.24 538.16ZM878.901 537.12C879.621 537.12 880.234 537.24 880.741 537.48C881.248 537.693 881.621 537.973 881.861 538.32L880.821 540.08C880.341 539.547 879.581 539.28 878.541 539.28C877.154 539.28 875.901 539.827 874.781 540.92C873.661 541.987 872.874 543.587 872.421 545.72L870.221 558.36H868.021L871.661 537.52H873.581C873.368 539.12 873.194 540.28 873.061 541C873.781 539.693 874.648 538.72 875.661 538.08C876.674 537.44 877.754 537.12 878.901 537.12ZM882.11 547.2C882.483 545.12 883.19 543.32 884.23 541.8C885.296 540.28 886.576 539.12 888.07 538.32C889.563 537.52 891.123 537.12 892.75 537.12C894.35 537.12 895.776 537.52 897.03 538.32C898.283 539.12 899.243 540.227 899.91 541.64C900.603 543.053 900.95 544.653 900.95 546.44C900.95 547.347 900.883 548.147 900.75 548.84C900.376 550.893 899.656 552.667 898.59 554.16C897.55 555.653 896.283 556.787 894.79 557.56C893.323 558.36 891.79 558.76 890.19 558.76C888.563 558.76 887.123 558.36 885.87 557.56C884.616 556.787 883.643 555.707 882.95 554.32C882.256 552.907 881.91 551.32 881.91 549.56C881.91 548.867 881.976 548.08 882.11 547.2ZM884.43 547.4C884.296 548.253 884.23 548.987 884.23 549.6C884.23 551.707 884.776 553.413 885.87 554.72C886.99 556 888.483 556.64 890.35 556.64C892.296 556.64 894.016 555.947 895.51 554.56C897.003 553.147 897.976 551.16 898.43 548.6C898.563 547.747 898.63 547.013 898.63 546.4C898.63 544.267 898.083 542.547 896.99 541.24C895.896 539.907 894.43 539.24 892.59 539.24C891.336 539.24 890.15 539.56 889.03 540.2C887.91 540.813 886.936 541.747 886.11 543C885.31 544.227 884.75 545.693 884.43 547.4ZM924.877 527.96H927.117L921.797 558.36H919.877C920.17 556.413 920.357 555.08 920.437 554.36C919.583 555.88 918.53 556.987 917.277 557.68C916.023 558.4 914.703 558.76 913.317 558.76C911.797 558.76 910.423 558.387 909.197 557.64C907.997 556.92 907.05 555.88 906.357 554.52C905.663 553.133 905.317 551.533 905.317 549.72C905.317 548.893 905.397 548.027 905.557 547.12C905.93 544.987 906.623 543.173 907.637 541.68C908.677 540.16 909.903 539.027 911.317 538.28C912.73 537.507 914.197 537.12 915.717 537.12C917.423 537.12 918.863 537.587 920.037 538.52C921.21 539.453 921.983 540.733 922.357 542.36L924.877 527.96ZM913.597 556.64C915.303 556.64 916.89 556.013 918.357 554.76C919.85 553.48 920.837 551.387 921.317 548.48C921.477 547.6 921.557 546.773 921.557 546C921.557 543.76 920.983 542.08 919.837 540.96C918.717 539.84 917.317 539.28 915.637 539.28C913.77 539.28 912.117 539.973 910.677 541.36C909.263 542.72 908.33 544.693 907.877 547.28C907.743 547.973 907.677 548.773 907.677 549.68C907.677 551.84 908.21 553.547 909.277 554.8C910.37 556.027 911.81 556.64 913.597 556.64ZM945.952 537.52H948.192L944.552 558.36H942.592C942.832 556.76 942.992 555.6 943.072 554.88C942.299 556.16 941.312 557.12 940.112 557.76C938.939 558.427 937.646 558.76 936.232 558.76C934.286 558.76 932.712 558.173 931.512 557C930.312 555.8 929.712 554.107 929.712 551.92C929.712 551.333 929.779 550.6 929.912 549.72L932.072 537.52H934.312L932.232 549.48C932.099 550.28 932.032 550.947 932.032 551.48C932.032 553.133 932.446 554.4 933.272 555.28C934.126 556.16 935.286 556.6 936.752 556.6C938.406 556.6 939.886 556.04 941.192 554.92C942.526 553.8 943.379 552.173 943.752 550.04L945.952 537.52ZM960.537 556.6C962.75 556.6 964.497 555.627 965.777 553.68L967.457 554.92C966.577 556.307 965.524 557.293 964.297 557.88C963.097 558.467 961.817 558.76 960.457 558.76C958.75 558.76 957.257 558.36 955.977 557.56C954.697 556.787 953.71 555.707 953.017 554.32C952.324 552.907 951.977 551.307 951.977 549.52C951.977 548.693 952.057 547.867 952.217 547.04C952.564 544.96 953.257 543.173 954.297 541.68C955.337 540.187 956.577 539.053 958.017 538.28C959.484 537.507 961.004 537.12 962.577 537.12C964.257 537.12 965.71 537.547 966.937 538.4C968.19 539.227 968.99 540.347 969.337 541.76L967.457 542.64C967.164 541.6 966.564 540.787 965.657 540.2C964.777 539.587 963.71 539.28 962.457 539.28C960.59 539.28 958.91 539.973 957.417 541.36C955.924 542.72 954.964 544.667 954.537 547.2C954.404 548.08 954.337 548.84 954.337 549.48C954.337 551.613 954.884 553.333 955.977 554.64C957.097 555.947 958.617 556.6 960.537 556.6ZM983.234 539.48H977.434L975.194 552.2C975.087 552.947 975.034 553.44 975.034 553.68C975.034 555.653 975.954 556.64 977.794 556.64C978.754 556.64 979.647 556.333 980.474 555.72L981.194 557.6C980.1 558.373 978.86 558.76 977.474 558.76C976.114 558.76 974.98 558.4 974.074 557.68C973.194 556.96 972.754 555.773 972.754 554.12C972.754 553.507 972.807 552.893 972.914 552.28L975.154 539.48H971.754L972.114 537.52H975.514L976.514 531.76H978.794L977.754 537.52H983.554L983.234 539.48ZM1008.29 529.08C1010.83 529.08 1013.07 529.6 1015.01 530.64C1016.96 531.68 1018.47 533.16 1019.53 535.08C1020.63 536.973 1021.17 539.187 1021.17 541.72C1021.17 542.733 1021.07 543.853 1020.85 545.08C1020.11 549.427 1018.28 552.733 1015.37 555C1012.49 557.24 1008.95 558.36 1004.73 558.36H996.452L1001.53 529.08H1008.29ZM1018.37 544.76C1018.56 543.747 1018.65 542.733 1018.65 541.72C1018.65 539.587 1018.21 537.733 1017.33 536.16C1016.48 534.56 1015.23 533.333 1013.57 532.48C1011.92 531.6 1009.97 531.16 1007.73 531.16H1003.53L999.172 556.24H1004.65C1008.33 556.24 1011.37 555.267 1013.77 553.32C1016.2 551.373 1017.73 548.52 1018.37 544.76ZM1030.19 532.96C1029.73 532.96 1029.35 532.8 1029.03 532.48C1028.71 532.133 1028.55 531.733 1028.55 531.28C1028.55 530.8 1028.71 530.4 1029.03 530.08C1029.35 529.733 1029.73 529.56 1030.19 529.56C1030.64 529.56 1031.03 529.733 1031.35 530.08C1031.69 530.4 1031.87 530.8 1031.87 531.28C1031.87 531.733 1031.71 532.133 1031.39 532.48C1031.07 532.8 1030.67 532.96 1030.19 532.96ZM1026.59 558.36H1024.35L1027.99 537.56H1030.23L1026.59 558.36ZM1047.14 553.56C1046.87 555.187 1046.11 556.453 1044.86 557.36C1043.63 558.293 1042.1 558.76 1040.26 558.76C1038.18 558.76 1036.43 558.213 1035.01 557.12C1033.63 556.027 1032.83 554.6 1032.62 552.84L1034.46 552C1034.72 553.493 1035.38 554.653 1036.42 555.48C1037.46 556.28 1038.74 556.68 1040.26 556.68C1041.46 556.68 1042.47 556.4 1043.3 555.84C1044.12 555.28 1044.63 554.48 1044.82 553.44C1044.87 553.12 1044.9 552.907 1044.9 552.8C1044.9 552.133 1044.7 551.56 1044.3 551.08C1043.9 550.573 1043.4 550.16 1042.82 549.84C1042.26 549.493 1041.47 549.093 1040.46 548.64C1039.28 548.08 1038.35 547.6 1037.65 547.2C1036.96 546.773 1036.36 546.227 1035.86 545.56C1035.38 544.867 1035.14 544.04 1035.14 543.08C1035.14 541.827 1035.44 540.747 1036.06 539.84C1036.7 538.933 1037.52 538.253 1038.54 537.8C1039.58 537.347 1040.7 537.12 1041.9 537.12C1043.68 537.12 1045.18 537.587 1046.38 538.52C1047.58 539.453 1048.26 540.613 1048.42 542L1046.58 542.84C1046.39 541.773 1045.86 540.907 1044.98 540.24C1044.1 539.547 1043.03 539.2 1041.78 539.2C1040.58 539.2 1039.56 539.52 1038.74 540.16C1037.91 540.8 1037.5 541.68 1037.5 542.8C1037.5 543.44 1037.68 544 1038.06 544.48C1038.46 544.96 1038.92 545.36 1039.46 545.68C1040.02 545.973 1040.82 546.36 1041.86 546.84C1043 547.347 1043.94 547.827 1044.66 548.28C1045.38 548.707 1045.99 549.267 1046.5 549.96C1047 550.627 1047.26 551.453 1047.26 552.44C1047.26 552.787 1047.22 553.16 1047.14 553.56ZM1063.52 537.12C1065.04 537.12 1066.4 537.493 1067.6 538.24C1068.82 538.96 1069.78 540.013 1070.48 541.4C1071.17 542.76 1071.52 544.347 1071.52 546.16C1071.52 546.96 1071.44 547.827 1071.28 548.76C1070.9 550.893 1070.2 552.72 1069.16 554.24C1068.14 555.733 1066.93 556.853 1065.52 557.6C1064.1 558.373 1062.64 558.76 1061.12 558.76C1059.41 558.76 1057.96 558.28 1056.76 557.32C1055.58 556.387 1054.82 555.107 1054.48 553.48L1051.92 567.88H1049.72L1055.04 537.52H1056.96C1056.66 539.147 1056.46 540.507 1056.36 541.6C1057.18 540.027 1058.24 538.893 1059.52 538.2C1060.8 537.48 1062.13 537.12 1063.52 537.12ZM1061.2 556.6C1063.06 556.6 1064.7 555.92 1066.12 554.56C1067.56 553.173 1068.5 551.187 1068.96 548.6C1069.09 547.907 1069.16 547.107 1069.16 546.2C1069.16 544.04 1068.61 542.347 1067.52 541.12C1066.45 539.867 1065.02 539.24 1063.24 539.24C1061.53 539.24 1059.93 539.867 1058.44 541.12C1056.97 542.373 1056 544.467 1055.52 547.4C1055.36 548.28 1055.28 549.093 1055.28 549.84C1055.28 552.08 1055.85 553.773 1057 554.92C1058.14 556.04 1059.54 556.6 1061.2 556.6ZM1077.55 558.36H1075.35L1080.67 527.92H1082.91L1077.55 558.36ZM1105.14 537.52L1101.5 558.36H1099.58C1099.82 557.053 1100.01 555.707 1100.14 554.32C1099.31 555.867 1098.26 556.987 1096.98 557.68C1095.73 558.4 1094.41 558.76 1093.02 558.76C1091.5 558.76 1090.13 558.387 1088.9 557.64C1087.7 556.92 1086.75 555.88 1086.06 554.52C1085.37 553.133 1085.02 551.533 1085.02 549.72C1085.02 548.893 1085.1 548.027 1085.26 547.12C1085.63 544.987 1086.33 543.173 1087.34 541.68C1088.38 540.16 1089.61 539.027 1091.02 538.28C1092.43 537.507 1093.9 537.12 1095.42 537.12C1097.13 537.12 1098.57 537.6 1099.74 538.56C1100.94 539.493 1101.73 540.8 1102.1 542.48C1102.63 540.267 1103.01 538.613 1103.22 537.52H1105.14ZM1093.3 556.64C1095.14 556.64 1096.75 555.973 1098.14 554.64C1099.55 553.28 1100.51 551.173 1101.02 548.32C1101.15 547.627 1101.22 546.84 1101.22 545.96C1101.22 543.747 1100.65 542.08 1099.5 540.96C1098.38 539.84 1096.99 539.28 1095.34 539.28C1093.47 539.28 1091.82 539.973 1090.38 541.36C1088.97 542.72 1088.03 544.693 1087.58 547.28C1087.45 547.973 1087.38 548.773 1087.38 549.68C1087.38 551.84 1087.91 553.547 1088.98 554.8C1090.07 556.027 1091.51 556.64 1093.3 556.64ZM1124.98 537.56H1127.54L1113.34 562.8C1112.3 564.64 1111.21 566 1110.06 566.88C1108.94 567.787 1107.65 568.24 1106.18 568.24C1104.85 568.24 1103.72 567.88 1102.78 567.16L1103.86 565.32C1104.53 565.853 1105.32 566.12 1106.22 566.12C1107.16 566.12 1108.04 565.787 1108.86 565.12C1109.69 564.48 1110.56 563.4 1111.46 561.88L1113.46 558.44L1108.66 537.56H1111.14L1115.1 555.68L1124.98 537.56Z" fill="black" fill-opacity="0.7"/>
</svg>
