<svg width="1920" height="1080" viewBox="0 0 1920 1080" fill="none" xmlns="http://www.w3.org/2000/svg">
<rect width="1920" height="1080" fill="#FCFCFC"/>
<path d="M891.48 438.2L885.16 441.8C884.04 439.187 882.787 436.68 881.4 434.28C880.067 431.88 878.627 429.667 877.08 427.64L883.4 424.04C884.947 426.28 886.387 428.573 887.72 430.92C889.107 433.267 890.36 435.693 891.48 438.2ZM925.16 454.36C924.04 454.787 923.027 455.08 922.12 455.24C921.267 455.4 920.147 455.48 918.76 455.48C916.2 455.48 914.387 454.627 913.32 452.92C912.307 451.213 911.987 448.413 912.36 444.52L913.48 433.72H903.96L903.72 436.04C903.347 440.093 902.493 443.773 901.16 447.08C899.88 450.387 897.507 453.533 894.04 456.52L890.12 451.08C891.613 449.693 892.813 448.28 893.72 446.84C894.68 445.347 895.427 443.587 895.96 441.56C896.547 439.48 896.973 436.893 897.24 433.8L897.96 426.52H914.6C918.867 426.52 920.76 428.707 920.28 433.08L919.08 444.04C918.92 445.693 918.947 446.947 919.16 447.8C919.373 448.6 919.96 449 920.92 449C921.507 449 922.093 448.947 922.68 448.84C923.32 448.68 924.067 448.413 924.92 448.04L925.16 454.36ZM873.4 495.96L869.72 490.12C872.28 488.627 874.76 487.053 877.16 485.4L880.36 454.84H873.16L873.88 447.64H881.16C883.4 447.64 885.027 448.307 886.04 449.64C887.107 450.973 887.507 452.6 887.24 454.52L884.6 479.88C886.467 478.333 888.28 476.733 890.04 475.08L894.36 480.44C891 483.373 887.56 486.147 884.04 488.76C880.573 491.373 877.027 493.773 873.4 495.96ZM887.8 501.32L884.44 495.16C887.267 493.933 890.093 492.413 892.92 490.6C895.747 488.787 898.413 486.707 900.92 484.36C897.507 478.813 895.24 472.573 894.12 465.64H890.84L891.56 458.84H914.76C917.587 458.84 919.373 459.667 920.12 461.32C920.92 462.92 920.947 464.787 920.2 466.92C917.693 473.587 914.147 479.587 909.56 484.92C911.16 486.733 912.973 488.493 915 490.2C917.08 491.907 919.453 493.533 922.12 495.08L918.2 501.32C912.867 497.96 908.413 494.12 904.84 489.8C899.933 494.387 894.253 498.227 887.8 501.32ZM900.76 465.64C901.133 467.933 901.693 470.227 902.44 472.52C903.24 474.813 904.307 477.08 905.64 479.32C907.293 477.293 908.787 475.133 910.12 472.84C911.453 470.547 912.547 468.147 913.4 465.64H900.76ZM965.704 501.4L970.104 459.4H955.064L955.864 451.88H970.904L973.864 423.96H981.224L978.264 451.88H992.344L991.544 459.4H977.464L973.064 501.4H965.704ZM956.744 438.12L950.424 441.8C949.251 439.187 947.944 436.68 946.504 434.28C945.064 431.88 943.571 429.693 942.024 427.72L948.264 424.04C949.811 426.227 951.304 428.493 952.744 430.84C954.184 433.187 955.518 435.613 956.744 438.12ZM939.064 499.16L935.304 493.32C937.278 492.093 939.171 490.813 940.984 489.48L944.504 456.44H937.784L938.504 449.24H945.224C947.518 449.24 949.171 449.907 950.184 451.24C951.198 452.573 951.571 454.2 951.304 456.12L948.504 483.48C950.264 481.88 951.971 480.253 953.624 478.6L958.024 483.8C955.038 486.733 951.944 489.507 948.744 492.12C945.598 494.68 942.371 497.027 939.064 499.16ZM1020.17 454.04L1020.81 447.88C1018.52 449 1016.14 450.04 1013.69 451C1011.29 451.96 1008.84 452.867 1006.33 453.72L1004.57 447.48C1010.7 445.667 1016.36 443.507 1021.53 441L1022.09 436.04H1006.97L1007.69 429.56H1022.81L1023.37 423.96H1029.77L1026.65 454.04H1020.17ZM1057.77 441.56C1057.34 443.747 1056.65 445.827 1055.69 447.8C1054.73 449.72 1053.4 451.293 1051.69 452.52C1049.98 453.693 1047.8 454.28 1045.13 454.28C1041.4 454.227 1038.68 453.027 1036.97 450.68C1035.32 448.333 1034.68 445.453 1035.05 442.04L1036.97 423.96H1043.45L1042.33 434.28C1044.68 433.107 1046.86 431.773 1048.89 430.28C1050.92 428.733 1052.86 427.08 1054.73 425.32L1058.33 429.96C1055.93 432.147 1053.37 434.147 1050.65 435.96C1047.93 437.72 1044.92 439.32 1041.61 440.76L1041.53 441.72C1041.32 443.427 1041.53 444.893 1042.17 446.12C1042.86 447.293 1044.01 447.88 1045.61 447.88C1047.32 447.88 1048.65 447.16 1049.61 445.72C1050.62 444.227 1051.4 442.52 1051.93 440.6L1057.77 441.56ZM1006.73 501.56L1011.37 457.08H1044.65C1046.52 457.08 1047.96 457.613 1048.97 458.68C1050.04 459.693 1050.46 461.16 1050.25 463.08L1047.53 489.8C1047.16 493.427 1045.96 496.253 1043.93 498.28C1041.96 500.36 1039.45 501.4 1036.41 501.4C1033.37 501.4 1030.84 500.493 1028.81 498.68C1026.84 496.92 1025.64 494.413 1025.21 491.16L1031.45 490.04C1031.72 491.8 1032.3 493.107 1033.21 493.96C1034.12 494.76 1035.08 495.16 1036.09 495.16C1037.53 495.16 1038.6 494.653 1039.29 493.64C1040.04 492.627 1040.52 491.16 1040.73 489.24L1041.13 485.56H1015.53L1013.93 501.56H1006.73ZM1017.77 463.16L1017.21 468.68H1042.89L1043.45 463.16H1017.77ZM1016.09 479.8H1041.69L1042.25 474.44H1016.65L1016.09 479.8ZM1121.27 454.84L1120.55 461.56H1069.75L1070.47 454.84H1091.99L1092.39 450.92H1076.23L1078.79 426.6H1112.95C1115.19 426.6 1116.71 427.133 1117.51 428.2C1118.37 429.213 1118.74 430.413 1118.63 431.8L1116.55 450.92H1099.19L1098.79 454.84H1121.27ZM1084.63 436.36H1111.27L1111.67 432.2H1085.03L1084.63 436.36ZM1083.67 445.32H1110.31L1110.71 441.56H1084.07L1083.67 445.32ZM1089.67 490.84L1090.55 482.28H1074.15L1075.99 464.92H1108.47C1110.82 464.92 1112.42 465.48 1113.27 466.6C1114.13 467.667 1114.47 469.08 1114.31 470.84L1113.03 482.28H1097.11L1096.15 491.48C1095.78 495.373 1094.71 498.067 1092.95 499.56C1091.25 501.107 1089.25 501.88 1086.95 501.88C1084.93 501.88 1083.25 501.133 1081.91 499.64C1080.58 498.2 1079.62 496.28 1079.03 493.88L1084.79 492.52C1085.06 493.533 1085.41 494.253 1085.83 494.68C1086.31 495.053 1086.77 495.24 1087.19 495.24C1088.53 495.24 1089.35 493.773 1089.67 490.84ZM1081.67 476.28H1106.71L1107.27 470.92H1082.31L1081.67 476.28ZM1084.31 487.4C1082.29 489.907 1079.94 492.307 1077.27 494.6C1074.66 496.893 1071.91 498.893 1069.03 500.6L1065.51 495.24C1068.18 493.8 1070.69 492.147 1073.03 490.28C1075.38 488.36 1077.46 486.253 1079.27 483.96L1084.31 487.4ZM1112.31 501.16C1110.13 499.08 1108.05 496.84 1106.07 494.44C1104.1 491.987 1102.34 489.587 1100.79 487.24L1106.07 483.96C1107.67 486.253 1109.43 488.52 1111.35 490.76C1113.33 493 1115.35 495.107 1117.43 497.08L1112.31 501.16Z" fill="black" fill-opacity="0.8"/>
<path d="M738.068 563.68C729.718 563.68 723.428 561.286 719.197 556.499C714.966 551.712 712.517 544.308 711.849 534.288C711.181 524.268 711.96 511.409 714.187 495.711C717.638 471.774 722.537 454.351 728.883 443.44C735.34 432.529 744.136 427.074 755.269 427.074C763.842 427.074 770.188 429.468 774.307 434.255C778.538 439.042 780.931 446.502 781.488 456.633C782.156 466.653 781.432 479.679 779.317 495.711C776.2 519.314 771.412 536.57 764.955 547.481C758.498 558.28 749.535 563.68 738.068 563.68ZM739.571 548.65C743.802 548.65 747.253 546.813 749.925 543.139C752.708 539.465 755.046 533.731 756.939 525.938C758.832 518.033 760.724 507.958 762.617 495.711C765.512 477.007 766.402 463.424 765.289 454.963C764.176 446.39 760.502 442.104 754.267 442.104C750.148 442.104 746.696 443.997 743.913 447.782C741.13 451.456 738.736 457.245 736.732 465.15C734.728 473.055 732.78 483.242 730.887 495.711C728.104 514.192 727.324 527.664 728.549 536.125C729.774 544.475 733.448 548.65 739.571 548.65ZM815.929 562.01H799.73L815.595 448.784C813.702 449.341 811.698 449.842 809.583 450.287C807.468 450.621 805.352 450.788 803.237 450.788L804.239 437.762C807.356 437.205 810.808 436.092 814.593 434.422C818.49 432.641 821.607 430.748 823.945 428.744L834.633 429.579L815.929 562.01Z" fill="black" fill-opacity="0.8"/>
<path d="M878.28 529.08C880.813 529.08 883.053 529.6 885 530.64C886.947 531.68 888.453 533.16 889.52 535.08C890.613 536.973 891.16 539.187 891.16 541.72C891.16 542.733 891.053 543.853 890.84 545.08C890.093 549.427 888.267 552.733 885.36 555C882.48 557.24 878.933 558.36 874.72 558.36H866.44L871.52 529.08H878.28ZM888.36 544.76C888.547 543.747 888.64 542.733 888.64 541.72C888.64 539.587 888.2 537.733 887.32 536.16C886.467 534.56 885.213 533.333 883.56 532.48C881.907 531.6 879.96 531.16 877.72 531.16H873.52L869.16 556.24H874.64C878.32 556.24 881.36 555.267 883.76 553.32C886.187 551.373 887.72 548.52 888.36 544.76ZM903.174 556.64C905.708 556.64 907.694 555.507 909.134 553.24L910.774 554.4C909.948 555.84 908.841 556.92 907.454 557.64C906.094 558.387 904.601 558.76 902.974 558.76C900.494 558.76 898.508 557.96 897.014 556.36C895.521 554.733 894.774 552.573 894.774 549.88C894.774 549.027 894.854 548.147 895.014 547.24C895.388 545.053 896.094 543.2 897.134 541.68C898.201 540.16 899.481 539.027 900.974 538.28C902.468 537.507 904.041 537.12 905.694 537.12C907.614 537.12 909.121 537.613 910.214 538.6C911.308 539.587 911.854 540.907 911.854 542.56C911.854 544.533 911.001 546 909.294 546.96C907.588 547.92 904.881 548.4 901.174 548.4C900.454 548.4 899.134 548.347 897.214 548.24C897.134 548.8 897.094 549.333 897.094 549.84C897.094 551.973 897.641 553.64 898.734 554.84C899.828 556.04 901.308 556.64 903.174 556.64ZM905.574 539.2C903.708 539.2 902.041 539.8 900.574 541C899.108 542.173 898.094 543.947 897.534 546.32C898.841 546.427 900.201 546.48 901.614 546.48C904.334 546.48 906.348 546.173 907.654 545.56C908.961 544.92 909.614 543.92 909.614 542.56C909.614 541.52 909.268 540.707 908.574 540.12C907.881 539.507 906.881 539.2 905.574 539.2ZM928.568 553.56C928.301 555.187 927.541 556.453 926.288 557.36C925.061 558.293 923.528 558.76 921.688 558.76C919.608 558.76 917.861 558.213 916.448 557.12C915.061 556.027 914.261 554.6 914.048 552.84L915.888 552C916.154 553.493 916.808 554.653 917.848 555.48C918.888 556.28 920.168 556.68 921.688 556.68C922.888 556.68 923.901 556.4 924.728 555.84C925.554 555.28 926.061 554.48 926.248 553.44C926.301 553.12 926.328 552.907 926.328 552.8C926.328 552.133 926.128 551.56 925.728 551.08C925.328 550.573 924.834 550.16 924.248 549.84C923.688 549.493 922.901 549.093 921.888 548.64C920.714 548.08 919.781 547.6 919.088 547.2C918.394 546.773 917.794 546.227 917.288 545.56C916.808 544.867 916.568 544.04 916.568 543.08C916.568 541.827 916.874 540.747 917.488 539.84C918.128 538.933 918.954 538.253 919.968 537.8C921.008 537.347 922.128 537.12 923.328 537.12C925.114 537.12 926.608 537.587 927.808 538.52C929.008 539.453 929.688 540.613 929.848 542L928.008 542.84C927.821 541.773 927.288 540.907 926.408 540.24C925.528 539.547 924.461 539.2 923.208 539.2C922.008 539.2 920.994 539.52 920.168 540.16C919.341 540.8 918.928 541.68 918.928 542.8C918.928 543.44 919.114 544 919.488 544.48C919.888 544.96 920.354 545.36 920.888 545.68C921.448 545.973 922.248 546.36 923.288 546.84C924.434 547.347 925.368 547.827 926.088 548.28C926.808 548.707 927.421 549.267 927.928 549.96C928.434 550.627 928.688 551.453 928.688 552.44C928.688 552.787 928.648 553.16 928.568 553.56ZM938.709 532.96C938.255 532.96 937.869 532.8 937.549 532.48C937.229 532.133 937.069 531.733 937.069 531.28C937.069 530.8 937.229 530.4 937.549 530.08C937.869 529.733 938.255 529.56 938.709 529.56C939.162 529.56 939.549 529.733 939.869 530.08C940.215 530.4 940.389 530.8 940.389 531.28C940.389 531.733 940.229 532.133 939.909 532.48C939.589 532.8 939.189 532.96 938.709 532.96ZM935.109 558.36H932.869L936.509 537.56H938.749L935.109 558.36ZM962.697 537.52L959.017 558.52C958.43 561.907 957.19 564.373 955.297 565.92C953.404 567.467 951.284 568.24 948.937 568.24C946.857 568.24 945.057 567.68 943.537 566.56C942.044 565.44 941.164 563.987 940.897 562.2L942.737 561.36C943.137 562.853 943.897 564.013 945.017 564.84C946.137 565.693 947.497 566.12 949.097 566.12C950.99 566.12 952.63 565.493 954.017 564.24C955.404 562.987 956.337 561 956.817 558.28L957.457 554.72C956.604 556.133 955.564 557.16 954.337 557.8C953.11 558.44 951.844 558.76 950.537 558.76C949.017 558.76 947.644 558.387 946.417 557.64C945.217 556.92 944.27 555.88 943.577 554.52C942.884 553.133 942.537 551.533 942.537 549.72C942.537 548.893 942.617 548.027 942.777 547.12C943.15 544.987 943.844 543.173 944.857 541.68C945.897 540.16 947.124 539.027 948.537 538.28C949.95 537.507 951.417 537.12 952.937 537.12C954.644 537.12 956.084 537.6 957.257 538.56C958.457 539.493 959.244 540.8 959.617 542.48C959.937 541.28 960.297 539.627 960.697 537.52H962.697ZM958.537 548.48C958.697 547.6 958.777 546.773 958.777 546C958.777 543.76 958.204 542.08 957.057 540.96C955.937 539.84 954.537 539.28 952.857 539.28C950.99 539.28 949.337 539.973 947.897 541.36C946.484 542.72 945.55 544.693 945.097 547.28C944.964 547.973 944.897 548.773 944.897 549.68C944.897 551.84 945.43 553.547 946.497 554.8C947.59 556.027 949.03 556.64 950.817 556.64C952.524 556.64 954.11 556.013 955.577 554.76C957.07 553.48 958.057 551.387 958.537 548.48ZM977.972 537.12C979.918 537.12 981.478 537.72 982.652 538.92C983.852 540.093 984.452 541.773 984.452 543.96C984.452 544.547 984.385 545.28 984.252 546.16L982.092 558.36H979.852L981.932 546.4C982.065 545.6 982.132 544.92 982.132 544.36C982.132 542.707 981.705 541.453 980.852 540.6C980.025 539.72 978.878 539.28 977.412 539.28C975.758 539.28 974.265 539.84 972.932 540.96C971.625 542.08 970.785 543.707 970.412 545.84L968.212 558.36H966.012L969.652 537.52H971.572L971.052 541.04C971.825 539.76 972.812 538.787 974.012 538.12C975.212 537.453 976.532 537.12 977.972 537.12ZM1021.34 537.36C1020.83 540.293 1019.11 542.24 1016.18 543.2C1017.81 543.653 1019.03 544.413 1019.86 545.48C1020.71 546.52 1021.14 547.813 1021.14 549.36C1021.14 549.68 1021.09 550.213 1020.98 550.96C1020.58 553.333 1019.47 555.16 1017.66 556.44C1015.85 557.72 1013.31 558.36 1010.06 558.36H1000.14L1005.22 529.08H1012.74C1015.54 529.08 1017.69 529.72 1019.18 531C1020.7 532.253 1021.46 533.893 1021.46 535.92C1021.46 536.4 1021.42 536.88 1021.34 537.36ZM1010.9 542.28C1013.22 542.28 1015.05 541.84 1016.38 540.96C1017.74 540.08 1018.57 538.813 1018.86 537.16C1018.91 536.92 1018.94 536.56 1018.94 536.08C1018.94 534.587 1018.35 533.4 1017.18 532.52C1016.03 531.64 1014.33 531.2 1012.06 531.2H1007.22L1005.3 542.28H1010.9ZM1018.54 550.72C1018.62 550.267 1018.66 549.853 1018.66 549.48C1018.66 547.853 1018.03 546.587 1016.78 545.68C1015.55 544.747 1013.69 544.28 1011.18 544.28H1004.94L1002.86 556.28H1009.82C1014.94 556.28 1017.85 554.427 1018.54 550.72ZM1045.55 537.52L1041.91 558.36H1039.99C1040.23 557.053 1040.41 555.707 1040.55 554.32C1039.72 555.867 1038.67 556.987 1037.39 557.68C1036.13 558.4 1034.81 558.76 1033.43 558.76C1031.91 558.76 1030.53 558.387 1029.31 557.64C1028.11 556.92 1027.16 555.88 1026.47 554.52C1025.77 553.133 1025.43 551.533 1025.43 549.72C1025.43 548.893 1025.51 548.027 1025.67 547.12C1026.04 544.987 1026.73 543.173 1027.75 541.68C1028.79 540.16 1030.01 539.027 1031.43 538.28C1032.84 537.507 1034.31 537.12 1035.83 537.12C1037.53 537.12 1038.97 537.6 1040.15 538.56C1041.35 539.493 1042.13 540.8 1042.51 542.48C1043.04 540.267 1043.41 538.613 1043.63 537.52H1045.55ZM1033.71 556.64C1035.55 556.64 1037.16 555.973 1038.55 554.64C1039.96 553.28 1040.92 551.173 1041.43 548.32C1041.56 547.627 1041.63 546.84 1041.63 545.96C1041.63 543.747 1041.05 542.08 1039.91 540.96C1038.79 539.84 1037.4 539.28 1035.75 539.28C1033.88 539.28 1032.23 539.973 1030.79 541.36C1029.37 542.72 1028.44 544.693 1027.99 547.28C1027.85 547.973 1027.79 548.773 1027.79 549.68C1027.79 551.84 1028.32 553.547 1029.39 554.8C1030.48 556.027 1031.92 556.64 1033.71 556.64ZM1057.94 556.6C1060.15 556.6 1061.9 555.627 1063.18 553.68L1064.86 554.92C1063.98 556.307 1062.93 557.293 1061.7 557.88C1060.5 558.467 1059.22 558.76 1057.86 558.76C1056.15 558.76 1054.66 558.36 1053.38 557.56C1052.1 556.787 1051.11 555.707 1050.42 554.32C1049.73 552.907 1049.38 551.307 1049.38 549.52C1049.38 548.693 1049.46 547.867 1049.62 547.04C1049.97 544.96 1050.66 543.173 1051.7 541.68C1052.74 540.187 1053.98 539.053 1055.42 538.28C1056.89 537.507 1058.41 537.12 1059.98 537.12C1061.66 537.12 1063.11 537.547 1064.34 538.4C1065.59 539.227 1066.39 540.347 1066.74 541.76L1064.86 542.64C1064.57 541.6 1063.97 540.787 1063.06 540.2C1062.18 539.587 1061.11 539.28 1059.86 539.28C1057.99 539.28 1056.31 539.973 1054.82 541.36C1053.33 542.72 1052.37 544.667 1051.94 547.2C1051.81 548.08 1051.74 548.84 1051.74 549.48C1051.74 551.613 1052.29 553.333 1053.38 554.64C1054.5 555.947 1056.02 556.6 1057.94 556.6ZM1072.32 548.32L1084.6 537.56H1087.6L1077.8 546.12L1084.72 558.36H1081.92L1075.96 547.72L1071.76 551.36L1070.52 558.36H1068.28L1073.68 527.92H1075.92L1072.32 548.32ZM1107.96 537.52L1104.28 558.52C1103.69 561.907 1102.45 564.373 1100.56 565.92C1098.66 567.467 1096.54 568.24 1094.2 568.24C1092.12 568.24 1090.32 567.68 1088.8 566.56C1087.3 565.44 1086.42 563.987 1086.16 562.2L1088 561.36C1088.4 562.853 1089.16 564.013 1090.28 564.84C1091.4 565.693 1092.76 566.12 1094.36 566.12C1096.25 566.12 1097.89 565.493 1099.28 564.24C1100.66 562.987 1101.6 561 1102.08 558.28L1102.72 554.72C1101.86 556.133 1100.82 557.16 1099.6 557.8C1098.37 558.44 1097.1 558.76 1095.8 558.76C1094.28 558.76 1092.9 558.387 1091.68 557.64C1090.48 556.92 1089.53 555.88 1088.84 554.52C1088.14 553.133 1087.8 551.533 1087.8 549.72C1087.8 548.893 1087.88 548.027 1088.04 547.12C1088.41 544.987 1089.1 543.173 1090.12 541.68C1091.16 540.16 1092.38 539.027 1093.8 538.28C1095.21 537.507 1096.68 537.12 1098.2 537.12C1099.9 537.12 1101.34 537.6 1102.52 538.56C1103.72 539.493 1104.5 540.8 1104.88 542.48C1105.2 541.28 1105.56 539.627 1105.96 537.52H1107.96ZM1103.8 548.48C1103.96 547.6 1104.04 546.773 1104.04 546C1104.04 543.76 1103.46 542.08 1102.32 540.96C1101.2 539.84 1099.8 539.28 1098.12 539.28C1096.25 539.28 1094.6 539.973 1093.16 541.36C1091.74 542.72 1090.81 544.693 1090.36 547.28C1090.22 547.973 1090.16 548.773 1090.16 549.68C1090.16 551.84 1090.69 553.547 1091.76 554.8C1092.85 556.027 1094.29 556.64 1096.08 556.64C1097.78 556.64 1099.37 556.013 1100.84 554.76C1102.33 553.48 1103.32 551.387 1103.8 548.48ZM1122.15 537.12C1122.87 537.12 1123.49 537.24 1123.99 537.48C1124.5 537.693 1124.87 537.973 1125.11 538.32L1124.07 540.08C1123.59 539.547 1122.83 539.28 1121.79 539.28C1120.41 539.28 1119.15 539.827 1118.03 540.92C1116.91 541.987 1116.13 543.587 1115.67 545.72L1113.47 558.36H1111.27L1114.91 537.52H1116.83C1116.62 539.12 1116.45 540.28 1116.31 541C1117.03 539.693 1117.9 538.72 1118.91 538.08C1119.93 537.44 1121.01 537.12 1122.15 537.12ZM1125.36 547.2C1125.73 545.12 1126.44 543.32 1127.48 541.8C1128.55 540.28 1129.83 539.12 1131.32 538.32C1132.81 537.52 1134.37 537.12 1136 537.12C1137.6 537.12 1139.03 537.52 1140.28 538.32C1141.53 539.12 1142.49 540.227 1143.16 541.64C1143.85 543.053 1144.2 544.653 1144.2 546.44C1144.2 547.347 1144.13 548.147 1144 548.84C1143.63 550.893 1142.91 552.667 1141.84 554.16C1140.8 555.653 1139.53 556.787 1138.04 557.56C1136.57 558.36 1135.04 558.76 1133.44 558.76C1131.81 558.76 1130.37 558.36 1129.12 557.56C1127.87 556.787 1126.89 555.707 1126.2 554.32C1125.51 552.907 1125.16 551.32 1125.16 549.56C1125.16 548.867 1125.23 548.08 1125.36 547.2ZM1127.68 547.4C1127.55 548.253 1127.48 548.987 1127.48 549.6C1127.48 551.707 1128.03 553.413 1129.12 554.72C1130.24 556 1131.73 556.64 1133.6 556.64C1135.55 556.64 1137.27 555.947 1138.76 554.56C1140.25 553.147 1141.23 551.16 1141.68 548.6C1141.81 547.747 1141.88 547.013 1141.88 546.4C1141.88 544.267 1141.33 542.547 1140.24 541.24C1139.15 539.907 1137.68 539.24 1135.84 539.24C1134.59 539.24 1133.4 539.56 1132.28 540.2C1131.16 540.813 1130.19 541.747 1129.36 543C1128.56 544.227 1128 545.693 1127.68 547.4ZM1165.29 537.52H1167.53L1163.89 558.36H1161.93C1162.17 556.76 1162.33 555.6 1162.41 554.88C1161.63 556.16 1160.65 557.12 1159.45 557.76C1158.27 558.427 1156.98 558.76 1155.57 558.76C1153.62 558.76 1152.05 558.173 1150.85 557C1149.65 555.8 1149.05 554.107 1149.05 551.92C1149.05 551.333 1149.11 550.6 1149.25 549.72L1151.41 537.52H1153.65L1151.57 549.48C1151.43 550.28 1151.37 550.947 1151.37 551.48C1151.37 553.133 1151.78 554.4 1152.61 555.28C1153.46 556.16 1154.62 556.6 1156.09 556.6C1157.74 556.6 1159.22 556.04 1160.53 554.92C1161.86 553.8 1162.71 552.173 1163.09 550.04L1165.29 537.52ZM1182.75 537.12C1184.7 537.12 1186.26 537.72 1187.43 538.92C1188.63 540.093 1189.23 541.773 1189.23 543.96C1189.23 544.547 1189.17 545.28 1189.03 546.16L1186.87 558.36H1184.63L1186.71 546.4C1186.85 545.6 1186.91 544.92 1186.91 544.36C1186.91 542.707 1186.49 541.453 1185.63 540.6C1184.81 539.72 1183.66 539.28 1182.19 539.28C1180.54 539.28 1179.05 539.84 1177.71 540.96C1176.41 542.08 1175.57 543.707 1175.19 545.84L1172.99 558.36H1170.79L1174.43 537.52H1176.35L1175.83 541.04C1176.61 539.76 1177.59 538.787 1178.79 538.12C1179.99 537.453 1181.31 537.12 1182.75 537.12ZM1213.5 527.96H1215.74L1210.42 558.36H1208.5C1208.79 556.413 1208.98 555.08 1209.06 554.36C1208.21 555.88 1207.15 556.987 1205.9 557.68C1204.65 558.4 1203.33 558.76 1201.94 558.76C1200.42 558.76 1199.05 558.387 1197.82 557.64C1196.62 556.92 1195.67 555.88 1194.98 554.52C1194.29 553.133 1193.94 551.533 1193.94 549.72C1193.94 548.893 1194.02 548.027 1194.18 547.12C1194.55 544.987 1195.25 543.173 1196.26 541.68C1197.3 540.16 1198.53 539.027 1199.94 538.28C1201.35 537.507 1202.82 537.12 1204.34 537.12C1206.05 537.12 1207.49 537.587 1208.66 538.52C1209.83 539.453 1210.61 540.733 1210.98 542.36L1213.5 527.96ZM1202.22 556.64C1203.93 556.64 1205.51 556.013 1206.98 554.76C1208.47 553.48 1209.46 551.387 1209.94 548.48C1210.1 547.6 1210.18 546.773 1210.18 546C1210.18 543.76 1209.61 542.08 1208.46 540.96C1207.34 539.84 1205.94 539.28 1204.26 539.28C1202.39 539.28 1200.74 539.973 1199.3 541.36C1197.89 542.72 1196.95 544.693 1196.5 547.28C1196.37 547.973 1196.3 548.773 1196.3 549.68C1196.3 551.84 1196.83 553.547 1197.9 554.8C1198.99 556.027 1200.43 556.64 1202.22 556.64Z" fill="black" fill-opacity="0.7"/>
</svg>
