<svg width="1920" height="1080" viewBox="0 0 1920 1080" fill="none" xmlns="http://www.w3.org/2000/svg">
<rect width="1920" height="1080" fill="#FCFCFC"/>
<path d="M122.888 91.92L119.096 94.08C118.424 92.512 117.672 91.008 116.84 89.568C116.04 88.128 115.176 86.8 114.248 85.584L118.04 83.424C118.968 84.768 119.832 86.144 120.632 87.552C121.464 88.96 122.216 90.416 122.888 91.92ZM143.096 101.616C142.424 101.872 141.816 102.048 141.272 102.144C140.76 102.24 140.088 102.288 139.256 102.288C137.72 102.288 136.632 101.776 135.992 100.752C135.384 99.728 135.192 98.048 135.416 95.712L136.088 89.232H130.376L130.232 90.624C130.008 93.056 129.496 95.264 128.696 97.248C127.928 99.232 126.504 101.12 124.424 102.912L122.072 99.648C122.968 98.816 123.688 97.968 124.232 97.104C124.808 96.208 125.256 95.152 125.576 93.936C125.928 92.688 126.184 91.136 126.344 89.28L126.776 84.912H136.76C139.32 84.912 140.456 86.224 140.168 88.848L139.448 95.424C139.352 96.416 139.368 97.168 139.496 97.68C139.624 98.16 139.976 98.4 140.552 98.4C140.904 98.4 141.256 98.368 141.608 98.304C141.992 98.208 142.44 98.048 142.952 97.824L143.096 101.616ZM112.04 126.576L109.832 123.072C111.368 122.176 112.856 121.232 114.296 120.24L116.216 101.904H111.896L112.328 97.584H116.696C118.04 97.584 119.016 97.984 119.624 98.784C120.264 99.584 120.504 100.56 120.344 101.712L118.76 116.928C119.88 116 120.968 115.04 122.024 114.048L124.616 117.264C122.6 119.024 120.536 120.688 118.424 122.256C116.344 123.824 114.216 125.264 112.04 126.576ZM120.68 129.792L118.664 126.096C120.36 125.36 122.056 124.448 123.752 123.36C125.448 122.272 127.048 121.024 128.552 119.616C126.504 116.288 125.144 112.544 124.472 108.384H122.504L122.936 104.304H136.856C138.552 104.304 139.624 104.8 140.072 105.792C140.552 106.752 140.568 107.872 140.12 109.152C138.616 113.152 136.488 116.752 133.736 119.952C134.696 121.04 135.784 122.096 137 123.12C138.248 124.144 139.672 125.12 141.272 126.048L138.92 129.792C135.72 127.776 133.048 125.472 130.904 122.88C127.96 125.632 124.552 127.936 120.68 129.792ZM128.456 108.384C128.68 109.76 129.016 111.136 129.464 112.512C129.944 113.888 130.584 115.248 131.384 116.592C132.376 115.376 133.272 114.08 134.072 112.704C134.872 111.328 135.528 109.888 136.04 108.384H128.456ZM167.423 129.84L170.063 104.64H161.039L161.519 100.128H170.543L172.319 83.376H176.735L174.959 100.128H183.407L182.927 104.64H174.479L171.839 129.84H167.423ZM162.047 91.872L158.255 94.08C157.551 92.512 156.767 91.008 155.903 89.568C155.039 88.128 154.143 86.816 153.215 85.632L156.959 83.424C157.887 84.736 158.783 86.096 159.647 87.504C160.511 88.912 161.311 90.368 162.047 91.872ZM151.439 128.496L149.183 124.992C150.367 124.256 151.503 123.488 152.591 122.688L154.703 102.864H150.671L151.103 98.544H155.135C156.511 98.544 157.503 98.944 158.111 99.744C158.719 100.544 158.943 101.52 158.783 102.672L157.103 119.088C158.159 118.128 159.183 117.152 160.175 116.16L162.815 119.28C161.023 121.04 159.167 122.704 157.247 124.272C155.359 125.808 153.423 127.216 151.439 128.496ZM204.997 93.984L201.349 94.944C201.125 93.408 200.805 91.904 200.389 90.432H198.133C196.949 92.448 195.557 94.288 193.957 95.952L190.693 93.696C192.197 92.096 193.477 90.48 194.533 88.848C195.621 87.184 196.501 85.328 197.173 83.28L200.965 84.336C200.677 85.168 200.357 85.984 200.005 86.784H208.501L208.117 90.432H204.277C204.597 91.616 204.837 92.8 204.997 93.984ZM219.733 94.176L216.037 95.136C215.909 94.368 215.733 93.6 215.509 92.832C215.317 92.032 215.093 91.232 214.837 90.432H213.109C212.277 91.968 211.301 93.456 210.181 94.896L206.821 92.976C207.941 91.536 208.901 90.032 209.701 88.464C210.501 86.896 211.205 85.184 211.813 83.328L215.749 84.48C215.461 85.28 215.173 86.048 214.885 86.784H224.245L223.861 90.432H218.773C218.965 91.04 219.141 91.664 219.301 92.304C219.461 92.944 219.605 93.568 219.733 94.176ZM191.845 118.56L193.285 105.024H204.373L204.709 101.808H191.461L191.893 97.728H205.141L205.477 94.704H209.509L209.173 97.728H221.845L221.413 101.808H208.741L208.405 105.024H216.421C217.477 105.024 218.261 105.328 218.773 105.936C219.317 106.512 219.525 107.36 219.397 108.48L218.917 112.704C218.725 114.368 218.309 115.648 217.669 116.544C217.029 117.44 216.005 117.888 214.597 117.888C213.221 117.888 212.117 117.488 211.285 116.688C210.485 115.888 209.861 114.752 209.413 113.28L212.437 112.656C212.597 113.264 212.773 113.712 212.965 114C213.189 114.256 213.477 114.384 213.829 114.384C214.117 114.384 214.373 114.224 214.597 113.904C214.853 113.584 215.029 113.024 215.125 112.224L215.509 108.768H208.021L207.589 113.136C208.197 114.704 209.125 116.288 210.373 117.888C211.653 119.456 213.141 120.96 214.837 122.4C216.565 123.808 218.437 125.04 220.453 126.096L218.245 129.504C216.069 128.224 213.973 126.688 211.957 124.896C209.941 123.104 208.277 121.152 206.965 119.04L205.813 129.84H201.781L202.885 119.28C201.253 121.232 199.365 123.12 197.221 124.944C195.109 126.736 192.725 128.336 190.069 129.744L187.909 126C191.333 124.272 194.325 122.368 196.885 120.288C199.445 118.176 201.669 115.696 203.557 112.848L203.989 108.768H196.741L195.733 118.56H191.845ZM231.484 126.912H227.836L232.156 85.824H242.188C243.436 85.824 244.268 86.208 244.684 86.976C245.1 87.744 245.26 88.608 245.164 89.568L244.444 96.384C246.14 94.496 247.516 92.544 248.572 90.528C249.66 88.512 250.62 86.176 251.452 83.52L255.1 84.576C254.908 85.216 254.7 85.856 254.476 86.496C254.252 87.104 254.028 87.696 253.804 88.272H258.412C259.564 88.272 260.476 88.656 261.148 89.424C261.852 90.16 261.964 91.184 261.484 92.496C260.876 94.224 260.092 95.936 259.132 97.632C258.204 99.328 257.068 100.944 255.724 102.48C256.62 103.504 257.612 104.464 258.7 105.36C259.788 106.224 260.972 106.992 262.252 107.664L260.476 111.12C258.972 110.384 257.596 109.504 256.348 108.48C255.1 107.456 253.98 106.368 252.988 105.216C251.836 106.208 250.54 107.136 249.1 108C247.692 108.864 246.124 109.616 244.396 110.256L243.244 107.568L241.564 123.216H231.868L231.484 126.912ZM234.028 102.192H235.708L237.004 89.952H235.324L234.028 102.192ZM238.54 102.192H240.22L241.516 89.952H239.836L238.54 102.192ZM257.644 92.016H252.124C251.74 92.752 251.34 93.456 250.924 94.128C251.212 94.992 251.548 95.872 251.932 96.768C252.348 97.632 252.828 98.496 253.372 99.36C254.332 98.24 255.164 97.072 255.868 95.856C256.572 94.608 257.164 93.328 257.644 92.016ZM246.364 99.888L244.3 97.824L243.34 106.416C244.78 105.84 246.108 105.2 247.324 104.496C248.54 103.76 249.644 102.96 250.636 102.096C250.188 101.328 249.772 100.576 249.388 99.84C249.004 99.104 248.652 98.384 248.332 97.68C247.724 98.416 247.068 99.152 246.364 99.888ZM232.3 119.088H233.932L235.324 105.936H233.644L232.3 119.088ZM236.764 119.088H238.396L239.788 105.936H238.156L236.764 119.088ZM259.18 115.2L257.692 129.216H243.676L245.5 111.552H255.868C257.18 111.552 258.092 111.904 258.604 112.608C259.116 113.28 259.308 114.144 259.18 115.2ZM247.9 125.28H254.236L255.244 115.536H248.908L247.9 125.28ZM269.058 127.44H264.978L278.658 88.56H282.738L269.058 127.44Z" fill="black" fill-opacity="0.8"/>
<path d="M299.96 97.56C301.86 97.56 303.54 97.95 305 98.73C306.46 99.51 307.59 100.62 308.39 102.06C309.21 103.48 309.62 105.14 309.62 107.04C309.62 107.8 309.54 108.64 309.38 109.56C308.82 112.82 307.45 115.3 305.27 117C303.11 118.68 300.45 119.52 297.29 119.52H291.08L294.89 97.56H299.96ZM307.52 109.32C307.66 108.56 307.73 107.8 307.73 107.04C307.73 105.44 307.4 104.05 306.74 102.87C306.1 101.67 305.16 100.75 303.92 100.11C302.68 99.45 301.22 99.12 299.54 99.12H296.39L293.12 117.93H297.23C299.99 117.93 302.27 117.2 304.07 115.74C305.89 114.28 307.04 112.14 307.52 109.32ZM318.631 118.23C320.531 118.23 322.021 117.38 323.101 115.68L324.331 116.55C323.711 117.63 322.881 118.44 321.841 118.98C320.821 119.54 319.701 119.82 318.481 119.82C316.621 119.82 315.131 119.22 314.011 118.02C312.891 116.8 312.331 115.18 312.331 113.16C312.331 112.52 312.391 111.86 312.511 111.18C312.791 109.54 313.321 108.15 314.101 107.01C314.901 105.87 315.861 105.02 316.981 104.46C318.101 103.88 319.281 103.59 320.521 103.59C321.961 103.59 323.091 103.96 323.911 104.7C324.731 105.44 325.141 106.43 325.141 107.67C325.141 109.15 324.501 110.25 323.221 110.97C321.941 111.69 319.911 112.05 317.131 112.05C316.591 112.05 315.601 112.01 314.161 111.93C314.101 112.35 314.071 112.75 314.071 113.13C314.071 114.73 314.481 115.98 315.301 116.88C316.121 117.78 317.231 118.23 318.631 118.23ZM320.431 105.15C319.031 105.15 317.781 105.6 316.681 106.5C315.581 107.38 314.821 108.71 314.401 110.49C315.381 110.57 316.401 110.61 317.461 110.61C319.501 110.61 321.011 110.38 321.991 109.92C322.971 109.44 323.461 108.69 323.461 107.67C323.461 106.89 323.201 106.28 322.681 105.84C322.161 105.38 321.411 105.15 320.431 105.15ZM337.676 115.92C337.476 117.14 336.906 118.09 335.966 118.77C335.046 119.47 333.896 119.82 332.516 119.82C330.956 119.82 329.646 119.41 328.586 118.59C327.546 117.77 326.946 116.7 326.786 115.38L328.166 114.75C328.366 115.87 328.856 116.74 329.636 117.36C330.416 117.96 331.376 118.26 332.516 118.26C333.416 118.26 334.176 118.05 334.796 117.63C335.416 117.21 335.796 116.61 335.936 115.83C335.976 115.59 335.996 115.43 335.996 115.35C335.996 114.85 335.846 114.42 335.546 114.06C335.246 113.68 334.876 113.37 334.436 113.13C334.016 112.87 333.426 112.57 332.666 112.23C331.786 111.81 331.086 111.45 330.566 111.15C330.046 110.83 329.596 110.42 329.216 109.92C328.856 109.4 328.676 108.78 328.676 108.06C328.676 107.12 328.906 106.31 329.366 105.63C329.846 104.95 330.466 104.44 331.226 104.1C332.006 103.76 332.846 103.59 333.746 103.59C335.086 103.59 336.206 103.94 337.106 104.64C338.006 105.34 338.516 106.21 338.636 107.25L337.256 107.88C337.116 107.08 336.716 106.43 336.056 105.93C335.396 105.41 334.596 105.15 333.656 105.15C332.756 105.15 331.996 105.39 331.376 105.87C330.756 106.35 330.446 107.01 330.446 107.85C330.446 108.33 330.586 108.75 330.866 109.11C331.166 109.47 331.516 109.77 331.916 110.01C332.336 110.23 332.936 110.52 333.716 110.88C334.576 111.26 335.276 111.62 335.816 111.96C336.356 112.28 336.816 112.7 337.196 113.22C337.576 113.72 337.766 114.34 337.766 115.08C337.766 115.34 337.736 115.62 337.676 115.92ZM345.282 100.47C344.942 100.47 344.652 100.35 344.412 100.11C344.172 99.85 344.052 99.55 344.052 99.21C344.052 98.85 344.172 98.55 344.412 98.31C344.652 98.05 344.942 97.92 345.282 97.92C345.622 97.92 345.912 98.05 346.152 98.31C346.412 98.55 346.542 98.85 346.542 99.21C346.542 99.55 346.422 99.85 346.182 100.11C345.942 100.35 345.642 100.47 345.282 100.47ZM342.582 119.52H340.902L343.632 103.92H345.312L342.582 119.52ZM363.273 103.89L360.513 119.64C360.073 122.18 359.143 124.03 357.723 125.19C356.303 126.35 354.713 126.93 352.953 126.93C351.393 126.93 350.043 126.51 348.903 125.67C347.783 124.83 347.123 123.74 346.923 122.4L348.303 121.77C348.603 122.89 349.173 123.76 350.013 124.38C350.853 125.02 351.873 125.34 353.073 125.34C354.493 125.34 355.723 124.87 356.763 123.93C357.803 122.99 358.503 121.5 358.863 119.46L359.343 116.79C358.703 117.85 357.923 118.62 357.003 119.1C356.083 119.58 355.133 119.82 354.153 119.82C353.013 119.82 351.983 119.54 351.063 118.98C350.163 118.44 349.453 117.66 348.933 116.64C348.413 115.6 348.153 114.4 348.153 113.04C348.153 112.42 348.213 111.77 348.333 111.09C348.613 109.49 349.133 108.13 349.893 107.01C350.673 105.87 351.593 105.02 352.653 104.46C353.713 103.88 354.813 103.59 355.953 103.59C357.233 103.59 358.313 103.95 359.193 104.67C360.093 105.37 360.683 106.35 360.963 107.61C361.203 106.71 361.473 105.47 361.773 103.89H363.273ZM360.153 112.11C360.273 111.45 360.333 110.83 360.333 110.25C360.333 108.57 359.903 107.31 359.043 106.47C358.203 105.63 357.153 105.21 355.893 105.21C354.493 105.21 353.253 105.73 352.173 106.77C351.113 107.79 350.413 109.27 350.073 111.21C349.973 111.73 349.923 112.33 349.923 113.01C349.923 114.63 350.323 115.91 351.123 116.85C351.943 117.77 353.023 118.23 354.363 118.23C355.643 118.23 356.833 117.76 357.933 116.82C359.053 115.86 359.793 114.29 360.153 112.11ZM374.729 103.59C376.189 103.59 377.359 104.04 378.239 104.94C379.139 105.82 379.589 107.08 379.589 108.72C379.589 109.16 379.539 109.71 379.439 110.37L377.819 119.52H376.139L377.699 110.55C377.799 109.95 377.849 109.44 377.849 109.02C377.849 107.78 377.529 106.84 376.889 106.2C376.269 105.54 375.409 105.21 374.309 105.21C373.069 105.21 371.949 105.63 370.949 106.47C369.969 107.31 369.339 108.53 369.059 110.13L367.409 119.52H365.759L368.489 103.89H369.929L369.539 106.53C370.119 105.57 370.859 104.84 371.759 104.34C372.659 103.84 373.649 103.59 374.729 103.59ZM404.884 114.48C404.584 116.14 403.824 117.46 402.604 118.44C401.344 119.36 399.784 119.82 397.924 119.82C396.544 119.82 395.304 119.55 394.204 119.01C393.104 118.47 392.224 117.74 391.564 116.82C390.904 115.88 390.504 114.83 390.364 113.67L391.894 112.95C392.134 114.51 392.804 115.77 393.904 116.73C395.004 117.69 396.364 118.17 397.984 118.17C399.364 118.17 400.504 117.83 401.404 117.15C402.304 116.45 402.864 115.51 403.084 114.33C403.124 114.15 403.144 113.89 403.144 113.55C403.144 112.77 402.924 112.11 402.484 111.57C402.064 111.01 401.544 110.55 400.924 110.19C400.324 109.81 399.484 109.36 398.404 108.84C397.244 108.28 396.314 107.79 395.614 107.37C394.914 106.93 394.324 106.38 393.844 105.72C393.364 105.04 393.124 104.22 393.124 103.26C393.124 102.92 393.154 102.57 393.214 102.21C393.594 100.29 394.524 98.94 396.004 98.16C397.084 97.54 398.364 97.23 399.844 97.23C401.164 97.23 402.304 97.48 403.264 97.98C404.244 98.46 404.994 99.09 405.514 99.87C406.054 100.65 406.344 101.47 406.384 102.33L404.854 103.05C404.814 102.29 404.584 101.59 404.164 100.95C403.744 100.31 403.164 99.8 402.424 99.42C401.684 99.04 400.814 98.85 399.814 98.85C398.614 98.85 397.574 99.14 396.694 99.72C395.814 100.28 395.274 101.13 395.074 102.27C395.034 102.59 395.014 102.83 395.014 102.99C395.014 103.71 395.214 104.34 395.614 104.88C396.034 105.42 396.534 105.87 397.114 106.23C397.714 106.59 398.534 107.01 399.574 107.49C400.754 108.03 401.704 108.53 402.424 108.99C403.144 109.43 403.754 110.01 404.254 110.73C404.754 111.43 405.004 112.29 405.004 113.31C405.004 113.53 404.964 113.92 404.884 114.48ZM416.881 105.36H412.531L410.851 114.9C410.771 115.46 410.731 115.83 410.731 116.01C410.731 117.49 411.421 118.23 412.801 118.23C413.521 118.23 414.191 118 414.811 117.54L415.351 118.95C414.531 119.53 413.601 119.82 412.561 119.82C411.541 119.82 410.691 119.55 410.011 119.01C409.351 118.47 409.021 117.58 409.021 116.34C409.021 115.88 409.061 115.42 409.141 114.96L410.821 105.36H408.271L408.541 103.89H411.091L411.841 99.57H413.551L412.771 103.89H417.121L416.881 105.36ZM426.359 103.59C426.899 103.59 427.359 103.68 427.739 103.86C428.119 104.02 428.399 104.23 428.579 104.49L427.799 105.81C427.439 105.41 426.869 105.21 426.089 105.21C425.049 105.21 424.109 105.62 423.269 106.44C422.429 107.24 421.839 108.44 421.499 110.04L419.849 119.52H418.199L420.929 103.89H422.369C422.209 105.09 422.079 105.96 421.979 106.5C422.519 105.52 423.169 104.79 423.929 104.31C424.689 103.83 425.499 103.59 426.359 103.59ZM443.675 103.89L440.945 119.52H439.505C439.685 118.54 439.825 117.53 439.925 116.49C439.305 117.65 438.515 118.49 437.555 119.01C436.615 119.55 435.625 119.82 434.585 119.82C433.445 119.82 432.415 119.54 431.495 118.98C430.595 118.44 429.885 117.66 429.365 116.64C428.845 115.6 428.585 114.4 428.585 113.04C428.585 112.42 428.645 111.77 428.765 111.09C429.045 109.49 429.565 108.13 430.325 107.01C431.105 105.87 432.025 105.02 433.085 104.46C434.145 103.88 435.245 103.59 436.385 103.59C437.665 103.59 438.745 103.95 439.625 104.67C440.525 105.37 441.115 106.35 441.395 107.61C441.795 105.95 442.075 104.71 442.235 103.89H443.675ZM434.795 118.23C436.175 118.23 437.385 117.73 438.425 116.73C439.485 115.71 440.205 114.13 440.585 111.99C440.685 111.47 440.735 110.88 440.735 110.22C440.735 108.56 440.305 107.31 439.445 106.47C438.605 105.63 437.565 105.21 436.325 105.21C434.925 105.21 433.685 105.73 432.605 106.77C431.545 107.79 430.845 109.27 430.505 111.21C430.405 111.73 430.355 112.33 430.355 113.01C430.355 114.63 430.755 115.91 431.555 116.85C432.375 117.77 433.455 118.23 434.795 118.23ZM455.222 105.36H450.872L449.192 114.9C449.112 115.46 449.072 115.83 449.072 116.01C449.072 117.49 449.762 118.23 451.142 118.23C451.862 118.23 452.532 118 453.152 117.54L453.692 118.95C452.872 119.53 451.942 119.82 450.902 119.82C449.882 119.82 449.032 119.55 448.352 119.01C447.692 118.47 447.362 117.58 447.362 116.34C447.362 115.88 447.402 115.42 447.482 114.96L449.162 105.36H446.612L446.882 103.89H449.432L450.182 99.57H451.892L451.112 103.89H455.462L455.222 105.36ZM462.878 118.23C464.778 118.23 466.268 117.38 467.348 115.68L468.578 116.55C467.958 117.63 467.128 118.44 466.088 118.98C465.068 119.54 463.948 119.82 462.728 119.82C460.868 119.82 459.378 119.22 458.258 118.02C457.138 116.8 456.578 115.18 456.578 113.16C456.578 112.52 456.638 111.86 456.758 111.18C457.038 109.54 457.568 108.15 458.348 107.01C459.148 105.87 460.108 105.02 461.228 104.46C462.348 103.88 463.528 103.59 464.768 103.59C466.208 103.59 467.338 103.96 468.158 104.7C468.978 105.44 469.388 106.43 469.388 107.67C469.388 109.15 468.748 110.25 467.468 110.97C466.188 111.69 464.158 112.05 461.378 112.05C460.838 112.05 459.848 112.01 458.408 111.93C458.348 112.35 458.318 112.75 458.318 113.13C458.318 114.73 458.728 115.98 459.548 116.88C460.368 117.78 461.478 118.23 462.878 118.23ZM464.678 105.15C463.278 105.15 462.028 105.6 460.928 106.5C459.828 107.38 459.068 108.71 458.648 110.49C459.628 110.57 460.648 110.61 461.708 110.61C463.748 110.61 465.258 110.38 466.238 109.92C467.218 109.44 467.708 108.69 467.708 107.67C467.708 106.89 467.448 106.28 466.928 105.84C466.408 105.38 465.658 105.15 464.678 105.15ZM486.91 103.89L484.15 119.64C483.71 122.18 482.78 124.03 481.36 125.19C479.94 126.35 478.35 126.93 476.59 126.93C475.03 126.93 473.68 126.51 472.54 125.67C471.42 124.83 470.76 123.74 470.56 122.4L471.94 121.77C472.24 122.89 472.81 123.76 473.65 124.38C474.49 125.02 475.51 125.34 476.71 125.34C478.13 125.34 479.36 124.87 480.4 123.93C481.44 122.99 482.14 121.5 482.5 119.46L482.98 116.79C482.34 117.85 481.56 118.62 480.64 119.1C479.72 119.58 478.77 119.82 477.79 119.82C476.65 119.82 475.62 119.54 474.7 118.98C473.8 118.44 473.09 117.66 472.57 116.64C472.05 115.6 471.79 114.4 471.79 113.04C471.79 112.42 471.85 111.77 471.97 111.09C472.25 109.49 472.77 108.13 473.53 107.01C474.31 105.87 475.23 105.02 476.29 104.46C477.35 103.88 478.45 103.59 479.59 103.59C480.87 103.59 481.95 103.95 482.83 104.67C483.73 105.37 484.32 106.35 484.6 107.61C484.84 106.71 485.11 105.47 485.41 103.89H486.91ZM483.79 112.11C483.91 111.45 483.97 110.83 483.97 110.25C483.97 108.57 483.54 107.31 482.68 106.47C481.84 105.63 480.79 105.21 479.53 105.21C478.13 105.21 476.89 105.73 475.81 106.77C474.75 107.79 474.05 109.27 473.71 111.21C473.61 111.73 473.56 112.33 473.56 113.01C473.56 114.63 473.96 115.91 474.76 116.85C475.58 117.77 476.66 118.23 478 118.23C479.28 118.23 480.47 117.76 481.57 116.82C482.69 115.86 483.43 114.29 483.79 112.11ZM501.793 103.92H503.713L493.063 122.85C492.283 124.23 491.463 125.25 490.603 125.91C489.763 126.59 488.793 126.93 487.693 126.93C486.693 126.93 485.843 126.66 485.143 126.12L485.953 124.74C486.453 125.14 487.043 125.34 487.723 125.34C488.423 125.34 489.083 125.09 489.703 124.59C490.323 124.11 490.973 123.3 491.653 122.16L493.153 119.58L489.553 103.92H491.413L494.383 117.51L501.793 103.92Z" fill="black" fill-opacity="0.7"/>
<rect x="369.5" y="297.5" width="447" height="447" rx="223.5" fill="#F8FFF4"/>
<rect x="369.5" y="297.5" width="447" height="447" rx="223.5" stroke="black"/>
<path d="M581.352 518.912C574.109 517.941 568.099 516.187 563.32 513.648C562.051 514.88 560.333 515.981 558.168 516.952C556.003 517.96 553.165 518.968 549.656 519.976L548.48 517.344C551.653 516.448 554.192 515.608 556.096 514.824C558.037 514.04 559.605 513.144 560.8 512.136C558.112 510.419 555.723 508.365 553.632 505.976L555.648 504.184C557.776 506.611 560.091 508.608 562.592 510.176C563.264 509.168 563.768 507.992 564.104 506.648C564.44 505.304 564.664 503.68 564.776 501.776H553.408V480.944H564.888V474.784H551.28V472.208H581.8V474.784H567.52V480.944H578.776V501.776H567.408C567.333 503.979 567.109 505.864 566.736 507.432C566.363 508.963 565.784 510.325 565 511.52C569.405 513.797 575.099 515.328 582.08 516.112L581.352 518.912ZM541.704 476.408C540.472 481.635 539.24 485.853 538.008 489.064H547.584V513.816H535.656V494.72C534.349 497.483 532.949 499.984 531.456 502.224L529.608 499.872C531.699 496.773 533.528 493.208 535.096 489.176C536.701 485.107 537.989 480.851 538.96 476.408H531.736V473.608H548.984V476.408H541.704ZM564.888 490.128V483.52H556.096V490.128H564.888ZM576.256 490.128V483.52H567.52V490.128H576.256ZM544.952 491.92H538.288V510.96H544.952V491.92ZM556.096 492.648V499.2H564.888V497.52V492.648H556.096ZM567.52 499.2H576.256V492.648H567.52V497.8V499.2ZM655.552 498.976V501.832H640.04V520.088H637.128V501.832H619.376V498.976H637.128V484.36H626.488C625.256 487.869 623.931 491.136 622.512 494.16L619.712 493.04C621.168 490.016 622.549 486.712 623.856 483.128C625.163 479.507 626.283 475.885 627.216 472.264L629.848 472.936C629.325 475.176 628.541 478.013 627.496 481.448H637.128V468.792H640.04V481.448H653.48V484.36H640.04V498.976H655.552ZM619.432 470.024C618.2 474.243 616.8 478.144 615.232 481.728V519.92H612.376V487.832C610.211 492.125 607.896 495.859 605.432 499.032L603.92 495.952C606.272 492.741 608.605 488.672 610.92 483.744C613.272 478.816 615.157 473.981 616.576 469.24L619.432 470.024Z" fill="black" fill-opacity="0.84"/>
<path d="M515.08 583.16C515.773 584.333 516.693 586.053 517.84 588.32C518.987 590.587 519.92 592.52 520.64 594.12L518.76 594.96C518.28 593.813 517.52 592.2 516.48 590.12C513.813 591.267 510.56 592.72 506.72 594.48C505.813 594.88 505.133 595.227 504.68 595.52L503.56 593.76C503.987 593.413 504.28 593.107 504.44 592.84C504.6 592.573 504.68 592.253 504.68 591.88V563.56H518.6V581.24H506.56V592.32L511.08 590.28L515.56 588.28C515.027 587.16 514.293 585.733 513.36 584L515.08 583.16ZM523.44 564.24H535.76V587.08C535.76 588.653 535.48 589.773 534.92 590.44C534.387 591.08 533.467 591.4 532.16 591.4C530.853 591.4 529.533 591.32 528.2 591.16L527.84 589.04C529.173 589.253 530.387 589.36 531.48 589.36C532.307 589.36 532.88 589.12 533.2 588.64C533.547 588.16 533.72 587.4 533.72 586.36V566.36H525.48V597.64H523.44V564.24ZM516.64 571.4V565.44H506.56V571.4H516.64ZM506.56 573.28V579.32H516.64V573.28H506.56ZM586.76 569.84V571.88H581.2V592.28C581.2 593.667 581.027 594.693 580.68 595.36C580.333 596.027 579.76 596.48 578.96 596.72C578.187 596.96 577.027 597.08 575.48 597.08C573.773 597.08 572.227 596.987 570.84 596.8L570.44 594.72C572.093 594.933 573.747 595.04 575.4 595.04C576.44 595.04 577.213 594.973 577.72 594.84C578.227 594.707 578.573 594.453 578.76 594.08C578.947 593.707 579.04 593.133 579.04 592.36V571.88H565.88V569.84H579.04V561.4H581.2V569.84H586.76ZM563.56 594.4H552.04V565H563.56V594.4ZM561.6 577.88V567.12H554.04V577.88H561.6ZM573.4 586.32C572.76 585.067 571.787 583.373 570.48 581.24C569.2 579.107 568.2 577.52 567.48 576.48L569.2 575.52C569.893 576.48 570.88 578.027 572.16 580.16C573.467 582.267 574.453 583.96 575.12 585.24L573.4 586.32ZM554.04 579.88V592.32H561.6V579.88H554.04ZM613.96 566.88L610.44 571.84H615.36V594.24C615.36 595.333 615.16 596.093 614.76 596.52C614.387 596.947 613.707 597.173 612.72 597.2C611.6 597.2 610.72 597.16 610.08 597.08L609.76 595.2C610.427 595.333 611.16 595.4 611.96 595.4C612.6 595.4 613.013 595.293 613.2 595.08C613.413 594.867 613.52 594.427 613.52 593.76V587.72H609V595.48H607.36V587.72H602.84C602.707 589.88 602.427 591.707 602 593.2C601.6 594.667 600.96 596.227 600.08 597.88L598.28 597.04C599.107 595.44 599.707 594.04 600.08 592.84C600.48 591.613 600.747 590.213 600.88 588.64C601.04 587.04 601.12 584.853 601.12 582.08V572.72L599.48 574.44L598.2 572.84C599.827 571.213 601.267 569.467 602.52 567.6C603.8 565.707 604.947 563.6 605.96 561.28L607.8 561.84C607.347 562.987 606.827 564.12 606.24 565.24H613.96V566.88ZM616.52 574.72C617.773 573.813 618.733 573.013 619.4 572.32C620.093 571.6 620.6 570.853 620.92 570.08C621.267 569.28 621.533 568.28 621.72 567.08C621.773 566.84 621.827 566.427 621.88 565.84H617.12V564H632.96C632.827 566.613 632.613 568.947 632.32 571C632.187 571.96 632 572.693 631.76 573.2C631.52 573.68 631.133 574.027 630.6 574.24C630.093 574.453 629.347 574.573 628.36 574.6C627.24 574.6 625.973 574.533 624.56 574.4L624.2 572.52C625.507 572.707 626.653 572.8 627.64 572.8C628.307 572.8 628.813 572.747 629.16 572.64C629.507 572.507 629.76 572.293 629.92 572C630.08 571.68 630.227 571.173 630.36 570.48C630.653 568.933 630.84 567.387 630.92 565.84H623.84C623.813 566.373 623.747 566.933 623.64 567.52C623.32 569.387 622.72 570.96 621.84 572.24C620.96 573.493 619.547 574.853 617.6 576.32L616.52 574.72ZM605.24 567.04C604.333 568.613 603.213 570.213 601.88 571.84H608.2L611.6 567.04H605.24ZM607.36 578.92V573.68H602.96V578.92H607.36ZM609 578.92H613.52V573.68H609V578.92ZM634.88 587.72V589.64H627.28V598.04H625.36V589.64H616.64V587.72H625.36V582.12H620.28C619.693 583.8 619.12 585.213 618.56 586.36L616.84 585.68C617.507 584.347 618.107 582.867 618.64 581.24C619.2 579.587 619.653 577.96 620 576.36L621.72 576.76C621.453 578.013 621.16 579.187 620.84 580.28H625.36V575.88H627.28V580.28H633.88V582.12H627.28V587.72H634.88ZM607.36 585.88V580.76H602.96V582.8C602.96 584.24 602.947 585.267 602.92 585.88H607.36ZM609 580.76V585.88H613.52V580.76H609ZM653.48 566.44V574.04C653.48 578.84 653.347 582.573 653.08 585.24C652.84 587.907 652.387 590.16 651.72 592C651.08 593.813 650.067 595.8 648.68 597.96L646.6 596.92C647.96 594.813 648.947 592.947 649.56 591.32C650.2 589.693 650.64 587.627 650.88 585.12C651.147 582.613 651.28 578.987 651.28 574.24V564.36H682.28V566.44H653.48ZM669 579.6V593.64H683V595.72H653.04V593.64H666.76V579.6H655.44V577.44H666.76V568.6H669V577.44H681.04V579.6H669ZM678.84 590.92C677.827 589.8 676.573 588.453 675.08 586.88C673.587 585.28 672.48 584.12 671.76 583.4L673.2 582C674.267 583.067 675.467 584.307 676.8 585.72C678.133 587.107 679.32 588.36 680.36 589.48L678.84 590.92Z" fill="black" fill-opacity="0.78"/>
<path d="M942.079 507.352H944.935V518.272H955.855V521.128H944.935V532.048L942.079 532.104V521.128H931.159V518.272H942.079V507.352Z" fill="black" fill-opacity="0.84"/>
<rect x="1068.5" y="297.5" width="447" height="447" rx="223.5" fill="#F4F4FF"/>
<rect x="1068.5" y="297.5" width="447" height="447" rx="223.5" stroke="black"/>
<path d="M1214.5 489.456C1218.08 483.595 1220.92 476.688 1223.01 468.736L1225.7 469.24C1224.76 472.712 1223.89 475.587 1223.06 477.864H1242.33V480.608L1237.23 491.976L1234.77 490.912L1239.53 480.664H1222C1220.58 484.211 1218.86 487.664 1216.85 491.024L1214.5 489.456ZM1216.34 506.704L1207.38 508.272V520.312H1204.64V508.72C1201.13 509.317 1197.04 509.952 1192.38 510.624L1192.1 507.712C1196.58 507.077 1200.76 506.443 1204.64 505.808V496.008H1194.45V493.152C1196.17 489.456 1197.88 484.901 1199.6 479.488H1192.99V476.632H1200.44C1201.26 473.869 1201.91 471.293 1202.4 468.904L1205.26 469.352C1204.62 472.189 1203.99 474.616 1203.35 476.632H1216.12V479.488H1202.46C1200.66 485.2 1198.98 489.755 1197.42 493.152H1204.64V483.184H1207.38V493.152H1215.67V496.008H1207.38V505.36C1210.18 504.949 1213.17 504.445 1216.34 503.848V506.704ZM1228.89 491.64C1229.3 497.053 1230.74 501.869 1233.2 506.088C1235.7 510.307 1239.25 514.021 1243.84 517.232L1241.88 519.752C1234.53 514.339 1229.8 507.544 1227.71 499.368C1226.67 503.251 1224.93 506.872 1222.5 510.232C1220.11 513.592 1216.92 516.84 1212.93 519.976L1211.08 517.568C1216.31 513.611 1220.11 509.467 1222.5 505.136C1224.93 500.805 1226.16 495.784 1226.2 490.072L1226.26 484.024H1229.06L1228.94 490.128C1228.94 490.8 1228.93 491.304 1228.89 491.64ZM1317.31 518.912C1310.07 517.941 1304.06 516.187 1299.28 513.648C1298.01 514.88 1296.29 515.981 1294.13 516.952C1291.96 517.96 1289.13 518.968 1285.62 519.976L1284.44 517.344C1287.61 516.448 1290.15 515.608 1292.06 514.824C1294 514.04 1295.57 513.144 1296.76 512.136C1294.07 510.419 1291.68 508.365 1289.59 505.976L1291.61 504.184C1293.74 506.611 1296.05 508.608 1298.55 510.176C1299.22 509.168 1299.73 507.992 1300.06 506.648C1300.4 505.304 1300.62 503.68 1300.74 501.776H1289.37V480.944H1300.85V474.784H1287.24V472.208H1317.76V474.784H1303.48V480.944H1314.74V501.776H1303.37C1303.29 503.979 1303.07 505.864 1302.7 507.432C1302.32 508.963 1301.74 510.325 1300.96 511.52C1305.37 513.797 1311.06 515.328 1318.04 516.112L1317.31 518.912ZM1277.66 476.408C1276.43 481.635 1275.2 485.853 1273.97 489.064H1283.54V513.816H1271.62V494.72C1270.31 497.483 1268.91 499.984 1267.42 502.224L1265.57 499.872C1267.66 496.773 1269.49 493.208 1271.06 489.176C1272.66 485.107 1273.95 480.851 1274.92 476.408H1267.7V473.608H1284.94V476.408H1277.66ZM1300.85 490.128V483.52H1292.06V490.128H1300.85ZM1312.22 490.128V483.52H1303.48V490.128H1312.22ZM1280.91 491.92H1274.25V510.96H1280.91V491.92ZM1292.06 492.648V499.2H1300.85V497.52V492.648H1292.06ZM1303.48 499.2H1312.22V492.648H1303.48V497.8V499.2ZM1391.51 498.976V501.832H1376V520.088H1373.09V501.832H1355.34V498.976H1373.09V484.36H1362.45C1361.22 487.869 1359.89 491.136 1358.47 494.16L1355.67 493.04C1357.13 490.016 1358.51 486.712 1359.82 483.128C1361.12 479.507 1362.24 475.885 1363.18 472.264L1365.81 472.936C1365.29 475.176 1364.5 478.013 1363.46 481.448H1373.09V468.792H1376V481.448H1389.44V484.36H1376V498.976H1391.51ZM1355.39 470.024C1354.16 474.243 1352.76 478.144 1351.19 481.728V519.92H1348.34V487.832C1346.17 492.125 1343.86 495.859 1341.39 499.032L1339.88 495.952C1342.23 492.741 1344.57 488.672 1346.88 483.744C1349.23 478.816 1351.12 473.981 1352.54 469.24L1355.39 470.024Z" fill="black" fill-opacity="0.84"/>
<path d="M1219.6 579.48C1221.28 583.107 1223.48 586.053 1226.2 588.32C1228.95 590.587 1232.68 592.56 1237.4 594.24L1236.36 596.36C1231.43 594.547 1227.47 592.32 1224.48 589.68C1221.49 587.04 1219.09 583.64 1217.28 579.48H1210.28V594.6L1216.48 592.04L1220.92 590.2L1221.12 592.44L1218.76 593.36C1214.55 595.04 1211.77 596.173 1210.44 596.76C1209.61 597.053 1208.81 597.467 1208.04 598L1206.96 595.8C1207.39 595.507 1207.69 595.253 1207.88 595.04C1208.07 594.827 1208.16 594.6 1208.16 594.36V579.48H1201.04V577.4H1208.16V561.56H1210.28V577.4H1237.12V579.48H1219.6ZM1233 564.6C1230.47 566.36 1227.39 568.173 1223.76 570.04C1220.16 571.88 1216.8 573.373 1213.68 574.52L1212.88 572.56C1215.89 571.44 1219.17 569.96 1222.72 568.12C1226.29 566.28 1229.37 564.453 1231.96 562.64L1233 564.6ZM1265.52 585.6H1269.36V587.44H1249.12V585.6H1253.56V568.08H1250.16V566.24H1253.56V561.8H1255.48V566.24H1263.68V561.8H1265.52V566.24H1269.16V568.08H1265.52V585.6ZM1271.28 563.96H1283.32V592.76C1283.32 594.387 1283.03 595.52 1282.44 596.16C1281.88 596.827 1280.85 597.173 1279.36 597.2C1278.21 597.2 1276.91 597.133 1275.44 597L1275.04 595C1275.92 595.133 1277.25 595.227 1279.04 595.28C1279.89 595.28 1280.49 595.067 1280.84 594.64C1281.21 594.187 1281.4 593.427 1281.4 592.36V585.12H1273.04C1272.83 587.947 1272.35 590.28 1271.6 592.12C1270.85 593.933 1269.6 595.92 1267.84 598.08L1266.04 596.88C1267.64 594.987 1268.8 593.28 1269.52 591.76C1270.24 590.24 1270.71 588.48 1270.92 586.48C1271.16 584.48 1271.28 581.587 1271.28 577.8V563.96ZM1281.4 573.64V566H1273.2V573.64H1281.4ZM1263.68 572.68V568.08H1255.48V572.68H1263.68ZM1263.68 574.52H1255.48V579.16H1263.68V574.52ZM1281.4 583.16V575.56H1273.2V578.68C1273.2 580.787 1273.17 582.28 1273.12 583.16H1281.4ZM1263.68 580.96H1255.48V585.6H1263.68V580.96ZM1249.44 596.28C1250.56 595.293 1251.71 594.12 1252.88 592.76C1254.05 591.4 1255.08 590.053 1255.96 588.72L1257.6 589.84C1256.67 591.227 1255.6 592.627 1254.4 594.04C1253.2 595.453 1252.05 596.68 1250.96 597.72L1249.44 596.28ZM1262.28 588.76L1266.92 594.28L1265.36 595.44C1263.57 593.227 1262.04 591.373 1260.76 589.88L1262.28 588.76ZM1325.88 566.16C1326.87 567.813 1328.01 569.827 1329.32 572.2C1330.63 574.573 1331.67 576.573 1332.44 578.2L1330.48 579.28C1329.97 578.187 1329.43 577.067 1328.84 575.92L1311.56 577.68L1308.68 578L1308.12 576C1308.65 575.84 1309.07 575.68 1309.36 575.52C1309.65 575.333 1309.95 575.08 1310.24 574.76C1311.28 573.64 1312.59 571.747 1314.16 569.08C1315.76 566.387 1317.17 563.827 1318.4 561.4L1320.36 562.24C1319.16 564.613 1317.79 567.107 1316.24 569.72C1314.69 572.333 1313.32 574.333 1312.12 575.72C1319.77 574.893 1325.03 574.347 1327.88 574.08C1326.33 571.12 1325.04 568.84 1324 567.24L1325.88 566.16ZM1301.08 562.8C1302.04 563.413 1303.36 564.36 1305.04 565.64C1306.75 566.92 1308.07 567.96 1309 568.76L1307.76 570.52C1306.88 569.747 1305.59 568.72 1303.88 567.44C1302.2 566.133 1300.87 565.147 1299.88 564.48L1301.08 562.8ZM1305.36 579.56C1304.24 578.627 1302.88 577.547 1301.28 576.32C1299.68 575.093 1298.43 574.187 1297.52 573.6L1298.72 571.84C1299.63 572.427 1300.87 573.32 1302.44 574.52C1304.01 575.72 1305.4 576.8 1306.6 577.76L1305.36 579.56ZM1312.72 597.88H1310.64V582.04H1329.8V597.92H1327.72V595.52H1312.72V597.88ZM1298.72 596.76C1300.96 592.12 1302.96 587.453 1304.72 582.76L1306.72 583.6C1304.85 588.64 1302.88 593.32 1300.8 597.64L1298.72 596.76ZM1327.72 593.52V584H1312.72V593.52H1327.72ZM1381.64 565.6V567.64H1354.28V577.96C1354.28 580.92 1354.13 583.427 1353.84 585.48C1353.57 587.533 1353.04 589.52 1352.24 591.44C1351.47 593.36 1350.31 595.4 1348.76 597.56L1346.84 596.52C1348.65 594.067 1349.96 591.693 1350.76 589.4C1351.56 587.107 1352.04 584.56 1352.2 581.76L1350.88 582.44C1348.59 583.613 1346.91 584.507 1345.84 585.12L1345.12 583.08L1348.44 581.4L1352.28 579.48V578.52V565.6H1366.16C1366 565.227 1365.87 564.947 1365.76 564.76C1365.07 563.213 1364.61 562.227 1364.4 561.8L1366.56 561.4C1366.67 561.587 1367.13 562.573 1367.96 564.36L1368.52 565.6H1381.64ZM1349.24 577.52C1348.76 576.24 1347.59 573.293 1345.72 568.68L1347.48 568.04L1348.04 569.36C1349.56 572.96 1350.56 575.44 1351.04 576.8L1349.24 577.52ZM1356.64 574.88V572.88H1379.28V574.88L1370.08 581.32V592.76C1370.08 594.413 1369.77 595.573 1369.16 596.24C1368.57 596.907 1367.51 597.253 1365.96 597.28C1364.23 597.333 1362.52 597.253 1360.84 597.04L1360.48 594.96C1362.29 595.227 1363.92 595.36 1365.36 595.36C1366.35 595.36 1367.01 595.133 1367.36 594.68C1367.73 594.2 1367.92 593.4 1367.92 592.28V580.44L1375.84 574.88H1356.64Z" fill="black" fill-opacity="0.78"/>
</svg>
