<svg width="1920" height="1080" viewBox="0 0 1920 1080" fill="none" xmlns="http://www.w3.org/2000/svg">
<rect width="1920" height="1080" fill="#FCFCFC"/>
<path d="M684.2 490.68L689 490.28C689.053 491.827 689.133 492.92 689.24 493.56C689.4 494.147 689.587 494.44 689.8 494.44C690.067 494.44 690.28 494.147 690.44 493.56C690.6 492.973 690.76 492.013 690.92 490.68L692.92 472.44C692.067 472.76 691.213 473.08 690.36 473.4C689.507 473.72 688.653 474.04 687.8 474.36L685.8 467.88C688.467 466.973 691.107 466.013 693.72 465L695.64 446.68H691L691.72 440.04H696.36L698.12 423.96H704.68L703 440.04H706.68L705.96 446.68H702.28L700.68 461.88C701.587 461.453 702.467 461 703.32 460.52L705.56 466.6C703.8 467.56 701.907 468.52 699.88 469.48L697.48 491.72C697.107 495.293 696.173 497.747 694.68 499.08C693.187 500.467 691.587 501.133 689.88 501.08C688.227 500.973 686.867 500.147 685.8 498.6C684.787 497.107 684.253 494.467 684.2 490.68ZM702.6 489.24L700.12 482.84C700.76 482.573 701.4 482.333 702.04 482.12C702.68 481.853 703.347 481.56 704.04 481.24L709.48 429.72L709.32 429.16C711.187 428.627 713.293 427.88 715.64 426.92C718.04 425.907 720.067 424.947 721.72 424.04L724.52 429.96C721.8 431.347 718.92 432.68 715.88 433.96L711.24 477.96C712.147 477.48 713.027 477 713.88 476.52C714.787 475.987 715.667 475.453 716.52 474.92L719.24 481C716.787 482.6 714.067 484.093 711.08 485.48C708.147 486.867 705.32 488.12 702.6 489.24ZM717.16 501.4L724.68 428.68H737.64C739.613 428.68 741.08 429.213 742.04 430.28C743 431.293 743.373 432.787 743.16 434.76L738.68 478.04C738.36 481.187 737.267 483.507 735.4 485C733.533 486.44 731.293 487.16 728.68 487.16H727.24L726.76 480.28H727.32C728.44 480.28 729.507 479.987 730.52 479.4C731.533 478.813 732.12 477.693 732.28 476.04L736.6 435.32H730.68L723.8 501.4H717.16ZM754.904 501.4L759.464 458.2C758.184 459.693 756.851 461.08 755.464 462.36L751.064 457.08C753.998 454.52 756.584 451.693 758.824 448.6C761.064 445.507 762.984 442.147 764.584 438.52H757.224L757.944 431.72H767.304C768.051 429.32 768.744 426.787 769.384 424.12L775.944 425.32C775.464 427.453 774.878 429.587 774.184 431.72H786.504L785.784 438.52H771.704C770.424 441.453 769.011 444.28 767.464 447H777.624C779.438 447 780.824 447.533 781.784 448.6C782.744 449.613 783.118 451.053 782.904 452.92L778.664 492.2C778.291 495.4 777.518 497.747 776.344 499.24C775.171 500.787 773.464 501.56 771.224 501.56C769.411 501.56 767.864 500.867 766.584 499.48C765.304 498.093 764.531 495.96 764.264 493.08L769.304 492.36C769.571 494.227 770.051 495.16 770.744 495.16C771.544 495.16 772.051 493.96 772.264 491.56L773.304 481.56H763.544L761.464 501.4H754.904ZM810.104 435.16L801.864 457C803.251 459.453 804.211 462.067 804.744 464.84C805.278 467.613 805.384 470.333 805.064 473C804.744 475.613 803.971 478.013 802.744 480.2C801.518 482.333 799.891 484.067 797.864 485.4C795.838 486.68 793.384 487.32 790.504 487.32L788.984 502.2H782.184L789.704 428.12H805.464C807.651 428.12 809.171 428.76 810.024 430.04C810.931 431.267 810.958 432.973 810.104 435.16ZM795.704 434.92L791.144 480.68C793.171 480.52 794.824 479.747 796.104 478.36C797.438 476.973 798.318 475.187 798.744 473C799.171 470.813 799.118 468.387 798.584 465.72C798.104 463 797.064 460.253 795.464 457.48L803.224 434.92H795.704ZM765.784 460.76H775.544L776.264 453.32H766.584L765.784 460.76ZM764.184 475.48H773.944L774.904 466.84H765.144L764.184 475.48ZM817.049 477.72L814.729 471.48C816.649 470.627 818.649 469.613 820.729 468.44C822.809 467.267 824.835 465.933 826.809 464.44C827.022 463.053 827.209 461.64 827.369 460.2C827.582 458.76 827.769 457.267 827.929 455.72L823.369 457.24C822.889 454.733 822.275 452.2 821.529 449.64C820.782 447.08 819.929 444.467 818.969 441.8L825.049 439.72C825.742 441.64 826.355 443.507 826.889 445.32C827.475 447.133 828.009 448.947 828.489 450.76L830.649 430.28H849.769L850.409 424.36H857.049L856.409 430.36H874.969L874.329 437.24L837.129 437.16L835.449 452.04C834.702 458.973 833.849 465.32 832.889 471.08C831.929 476.84 830.542 482.227 828.729 487.24C826.969 492.253 824.409 497.16 821.049 501.96L814.969 497.72C817.742 493.827 819.929 489.933 821.529 486.04C823.129 482.093 824.382 477.853 825.289 473.32C822.569 475.08 819.822 476.547 817.049 477.72ZM836.329 499.8V499.64H830.009L830.729 492.52H837.129L840.569 459.24H847.289L843.769 492.52H849.609L854.009 450.12H839.209L840.009 443H871.929L871.129 450.12H860.889L859.129 466.84H868.009L867.289 473.48H858.489L856.489 492.52H868.169L867.369 499.64H842.969V499.8H836.329ZM884.713 502.12L878.793 497.96C882.313 493.373 885.353 488.573 887.913 483.56C890.526 478.493 892.713 472.92 894.473 466.84C896.233 460.76 897.593 453.827 898.553 446.04L900.073 433.8H890.233L890.953 426.52H925.833C928.073 426.52 929.726 427.267 930.793 428.76C931.86 430.253 931.86 431.987 930.793 433.96L922.953 448.76H930.713C932.74 448.76 934.18 449.4 935.033 450.68C935.94 451.96 936.046 453.613 935.353 455.64C933.806 460.493 931.833 465.16 929.433 469.64C927.086 474.12 924.313 478.333 921.113 482.28C923.3 484.733 925.646 487.053 928.153 489.24C930.66 491.427 933.326 493.533 936.153 495.56L931.593 501.88C928.66 499.48 925.913 497.133 923.353 494.84C920.846 492.493 918.526 490.12 916.393 487.72C913.833 490.44 911.033 492.973 907.993 495.32C905.006 497.72 901.78 499.933 898.313 501.96L894.073 496.52C897.54 494.44 900.74 492.227 903.673 489.88C906.66 487.48 909.406 484.947 911.913 482.28C909.886 479.56 908.073 476.733 906.473 473.8C904.926 470.813 903.62 467.64 902.553 464.28C900.74 471.907 898.366 478.813 895.433 485C892.553 491.187 888.98 496.893 884.713 502.12ZM911.593 456.12L923.033 433.8H907.273L905.673 446.28C905.513 447.453 905.353 448.6 905.193 449.72C906.206 454.947 907.673 459.8 909.593 464.28C911.513 468.707 913.86 472.813 916.633 476.6C919.033 473.453 921.166 470.12 923.033 466.6C924.9 463.08 926.526 459.4 927.913 455.56H919.353L917.673 458.68L911.593 456.12ZM1001.5 475.48L1000.78 482.12H949.577L950.297 475.48H959.817L963.577 439.64H955.497L956.217 433H964.297L965.257 423.88H972.537L971.577 433H989.737L990.697 423.88H997.977L997.017 433H1004.38L1003.66 439.64H996.297L992.537 475.48H1001.5ZM970.137 446.52H988.297L989.017 439.64H970.857L970.137 446.52ZM968.697 460.6H986.857L987.657 452.84H969.497L968.697 460.6ZM967.097 475.48H985.257L986.137 466.92H967.977L967.097 475.48ZM951.977 501.8L948.537 495.88C952.004 494.12 955.204 492.253 958.137 490.28C961.124 488.253 963.817 486.227 966.217 484.2L970.617 489.4C968.057 491.48 965.257 493.533 962.217 495.56C959.177 497.64 955.764 499.72 951.977 501.8ZM982.857 484.44C985.524 486.573 988.164 488.52 990.777 490.28C993.444 492.04 996.324 493.827 999.417 495.64L995.337 501.32C992.137 499.56 989.231 497.773 986.617 495.96C984.057 494.2 981.364 492.2 978.537 489.96L982.857 484.44ZM1062.36 435.4C1064.12 439.24 1065.67 443.267 1067 447.48C1068.39 451.693 1069.3 455.453 1069.72 458.76L1063.64 460.6C1063.32 458.787 1062.84 456.68 1062.2 454.28C1057.62 455.187 1053 456.013 1048.36 456.76C1043.72 457.453 1039 458.147 1034.2 458.84L1033.32 452.2C1034.39 452.04 1035.43 451.907 1036.44 451.8C1039.38 447.267 1041.86 442.653 1043.88 437.96C1045.96 433.267 1047.7 428.573 1049.08 423.88L1055.8 425.88C1054.36 430.307 1052.74 434.6 1050.92 438.76C1049.11 442.867 1046.98 446.813 1044.52 450.6C1047.19 450.173 1049.83 449.72 1052.44 449.24C1055.06 448.76 1057.64 448.253 1060.2 447.72C1059.67 446.067 1059.08 444.413 1058.44 442.76C1057.86 441.053 1057.22 439.427 1056.52 437.88L1062.36 435.4ZM1035.32 439.72L1029 443.32C1027.72 440.493 1026.39 437.853 1025 435.4C1023.62 432.893 1022.15 430.573 1020.6 428.44L1026.68 424.76C1028.23 426.893 1029.72 429.213 1031.16 431.72C1032.66 434.173 1034.04 436.84 1035.32 439.72ZM1032.04 460.84L1025.8 464.28C1024.63 461.613 1023.32 459.053 1021.88 456.6C1020.5 454.093 1018.95 451.72 1017.24 449.48L1023.24 445.8C1025 448.093 1026.6 450.493 1028.04 453C1029.54 455.453 1030.87 458.067 1032.04 460.84ZM1064.76 473.24L1061.56 501.16H1032.12L1036.04 466.68H1058.6C1061.06 466.68 1062.76 467.293 1063.72 468.52C1064.68 469.747 1065.03 471.32 1064.76 473.24ZM1017.32 501.72L1011.16 497.56C1014.26 493.187 1016.82 488.653 1018.84 483.96C1020.87 479.213 1022.6 474.253 1024.04 469.08L1030.84 471.32C1029.35 476.76 1027.51 482.04 1025.32 487.16C1023.14 492.227 1020.47 497.08 1017.32 501.72ZM1039.96 494.28H1055.24L1057.64 473.56H1042.28L1039.96 494.28ZM1079.39 478.92L1077.07 472.68C1078.99 471.88 1080.96 470.893 1082.99 469.72C1085.01 468.547 1087.01 467.24 1088.99 465.8C1089.2 464.467 1089.39 463.107 1089.55 461.72C1089.71 460.28 1089.89 458.813 1090.11 457.32L1085.71 458.84C1085.23 456.333 1084.61 453.8 1083.87 451.24C1083.12 448.68 1082.27 446.067 1081.31 443.4L1087.39 441.32C1088.03 443.133 1088.61 444.92 1089.15 446.68C1089.73 448.44 1090.24 450.173 1090.67 451.88L1092.83 431.8H1111.95L1112.75 424.36H1119.87L1119.15 431.88H1137.15L1136.51 438.76L1099.31 438.68L1097.79 452.04C1097.04 458.973 1096.19 465.32 1095.23 471.08C1094.27 476.84 1092.88 482.227 1091.07 487.24C1089.31 492.253 1086.75 497.16 1083.39 501.96L1077.31 497.72C1079.92 494.04 1082 490.333 1083.55 486.6C1085.15 482.867 1086.43 478.893 1087.39 474.68C1084.72 476.387 1082.05 477.8 1079.39 478.92ZM1118.83 489.16C1118.61 491.347 1118.11 493.373 1117.31 495.24C1116.56 497.16 1115.49 498.68 1114.11 499.8C1112.77 500.973 1111.07 501.56 1108.99 501.56C1106.21 501.56 1104.03 500.547 1102.43 498.52C1100.83 496.547 1099.79 493.773 1099.31 490.2L1105.47 488.68C1105.95 492.52 1107.01 494.44 1108.67 494.44C1109.57 494.44 1110.27 493.987 1110.75 493.08C1111.28 492.12 1111.65 490.547 1111.87 488.36L1114.43 463.4L1124.51 452.36H1102.11L1102.83 445.72H1127.87C1130 445.72 1131.49 446.173 1132.35 447.08C1133.2 447.987 1133.55 449.053 1133.39 450.28C1133.23 451.453 1132.64 452.493 1131.63 453.4L1121.23 465.4L1118.83 489.16ZM1148.73 501.48L1143.05 496.6C1145.82 493.72 1148.3 490.733 1150.49 487.64C1152.73 484.547 1154.68 481.16 1156.33 477.48C1157.98 473.8 1159.4 469.693 1160.57 465.16C1161.8 460.627 1162.78 455.48 1163.53 449.72L1164.73 440.44H1150.01L1150.81 432.92H1172.65L1173.61 423.96H1180.97L1180.01 432.92H1201.61L1200.81 440.44H1172.01L1170.81 449.8C1170.7 450.44 1170.62 451.08 1170.57 451.72H1188.49C1190.68 451.72 1192.3 452.36 1193.37 453.64C1194.44 454.867 1194.84 456.413 1194.57 458.28L1190.41 488.44C1190.09 490.84 1189.42 493.027 1188.41 495C1187.45 496.973 1186.12 498.547 1184.41 499.72C1182.76 500.893 1180.68 501.48 1178.17 501.48C1174.6 501.48 1171.82 500.413 1169.85 498.28C1167.88 496.147 1166.62 493.267 1166.09 489.64L1172.41 488.28C1173.1 492.493 1174.86 494.6 1177.69 494.6C1180.78 494.6 1182.68 492.12 1183.37 487.16L1187.21 458.76H1169.45C1168.28 465.213 1166.73 470.973 1164.81 476.04C1162.94 481.053 1160.68 485.64 1158.01 489.8C1155.34 493.907 1152.25 497.8 1148.73 501.48ZM1255.75 471.96C1256.98 474.893 1258.1 477.933 1259.11 481.08C1260.13 484.227 1260.98 487.32 1261.67 490.36C1262.42 493.347 1262.93 496.093 1263.19 498.6L1256.63 500.6C1256.26 497.933 1255.62 494.813 1254.71 491.24C1249.97 492.573 1245.19 493.853 1240.39 495.08C1235.59 496.36 1230.74 497.587 1225.83 498.76L1224.15 491.88C1225.59 491.56 1226.98 491.213 1228.31 490.84C1231.14 486.627 1233.57 482.28 1235.59 477.8C1237.67 473.32 1239.38 469 1240.71 464.84H1228.15L1228.95 457.8H1243.11L1244.55 443.72H1231.91L1232.71 436.68H1245.27L1246.63 423.96H1253.59L1252.23 436.68H1265.75L1265.03 443.72H1251.51L1250.07 457.8H1266.07L1265.35 464.84H1248.07C1246.79 468.68 1245.33 472.627 1243.67 476.68C1242.02 480.733 1240.13 484.653 1237.99 488.44C1240.5 487.8 1242.98 487.133 1245.43 486.44C1247.89 485.747 1250.31 485.027 1252.71 484.28C1252.23 482.627 1251.7 481 1251.11 479.4C1250.58 477.8 1250.02 476.227 1249.43 474.68L1255.75 471.96ZM1229.03 440.28L1222.63 443.48C1221.57 440.6 1220.42 437.907 1219.19 435.4C1218.02 432.893 1216.74 430.573 1215.35 428.44L1221.59 425.16C1222.98 427.293 1224.29 429.64 1225.51 432.2C1226.79 434.707 1227.97 437.4 1229.03 440.28ZM1227.11 461.16L1220.87 464.28C1219.86 461.613 1218.74 459.027 1217.51 456.52C1216.29 454.013 1214.9 451.613 1213.35 449.32L1219.35 445.96C1220.9 448.307 1222.31 450.733 1223.59 453.24C1224.93 455.747 1226.1 458.387 1227.11 461.16ZM1214.15 501.32L1208.07 497.48C1210.9 493 1213.22 488.413 1215.03 483.72C1216.9 479.027 1218.47 474.093 1219.75 468.92L1226.47 471C1225.14 476.387 1223.49 481.64 1221.51 486.76C1219.54 491.827 1217.09 496.68 1214.15 501.32ZM1299.42 501.4L1293.98 496.68C1296.11 493.693 1297.93 490.573 1299.42 487.32C1300.97 484.013 1302.27 480.36 1303.34 476.36C1304.41 472.36 1305.34 467.827 1306.14 462.76H1301.02L1301.74 455.56H1307.18C1307.5 453.16 1307.79 450.573 1308.06 447.8L1309.58 433.96H1304.54L1305.26 426.76H1334.22L1333.42 433.96H1328.94L1326.7 455.56H1332.62L1331.82 462.76H1325.9L1321.82 501.4H1315.26L1319.34 462.76H1312.78C1311.93 468.413 1310.91 473.507 1309.74 478.04C1308.57 482.52 1307.13 486.68 1305.42 490.52C1303.77 494.307 1301.77 497.933 1299.42 501.4ZM1284.94 497.32H1278.38L1281.98 463.4L1277.74 460.2C1280.19 456.147 1282.33 452.013 1284.14 447.8C1285.95 443.587 1287.53 439.267 1288.86 434.84H1282.46L1283.26 427.64H1303.26L1302.46 434.84H1295.26C1293.5 441.187 1291.34 447.213 1288.78 452.92H1293.9C1296.09 452.92 1297.58 453.427 1298.38 454.44C1299.18 455.453 1299.47 456.787 1299.26 458.44L1295.66 492.12H1285.5L1284.94 497.32ZM1314.78 447.72C1314.46 450.547 1314.14 453.16 1313.82 455.56H1320.14L1322.38 433.96H1316.3L1314.78 447.72ZM1286.06 486.36H1289.74L1292.7 458.68H1288.94L1286.06 486.36ZM1355.08 444.44H1347.96L1349.32 431.08H1370.04L1370.76 423.96H1378.12L1377.4 431.08H1392.2C1394.5 431.08 1396.15 431.693 1397.16 432.92C1398.18 434.093 1398.6 435.64 1398.44 437.56L1397.64 444.44H1390.52L1391.16 437.8H1355.8L1355.08 444.44ZM1350.44 458.12L1347.48 452.36C1350.74 451.133 1353.78 449.56 1356.6 447.64C1359.43 445.667 1361.86 443.373 1363.88 440.76L1368.84 444.84C1366.39 447.72 1363.56 450.307 1360.36 452.6C1357.22 454.84 1353.91 456.68 1350.44 458.12ZM1395.88 453.24L1391.48 458.52C1388.82 455.693 1386.12 453.213 1383.4 451.08C1380.68 448.947 1377.99 447.133 1375.32 445.64L1379.56 440.76C1382.18 442.253 1384.9 444.067 1387.72 446.2C1390.55 448.333 1393.27 450.68 1395.88 453.24ZM1345 502.2L1341.08 496.44C1344.34 493.987 1347.22 491.48 1349.72 488.92C1352.28 486.36 1354.47 483.533 1356.28 480.44C1358.1 477.293 1359.54 473.667 1360.6 469.56H1349.56L1350.28 462.76H1362.04L1363.56 453.56H1370.76L1369.32 462.76H1379.56C1384.04 462.76 1385.99 464.947 1385.4 469.32L1382.68 488.68C1382.47 490.493 1382.52 491.88 1382.84 492.84C1383.22 493.747 1383.99 494.2 1385.16 494.2C1386.23 494.2 1387.16 493.453 1387.96 491.96C1388.82 490.467 1389.64 487.667 1390.44 483.56L1396.36 485.72C1395.14 491.427 1393.56 495.453 1391.64 497.8C1389.72 500.2 1387.11 501.4 1383.8 501.4C1380.87 501.4 1378.6 500.307 1377 498.12C1375.46 495.987 1374.95 493 1375.48 489.16L1378.2 469.56H1367.96C1366.95 473.88 1365.54 477.933 1363.72 481.72C1361.91 485.453 1359.48 489.027 1356.44 492.44C1353.46 495.8 1349.64 499.053 1345 502.2Z" fill="black" fill-opacity="0.8"/>
<path d="M554.068 563.68C545.718 563.68 539.428 561.286 535.197 556.499C530.966 551.712 528.517 544.308 527.849 534.288C527.181 524.268 527.96 511.409 530.187 495.711C533.638 471.774 538.537 454.351 544.883 443.44C551.34 432.529 560.136 427.074 571.269 427.074C579.842 427.074 586.188 429.468 590.307 434.255C594.538 439.042 596.931 446.502 597.488 456.633C598.156 466.653 597.432 479.679 595.317 495.711C592.2 519.314 587.412 536.57 580.955 547.481C574.498 558.28 565.535 563.68 554.068 563.68ZM555.571 548.65C559.802 548.65 563.253 546.813 565.925 543.139C568.708 539.465 571.046 533.731 572.939 525.938C574.832 518.033 576.724 507.958 578.617 495.711C581.512 477.007 582.402 463.424 581.289 454.963C580.176 446.39 576.502 442.104 570.267 442.104C566.148 442.104 562.696 443.997 559.913 447.782C557.13 451.456 554.736 457.245 552.732 465.15C550.728 473.055 548.78 483.242 546.887 495.711C544.104 514.192 543.324 527.664 544.549 536.125C545.774 544.475 549.448 548.65 555.571 548.65ZM658.436 546.145L654.428 562.01H599.485C600.821 552.547 602.825 544.308 605.497 537.294C608.281 530.169 611.398 523.878 614.849 518.423C618.412 512.968 622.03 508.069 625.704 503.727C629.49 499.274 633.108 495.043 636.559 491.035C640.122 486.916 643.239 482.685 645.911 478.343C648.695 474.001 650.81 469.214 652.257 463.981C653.259 460.307 653.593 456.8 653.259 453.46C653.037 450.009 652.09 447.225 650.42 445.11C648.862 442.883 646.357 441.77 642.905 441.77C639.231 441.77 636.058 443.162 633.386 445.945C630.714 448.728 628.543 453.126 626.873 459.138L612.177 455.798C613.625 450.454 615.74 445.611 618.523 441.269C621.307 436.816 624.869 433.309 629.211 430.748C633.665 428.187 639.009 426.963 645.243 427.074C652.146 427.185 657.546 429.134 661.442 432.919C665.339 436.704 667.844 441.436 668.957 447.114C670.182 452.681 670.071 458.414 668.623 464.315C666.842 471.329 664.337 477.619 661.108 483.186C657.88 488.641 654.261 493.763 650.253 498.55C646.245 503.226 642.182 507.958 638.062 512.745C634.054 517.421 630.38 522.431 627.04 527.775C623.7 533.119 621.084 539.242 619.191 546.145H658.436Z" fill="black" fill-opacity="0.8"/>
<path d="M684.44 529.08H705L704.64 531.2H695.52L690.76 558.36H688.4L693.16 531.2H684.08L684.44 529.08ZM716.044 537.12C717.991 537.12 719.551 537.72 720.724 538.92C721.924 540.093 722.524 541.773 722.524 543.96C722.524 544.547 722.458 545.28 722.324 546.16L720.164 558.36H717.924L720.004 546.4C720.138 545.6 720.204 544.92 720.204 544.36C720.204 542.707 719.778 541.453 718.924 540.6C718.098 539.72 716.951 539.28 715.484 539.28C713.884 539.28 712.431 539.813 711.124 540.88C709.844 541.92 708.991 543.44 708.564 545.44L706.284 558.36H704.084L709.404 527.92H711.644L709.404 540.68C710.178 539.507 711.138 538.627 712.284 538.04C713.431 537.427 714.684 537.12 716.044 537.12ZM735.629 556.64C738.162 556.64 740.149 555.507 741.589 553.24L743.229 554.4C742.402 555.84 741.296 556.92 739.909 557.64C738.549 558.387 737.056 558.76 735.429 558.76C732.949 558.76 730.962 557.96 729.469 556.36C727.976 554.733 727.229 552.573 727.229 549.88C727.229 549.027 727.309 548.147 727.469 547.24C727.842 545.053 728.549 543.2 729.589 541.68C730.656 540.16 731.936 539.027 733.429 538.28C734.922 537.507 736.496 537.12 738.149 537.12C740.069 537.12 741.576 537.613 742.669 538.6C743.762 539.587 744.309 540.907 744.309 542.56C744.309 544.533 743.456 546 741.749 546.96C740.042 547.92 737.336 548.4 733.629 548.4C732.909 548.4 731.589 548.347 729.669 548.24C729.589 548.8 729.549 549.333 729.549 549.84C729.549 551.973 730.096 553.64 731.189 554.84C732.282 556.04 733.762 556.64 735.629 556.64ZM738.029 539.2C736.162 539.2 734.496 539.8 733.029 541C731.562 542.173 730.549 543.947 729.989 546.32C731.296 546.427 732.656 546.48 734.069 546.48C736.789 546.48 738.802 546.173 740.109 545.56C741.416 544.92 742.069 543.92 742.069 542.56C742.069 541.52 741.722 540.707 741.029 540.12C740.336 539.507 739.336 539.2 738.029 539.2ZM747.752 547.2C748.125 545.12 748.832 543.32 749.872 541.8C750.939 540.28 752.219 539.12 753.712 538.32C755.205 537.52 756.765 537.12 758.392 537.12C759.992 537.12 761.419 537.52 762.672 538.32C763.925 539.12 764.885 540.227 765.552 541.64C766.245 543.053 766.592 544.653 766.592 546.44C766.592 547.347 766.525 548.147 766.392 548.84C766.019 550.893 765.299 552.667 764.232 554.16C763.192 555.653 761.925 556.787 760.432 557.56C758.965 558.36 757.432 558.76 755.832 558.76C754.205 558.76 752.765 558.36 751.512 557.56C750.259 556.787 749.285 555.707 748.592 554.32C747.899 552.907 747.552 551.32 747.552 549.56C747.552 548.867 747.619 548.08 747.752 547.2ZM750.072 547.4C749.939 548.253 749.872 548.987 749.872 549.6C749.872 551.707 750.419 553.413 751.512 554.72C752.632 556 754.125 556.64 755.992 556.64C757.939 556.64 759.659 555.947 761.152 554.56C762.645 553.147 763.619 551.16 764.072 548.6C764.205 547.747 764.272 547.013 764.272 546.4C764.272 544.267 763.725 542.547 762.632 541.24C761.539 539.907 760.072 539.24 758.232 539.24C756.979 539.24 755.792 539.56 754.672 540.2C753.552 540.813 752.579 541.747 751.752 543C750.952 544.227 750.392 545.693 750.072 547.4ZM783.479 539.8C782.972 539.453 782.265 539.28 781.359 539.28C779.865 539.28 778.519 539.827 777.319 540.92C776.145 542.013 775.332 543.627 774.879 545.76L772.679 558.36H770.479L774.119 537.52H776.039L775.519 541.04C776.239 539.733 777.119 538.76 778.159 538.12C779.199 537.453 780.332 537.12 781.559 537.12C782.492 537.12 783.252 537.293 783.839 537.64L783.479 539.8ZM801.719 537.56H804.239L790.039 562.8C788.999 564.64 787.905 566 786.759 566.88C785.639 567.787 784.345 568.24 782.879 568.24C781.545 568.24 780.412 567.88 779.479 567.16L780.599 565.32C781.239 565.853 782.012 566.12 782.919 566.12C783.879 566.12 784.772 565.787 785.599 565.12C786.425 564.48 787.279 563.4 788.159 561.88L790.159 558.44L785.359 537.56H787.839L791.799 555.68L801.719 537.56ZM837.252 538.04C836.905 539.987 836.052 541.6 834.692 542.88C833.332 544.133 831.612 544.987 829.532 545.44L836.372 558.36H833.572L827.092 545.8H826.532H820.532L818.372 558.36H816.012L821.092 529.08H828.372C830.185 529.08 831.772 529.4 833.132 530.04C834.492 530.653 835.545 531.52 836.292 532.64C837.039 533.76 837.412 535.04 837.412 536.48C837.412 536.827 837.359 537.347 837.252 538.04ZM834.772 537.8C834.852 537.4 834.892 537 834.892 536.6C834.892 534.973 834.279 533.667 833.052 532.68C831.825 531.667 830.092 531.16 827.852 531.16H823.092L820.932 543.68H826.172C828.572 543.68 830.519 543.173 832.012 542.16C833.505 541.147 834.425 539.693 834.772 537.8ZM848.332 556.64C850.866 556.64 852.852 555.507 854.292 553.24L855.932 554.4C855.106 555.84 853.999 556.92 852.612 557.64C851.252 558.387 849.759 558.76 848.132 558.76C845.652 558.76 843.666 557.96 842.172 556.36C840.679 554.733 839.932 552.573 839.932 549.88C839.932 549.027 840.012 548.147 840.172 547.24C840.546 545.053 841.252 543.2 842.292 541.68C843.359 540.16 844.639 539.027 846.132 538.28C847.626 537.507 849.199 537.12 850.852 537.12C852.772 537.12 854.279 537.613 855.372 538.6C856.466 539.587 857.012 540.907 857.012 542.56C857.012 544.533 856.159 546 854.452 546.96C852.746 547.92 850.039 548.4 846.332 548.4C845.612 548.4 844.292 548.347 842.372 548.24C842.292 548.8 842.252 549.333 842.252 549.84C842.252 551.973 842.799 553.64 843.892 554.84C844.986 556.04 846.466 556.64 848.332 556.64ZM850.732 539.2C848.866 539.2 847.199 539.8 845.732 541C844.266 542.173 843.252 543.947 842.692 546.32C843.999 546.427 845.359 546.48 846.772 546.48C849.492 546.48 851.506 546.173 852.812 545.56C854.119 544.92 854.772 543.92 854.772 542.56C854.772 541.52 854.426 540.707 853.732 540.12C853.039 539.507 852.039 539.2 850.732 539.2ZM873.726 553.56C873.459 555.187 872.699 556.453 871.446 557.36C870.219 558.293 868.686 558.76 866.846 558.76C864.766 558.76 863.019 558.213 861.606 557.12C860.219 556.027 859.419 554.6 859.206 552.84L861.046 552C861.312 553.493 861.966 554.653 863.006 555.48C864.046 556.28 865.326 556.68 866.846 556.68C868.046 556.68 869.059 556.4 869.886 555.84C870.712 555.28 871.219 554.48 871.406 553.44C871.459 553.12 871.486 552.907 871.486 552.8C871.486 552.133 871.286 551.56 870.886 551.08C870.486 550.573 869.992 550.16 869.406 549.84C868.846 549.493 868.059 549.093 867.046 548.64C865.872 548.08 864.939 547.6 864.246 547.2C863.552 546.773 862.952 546.227 862.446 545.56C861.966 544.867 861.726 544.04 861.726 543.08C861.726 541.827 862.032 540.747 862.646 539.84C863.286 538.933 864.112 538.253 865.126 537.8C866.166 537.347 867.286 537.12 868.486 537.12C870.272 537.12 871.766 537.587 872.966 538.52C874.166 539.453 874.846 540.613 875.006 542L873.166 542.84C872.979 541.773 872.446 540.907 871.566 540.24C870.686 539.547 869.619 539.2 868.366 539.2C867.166 539.2 866.152 539.52 865.326 540.16C864.499 540.8 864.086 541.68 864.086 542.8C864.086 543.44 864.272 544 864.646 544.48C865.046 544.96 865.512 545.36 866.046 545.68C866.606 545.973 867.406 546.36 868.446 546.84C869.592 547.347 870.526 547.827 871.246 548.28C871.966 548.707 872.579 549.267 873.086 549.96C873.592 550.627 873.846 551.453 873.846 552.44C873.846 552.787 873.806 553.16 873.726 553.56ZM886.867 556.64C889.4 556.64 891.387 555.507 892.827 553.24L894.467 554.4C893.64 555.84 892.533 556.92 891.147 557.64C889.787 558.387 888.293 558.76 886.667 558.76C884.187 558.76 882.2 557.96 880.707 556.36C879.213 554.733 878.467 552.573 878.467 549.88C878.467 549.027 878.547 548.147 878.707 547.24C879.08 545.053 879.787 543.2 880.827 541.68C881.893 540.16 883.173 539.027 884.667 538.28C886.16 537.507 887.733 537.12 889.387 537.12C891.307 537.12 892.813 537.613 893.907 538.6C895 539.587 895.547 540.907 895.547 542.56C895.547 544.533 894.693 546 892.987 546.96C891.28 547.92 888.573 548.4 884.867 548.4C884.147 548.4 882.827 548.347 880.907 548.24C880.827 548.8 880.787 549.333 880.787 549.84C880.787 551.973 881.333 553.64 882.427 554.84C883.52 556.04 885 556.64 886.867 556.64ZM889.267 539.2C887.4 539.2 885.733 539.8 884.267 541C882.8 542.173 881.787 543.947 881.227 546.32C882.533 546.427 883.893 546.48 885.307 546.48C888.027 546.48 890.04 546.173 891.347 545.56C892.653 544.92 893.307 543.92 893.307 542.56C893.307 541.52 892.96 540.707 892.267 540.12C891.573 539.507 890.573 539.2 889.267 539.2ZM918.869 537.52L915.229 558.36H913.309C913.549 557.053 913.736 555.707 913.869 554.32C913.043 555.867 911.989 556.987 910.709 557.68C909.456 558.4 908.136 558.76 906.749 558.76C905.229 558.76 903.856 558.387 902.629 557.64C901.429 556.92 900.483 555.88 899.789 554.52C899.096 553.133 898.749 551.533 898.749 549.72C898.749 548.893 898.829 548.027 898.989 547.12C899.363 544.987 900.056 543.173 901.069 541.68C902.109 540.16 903.336 539.027 904.749 538.28C906.163 537.507 907.629 537.12 909.149 537.12C910.856 537.12 912.296 537.6 913.469 538.56C914.669 539.493 915.456 540.8 915.829 542.48C916.363 540.267 916.736 538.613 916.949 537.52H918.869ZM907.029 556.64C908.869 556.64 910.483 555.973 911.869 554.64C913.283 553.28 914.243 551.173 914.749 548.32C914.883 547.627 914.949 546.84 914.949 545.96C914.949 543.747 914.376 542.08 913.229 540.96C912.109 539.84 910.723 539.28 909.069 539.28C907.203 539.28 905.549 539.973 904.109 541.36C902.696 542.72 901.763 544.693 901.309 547.28C901.176 547.973 901.109 548.773 901.109 549.68C901.109 551.84 901.643 553.547 902.709 554.8C903.803 556.027 905.243 556.64 907.029 556.64ZM933.065 537.12C933.785 537.12 934.398 537.24 934.905 537.48C935.412 537.693 935.785 537.973 936.025 538.32L934.985 540.08C934.505 539.547 933.745 539.28 932.705 539.28C931.318 539.28 930.065 539.827 928.945 540.92C927.825 541.987 927.038 543.587 926.585 545.72L924.385 558.36H922.185L925.825 537.52H927.745C927.532 539.12 927.358 540.28 927.225 541C927.945 539.693 928.812 538.72 929.825 538.08C930.838 537.44 931.918 537.12 933.065 537.12ZM944.634 556.6C946.847 556.6 948.594 555.627 949.874 553.68L951.554 554.92C950.674 556.307 949.62 557.293 948.394 557.88C947.194 558.467 945.914 558.76 944.554 558.76C942.847 558.76 941.354 558.36 940.074 557.56C938.794 556.787 937.807 555.707 937.114 554.32C936.42 552.907 936.074 551.307 936.074 549.52C936.074 548.693 936.154 547.867 936.314 547.04C936.66 544.96 937.354 543.173 938.394 541.68C939.434 540.187 940.674 539.053 942.114 538.28C943.58 537.507 945.1 537.12 946.674 537.12C948.354 537.12 949.807 537.547 951.034 538.4C952.287 539.227 953.087 540.347 953.434 541.76L951.554 542.64C951.26 541.6 950.66 540.787 949.754 540.2C948.874 539.587 947.807 539.28 946.554 539.28C944.687 539.28 943.007 539.973 941.514 541.36C940.02 542.72 939.06 544.667 938.634 547.2C938.5 548.08 938.434 548.84 938.434 549.48C938.434 551.613 938.98 553.333 940.074 554.64C941.194 555.947 942.714 556.6 944.634 556.6ZM967.016 537.12C968.963 537.12 970.523 537.72 971.696 538.92C972.896 540.093 973.496 541.773 973.496 543.96C973.496 544.547 973.43 545.28 973.296 546.16L971.136 558.36H968.896L970.976 546.4C971.11 545.6 971.176 544.92 971.176 544.36C971.176 542.707 970.75 541.453 969.896 540.6C969.07 539.72 967.923 539.28 966.456 539.28C964.856 539.28 963.403 539.813 962.096 540.88C960.816 541.92 959.963 543.44 959.536 545.44L957.256 558.36H955.056L960.376 527.92H962.616L960.376 540.68C961.15 539.507 962.11 538.627 963.256 538.04C964.403 537.427 965.656 537.12 967.016 537.12Z" fill="black" fill-opacity="0.7"/>
</svg>
