<svg width="24" height="17" viewBox="0 0 24 17" fill="none" xmlns="http://www.w3.org/2000/svg">
<g clip-path="url(#clip0_1308_13)">
<g clip-path="url(#clip1_1308_13)">
<path d="M0.00537109 0.0244751H23.9814V16.3173H0.00537109V0.0244751Z" fill="#DE2910"/>
<path d="M4.48135 2.79481L4.95602 4.28129H6.49602L5.25202 5.20201L5.72535 6.69121L4.48135 5.77185L3.23735 6.69121L3.71202 5.20201L2.46802 4.28129H4.00802L4.48135 2.79481ZM8.49202 2.01825L8.46268 2.53233L8.93202 2.72137L8.43868 2.85057L8.40668 3.36465L8.13602 2.92537L7.64668 3.05457L7.97068 2.65881L7.70002 2.22361L8.16935 2.41129L8.49202 2.01689V2.01825ZM10.2214 3.68425L9.98935 4.14257L10.3494 4.50977L9.84935 4.42545L9.61602 4.88377L9.53868 4.37241L9.03868 4.29081L9.49202 4.05689L9.41202 3.54825L9.76935 3.91409L10.2214 3.68425ZM9.70402 5.77185L9.85735 6.26281H10.364L9.95468 6.56473L10.108 7.05433L9.69868 6.74969L9.29068 7.05161L9.44535 6.56473L9.03735 6.26281H9.54402L9.70402 5.77185ZM8.49068 7.34129L8.45735 7.85537L8.92668 8.04577L8.43735 8.17361L8.40535 8.68769L8.13335 8.25249L7.64268 8.38033L7.96535 7.98457L7.69468 7.54937L8.16668 7.73705L8.48935 7.34265L8.49068 7.34129Z" fill="#FFDE00"/>
</g>
</g>
<defs>
<clipPath id="clip0_1308_13">
<rect width="24" height="17" fill="white"/>
</clipPath>
<clipPath id="clip1_1308_13">
<rect width="24" height="16.32" rx="5" fill="white"/>
</clipPath>
</defs>
</svg>
