<svg width="24" height="17" viewBox="0 0 24 17" fill="none" xmlns="http://www.w3.org/2000/svg">
<g clip-path="url(#clip0_1298_6)">
<g clip-path="url(#clip1_1298_6)">
<path d="M21.28 0.404755H14V5.34285L21.28 0.404755ZM10 0.404755H2.72L10 5.34285V0.404755ZM24 5.82856V2.18571L18.72 5.74761H24V5.82856ZM0 2.18571V5.74761H5.28L0 2.18571ZM0 11.1714V14.7333L5.28 11.1714H0ZM2.72 16.5952H10V11.6571L2.72 16.5952ZM24 14.8143V11.2524H18.72L24 14.8143ZM14 16.5952H21.28L14 11.6571V16.5952Z" fill="#1B2F67"/>
<path d="M8 5.82856L0 0.404755V1.61904L6.24 5.82856H8ZM16 11.1714L24 16.5952V15.3809L17.76 11.1714H16ZM16 5.82856L24 0.404755H22.24L14.24 5.82856H16ZM8 11.1714L0 16.5952H1.76L9.76 11.1714H8Z" fill="#C31C2C"/>
<path d="M0 10.119V11.1714H5.28L0 14.8143V16.5952L8 11.1714H9.76L1.76 16.5952H2.64L9.92 11.6571V16.5952H10.72V10.119H0ZM16 5.82856H14.24L22.24 0.404755H21.36L14.08 5.34285V0.404755H13.28V6.88094H24V5.82856H18.72L24 2.18571V0.404755L16 5.82856ZM10.8 0.404755H10V5.34285L2.72 0.404755H0L8 5.82856H6.24L0 1.61904V2.18571L5.28 5.74761H0V6.88094H10.8V0.404755ZM13.2 16.5952H14V11.6571L21.28 16.5952H24L16 11.1714H17.76L24 15.3809V14.8143L18.72 11.2524H24V10.119H13.2V16.5952Z" fill="white"/>
<path d="M13.2 0.404755H10.8V6.88094H0V10.119H10.8V16.5952H13.2V10.119H24V6.88094H13.2V0.404755Z" fill="#C31C2C"/>
</g>
</g>
<defs>
<clipPath id="clip0_1298_6">
<rect width="24" height="17" fill="white"/>
</clipPath>
<clipPath id="clip1_1298_6">
<rect y="0.404755" width="24" height="16.1905" rx="5" fill="white"/>
</clipPath>
</defs>
</svg>
