<svg width="34" height="33" viewBox="0 0 34 33" fill="none" xmlns="http://www.w3.org/2000/svg">
<g clip-path="url(#clip0_1294_1564)">
<rect x="17" y="-3" width="27" height="27" rx="7.5" transform="rotate(45 17 -3)" fill="url(#paint0_linear_1294_1564)"/>
<rect x="17" y="-2.29289" width="26" height="26" rx="7" transform="rotate(45 17 -2.29289)" stroke="white" stroke-opacity="0.21"/>
<path d="M13.439 23.439C12.935 23.439 12.571 23.369 12.347 23.229C12.123 23.075 11.983 22.872 11.927 22.62C11.871 22.368 11.843 22.109 11.843 21.843V10.356C11.843 10.076 11.864 9.817 11.906 9.579C11.962 9.34099 12.102 9.14499 12.326 8.991C12.55 8.83699 12.921 8.75999 13.439 8.75999C13.971 8.75999 14.342 8.83699 14.552 8.991C14.776 9.14499 14.909 9.34099 14.951 9.579C15.007 9.817 15.035 10.076 15.035 10.356V17.667C15.035 19.0812 15.035 19.7883 15.4744 20.2277C15.9137 20.667 16.6208 20.667 18.035 20.667H20.789C21.027 20.667 21.251 20.688 21.461 20.73C21.671 20.772 21.839 20.891 21.965 21.087C22.105 21.283 22.175 21.605 22.175 22.053C22.175 22.487 22.105 22.809 21.965 23.019C21.825 23.215 21.65 23.334 21.44 23.376C21.244 23.418 21.027 23.439 20.789 23.439H13.439Z" fill="white" fill-opacity="0.9"/>
<path d="M22.6303 14.7C22.4863 14.7 22.3743 14.68 22.2943 14.64C22.2223 14.6 22.1703 14.544 22.1383 14.472C22.1143 14.392 22.1023 14.3 22.1023 14.196V9.66C22.1023 9.548 22.1143 9.456 22.1383 9.384C22.1703 9.312 22.2223 9.256 22.2943 9.216C22.3743 9.176 22.4863 9.156 22.6303 9.156C22.7823 9.156 22.8943 9.18 22.9663 9.228C23.0383 9.268 23.0863 9.328 23.1103 9.408C23.1343 9.48 23.1463 9.568 23.1463 9.672V14.184C23.1463 14.288 23.1343 14.38 23.1103 14.46C23.0863 14.54 23.0383 14.6 22.9663 14.64C22.8943 14.68 22.7823 14.7 22.6303 14.7ZM20.3503 12.444C20.2463 12.444 20.1583 12.436 20.0863 12.42C20.0143 12.396 19.9543 12.348 19.9063 12.276C19.8663 12.196 19.8463 12.084 19.8463 11.94C19.8463 11.78 19.8663 11.664 19.9063 11.592C19.9463 11.52 20.0063 11.472 20.0863 11.448C20.1663 11.424 20.2543 11.412 20.3503 11.412H24.8983C25.0023 11.412 25.0903 11.424 25.1623 11.448C25.2423 11.472 25.2983 11.524 25.3303 11.604C25.3703 11.676 25.3903 11.788 25.3903 11.94C25.3903 12.092 25.3703 12.204 25.3303 12.276C25.2903 12.348 25.2343 12.396 25.1623 12.42C25.0903 12.436 25.0023 12.444 24.8983 12.444H20.3503Z" fill="white" fill-opacity="0.9"/>
</g>
<defs>
<linearGradient id="paint0_linear_1294_1564" x1="20.5355" y1="1.24264" x2="41.3952" y2="22.1023" gradientUnits="userSpaceOnUse">
<stop stop-color="white" stop-opacity="0.08"/>
<stop offset="1" stop-color="white" stop-opacity="0"/>
</linearGradient>
<clipPath id="clip0_1294_1564">
<rect width="33" height="32.25" fill="white" transform="translate(0.5)"/>
</clipPath>
</defs>
</svg>
