<svg width="34" height="33" viewBox="0 0 34 33" fill="none" xmlns="http://www.w3.org/2000/svg">
<rect x="17" y="-2.625" width="27" height="27" rx="7.5" transform="rotate(45 17 -2.625)" fill="#0B0B0F" fill-opacity="0.82"/>
<path d="M13.439 23.814C12.935 23.814 12.571 23.744 12.347 23.604C12.123 23.45 11.983 23.247 11.927 22.995C11.871 22.743 11.843 22.484 11.843 22.218V10.731C11.843 10.451 11.864 10.192 11.906 9.954C11.962 9.71599 12.102 9.51999 12.326 9.366C12.55 9.21199 12.921 9.13499 13.439 9.13499C13.971 9.13499 14.342 9.21199 14.552 9.366C14.776 9.51999 14.909 9.71599 14.951 9.954C15.007 10.192 15.035 10.451 15.035 10.731V18.042C15.035 19.4562 15.035 20.1633 15.4744 20.6027C15.9137 21.042 16.6208 21.042 18.035 21.042H20.789C21.027 21.042 21.251 21.063 21.461 21.105C21.671 21.147 21.839 21.266 21.965 21.462C22.105 21.658 22.175 21.98 22.175 22.428C22.175 22.862 22.105 23.184 21.965 23.394C21.825 23.59 21.65 23.709 21.44 23.751C21.244 23.793 21.027 23.814 20.789 23.814H13.439Z" fill="white" fill-opacity="0.9"/>
<path d="M22.6303 15.075C22.4863 15.075 22.3743 15.055 22.2943 15.015C22.2223 14.975 22.1703 14.919 22.1383 14.847C22.1143 14.767 22.1023 14.675 22.1023 14.571V10.035C22.1023 9.923 22.1143 9.831 22.1383 9.759C22.1703 9.687 22.2223 9.631 22.2943 9.591C22.3743 9.551 22.4863 9.531 22.6303 9.531C22.7823 9.531 22.8943 9.555 22.9663 9.603C23.0383 9.643 23.0863 9.703 23.1103 9.783C23.1343 9.855 23.1463 9.943 23.1463 10.047V14.559C23.1463 14.663 23.1343 14.755 23.1103 14.835C23.0863 14.915 23.0383 14.975 22.9663 15.015C22.8943 15.055 22.7823 15.075 22.6303 15.075ZM20.3503 12.819C20.2463 12.819 20.1583 12.811 20.0863 12.795C20.0143 12.771 19.9543 12.723 19.9063 12.651C19.8663 12.571 19.8463 12.459 19.8463 12.315C19.8463 12.155 19.8663 12.039 19.9063 11.967C19.9463 11.895 20.0063 11.847 20.0863 11.823C20.1663 11.799 20.2543 11.787 20.3503 11.787H24.8983C25.0023 11.787 25.0903 11.799 25.1623 11.823C25.2423 11.847 25.2983 11.899 25.3303 11.979C25.3703 12.051 25.3903 12.163 25.3903 12.315C25.3903 12.467 25.3703 12.579 25.3303 12.651C25.2903 12.723 25.2343 12.771 25.1623 12.795C25.0903 12.811 25.0023 12.819 24.8983 12.819H20.3503Z" fill="white" fill-opacity="0.9"/>
</svg>
