<svg width="63" height="19" viewBox="0 0 63 19" fill="none" xmlns="http://www.w3.org/2000/svg">
<path d="M1.67945 14.2C1.41279 14.2 1.21279 14.16 1.07945 14.08C0.94612 14.0133 0.852787 13.9133 0.799453 13.78C0.759453 13.6467 0.739453 13.4867 0.739453 13.3V1.16C0.739453 0.96 0.759453 0.793333 0.799453 0.659999C0.839453 0.526666 0.919453 0.426666 1.03945 0.359999C1.17279 0.279999 1.37279 0.24 1.63945 0.24C1.90612 0.24 2.09945 0.279999 2.21945 0.359999C2.35279 0.426666 2.43945 0.526666 2.47945 0.659999C2.51945 0.793333 2.53945 0.953333 2.53945 1.14V12.52H9.23945C9.41279 12.52 9.55945 12.54 9.67945 12.58C9.79945 12.62 9.89279 12.7 9.95945 12.82C10.0395 12.94 10.0795 13.12 10.0795 13.36C10.0795 13.5867 10.0461 13.7667 9.97945 13.9C9.91279 14.02 9.81945 14.1 9.69945 14.14C9.57945 14.18 9.43279 14.2 9.25945 14.2H1.67945ZM11.5895 18.08C11.2695 17.9467 11.0828 17.7933 11.0295 17.62C10.9761 17.4467 11.0228 17.2067 11.1695 16.9L16.4695 5C16.6161 4.69333 16.7695 4.50667 16.9295 4.44C17.1028 4.36 17.3428 4.38667 17.6495 4.52C17.9695 4.66667 18.1495 4.82667 18.1895 5C18.2428 5.17333 18.2028 5.40667 18.0695 5.7L12.7295 17.66C12.5961 17.9667 12.4495 18.1467 12.2895 18.2C12.1295 18.2533 11.8961 18.2133 11.5895 18.08ZM13.5695 12.92L8.98945 5.86C8.81612 5.59333 8.74945 5.37333 8.78945 5.2C8.82945 5.01333 8.98279 4.83333 9.24945 4.66C9.54279 4.47333 9.77612 4.40667 9.94945 4.46C10.1361 4.5 10.3228 4.65333 10.5095 4.92L14.3895 11.02L13.5695 12.92ZM20.6615 14.18C20.4082 14.18 20.2148 14.14 20.0815 14.06C19.9615 13.9933 19.8815 13.8933 19.8415 13.76C19.8148 13.6267 19.8015 13.4667 19.8015 13.28V5.34C19.8015 5.16667 19.8215 5.02 19.8615 4.9C19.9015 4.78 19.9815 4.68667 20.1015 4.62C20.2348 4.55333 20.4282 4.52 20.6815 4.52C20.8815 4.52 21.0348 4.54667 21.1415 4.6C21.2615 4.64 21.3415 4.7 21.3815 4.78C21.4348 4.86 21.4682 4.94667 21.4815 5.04C21.4948 5.13333 21.5015 5.22 21.5015 5.3L21.4615 6.22C21.5948 5.99333 21.7615 5.78 21.9615 5.58C22.1615 5.36667 22.3948 5.18 22.6615 5.02C22.9282 4.84667 23.2148 4.71333 23.5215 4.62C23.8415 4.52667 24.1815 4.48 24.5415 4.48C25.1282 4.48 25.6682 4.58667 26.1615 4.8C26.6548 5 27.0748 5.3 27.4215 5.7C27.7815 6.08667 28.0548 6.55333 28.2415 7.1C28.4415 7.64667 28.5415 8.26667 28.5415 8.96V13.3C28.5415 13.4867 28.5215 13.6467 28.4815 13.78C28.4548 13.9133 28.3748 14.0133 28.2415 14.08C28.1215 14.1467 27.9348 14.18 27.6815 14.18C27.4148 14.18 27.2148 14.14 27.0815 14.06C26.9615 13.9933 26.8815 13.8933 26.8415 13.76C26.8015 13.6267 26.7815 13.4667 26.7815 13.28V8.94C26.7815 8.38 26.6882 7.89333 26.5015 7.48C26.3148 7.06667 26.0348 6.74667 25.6615 6.52C25.2882 6.28 24.8148 6.16 24.2415 6.16C23.6948 6.16 23.2148 6.28 22.8015 6.52C22.4015 6.74667 22.0882 7.06667 21.8615 7.48C21.6482 7.89333 21.5415 8.38 21.5415 8.94V13.3C21.5415 13.4867 21.5215 13.6467 21.4815 13.78C21.4415 13.9133 21.3548 14.0133 21.2215 14.08C21.1015 14.1467 20.9148 14.18 20.6615 14.18ZM35.0943 14.2C34.4943 14.2 33.921 14.08 33.3743 13.84C32.8276 13.6 32.3476 13.26 31.9343 12.82C31.5343 12.38 31.2143 11.8667 30.9743 11.28C30.7476 10.68 30.6343 10.0267 30.6343 9.32C30.6343 8.62667 30.7476 7.98667 30.9743 7.4C31.2143 6.81333 31.5343 6.30667 31.9343 5.88C32.3476 5.44 32.8276 5.1 33.3743 4.86C33.921 4.62 34.4943 4.5 35.0943 4.5C35.7476 4.5 36.3343 4.62 36.8543 4.86C37.3876 5.1 37.841 5.44 38.2143 5.88C38.601 6.30667 38.8943 6.82 39.0943 7.42C39.2943 8.00667 39.3943 8.64667 39.3943 9.34C39.4076 10.0467 39.3076 10.6933 39.0943 11.28C38.8943 11.8667 38.6076 12.38 38.2343 12.82C37.861 13.26 37.4076 13.6 36.8743 13.84C36.3543 14.08 35.761 14.2 35.0943 14.2ZM35.3543 12.5C35.9143 12.5 36.4143 12.3667 36.8543 12.1C37.3076 11.8333 37.661 11.4667 37.9143 11C38.181 10.52 38.3143 9.97333 38.3143 9.36C38.3143 8.73333 38.181 8.18667 37.9143 7.72C37.661 7.24 37.3076 6.86667 36.8543 6.6C36.4143 6.33333 35.9143 6.2 35.3543 6.2C34.7943 6.2 34.2876 6.33333 33.8343 6.6C33.381 6.86667 33.021 7.24 32.7543 7.72C32.501 8.18667 32.3743 8.73333 32.3743 9.36C32.3743 9.97333 32.501 10.52 32.7543 11C33.021 11.4667 33.381 11.8333 33.8343 12.1C34.301 12.3667 34.8076 12.5 35.3543 12.5ZM39.2743 14.2C38.981 14.2 38.7676 14.1467 38.6343 14.04C38.501 13.9333 38.421 13.7533 38.3943 13.5V0.98C38.3943 0.78 38.4076 0.613333 38.4343 0.479999C38.4743 0.346666 38.5543 0.246666 38.6743 0.179999C38.8076 0.0999993 39.001 0.0599995 39.2543 0.0599995C39.5076 0.0599995 39.6943 0.0999993 39.8143 0.179999C39.9476 0.246666 40.0343 0.346666 40.0743 0.479999C40.1143 0.613333 40.1343 0.773333 40.1343 0.96V13.28C40.1343 13.4667 40.1143 13.6333 40.0743 13.78C40.0343 13.9133 39.9543 14.0133 39.8343 14.08C39.7143 14.16 39.5276 14.2 39.2743 14.2ZM46.8763 14.32C46.223 14.32 45.5963 14.1933 44.9963 13.94C44.4097 13.6867 43.883 13.34 43.4163 12.9C42.9497 12.4467 42.583 11.92 42.3163 11.32C42.0497 10.72 41.9163 10.0667 41.9163 9.36C41.9163 8.66667 42.043 8.02667 42.2963 7.44C42.5497 6.84 42.903 6.31333 43.3563 5.86C43.8097 5.40667 44.3297 5.05333 44.9163 4.8C45.5163 4.53333 46.1563 4.4 46.8363 4.4C47.7563 4.4 48.583 4.62 49.3163 5.06C50.063 5.48667 50.6563 6.07333 51.0963 6.82C51.5363 7.56667 51.7563 8.40667 51.7563 9.34C51.7563 10.0733 51.623 10.7467 51.3563 11.36C51.0897 11.96 50.7297 12.48 50.2763 12.92C49.823 13.36 49.303 13.7067 48.7163 13.96C48.1297 14.2 47.5163 14.32 46.8763 14.32ZM46.8363 12.58C47.3963 12.58 47.9163 12.44 48.3963 12.16C48.8763 11.88 49.263 11.4933 49.5563 11C49.8497 10.5067 49.9963 9.94667 49.9963 9.32C49.9963 8.69333 49.8563 8.14 49.5763 7.66C49.3097 7.18 48.9363 6.80667 48.4563 6.54C47.9763 6.27333 47.4297 6.14 46.8163 6.14C46.2297 6.14 45.6963 6.28 45.2163 6.56C44.7497 6.84 44.3697 7.22 44.0763 7.7C43.7963 8.18 43.6563 8.72667 43.6563 9.34C43.6563 9.98 43.803 10.5467 44.0963 11.04C44.3897 11.52 44.7763 11.9 45.2563 12.18C45.7497 12.4467 46.2763 12.58 46.8363 12.58ZM54.5677 14.18C54.3144 14.18 54.1211 14.14 53.9877 14.06C53.8677 13.9933 53.7877 13.8933 53.7477 13.76C53.7211 13.6267 53.7077 13.4667 53.7077 13.28V5.34C53.7077 5.16667 53.7277 5.02 53.7677 4.9C53.8077 4.78 53.8877 4.68667 54.0077 4.62C54.1411 4.55333 54.3344 4.52 54.5877 4.52C54.7877 4.52 54.9411 4.54667 55.0477 4.6C55.1677 4.64 55.2477 4.7 55.2877 4.78C55.3411 4.86 55.3744 4.94667 55.3877 5.04C55.4011 5.13333 55.4077 5.22 55.4077 5.3L55.3677 6.22C55.5011 5.99333 55.6677 5.78 55.8677 5.58C56.0677 5.36667 56.3011 5.18 56.5677 5.02C56.8344 4.84667 57.1211 4.71333 57.4277 4.62C57.7477 4.52667 58.0877 4.48 58.4477 4.48C59.0344 4.48 59.5744 4.58667 60.0677 4.8C60.5611 5 60.9811 5.3 61.3277 5.7C61.6877 6.08667 61.9611 6.55333 62.1477 7.1C62.3477 7.64667 62.4477 8.26667 62.4477 8.96V13.3C62.4477 13.4867 62.4277 13.6467 62.3877 13.78C62.3611 13.9133 62.2811 14.0133 62.1477 14.08C62.0277 14.1467 61.8411 14.18 61.5877 14.18C61.3211 14.18 61.1211 14.14 60.9877 14.06C60.8677 13.9933 60.7877 13.8933 60.7477 13.76C60.7077 13.6267 60.6877 13.4667 60.6877 13.28V8.94C60.6877 8.38 60.5944 7.89333 60.4077 7.48C60.2211 7.06667 59.9411 6.74667 59.5677 6.52C59.1944 6.28 58.7211 6.16 58.1477 6.16C57.6011 6.16 57.1211 6.28 56.7077 6.52C56.3077 6.74667 55.9944 7.06667 55.7677 7.48C55.5544 7.89333 55.4477 8.38 55.4477 8.94V13.3C55.4477 13.4867 55.4277 13.6467 55.3877 13.78C55.3477 13.9133 55.2611 14.0133 55.1277 14.08C55.0077 14.1467 54.8211 14.18 54.5677 14.18Z" fill="#FEFEFE" fill-opacity="0.7"/>
</svg>
