<svg width="1920" height="720" viewBox="0 0 1920 720" fill="none" xmlns="http://www.w3.org/2000/svg">
<rect width="1920" height="720" fill="#FCFCFC"/>
<path d="M705.88 449.8C694.88 449.8 686.593 446.647 681.02 440.34C675.447 434.033 672.22 424.28 671.34 411.08C670.46 397.88 671.487 380.94 674.42 360.26C678.967 328.727 685.42 305.773 693.78 291.4C702.287 277.027 713.873 269.84 728.54 269.84C739.833 269.84 748.193 272.993 753.62 279.3C759.193 285.607 762.347 295.433 763.08 308.78C763.96 321.98 763.007 339.14 760.22 360.26C756.113 391.353 749.807 414.087 741.3 428.46C732.793 442.687 720.987 449.8 705.88 449.8ZM707.86 430C713.433 430 717.98 427.58 721.5 422.74C725.167 417.9 728.247 410.347 730.74 400.08C733.233 389.667 735.727 376.393 738.22 360.26C742.033 335.62 743.207 317.727 741.74 306.58C740.273 295.287 735.433 289.64 727.22 289.64C721.793 289.64 717.247 292.133 713.58 297.12C709.913 301.96 706.76 309.587 704.12 320C701.48 330.413 698.913 343.833 696.42 360.26C692.753 384.607 691.727 402.353 693.34 413.5C694.953 424.5 699.793 430 707.86 430ZM808.452 447.6H787.112L808.012 298.44C805.518 299.173 802.878 299.833 800.092 300.42C797.305 300.86 794.518 301.08 791.732 301.08L793.052 283.92C797.158 283.187 801.705 281.72 806.692 279.52C811.825 277.173 815.932 274.68 819.012 272.04L833.092 273.14L808.452 447.6Z" fill="black" fill-opacity="0.66"/>
<path d="M902.11 341.55H888.85L898.54 272.87H910.695C916.532 272.87 920.952 274.315 923.955 277.205C927.015 280.038 928.942 284.09 929.735 289.36C930.585 294.63 930.528 300.835 929.565 307.975C928.715 314.832 927.213 320.782 925.06 325.825C922.907 330.812 919.96 334.693 916.22 337.47C912.48 340.19 907.777 341.55 902.11 341.55ZM909.76 280.69L906.19 280.605L898.71 333.73H903.13C908.003 333.73 911.8 331.548 914.52 327.185C917.297 322.765 919.252 316.447 920.385 308.23C921.745 298.767 921.547 291.825 919.79 287.405C918.033 282.985 914.69 280.747 909.76 280.69ZM965.933 327.525C964.573 332.228 962.391 335.883 959.388 338.49C956.385 341.097 952.843 342.4 948.763 342.4C944.456 342.4 941.283 341.238 939.243 338.915C937.203 336.535 935.985 333.305 935.588 329.225C935.248 325.145 935.39 320.498 936.013 315.285C936.693 310.072 937.77 305.482 939.243 301.515C940.773 297.548 942.87 294.46 945.533 292.25C948.196 289.983 951.511 288.85 955.478 288.85C959.615 288.85 962.703 290.012 964.743 292.335C966.783 294.602 967.973 297.888 968.313 302.195C968.71 306.502 968.483 311.687 967.633 317.75H943.833C943.493 320.697 943.351 323.473 943.408 326.08C943.465 328.63 943.946 330.727 944.853 332.37C945.76 333.957 947.318 334.75 949.528 334.75C953.608 334.75 956.555 331.973 958.368 326.42L965.933 327.525ZM954.798 296.5C952.361 296.5 950.35 297.718 948.763 300.155C947.176 302.592 945.901 306.133 944.938 310.78H959.983C960.21 308.06 960.238 305.623 960.068 303.47C959.898 301.317 959.388 299.617 958.538 298.37C957.745 297.123 956.498 296.5 954.798 296.5ZM978.571 327.865C978.685 330.132 979.365 331.86 980.611 333.05C981.915 334.24 983.388 334.835 985.031 334.835C986.335 334.835 987.525 334.438 988.601 333.645C989.735 332.795 990.443 331.407 990.726 329.48C991.066 327.61 990.896 325.91 990.216 324.38C989.536 322.85 988.545 321.405 987.241 320.045C985.995 318.628 984.635 317.24 983.161 315.88C981.745 314.463 980.441 312.962 979.251 311.375C978.061 309.788 977.183 308.003 976.616 306.02C976.106 303.98 976.135 301.685 976.701 299.135C977.211 296.698 978.146 294.743 979.506 293.27C980.923 291.74 982.566 290.635 984.436 289.955C986.363 289.218 988.318 288.85 990.301 288.85C992.568 288.85 994.693 289.36 996.676 290.38C998.716 291.343 1000.33 292.873 1001.52 294.97C1002.71 297.067 1003.16 299.787 1002.88 303.13H995.571C995.685 300.693 995.203 298.937 994.126 297.86C993.05 296.727 991.775 296.16 990.301 296.16C989.111 296.16 988.006 296.5 986.986 297.18C986.023 297.86 985.371 299.107 985.031 300.92C984.748 302.393 984.946 303.81 985.626 305.17C986.363 306.473 987.326 307.777 988.516 309.08C989.763 310.383 991.095 311.743 992.511 313.16C993.928 314.577 995.231 316.107 996.421 317.75C997.611 319.393 998.49 321.207 999.056 323.19C999.68 325.173 999.765 327.44 999.311 329.99C998.858 332.767 997.866 335.09 996.336 336.96C994.806 338.773 992.993 340.133 990.896 341.04C988.8 341.947 986.618 342.4 984.351 342.4C982.028 342.4 979.818 341.89 977.721 340.87C975.681 339.85 974.01 338.292 972.706 336.195C971.46 334.098 970.836 331.435 970.836 328.205L978.571 327.865ZM1017.49 284.09C1015.91 284.09 1014.72 283.552 1013.92 282.475C1013.13 281.398 1012.85 280.01 1013.07 278.31C1013.36 276.667 1013.98 275.307 1014.94 274.23C1015.91 273.097 1017.27 272.53 1019.02 272.53C1020.67 272.53 1021.89 273.097 1022.68 274.23C1023.47 275.307 1023.73 276.667 1023.44 278.31C1023.22 280.01 1022.59 281.398 1021.57 282.475C1020.61 283.552 1019.25 284.09 1017.49 284.09ZM1013.41 341.55H1005.17L1012.48 289.7H1020.72L1013.41 341.55ZM1054.57 336.62C1053.55 343.873 1051.63 349.483 1048.79 353.45C1046.02 357.417 1041.82 359.4 1036.21 359.4C1032.64 359.4 1029.56 358.295 1026.95 356.085C1024.4 353.875 1022.53 350.787 1021.34 346.82L1029.33 344.27C1030.01 346.537 1031.03 348.322 1032.39 349.625C1033.75 350.928 1035.28 351.58 1036.98 351.58C1039.47 351.58 1041.57 350.447 1043.27 348.18C1045.03 345.913 1046.16 342.088 1046.67 336.705C1045.42 338.462 1044.01 339.85 1042.42 340.87C1040.89 341.89 1039.25 342.4 1037.49 342.4C1035.62 342.4 1033.86 341.918 1032.22 340.955C1030.63 340.048 1029.27 338.547 1028.14 336.45C1027.06 334.297 1026.38 331.407 1026.1 327.78C1025.82 324.153 1026.04 319.677 1026.78 314.35C1027.97 305.737 1030.12 299.362 1033.24 295.225C1036.41 291.032 1040.07 288.935 1044.2 288.935C1048 288.935 1050.75 290.663 1052.45 294.12L1053.04 289.7H1061.29L1054.57 336.62ZM1035.19 315.285C1034.74 318.912 1034.49 322.198 1034.43 325.145C1034.37 328.092 1034.74 330.443 1035.53 332.2C1036.33 333.9 1037.72 334.75 1039.7 334.75C1041.06 334.75 1042.28 334.268 1043.35 333.305C1044.49 332.285 1045.45 330.982 1046.24 329.395C1047.04 327.808 1047.66 326.137 1048.11 324.38L1050.83 305.425C1050.89 302.818 1050.38 300.693 1049.3 299.05C1048.28 297.407 1046.84 296.585 1044.97 296.585C1043.21 296.585 1041.68 297.435 1040.38 299.135C1039.08 300.835 1038 303.102 1037.15 305.935C1036.3 308.768 1035.65 311.885 1035.19 315.285ZM1072.43 341.55H1064.19L1071.58 289.7H1079.32L1078.89 294.715C1080.31 292.618 1081.87 291.117 1083.57 290.21C1085.32 289.303 1087.02 288.85 1088.67 288.85C1090.71 288.85 1092.52 289.36 1094.11 290.38C1095.75 291.343 1096.94 292.93 1097.68 295.14C1098.47 297.35 1098.58 300.353 1098.02 304.15L1092.75 341.55H1084.42L1089.6 305.51C1090.45 299.503 1089.01 296.5 1085.27 296.5C1083.45 296.5 1081.87 297.35 1080.51 299.05C1079.15 300.75 1078.15 302.932 1077.53 305.595L1072.43 341.55ZM888.935 443.55L898.54 374.87H909.845C913.755 374.87 917.07 375.635 919.79 377.165C922.51 378.695 924.493 380.792 925.74 383.455C927.043 386.118 927.468 389.178 927.015 392.635C926.108 399.548 922.34 404.252 915.71 406.745C918.77 407.765 921.093 409.21 922.68 411.08C924.323 412.893 925.4 414.933 925.91 417.2C926.42 419.41 926.533 421.62 926.25 423.83C925.513 429.893 922.992 434.71 918.685 438.28C914.435 441.793 908.627 443.55 901.26 443.55H888.935ZM908.91 382.52L906.02 382.435L903.13 402.835L906.7 402.75C909.93 402.693 912.508 401.758 914.435 399.945C916.418 398.132 917.608 395.752 918.005 392.805C918.458 389.518 917.892 386.997 916.305 385.24C914.718 383.483 912.253 382.577 908.91 382.52ZM903.81 410.825H902.025L898.54 435.56H902.28C906.133 435.56 909.42 434.597 912.14 432.67C914.917 430.687 916.588 427.797 917.155 424C917.665 420.147 916.815 416.973 914.605 414.48C912.452 411.93 908.853 410.712 903.81 410.825ZM961.306 443.55H953.486L953.911 438.875C952.664 440.575 951.248 441.907 949.661 442.87C948.131 443.89 946.516 444.4 944.816 444.4C942.096 444.4 939.744 443.493 937.761 441.68C935.834 439.867 934.503 436.92 933.766 432.84C933.029 428.703 933.143 423.207 934.106 416.35C935.296 407.737 937.449 401.362 940.566 397.225C943.739 393.032 947.394 390.935 951.531 390.935C955.328 390.935 958.076 392.663 959.776 396.12L960.371 391.7H968.616L961.306 443.55ZM942.521 417.285C942.068 420.912 941.813 424.198 941.756 427.145C941.756 430.092 942.153 432.443 942.946 434.2C943.739 435.9 945.099 436.75 947.026 436.75C948.386 436.75 949.604 436.268 950.681 435.305C951.814 434.285 952.778 432.982 953.571 431.395C954.364 429.808 954.988 428.137 955.441 426.38L958.161 407.425C958.218 404.818 957.708 402.693 956.631 401.05C955.611 399.407 954.166 398.585 952.296 398.585C950.539 398.585 949.009 399.435 947.706 401.135C946.403 402.835 945.326 405.102 944.476 407.935C943.626 410.768 942.974 413.885 942.521 417.285ZM1003.13 430.035C1002 434.455 1000.04 437.968 997.268 440.575C994.491 443.125 991.034 444.4 986.898 444.4C981.401 444.4 977.633 442.247 975.593 437.94C973.553 433.577 973.128 426.833 974.318 417.71C975.508 408.473 977.661 401.702 980.778 397.395C983.951 393.032 988.229 390.85 993.613 390.85C997.636 390.85 1000.7 392.097 1002.79 394.59C1004.95 397.083 1006.19 400.342 1006.53 404.365L998.628 405.64C998.458 403.77 997.948 402.127 997.098 400.71C996.304 399.237 994.916 398.5 992.933 398.5C990.439 398.5 988.371 400.058 986.728 403.175C985.084 406.292 983.781 411.137 982.818 417.71C981.911 424.227 981.826 429.043 982.563 432.16C983.299 435.22 985.056 436.75 987.833 436.75C989.476 436.75 991.006 436.098 992.423 434.795C993.839 433.435 994.916 431.48 995.653 428.93L1003.13 430.035ZM1016.65 443.55H1008.41L1018.52 372.15H1026.77L1020.39 417.03L1036.71 391.7H1045.55L1030.85 413.375L1037.73 443.635H1029.23L1024.47 420.94L1018.61 429.525L1016.65 443.55ZM1072.42 438.62C1071.4 445.873 1069.47 451.483 1066.64 455.45C1063.86 459.417 1059.67 461.4 1054.06 461.4C1050.49 461.4 1047.4 460.295 1044.8 458.085C1042.25 455.875 1040.38 452.787 1039.19 448.82L1047.18 446.27C1047.86 448.537 1048.88 450.322 1050.24 451.625C1051.6 452.928 1053.13 453.58 1054.83 453.58C1057.32 453.58 1059.42 452.447 1061.12 450.18C1062.87 447.913 1064.01 444.088 1064.52 438.705C1063.27 440.462 1061.85 441.85 1060.27 442.87C1058.74 443.89 1057.09 444.4 1055.34 444.4C1053.47 444.4 1051.71 443.918 1050.07 442.955C1048.48 442.048 1047.12 440.547 1045.99 438.45C1044.91 436.297 1044.23 433.407 1043.95 429.78C1043.66 426.153 1043.89 421.677 1044.63 416.35C1045.82 407.737 1047.97 401.362 1051.09 397.225C1054.26 393.032 1057.91 390.935 1062.05 390.935C1065.85 390.935 1068.6 392.663 1070.3 396.12L1070.89 391.7H1079.14L1072.42 438.62ZM1053.04 417.285C1052.59 420.912 1052.33 424.198 1052.28 427.145C1052.22 430.092 1052.59 432.443 1053.38 434.2C1054.17 435.9 1055.56 436.75 1057.55 436.75C1058.91 436.75 1060.12 436.268 1061.2 435.305C1062.33 434.285 1063.3 432.982 1064.09 431.395C1064.88 429.808 1065.51 428.137 1065.96 426.38L1068.68 407.425C1068.74 404.818 1068.23 402.693 1067.15 401.05C1066.13 399.407 1064.69 398.585 1062.82 398.585C1061.06 398.585 1059.53 399.435 1058.23 401.135C1056.92 402.835 1055.85 405.102 1055 407.935C1054.15 410.768 1053.49 413.885 1053.04 417.285ZM1090.11 443.55H1082.03L1089.34 391.445H1097.42L1096.48 397.99C1098.13 395.497 1100.08 393.712 1102.35 392.635C1104.61 391.558 1106.99 391.02 1109.49 391.02L1108.38 399.435C1105.27 399.038 1102.43 399.832 1099.88 401.815C1097.33 403.742 1095.6 406.83 1094.7 411.08L1090.11 443.55ZM1121.36 444.4C1115.87 444.4 1112.1 442.247 1110.06 437.94C1108.02 433.577 1107.59 426.833 1108.78 417.71C1109.97 408.473 1112.13 401.702 1115.24 397.395C1118.42 393.032 1122.7 390.85 1128.08 390.85C1133.63 390.85 1137.43 393.032 1139.47 397.395C1141.51 401.702 1141.93 408.473 1140.74 417.71C1139.55 426.833 1137.37 433.577 1134.2 437.94C1131.08 442.247 1126.8 444.4 1121.36 444.4ZM1121.96 436.75C1124.57 436.75 1126.69 435.22 1128.33 432.16C1130.03 429.043 1131.34 424.227 1132.24 417.71C1133.21 411.137 1133.29 406.292 1132.5 403.175C1131.71 400.058 1130.01 398.5 1127.4 398.5C1124.91 398.5 1122.84 400.058 1121.19 403.175C1119.55 406.292 1118.25 411.137 1117.28 417.71C1116.38 424.227 1116.29 429.043 1117.03 432.16C1117.77 435.22 1119.41 436.75 1121.96 436.75ZM1172.72 391.7H1180.97L1173.57 443.55H1165.84L1166.26 438.535C1164.84 440.632 1163.26 442.133 1161.5 443.04C1159.8 443.947 1158.13 444.4 1156.49 444.4C1154.45 444.4 1152.6 443.89 1150.96 442.87C1149.37 441.907 1148.21 440.32 1147.48 438.11C1146.74 435.843 1146.63 432.84 1147.14 429.1L1152.41 391.7H1160.74L1155.55 427.74C1154.7 433.747 1156.15 436.75 1159.89 436.75C1161.7 436.75 1163.29 435.9 1164.65 434.2C1166.01 432.5 1167 430.318 1167.62 427.655L1172.72 391.7ZM1191.17 443.55H1182.92L1190.32 391.7H1198.05L1197.63 396.715C1199.05 394.618 1200.6 393.117 1202.3 392.21C1204.06 391.303 1205.76 390.85 1207.4 390.85C1209.44 390.85 1211.26 391.36 1212.84 392.38C1214.49 393.343 1215.68 394.93 1216.41 397.14C1217.21 399.35 1217.32 402.353 1216.75 406.15L1211.48 443.55H1203.15L1208.34 407.51C1209.19 401.503 1207.74 398.5 1204 398.5C1202.19 398.5 1200.6 399.35 1199.24 401.05C1197.88 402.75 1196.89 404.932 1196.27 407.595L1191.17 443.55ZM1251.82 443.55H1244L1244.42 438.875C1243.18 440.575 1241.76 441.907 1240.17 442.87C1238.64 443.89 1237.03 444.4 1235.33 444.4C1233.46 444.4 1231.7 443.947 1230.06 443.04C1228.42 442.133 1227.06 440.603 1225.98 438.45C1224.9 436.297 1224.22 433.435 1223.94 429.865C1223.66 426.238 1223.88 421.733 1224.62 416.35C1225.87 407.737 1228.05 401.362 1231.16 397.225C1234.28 393.032 1237.91 390.935 1242.04 390.935C1245.84 390.935 1248.59 392.663 1250.29 396.12L1253.69 372.15H1261.93L1251.82 443.55ZM1233.03 417.285C1232.58 420.912 1232.33 424.198 1232.27 427.145C1232.21 430.092 1232.58 432.443 1233.37 434.2C1234.17 435.9 1235.56 436.75 1237.54 436.75C1238.9 436.75 1240.12 436.268 1241.19 435.305C1242.33 434.285 1243.29 432.982 1244.08 431.395C1244.88 429.808 1245.5 428.108 1245.95 426.295L1248.67 407.51C1248.73 404.903 1248.25 402.778 1247.23 401.135C1246.21 399.435 1244.74 398.585 1242.81 398.585C1241.05 398.585 1239.52 399.435 1238.22 401.135C1236.92 402.835 1235.84 405.102 1234.99 407.935C1234.14 410.768 1233.49 413.885 1233.03 417.285Z" fill="black" fill-opacity="0.7"/>
</svg>
