<svg width="1920" height="720" viewBox="0 0 1920 720" fill="none" xmlns="http://www.w3.org/2000/svg">
<rect width="1920" height="720" fill="#FCFCFC"/>
<path d="M502.88 449.8C491.88 449.8 483.593 446.647 478.02 440.34C472.447 434.033 469.22 424.28 468.34 411.08C467.46 397.88 468.487 380.94 471.42 360.26C475.967 328.727 482.42 305.773 490.78 291.4C499.287 277.027 510.873 269.84 525.54 269.84C536.833 269.84 545.193 272.993 550.62 279.3C556.193 285.607 559.347 295.433 560.08 308.78C560.96 321.98 560.007 339.14 557.22 360.26C553.113 391.353 546.807 414.087 538.3 428.46C529.793 442.687 517.987 449.8 502.88 449.8ZM504.86 430C510.433 430 514.98 427.58 518.5 422.74C522.167 417.9 525.247 410.347 527.74 400.08C530.233 389.667 532.727 376.393 535.22 360.26C539.033 335.62 540.207 317.727 538.74 306.58C537.273 295.287 532.433 289.64 524.22 289.64C518.793 289.64 514.247 292.133 510.58 297.12C506.913 301.96 503.76 309.587 501.12 320C498.48 330.413 495.913 343.833 493.42 360.26C489.753 384.607 488.727 402.353 490.34 413.5C491.953 424.5 496.793 430 504.86 430ZM640.371 426.7L635.091 447.6H562.711C564.471 435.133 567.111 424.28 570.631 415.04C574.298 405.653 578.405 397.367 582.951 390.18C587.645 382.993 592.411 376.54 597.251 370.82C602.238 364.953 607.005 359.38 611.551 354.1C616.245 348.673 620.351 343.1 623.871 337.38C627.538 331.66 630.325 325.353 632.231 318.46C633.551 313.62 633.991 309 633.551 304.6C633.258 300.053 632.011 296.387 629.811 293.6C627.758 290.667 624.458 289.2 619.911 289.2C615.071 289.2 610.891 291.033 607.371 294.7C603.851 298.367 600.991 304.16 598.791 312.08L579.431 307.68C581.338 300.64 584.125 294.26 587.791 288.54C591.458 282.673 596.151 278.053 601.871 274.68C607.738 271.307 614.778 269.693 622.991 269.84C632.085 269.987 639.198 272.553 644.331 277.54C649.465 282.527 652.765 288.76 654.231 296.24C655.845 303.573 655.698 311.127 653.791 318.9C651.445 328.14 648.145 336.427 643.891 343.76C639.638 350.947 634.871 357.693 629.591 364C624.311 370.16 618.958 376.393 613.531 382.7C608.251 388.86 603.411 395.46 599.011 402.5C594.611 409.54 591.165 417.607 588.671 426.7H640.371Z" fill="black" fill-opacity="0.66"/>
<path d="M698.435 341.55H689.935L699.54 272.87H711.865C718.778 272.87 723.85 274.598 727.08 278.055C730.31 281.455 731.528 286.187 730.735 292.25C730.168 296.387 728.553 299.928 725.89 302.875C723.283 305.765 719.912 307.833 715.775 309.08L725.635 341.55H716.54L707.53 310.355C707.303 310.355 707.048 310.355 706.765 310.355H702.77L698.435 341.55ZM711.525 280.86H706.935L703.96 302.28H706.765C711.468 302.223 715.01 301.232 717.39 299.305C719.77 297.322 721.187 294.602 721.64 291.145C722.093 287.972 721.442 285.478 719.685 283.665C717.928 281.795 715.208 280.86 711.525 280.86ZM763.696 327.525C762.336 332.228 760.154 335.883 757.151 338.49C754.147 341.097 750.606 342.4 746.526 342.4C742.219 342.4 739.046 341.238 737.006 338.915C734.966 336.535 733.747 333.305 733.351 329.225C733.011 325.145 733.152 320.498 733.776 315.285C734.456 310.072 735.532 305.482 737.006 301.515C738.536 297.548 740.632 294.46 743.296 292.25C745.959 289.983 749.274 288.85 753.241 288.85C757.377 288.85 760.466 290.012 762.506 292.335C764.546 294.602 765.736 297.888 766.076 302.195C766.472 306.502 766.246 311.687 765.396 317.75H741.596C741.256 320.697 741.114 323.473 741.171 326.08C741.227 328.63 741.709 330.727 742.616 332.37C743.522 333.957 745.081 334.75 747.291 334.75C751.371 334.75 754.317 331.973 756.131 326.42L763.696 327.525ZM752.561 296.5C750.124 296.5 748.112 297.718 746.526 300.155C744.939 302.592 743.664 306.133 742.701 310.78H757.746C757.972 308.06 758.001 305.623 757.831 303.47C757.661 301.317 757.151 299.617 756.301 298.37C755.507 297.123 754.261 296.5 752.561 296.5ZM776.334 327.865C776.448 330.132 777.128 331.86 778.374 333.05C779.678 334.24 781.151 334.835 782.794 334.835C784.098 334.835 785.288 334.438 786.364 333.645C787.498 332.795 788.206 331.407 788.489 329.48C788.829 327.61 788.659 325.91 787.979 324.38C787.299 322.85 786.308 321.405 785.004 320.045C783.758 318.628 782.398 317.24 780.924 315.88C779.508 314.463 778.204 312.962 777.014 311.375C775.824 309.788 774.946 308.003 774.379 306.02C773.869 303.98 773.898 301.685 774.464 299.135C774.974 296.698 775.909 294.743 777.269 293.27C778.686 291.74 780.329 290.635 782.199 289.955C784.126 289.218 786.081 288.85 788.064 288.85C790.331 288.85 792.456 289.36 794.439 290.38C796.479 291.343 798.094 292.873 799.284 294.97C800.474 297.067 800.928 299.787 800.644 303.13H793.334C793.448 300.693 792.966 298.937 791.889 297.86C790.813 296.727 789.538 296.16 788.064 296.16C786.874 296.16 785.769 296.5 784.749 297.18C783.786 297.86 783.134 299.107 782.794 300.92C782.511 302.393 782.709 303.81 783.389 305.17C784.126 306.473 785.089 307.777 786.279 309.08C787.526 310.383 788.858 311.743 790.274 313.16C791.691 314.577 792.994 316.107 794.184 317.75C795.374 319.393 796.253 321.207 796.819 323.19C797.443 325.173 797.528 327.44 797.074 329.99C796.621 332.767 795.629 335.09 794.099 336.96C792.569 338.773 790.756 340.133 788.659 341.04C786.563 341.947 784.381 342.4 782.114 342.4C779.791 342.4 777.581 341.89 775.484 340.87C773.444 339.85 771.773 338.292 770.469 336.195C769.223 334.098 768.599 331.435 768.599 328.205L776.334 327.865ZM834.996 327.525C833.636 332.228 831.454 335.883 828.451 338.49C825.448 341.097 821.906 342.4 817.826 342.4C813.519 342.4 810.346 341.238 808.306 338.915C806.266 336.535 805.048 333.305 804.651 329.225C804.311 325.145 804.453 320.498 805.076 315.285C805.756 310.072 806.833 305.482 808.306 301.515C809.836 297.548 811.933 294.46 814.596 292.25C817.259 289.983 820.574 288.85 824.541 288.85C828.678 288.85 831.766 290.012 833.806 292.335C835.846 294.602 837.036 297.888 837.376 302.195C837.773 306.502 837.546 311.687 836.696 317.75H812.896C812.556 320.697 812.414 323.473 812.471 326.08C812.528 328.63 813.009 330.727 813.916 332.37C814.823 333.957 816.381 334.75 818.591 334.75C822.671 334.75 825.618 331.973 827.431 326.42L834.996 327.525ZM823.861 296.5C821.424 296.5 819.413 297.718 817.826 300.155C816.239 302.592 814.964 306.133 814.001 310.78H829.046C829.273 308.06 829.301 305.623 829.131 303.47C828.961 301.317 828.451 299.617 827.601 298.37C826.808 297.123 825.561 296.5 823.861 296.5ZM871.415 341.55H863.595L864.02 336.875C862.773 338.575 861.356 339.907 859.77 340.87C858.24 341.89 856.625 342.4 854.925 342.4C852.205 342.4 849.853 341.493 847.87 339.68C845.943 337.867 844.611 334.92 843.875 330.84C843.138 326.703 843.251 321.207 844.215 314.35C845.405 305.737 847.558 299.362 850.675 295.225C853.848 291.032 857.503 288.935 861.64 288.935C865.436 288.935 868.185 290.663 869.885 294.12L870.48 289.7H878.725L871.415 341.55ZM852.63 315.285C852.176 318.912 851.921 322.198 851.865 325.145C851.865 328.092 852.261 330.443 853.055 332.2C853.848 333.9 855.208 334.75 857.135 334.75C858.495 334.75 859.713 334.268 860.79 333.305C861.923 332.285 862.886 330.982 863.68 329.395C864.473 327.808 865.096 326.137 865.55 324.38L868.27 305.425C868.326 302.818 867.816 300.693 866.74 299.05C865.72 297.407 864.275 296.585 862.405 296.585C860.648 296.585 859.118 297.435 857.815 299.135C856.511 300.835 855.435 303.102 854.585 305.935C853.735 308.768 853.083 311.885 852.63 315.285ZM889.696 341.55H881.621L888.931 289.445H897.006L896.071 295.99C897.715 293.497 899.67 291.712 901.936 290.635C904.203 289.558 906.583 289.02 909.076 289.02L907.971 297.435C904.855 297.038 902.021 297.832 899.471 299.815C896.921 301.742 895.193 304.83 894.286 309.08L889.696 341.55ZM937.187 328.035C936.054 332.455 934.099 335.968 931.322 338.575C928.546 341.125 925.089 342.4 920.952 342.4C915.456 342.4 911.687 340.247 909.647 335.94C907.607 331.577 907.182 324.833 908.372 315.71C909.562 306.473 911.716 299.702 914.832 295.395C918.006 291.032 922.284 288.85 927.667 288.85C931.691 288.85 934.751 290.097 936.847 292.59C939.001 295.083 940.247 298.342 940.587 302.365L932.682 303.64C932.512 301.77 932.002 300.127 931.152 298.71C930.359 297.237 928.971 296.5 926.987 296.5C924.494 296.5 922.426 298.058 920.782 301.175C919.139 304.292 917.836 309.137 916.872 315.71C915.966 322.227 915.881 327.043 916.617 330.16C917.354 333.22 919.111 334.75 921.887 334.75C923.531 334.75 925.061 334.098 926.477 332.795C927.894 331.435 928.971 329.48 929.707 326.93L937.187 328.035ZM950.708 341.55H942.463L952.578 270.15H960.823L957.423 294.12C958.839 292.42 960.398 291.23 962.098 290.55C963.854 289.813 965.469 289.445 966.943 289.445C968.983 289.445 970.796 289.927 972.383 290.89C974.026 291.853 975.244 293.44 976.038 295.65C976.831 297.86 976.944 300.863 976.378 304.66L971.193 341.635H962.778L967.793 306.02C968.643 300.013 967.169 297.01 963.373 297.01C959.576 297.01 957.054 299.9 955.808 305.68L950.708 341.55ZM1014.7 342.4C1009.21 342.4 1005.44 340.247 1003.4 335.94C1001.36 331.577 1000.93 324.833 1002.12 315.71C1003.31 306.473 1005.47 299.702 1008.58 295.395C1011.76 291.032 1016.04 288.85 1021.42 288.85C1026.97 288.85 1030.77 291.032 1032.81 295.395C1034.85 299.702 1035.27 306.473 1034.08 315.71C1032.89 324.833 1030.71 331.577 1027.54 335.94C1024.42 340.247 1020.14 342.4 1014.7 342.4ZM1015.3 334.75C1017.91 334.75 1020.03 333.22 1021.67 330.16C1023.37 327.043 1024.68 322.227 1025.58 315.71C1026.55 309.137 1026.63 304.292 1025.84 301.175C1025.05 298.058 1023.35 296.5 1020.74 296.5C1018.25 296.5 1016.18 298.058 1014.53 301.175C1012.89 304.292 1011.59 309.137 1010.62 315.71C1009.72 322.227 1009.63 327.043 1010.37 330.16C1011.11 333.22 1012.75 334.75 1015.3 334.75ZM1047.53 341.55H1039.29L1046.68 289.7H1054.42L1053.99 294.715C1055.41 292.618 1056.97 291.117 1058.67 290.21C1060.42 289.303 1062.12 288.85 1063.77 288.85C1065.81 288.85 1067.62 289.36 1069.21 290.38C1070.85 291.343 1072.04 292.93 1072.78 295.14C1073.57 297.35 1073.68 300.353 1073.12 304.15L1067.85 341.55H1059.52L1064.7 305.51C1065.55 299.503 1064.11 296.5 1060.37 296.5C1058.55 296.5 1056.97 297.35 1055.61 299.05C1054.25 300.75 1053.25 302.932 1052.63 305.595L1047.53 341.55ZM1109.58 341.55H1096.32L1106.01 272.87H1118.16C1124 272.87 1128.42 274.315 1131.42 277.205C1134.48 280.038 1136.41 284.09 1137.2 289.36C1138.05 294.63 1138 300.835 1137.03 307.975C1136.18 314.832 1134.68 320.782 1132.53 325.825C1130.38 330.812 1127.43 334.693 1123.69 337.47C1119.95 340.19 1115.25 341.55 1109.58 341.55ZM1117.23 280.69L1113.66 280.605L1106.18 333.73H1110.6C1115.47 333.73 1119.27 331.548 1121.99 327.185C1124.77 322.765 1126.72 316.447 1127.85 308.23C1129.21 298.767 1129.02 291.825 1127.26 287.405C1125.5 282.985 1122.16 280.747 1117.23 280.69ZM1173.4 327.525C1172.04 332.228 1169.86 335.883 1166.86 338.49C1163.85 341.097 1160.31 342.4 1156.23 342.4C1151.93 342.4 1148.75 341.238 1146.71 338.915C1144.67 336.535 1143.45 333.305 1143.06 329.225C1142.72 325.145 1142.86 320.498 1143.48 315.285C1144.16 310.072 1145.24 305.482 1146.71 301.515C1148.24 297.548 1150.34 294.46 1153 292.25C1155.67 289.983 1158.98 288.85 1162.95 288.85C1167.08 288.85 1170.17 290.012 1172.21 292.335C1174.25 294.602 1175.44 297.888 1175.78 302.195C1176.18 306.502 1175.95 311.687 1175.1 317.75H1151.3C1150.96 320.697 1150.82 323.473 1150.88 326.08C1150.93 328.63 1151.42 330.727 1152.32 332.37C1153.23 333.957 1154.79 334.75 1157 334.75C1161.08 334.75 1164.02 331.973 1165.84 326.42L1173.4 327.525ZM1162.27 296.5C1159.83 296.5 1157.82 297.718 1156.23 300.155C1154.65 302.592 1153.37 306.133 1152.41 310.78H1167.45C1167.68 308.06 1167.71 305.623 1167.54 303.47C1167.37 301.317 1166.86 299.617 1166.01 298.37C1165.21 297.123 1163.97 296.5 1162.27 296.5ZM1185.51 358.55H1177.27L1187.13 289.7H1194.86L1194.52 293.695C1196.96 290.465 1200.02 288.85 1203.7 288.85C1208.01 288.85 1211.12 291.06 1213.05 295.48C1214.98 299.843 1215.46 306.303 1214.5 314.86C1213.87 320.187 1212.77 324.947 1211.18 329.14C1209.65 333.277 1207.64 336.535 1205.15 338.915C1202.71 341.238 1199.85 342.4 1196.56 342.4C1192.88 342.4 1190.19 340.785 1188.49 337.555L1185.51 358.55ZM1201.32 296.5C1199.45 296.5 1197.81 297.237 1196.39 298.71C1194.97 300.127 1193.93 302.053 1193.25 304.49L1190.19 325.57C1190.07 328.233 1190.53 330.443 1191.55 332.2C1192.62 333.9 1194.1 334.75 1195.97 334.75C1197.89 334.75 1199.48 333.872 1200.73 332.115C1202.03 330.358 1203.11 328.035 1203.96 325.145C1204.81 322.255 1205.46 319.11 1205.91 315.71C1206.48 311.913 1206.7 308.57 1206.59 305.68C1206.53 302.79 1206.08 300.552 1205.23 298.965C1204.44 297.322 1203.13 296.5 1201.32 296.5ZM1227.69 341.55H1219.61L1226.92 289.445H1235L1234.06 295.99C1235.71 293.497 1237.66 291.712 1239.93 290.635C1242.19 289.558 1244.57 289.02 1247.07 289.02L1245.96 297.435C1242.85 297.038 1240.01 297.832 1237.46 299.815C1234.91 301.742 1233.18 304.83 1232.28 309.08L1227.69 341.55ZM1276.37 327.525C1275.01 332.228 1272.83 335.883 1269.82 338.49C1266.82 341.097 1263.28 342.4 1259.2 342.4C1254.89 342.4 1251.72 341.238 1249.68 338.915C1247.64 336.535 1246.42 333.305 1246.02 329.225C1245.68 325.145 1245.83 320.498 1246.45 315.285C1247.13 310.072 1248.21 305.482 1249.68 301.515C1251.21 297.548 1253.31 294.46 1255.97 292.25C1258.63 289.983 1261.95 288.85 1265.91 288.85C1270.05 288.85 1273.14 290.012 1275.18 292.335C1277.22 294.602 1278.41 297.888 1278.75 302.195C1279.15 306.502 1278.92 311.687 1278.07 317.75H1254.27C1253.93 320.697 1253.79 323.473 1253.84 326.08C1253.9 328.63 1254.38 330.727 1255.29 332.37C1256.2 333.957 1257.75 334.75 1259.96 334.75C1264.04 334.75 1266.99 331.973 1268.8 326.42L1276.37 327.525ZM1265.23 296.5C1262.8 296.5 1260.79 297.718 1259.2 300.155C1257.61 302.592 1256.34 306.133 1255.37 310.78H1270.42C1270.65 308.06 1270.67 305.623 1270.5 303.47C1270.33 301.317 1269.82 299.617 1268.97 298.37C1268.18 297.123 1266.93 296.5 1265.23 296.5ZM1289.01 327.865C1289.12 330.132 1289.8 331.86 1291.05 333.05C1292.35 334.24 1293.82 334.835 1295.47 334.835C1296.77 334.835 1297.96 334.438 1299.04 333.645C1300.17 332.795 1300.88 331.407 1301.16 329.48C1301.5 327.61 1301.33 325.91 1300.65 324.38C1299.97 322.85 1298.98 321.405 1297.68 320.045C1296.43 318.628 1295.07 317.24 1293.6 315.88C1292.18 314.463 1290.88 312.962 1289.69 311.375C1288.5 309.788 1287.62 308.003 1287.05 306.02C1286.54 303.98 1286.57 301.685 1287.14 299.135C1287.65 296.698 1288.58 294.743 1289.94 293.27C1291.36 291.74 1293 290.635 1294.87 289.955C1296.8 289.218 1298.75 288.85 1300.74 288.85C1303 288.85 1305.13 289.36 1307.11 290.38C1309.15 291.343 1310.77 292.873 1311.96 294.97C1313.15 297.067 1313.6 299.787 1313.32 303.13H1306.01C1306.12 300.693 1305.64 298.937 1304.56 297.86C1303.49 296.727 1302.21 296.16 1300.74 296.16C1299.55 296.16 1298.44 296.5 1297.42 297.18C1296.46 297.86 1295.81 299.107 1295.47 300.92C1295.18 302.393 1295.38 303.81 1296.06 305.17C1296.8 306.473 1297.76 307.777 1298.95 309.08C1300.2 310.383 1301.53 311.743 1302.95 313.16C1304.36 314.577 1305.67 316.107 1306.86 317.75C1308.05 319.393 1308.93 321.207 1309.49 323.19C1310.12 325.173 1310.2 327.44 1309.75 329.99C1309.29 332.767 1308.3 335.09 1306.77 336.96C1305.24 338.773 1303.43 340.133 1301.33 341.04C1299.24 341.947 1297.05 342.4 1294.79 342.4C1292.46 342.4 1290.25 341.89 1288.16 340.87C1286.12 339.85 1284.45 338.292 1283.14 336.195C1281.9 334.098 1281.27 331.435 1281.27 328.205L1289.01 327.865ZM1322.08 327.865C1322.2 330.132 1322.88 331.86 1324.12 333.05C1325.43 334.24 1326.9 334.835 1328.54 334.835C1329.85 334.835 1331.04 334.438 1332.11 333.645C1333.25 332.795 1333.96 331.407 1334.24 329.48C1334.58 327.61 1334.41 325.91 1333.73 324.38C1333.05 322.85 1332.06 321.405 1330.75 320.045C1329.51 318.628 1328.15 317.24 1326.67 315.88C1325.26 314.463 1323.95 312.962 1322.76 311.375C1321.57 309.788 1320.7 308.003 1320.13 306.02C1319.62 303.98 1319.65 301.685 1320.21 299.135C1320.72 296.698 1321.66 294.743 1323.02 293.27C1324.44 291.74 1326.08 290.635 1327.95 289.955C1329.88 289.218 1331.83 288.85 1333.81 288.85C1336.08 288.85 1338.21 289.36 1340.19 290.38C1342.23 291.343 1343.84 292.873 1345.03 294.97C1346.22 297.067 1346.68 299.787 1346.39 303.13H1339.08C1339.2 300.693 1338.72 298.937 1337.64 297.86C1336.56 296.727 1335.29 296.16 1333.81 296.16C1332.62 296.16 1331.52 296.5 1330.5 297.18C1329.54 297.86 1328.88 299.107 1328.54 300.92C1328.26 302.393 1328.46 303.81 1329.14 305.17C1329.88 306.473 1330.84 307.777 1332.03 309.08C1333.28 310.383 1334.61 311.743 1336.02 313.16C1337.44 314.577 1338.74 316.107 1339.93 317.75C1341.12 319.393 1342 321.207 1342.57 323.19C1343.19 325.173 1343.28 327.44 1342.82 329.99C1342.37 332.767 1341.38 335.09 1339.85 336.96C1338.32 338.773 1336.51 340.133 1334.41 341.04C1332.31 341.947 1330.13 342.4 1327.86 342.4C1325.54 342.4 1323.33 341.89 1321.23 340.87C1319.19 339.85 1317.52 338.292 1316.22 336.195C1314.97 334.098 1314.35 331.435 1314.35 328.205L1322.08 327.865ZM1361.01 284.09C1359.42 284.09 1358.23 283.552 1357.44 282.475C1356.64 281.398 1356.36 280.01 1356.59 278.31C1356.87 276.667 1357.49 275.307 1358.46 274.23C1359.42 273.097 1360.78 272.53 1362.54 272.53C1364.18 272.53 1365.4 273.097 1366.19 274.23C1366.98 275.307 1367.24 276.667 1366.96 278.31C1366.73 280.01 1366.11 281.398 1365.09 282.475C1364.12 283.552 1362.76 284.09 1361.01 284.09ZM1356.93 341.55H1348.68L1355.99 289.7H1364.24L1356.93 341.55ZM1382.7 342.4C1377.2 342.4 1373.44 340.247 1371.4 335.94C1369.36 331.577 1368.93 324.833 1370.12 315.71C1371.31 306.473 1373.46 299.702 1376.58 295.395C1379.75 291.032 1384.03 288.85 1389.42 288.85C1394.97 288.85 1398.77 291.032 1400.81 295.395C1402.85 299.702 1403.27 306.473 1402.08 315.71C1400.89 324.833 1398.71 331.577 1395.54 335.94C1392.42 340.247 1388.14 342.4 1382.7 342.4ZM1383.3 334.75C1385.9 334.75 1388.03 333.22 1389.67 330.16C1391.37 327.043 1392.67 322.227 1393.58 315.71C1394.54 309.137 1394.63 304.292 1393.84 301.175C1393.04 298.058 1391.34 296.5 1388.74 296.5C1386.24 296.5 1384.17 298.058 1382.53 301.175C1380.89 304.292 1379.58 309.137 1378.62 315.71C1377.71 322.227 1377.63 327.043 1378.37 330.16C1379.1 333.22 1380.75 334.75 1383.3 334.75ZM1415.53 341.55H1407.28L1414.68 289.7H1422.41L1421.99 294.715C1423.4 292.618 1424.96 291.117 1426.66 290.21C1428.42 289.303 1430.12 288.85 1431.76 288.85C1433.8 288.85 1435.62 289.36 1437.2 290.38C1438.85 291.343 1440.04 292.93 1440.77 295.14C1441.57 297.35 1441.68 300.353 1441.11 304.15L1435.84 341.55H1427.51L1432.7 305.51C1433.55 299.503 1432.1 296.5 1428.36 296.5C1426.55 296.5 1424.96 297.35 1423.6 299.05C1422.24 300.75 1421.25 302.932 1420.63 305.595L1415.53 341.55ZM719.6 443.55H711.78L712.205 438.875C710.958 440.575 709.542 441.907 707.955 442.87C706.425 443.89 704.81 444.4 703.11 444.4C700.39 444.4 698.038 443.493 696.055 441.68C694.128 439.867 692.797 436.92 692.06 432.84C691.323 428.703 691.437 423.207 692.4 416.35C693.59 407.737 695.743 401.362 698.86 397.225C702.033 393.032 705.688 390.935 709.825 390.935C713.622 390.935 716.37 392.663 718.07 396.12L718.665 391.7H726.91L719.6 443.55ZM700.815 417.285C700.362 420.912 700.107 424.198 700.05 427.145C700.05 430.092 700.447 432.443 701.24 434.2C702.033 435.9 703.393 436.75 705.32 436.75C706.68 436.75 707.898 436.268 708.975 435.305C710.108 434.285 711.072 432.982 711.865 431.395C712.658 429.808 713.282 428.137 713.735 426.38L716.455 407.425C716.512 404.818 716.002 402.693 714.925 401.05C713.905 399.407 712.46 398.585 710.59 398.585C708.833 398.585 707.303 399.435 706 401.135C704.697 402.835 703.62 405.102 702.77 407.935C701.92 410.768 701.268 413.885 700.815 417.285ZM738.052 443.55H729.807L737.202 391.7H744.937L744.512 396.715C745.928 394.618 747.487 393.117 749.187 392.21C750.943 391.303 752.643 390.85 754.287 390.85C756.327 390.85 758.14 391.36 759.727 392.38C761.37 393.343 762.56 394.93 763.297 397.14C764.09 399.35 764.203 402.353 763.637 406.15L758.367 443.55H750.037L755.222 407.51C756.072 401.503 754.627 398.5 750.887 398.5C749.073 398.5 747.487 399.35 746.127 401.05C744.767 402.75 743.775 404.932 743.152 407.595L738.052 443.55ZM798.703 443.55H790.883L791.308 438.875C790.061 440.575 788.645 441.907 787.058 442.87C785.528 443.89 783.913 444.4 782.213 444.4C780.343 444.4 778.586 443.947 776.943 443.04C775.3 442.133 773.94 440.603 772.863 438.45C771.786 436.297 771.106 433.435 770.823 429.865C770.54 426.238 770.766 421.733 771.503 416.35C772.75 407.737 774.931 401.362 778.048 397.225C781.165 393.032 784.791 390.935 788.928 390.935C792.725 390.935 795.473 392.663 797.173 396.12L800.573 372.15H808.818L798.703 443.55ZM779.918 417.285C779.465 420.912 779.21 424.198 779.153 427.145C779.096 430.092 779.465 432.443 780.258 434.2C781.051 435.9 782.44 436.75 784.423 436.75C785.783 436.75 787.001 436.268 788.078 435.305C789.211 434.285 790.175 432.982 790.968 431.395C791.761 429.808 792.385 428.108 792.838 426.295L795.558 407.51C795.615 404.903 795.133 402.778 794.113 401.135C793.093 399.435 791.62 398.585 789.693 398.585C787.936 398.585 786.406 399.435 785.103 401.135C783.8 402.835 782.723 405.102 781.873 407.935C781.023 410.768 780.371 413.885 779.918 417.285ZM835.889 443.55H827.389L836.994 374.87H845.494L835.889 443.55ZM849.399 428.505L853.989 399.18H848.464L849.569 391.7H855.179L857.389 377.42H865.209L863.084 391.7H872.689L871.584 399.18H861.894L857.644 427.57C857.191 430.687 857.162 433.01 857.559 434.54C858.012 436.013 859.032 436.75 860.619 436.75C861.979 436.75 863.424 436.212 864.954 435.135L867.589 442.105C865.832 442.898 863.991 443.522 862.064 443.975C860.194 444.428 858.381 444.542 856.624 444.315C854.867 444.088 853.337 443.408 852.034 442.275C850.787 441.198 849.881 439.555 849.314 437.345C848.804 435.078 848.832 432.132 849.399 428.505ZM878.842 429.865C878.956 432.132 879.636 433.86 880.882 435.05C882.186 436.24 883.659 436.835 885.302 436.835C886.606 436.835 887.796 436.438 888.872 435.645C890.006 434.795 890.714 433.407 890.997 431.48C891.337 429.61 891.167 427.91 890.487 426.38C889.807 424.85 888.816 423.405 887.512 422.045C886.266 420.628 884.906 419.24 883.432 417.88C882.016 416.463 880.712 414.962 879.522 413.375C878.332 411.788 877.454 410.003 876.887 408.02C876.377 405.98 876.406 403.685 876.972 401.135C877.482 398.698 878.417 396.743 879.777 395.27C881.194 393.74 882.837 392.635 884.707 391.955C886.634 391.218 888.589 390.85 890.572 390.85C892.839 390.85 894.964 391.36 896.947 392.38C898.987 393.343 900.602 394.873 901.792 396.97C902.982 399.067 903.436 401.787 903.152 405.13H895.842C895.956 402.693 895.474 400.937 894.397 399.86C893.321 398.727 892.046 398.16 890.572 398.16C889.382 398.16 888.277 398.5 887.257 399.18C886.294 399.86 885.642 401.107 885.302 402.92C885.019 404.393 885.217 405.81 885.897 407.17C886.634 408.473 887.597 409.777 888.787 411.08C890.034 412.383 891.366 413.743 892.782 415.16C894.199 416.577 895.502 418.107 896.692 419.75C897.882 421.393 898.761 423.207 899.327 425.19C899.951 427.173 900.036 429.44 899.582 431.99C899.129 434.767 898.137 437.09 896.607 438.96C895.077 440.773 893.264 442.133 891.167 443.04C889.071 443.947 886.889 444.4 884.622 444.4C882.299 444.4 880.089 443.89 877.992 442.87C875.952 441.85 874.281 440.292 872.977 438.195C871.731 436.098 871.107 433.435 871.107 430.205L878.842 429.865ZM942.196 443.55H933.696L942.196 382.945H928.256L929.276 374.87H965.741L964.636 382.945H950.696L942.196 443.55ZM969.132 443.55H960.887L971.002 372.15H979.247L975.847 396.12C977.264 394.42 978.822 393.23 980.522 392.55C982.279 391.813 983.894 391.445 985.367 391.445C987.407 391.445 989.22 391.927 990.807 392.89C992.45 393.853 993.669 395.44 994.462 397.65C995.255 399.86 995.369 402.863 994.802 406.66L989.617 443.635H981.202L986.217 408.02C987.067 402.013 985.594 399.01 981.797 399.01C978 399.01 975.479 401.9 974.232 407.68L969.132 443.55ZM1032.67 429.525C1031.31 434.228 1029.13 437.883 1026.12 440.49C1023.12 443.097 1019.58 444.4 1015.5 444.4C1011.19 444.4 1008.02 443.238 1005.98 440.915C1003.94 438.535 1002.72 435.305 1002.32 431.225C1001.98 427.145 1002.12 422.498 1002.75 417.285C1003.43 412.072 1004.5 407.482 1005.98 403.515C1007.51 399.548 1009.6 396.46 1012.27 394.25C1014.93 391.983 1018.25 390.85 1022.21 390.85C1026.35 390.85 1029.44 392.012 1031.48 394.335C1033.52 396.602 1034.71 399.888 1035.05 404.195C1035.44 408.502 1035.22 413.687 1034.37 419.75H1010.57C1010.23 422.697 1010.09 425.473 1010.14 428.08C1010.2 430.63 1010.68 432.727 1011.59 434.37C1012.49 435.957 1014.05 436.75 1016.26 436.75C1020.34 436.75 1023.29 433.973 1025.1 428.42L1032.67 429.525ZM1021.53 398.5C1019.1 398.5 1017.08 399.718 1015.5 402.155C1013.91 404.592 1012.64 408.133 1011.67 412.78H1026.72C1026.94 410.06 1026.97 407.623 1026.8 405.47C1026.63 403.317 1026.12 401.617 1025.27 400.37C1024.48 399.123 1023.23 398.5 1021.53 398.5ZM1047.82 443.55H1039.74L1047.05 391.445H1055.13L1054.19 397.99C1055.83 395.497 1057.79 393.712 1060.06 392.635C1062.32 391.558 1064.7 391.02 1067.2 391.02L1066.09 399.435C1062.97 399.038 1060.14 399.832 1057.59 401.815C1055.04 403.742 1053.31 406.83 1052.41 411.08L1047.82 443.55ZM1093.86 443.55H1086.04L1086.47 438.875C1085.22 440.575 1083.8 441.907 1082.22 442.87C1080.69 443.89 1079.07 444.4 1077.37 444.4C1074.65 444.4 1072.3 443.493 1070.32 441.68C1068.39 439.867 1067.06 436.92 1066.32 432.84C1065.59 428.703 1065.7 423.207 1066.66 416.35C1067.85 407.737 1070.01 401.362 1073.12 397.225C1076.3 393.032 1079.95 390.935 1084.09 390.935C1087.88 390.935 1090.63 392.663 1092.33 396.12L1092.93 391.7H1101.17L1093.86 443.55ZM1075.08 417.285C1074.62 420.912 1074.37 424.198 1074.31 427.145C1074.31 430.092 1074.71 432.443 1075.5 434.2C1076.3 435.9 1077.66 436.75 1079.58 436.75C1080.94 436.75 1082.16 436.268 1083.24 435.305C1084.37 434.285 1085.33 432.982 1086.13 431.395C1086.92 429.808 1087.54 428.137 1088 426.38L1090.72 407.425C1090.77 404.818 1090.26 402.693 1089.19 401.05C1088.17 399.407 1086.72 398.585 1084.85 398.585C1083.1 398.585 1081.57 399.435 1080.26 401.135C1078.96 402.835 1077.88 405.102 1077.03 407.935C1076.18 410.768 1075.53 413.885 1075.08 417.285ZM1109.93 460.55H1101.69L1111.55 391.7H1119.28L1118.94 395.695C1121.38 392.465 1124.44 390.85 1128.12 390.85C1132.43 390.85 1135.55 393.06 1137.47 397.48C1139.4 401.843 1139.88 408.303 1138.92 416.86C1138.3 422.187 1137.19 426.947 1135.6 431.14C1134.07 435.277 1132.06 438.535 1129.57 440.915C1127.13 443.238 1124.27 444.4 1120.98 444.4C1117.3 444.4 1114.61 442.785 1112.91 439.555L1109.93 460.55ZM1125.74 398.5C1123.87 398.5 1122.23 399.237 1120.81 400.71C1119.4 402.127 1118.35 404.053 1117.67 406.49L1114.61 427.57C1114.5 430.233 1114.95 432.443 1115.97 434.2C1117.05 435.9 1118.52 436.75 1120.39 436.75C1122.32 436.75 1123.9 435.872 1125.15 434.115C1126.45 432.358 1127.53 430.035 1128.38 427.145C1129.23 424.255 1129.88 421.11 1130.33 417.71C1130.9 413.913 1131.13 410.57 1131.01 407.68C1130.96 404.79 1130.5 402.552 1129.65 400.965C1128.86 399.322 1127.56 398.5 1125.74 398.5ZM1157.11 386.09C1155.52 386.09 1154.33 385.552 1153.54 384.475C1152.74 383.398 1152.46 382.01 1152.69 380.31C1152.97 378.667 1153.59 377.307 1154.56 376.23C1155.52 375.097 1156.88 374.53 1158.64 374.53C1160.28 374.53 1161.5 375.097 1162.29 376.23C1163.08 377.307 1163.34 378.667 1163.06 380.31C1162.83 382.01 1162.21 383.398 1161.19 384.475C1160.22 385.552 1158.86 386.09 1157.11 386.09ZM1153.03 443.55H1144.78L1152.09 391.7H1160.34L1153.03 443.55ZM1196.23 429.525C1194.87 434.228 1192.68 437.883 1189.68 440.49C1186.68 443.097 1183.14 444.4 1179.06 444.4C1174.75 444.4 1171.58 443.238 1169.54 440.915C1167.5 438.535 1166.28 435.305 1165.88 431.225C1165.54 427.145 1165.68 422.498 1166.31 417.285C1166.99 412.072 1168.06 407.482 1169.54 403.515C1171.07 399.548 1173.16 396.46 1175.83 394.25C1178.49 391.983 1181.8 390.85 1185.77 390.85C1189.91 390.85 1193 392.012 1195.04 394.335C1197.08 396.602 1198.27 399.888 1198.61 404.195C1199 408.502 1198.78 413.687 1197.93 419.75H1174.13C1173.79 422.697 1173.64 425.473 1173.7 428.08C1173.76 430.63 1174.24 432.727 1175.15 434.37C1176.05 435.957 1177.61 436.75 1179.82 436.75C1183.9 436.75 1186.85 433.973 1188.66 428.42L1196.23 429.525ZM1185.09 398.5C1182.65 398.5 1180.64 399.718 1179.06 402.155C1177.47 404.592 1176.19 408.133 1175.23 412.78H1190.28C1190.5 410.06 1190.53 407.623 1190.36 405.47C1190.19 403.317 1189.68 401.617 1188.83 400.37C1188.04 399.123 1186.79 398.5 1185.09 398.5ZM1208.86 429.865C1208.98 432.132 1209.66 433.86 1210.9 435.05C1212.21 436.24 1213.68 436.835 1215.32 436.835C1216.63 436.835 1217.82 436.438 1218.89 435.645C1220.03 434.795 1220.74 433.407 1221.02 431.48C1221.36 429.61 1221.19 427.91 1220.51 426.38C1219.83 424.85 1218.84 423.405 1217.53 422.045C1216.29 420.628 1214.93 419.24 1213.45 417.88C1212.04 416.463 1210.73 414.962 1209.54 413.375C1208.35 411.788 1207.48 410.003 1206.91 408.02C1206.4 405.98 1206.43 403.685 1206.99 401.135C1207.5 398.698 1208.44 396.743 1209.8 395.27C1211.22 393.74 1212.86 392.635 1214.73 391.955C1216.66 391.218 1218.61 390.85 1220.59 390.85C1222.86 390.85 1224.99 391.36 1226.97 392.38C1229.01 393.343 1230.62 394.873 1231.81 396.97C1233 399.067 1233.46 401.787 1233.17 405.13H1225.86C1225.98 402.693 1225.5 400.937 1224.42 399.86C1223.34 398.727 1222.07 398.16 1220.59 398.16C1219.4 398.16 1218.3 398.5 1217.28 399.18C1216.32 399.86 1215.66 401.107 1215.32 402.92C1215.04 404.393 1215.24 405.81 1215.92 407.17C1216.66 408.473 1217.62 409.777 1218.81 411.08C1220.06 412.383 1221.39 413.743 1222.8 415.16C1224.22 416.577 1225.52 418.107 1226.71 419.75C1227.9 421.393 1228.78 423.207 1229.35 425.19C1229.97 427.173 1230.06 429.44 1229.6 431.99C1229.15 434.767 1228.16 437.09 1226.63 438.96C1225.1 440.773 1223.29 442.133 1221.19 443.04C1219.09 443.947 1216.91 444.4 1214.64 444.4C1212.32 444.4 1210.11 443.89 1208.01 442.87C1205.97 441.85 1204.3 440.292 1203 438.195C1201.75 436.098 1201.13 433.435 1201.13 430.205L1208.86 429.865Z" fill="black" fill-opacity="0.7"/>
</svg>
